<svg xmlns="http://www.w3.org/2000/svg" viewBox="0 0 623.62 211.18"><defs><style>.cls-1{fill:#fff;}</style></defs><g id="Layer_2" data-name="Layer 2"><g id="PRINT"><path class="cls-1" d="M307.25,29.42a2.18,2.18,0,1,0,2.18,2.18A2.18,2.18,0,0,0,307.25,29.42Z"/><path class="cls-1" d="M241.45,100.68c-3.43-.55-3.36-4.87-3.33-5.36l3,.08c0,1.12.34,2.57.88,2.65a3.69,3.69,0,0,0,3.32-1.42c.46-.88-.5-1.82-1.38-2.46a4.93,4.93,0,0,0-5.12-.66A5.15,5.15,0,0,0,236,99.6c.37,1.23,1.55,3.21,5.31,2.92a15.57,15.57,0,0,0,5.07-1.18,14.54,14.54,0,0,1,.74-2.44A7.13,7.13,0,0,1,241.45,100.68Z"/><path class="cls-1" d="M248.39,96.57a14.44,14.44,0,0,1,.92-1.22c-.36,0-.68,0-1-.06A3.58,3.58,0,0,1,248.39,96.57Z"/><path class="cls-1" d="M175.84,121.36c-1.67-1.67-9.82-3.12-9.67,3S177,128.22,177,128.22C178.92,125.58,177.51,123,175.84,121.36Z"/><path class="cls-1" d="M382.17,100.68a7.13,7.13,0,0,1-5.67-1.78,15.57,15.57,0,0,1,.75,2.44,15.44,15.44,0,0,0,5.06,1.18c3.76.29,4.95-1.69,5.31-2.92a5.15,5.15,0,0,0-2.79-6.09,5,5,0,0,0-5.13.66c-.88.64-1.84,1.58-1.38,2.46a3.69,3.69,0,0,0,3.32,1.42c.54-.08.92-1.53.88-2.65l3-.08C385.53,95.81,385.6,100.13,382.17,100.68Z"/><path class="cls-1" d="M375.23,96.57a4.11,4.11,0,0,1,.09-1.28c-.33,0-.64.06-1,.06A12.58,12.58,0,0,1,375.23,96.57Z"/><path class="cls-1" d="M314.74,32.19A2.18,2.18,0,1,0,312.56,30,2.17,2.17,0,0,0,314.74,32.19Z"/><path class="cls-1" d="M457.45,124.33c.15-6.09-8-4.64-9.67-3s-3.08,4.22-1.14,6.86C446.64,128.22,457.29,130.42,457.45,124.33Z"/><path class="cls-1" d="M314.74,36.41a2.18,2.18,0,1,0-2.18,2.18A2.19,2.19,0,0,0,314.74,36.41Z"/><path class="cls-1" d="M534.89,122.44c0-6.32-3.72-11.73-10.14-14.73-5.2-2.43-10.75-2.54-15.19-.33a12.82,12.82,0,0,0-7.39,10.34,12,12,0,0,0,2,7.67,30.48,30.48,0,0,1-5.61-5,70.44,70.44,0,0,1-8.27-11.47c-4.22-7-7.87-13-21.28-16.4a5.94,5.94,0,0,0-.71-.14,43,43,0,0,0-15.6-3c-18-.4-28.48,7.8-36.58,15.65,0-.43.08-.87.1-1.31a30.47,30.47,0,0,0-13.16-27.35,29.12,29.12,0,0,0-19.79-4.66c4.4-6,6.69-13.39,5.52-18.37-2-8.51-7.42-15.66-10.23-18.9-4.77-9-10.9-7.78-12.71-7.16A8.45,8.45,0,0,0,362,29.9q-.78-.28-1.65-.54c-4.08-1.2-9.73.24-12.13,4.73a9,9,0,0,0,.29,8.86,9.11,9.11,0,0,0,.11,2.49,9.57,9.57,0,0,0,1.56,3.69,28.37,28.37,0,0,0-10.94-.26,12.4,12.4,0,0,0,.86-4.51l0-.77a18.59,18.59,0,0,0-.08-2.84,11.53,11.53,0,0,0,1.59-1.51l.25-.27a12.15,12.15,0,0,0,4-11,6.5,6.5,0,0,0,2.3-8.14,6.67,6.67,0,0,0-6-3.77c-.38,0-.68,0-.92,0-.16-.23-.35-.48-.55-.72a13.92,13.92,0,0,0-7.38-5.18l-.76-.24A18.64,18.64,0,0,0,329,9a10.34,10.34,0,0,0-1.27-2.12c-.06-.08-.12-.16-.19-.27A13.42,13.42,0,0,0,315.2,0,16.87,16.87,0,0,0,312,.46l-.14,0-.14,0A16.86,16.86,0,0,0,308.44,0a13.44,13.44,0,0,0-12.32,6.56,2.93,2.93,0,0,1-.19.26A11.33,11.33,0,0,0,294.66,9a19,19,0,0,0-3.64.9l-.67.21a13.94,13.94,0,0,0-7.41,5.14c-.23.28-.43.54-.6.79-.25,0-.55,0-.93,0a6.68,6.68,0,0,0-6,3.77,6.5,6.5,0,0,0,2.3,8.14,12.18,12.18,0,0,0,4,11c.1.09.16.18.23.25a11,11,0,0,0,1.59,1.51,18.59,18.59,0,0,0-.08,2.84l0,.78a12.56,12.56,0,0,0,.86,4.5,28.37,28.37,0,0,0-10.94.26A9.57,9.57,0,0,0,275,45.44,8.73,8.73,0,0,0,275.1,43a9,9,0,0,0,.29-8.86c-2.4-4.48-8.05-5.93-12.1-4.74-.59.17-1.15.35-1.68.55a8.45,8.45,0,0,0-3.83-2.66c-1.81-.62-7.94-1.87-12.71,7.16-2.8,3.24-8.26,10.38-10.23,18.88-1.17,5,1.12,12.44,5.52,18.39a29,29,0,0,0-19.78,4.66,30.45,30.45,0,0,0-13.17,27.35c0,.44.06.87.1,1.31-8.09-7.85-18.57-16-36.6-15.65a43,43,0,0,0-15.58,3,5.94,5.94,0,0,0-.71.14c-13.41,3.41-17.05,9.43-21.27,16.39a71.22,71.22,0,0,1-8.29,11.5,30,30,0,0,1-5.6,5,12,12,0,0,0,2-7.64,12.76,12.76,0,0,0-7.34-10.34c-4.49-2.24-10-2.13-15.24.3-6.43,3-10.1,8.42-10.14,14.74h0A88.73,88.73,0,0,0,0,211.18v-3.41H623.62v3.4a88.73,88.73,0,0,0-88.72-88.73Zm-6.55,1.3c-.57,5.24-5.08,10.69-9.79,11.92l-.25.09c-8.94,3.37-18.49,0-26.93-9.4a79.23,79.23,0,0,1-9.28-12.85c-2.64-4.3-4.44-7.3-8.48-9.55a23,23,0,0,1,4.88,13.85c.31,6.38-3.25,12-9.75,15.49a25.63,25.63,0,0,1-6.63,2.41,3,3,0,0,0-1,.18c-.46.08-.92.17-1.37.23l.3.08c-7.08,2-10.59-1.28-10.59-1.28-.28-.13-.55-.21-.8-.35a15.49,15.49,0,0,1-4.37-3.32c-1.22-.32-2.46-.65-3.7-1-4.45-1.33-6.49-2.52-10.88-1.9-5.53.75-11.29,6.94-11.71,7.42-4.78,5.67-1.69,9.23-3.09,14.61l-2.46,2.2c-.59-1.22-8.12-7.67-1.17-18.86,2.75-4.42,7.94-7.2,15.42-8.22,5.11-.7,10.05.79,14.84,2.21.29.08.59.15.89.25,0-.14-.11-.25-.15-.38a7.88,7.88,0,0,1-.22-1.83,10.62,10.62,0,0,1,2.28-6.16c1.8-2.31,7.37-4.14,12.78-1.36,3.18,1.64,4.74,4.52,4.06,7.54-.79,3.44-4.19,6.06-8.49,6.52a19.77,19.77,0,0,1-2.55,0l.06,0c4.22,2.27,11.38,1.74,17-1.28,3.24-1.71,8.64-5.71,8.29-13.08-.61-12.55-8.36-19.07-23.05-19.39-16.45-.35-24.78,8-32.85,16.16a90.49,90.49,0,0,1-7.88,7.33c-5.44,4.34-25.07,18.07-49.11,12.84l.08-.26C348,133.66,334.28,126,323,111.82c-6.52-8.2-9.2-15.7-9.61-22.27H310.2c-.41,6.57-3.09,14.07-9.6,22.27-11.26,14.15-24.94,21.84-39.67,22.77l.08.26c-24,5.23-43.68-8.5-49.12-12.84a90.49,90.49,0,0,1-7.88-7.33c-8.07-8.12-16.4-16.51-32.85-16.16-14.68.32-22.44,6.84-23,19.39-.35,7.37,5,11.37,8.29,13.08,5.65,3,12.81,3.55,17,1.28l.06,0a19.77,19.77,0,0,1-2.55,0c-4.3-.46-7.7-3.08-8.49-6.52-.68-3,.88-5.9,4.07-7.54,5.41-2.78,11-.95,12.77,1.36a10.62,10.62,0,0,1,2.28,6.16,7.88,7.88,0,0,1-.22,1.83c0,.13-.12.24-.15.38.3-.1.6-.17.89-.25,4.79-1.42,9.74-2.91,14.84-2.21,7.48,1,12.67,3.8,15.42,8.22,7,11.19-.57,17.64-1.17,18.86l-2.46-2.2c-1.4-5.38,1.69-8.94-3.08-14.61-.43-.48-6.18-6.67-11.71-7.42-4.4-.62-6.44.57-10.89,1.9-1.24.36-2.48.69-3.7,1a15.34,15.34,0,0,1-4.37,3.32c-.25.14-.52.22-.8.35,0,0-3.51,3.29-10.58,1.28l.3-.08c-.46-.06-.92-.15-1.38-.23a3,3,0,0,0-1-.18,25.57,25.57,0,0,1-6.64-2.41c-6.5-3.44-10-9.11-9.75-15.49A23.17,23.17,0,0,1,150,104c-4,2.25-5.84,5.25-8.48,9.55a78.62,78.62,0,0,1-9.28,12.85c-8.43,9.44-18,12.77-26.93,9.4l-.25-.09c-4.7-1.23-9.22-6.68-9.79-11.92-.49-4.4,1.76-8,6.34-10.14,3.39-1.59,6.88-1.72,9.59-.38A6.4,6.4,0,0,1,115,118.3c.29,3.2-2.69,5.59-3.76,6.34a1.14,1.14,0,0,1-.78.2l-.8-.09a1.13,1.13,0,0,1-.49-2.07c.85-.52,3-2.3,2.86-4.17a3.84,3.84,0,0,0-2.25-3c-1.83-.9-4.24-.76-6.75.42-4.39,2-5,5.21-4.75,7.52.5,4.47,4.48,8.77,7.68,9.62l.54.18c9.73,3.68,18.12-2.65,23.43-8.61a77.09,77.09,0,0,0,9-12.44c3.91-6.46,6.49-10.72,17.32-13.48l.08.27c3.67-1.86,8.48-3,14.76-3.19,17.84-.38,27.06,8.89,35.17,17a89.07,89.07,0,0,0,7.63,7.13c4,3.15,15.9,11.57,31.45,13.09A66,66,0,0,1,229.87,127c-9.58-5.21-15.4-13.84-16-23.72a24,24,0,0,1,10.32-21.59c7.32-5,19-5.87,26.3,2.21a15.06,15.06,0,0,1,1.49,3c2.19-.61,5.76-1,12.8-1.76a25.09,25.09,0,0,1,6.16.12c-6.24-4.41-12.48-5.7-20.18-11.81a25.31,25.31,0,0,1-4-4.18c-4.47-5.18-6.28-11.62-5.6-14.53,1.88-8.11,7.88-15.08,9.32-16.68,4-8.17,8.08-4.69,6.76,1.63,3.31-2.12,5.12-3.33,7.84-4.11s7.85,1.76,2.41,6.3c2.37,1.54,1.41,5.4-6.44,7.05,2,.39,5.45,4.91-3.18,5.21-5.81.64-7.73,1.44-9.08,4.61-1.06,2.5-.3,5.48,1.53,8.6.52.88,1.28,3.44,3.75,5.27,4.81,3.58,12.91,6.91,21,11.81,5.25,3.19,11.59,7.8,13.06,13.56,1.65,6.49,1.09,15.71-2.45,21.33s-12.83,11.35-21.44,7.29A5.07,5.07,0,0,1,262,119c1.7-2.49,5.1-2.77,8.19-1.31a3.45,3.45,0,0,0-.71,1.25c-2-.93-4.42-.48-5.43,1s-.21,3.47,1.76,4.4c7.45,3.5,14.78-1.67,17.65-6.4,3-4.38,4-13.68,2.07-19.31-2.29-5.76-5-7-12.21-7.17-6.32,1.24-6.69,3.77-6.64,8.65s-3.63,1.79-4.32,1.48c-4.56,5.74-9.09,3.36-9.08,1.58-3.87,5.18-5.86,3.46-6.76,1.26a21.19,21.19,0,0,1-4.89,1c-5,.41-7.68-2.25-8.45-4.87a7.7,7.7,0,0,1,4.4-9.22,8.07,8.07,0,0,1,6.58,0c.58-1.44,2.35-2.88,5.06-3.63a16,16,0,0,0-1.06-2.26c-6-6.63-15.88-5.81-22.09-1.62a21.5,21.5,0,0,0-9.14,19.3c.53,9,5.83,16.85,14.54,21.58,24.53,13.3,48.85,8,66.73-14.48,6.08-7.62,8.6-14.6,9-20.7H305c-.71,0-1.07-.33-1.07-.65,0-.47,1.1-.64,1.53-1.13v-2.1c-.43-.48-1.53-.67-1.53-1.13s.36-.63,1.07-.63h1.91c-1.95-13.66-13.81-21.82-14-22-5-3.34-16.42-7.67-24.05-.15-4.46,4.36-4.09,8.68-3.47,10.85.8,2.8,2.73,4.71,4.2,5.18,3.12,1,6.69.38,8.49-1.36,1.27-1.25,1.44-2.92.48-4.85-.81-1.62-1.76-2.56-2.84-2.78a4.33,4.33,0,0,0-3.06.83l-1.95-2a7.56,7.56,0,0,1,5.64-1.42c2.07.41,3.74,1.86,4.95,4.3,1.43,2.89,1.05,5.72-1,7.75-2.6,2.54-7.4,3.4-11.64,2.07-2.69-.82-5.18-3.64-6.14-7-.77-2.7-1.26-8,4.15-13.33,7.89-7.77,20.09-5.52,28.07-.18C294.94,60,308,69,310,83.91h.85v-32a5.23,5.23,0,0,1-.63,1.25c-1,1.29-1.71,1.19-3,1.76a7.34,7.34,0,0,1-7.5-.67c-1.31-.91-1.72-1.86-3.21-2.86s-3.42-1.15-4.53-2.52c-1.33-1.67-1.94-2.64-2-4.63s-.19-3.11.55-4c1-1.21,3.32-2.08,5.49-2.81a9.75,9.75,0,0,0-2.71-.25,7.73,7.73,0,0,0,1.76-1.51c-2.17.48-4.5.92-6.13.52s-1.8-1.08-2.8-2a5.58,5.58,0,0,1-1.62-6.6c.57-1.37,1.47-2-3.2-5.08,5.89-.09,5.42-1.8,6.55-3.14a7.67,7.67,0,0,1,4.3-3.11c2.15-.67,3.26-1.13,4.4-.77,1.73.54,3.5,2.47,5,4.19a5.27,5.27,0,0,0,1.22-.57c.2-.13.38-.27.56-.41-1.35-1.88-2.9-4.09-3-5.81-.08-1.55.59-1.87,1.27-3a6.89,6.89,0,0,1,6.53-3.41c1.37,0,2.27.43,3.59.57,1.32-.14,2.23-.53,3.59-.57a6.89,6.89,0,0,1,6.53,3.41c.68,1.13,1.35,1.45,1.27,3-.09,1.72-1.65,3.93-3,5.81a6,6,0,0,0,.55.41,5.27,5.27,0,0,0,1.22.57c1.54-1.72,3.31-3.65,5-4.19,1.15-.36,2.25.1,4.41.77a7.65,7.65,0,0,1,4.29,3.11c1.13,1.34.67,3.05,6.55,3.14-4.67,3.06-3.77,3.71-3.2,5.08a5.58,5.58,0,0,1-1.61,6.6c-1,.93-1.13,1.6-2.81,2s-4,0-6.13-.52a7.73,7.73,0,0,0,1.76,1.51,9.85,9.85,0,0,0-2.71.25c2.17.73,4.49,1.6,5.5,2.81.73.87.58,1.95.55,4s-.65,3-2,4.63c-1.1,1.37-3.06,1.51-4.53,2.52s-1.9,2-3.21,2.86a7.34,7.34,0,0,1-7.5.67c-1.3-.57-2-.47-3-1.76a5.65,5.65,0,0,1-.64-1.25v32h.85c2-15,15.07-24,15.27-24.1,8-5.34,20.18-7.59,28.07.18,5.41,5.31,4.92,10.63,4.15,13.33-1,3.39-3.44,6.21-6.14,7-4.24,1.33-9,.47-11.64-2.07-2.08-2-2.46-4.86-1-7.75,1.22-2.44,2.88-3.89,4.95-4.3a7.56,7.56,0,0,1,5.64,1.42l-1.95,2a4.31,4.31,0,0,0-3.06-.83c-1.08.22-2,1.16-2.84,2.78-1,1.93-.79,3.6.48,4.85,1.8,1.74,5.37,2.33,8.49,1.36,1.48-.47,3.4-2.38,4.2-5.18.63-2.17,1-6.49-3.47-10.85-7.63-7.52-19.07-3.19-24.05.15-.18.14-12.05,8.3-14,22h1.91c.71,0,1.07.31,1.07.63s-1.1.65-1.53,1.13v2.1c.43.49,1.53.66,1.53,1.13,0,.32-.36.65-1.07.65h-2.12c.4,6.1,2.93,13.08,9,20.7,17.89,22.52,42.2,27.78,66.73,14.48,8.71-4.73,14-12.61,14.54-21.58a21.46,21.46,0,0,0-9.14-19.3c-6.21-4.19-16.09-5-22.09,1.62a16,16,0,0,0-1.06,2.26c2.72.75,4.48,2.19,5.07,3.63a8,8,0,0,1,6.57,0,7.7,7.7,0,0,1,4.41,9.22c-.78,2.62-3.42,5.28-8.46,4.87a21.19,21.19,0,0,1-4.89-1c-.9,2.2-2.88,3.92-6.76-1.26,0,1.78-4.52,4.16-9.08-1.58-.69.31-4.39,3.42-4.32-1.48s-.32-7.41-6.63-8.65c-7.21.18-9.93,1.41-12.22,7.17-2,5.63-.91,14.93,2.07,19.31,2.87,4.73,10.2,9.9,17.65,6.4,2-.93,2.76-2.91,1.76-4.4s-3.44-1.93-5.42-1a3.52,3.52,0,0,0-.72-1.25c3.09-1.46,6.49-1.18,8.19,1.31a5.07,5.07,0,0,1-2.29,7.59c-8.6,4.06-17.84-1.58-21.44-7.29s-4.1-14.84-2.45-21.33c1.47-5.76,7.82-10.37,13.06-13.56,8.08-4.9,16.18-8.23,21-11.81,2.47-1.83,3.23-4.39,3.75-5.27,1.83-3.12,2.59-6.1,1.53-8.6-1.35-3.17-3.27-4-9.08-4.61-8.63-.3-5.18-4.82-3.17-5.21-7.86-1.65-8.82-5.51-6.45-7.05-5.44-4.54-.35-7.12,2.41-6.3s4.53,2,7.84,4.11c-1.32-6.32,2.8-9.8,6.76-1.63,1.44,1.6,7.44,8.57,9.32,16.68.68,2.91-1.12,9.35-5.6,14.53a24.45,24.45,0,0,1-4,4.18c-7.7,6.11-13.94,7.4-20.18,11.81a25.1,25.1,0,0,1,6.16-.12c7,.78,10.61,1.15,12.8,1.76a14.83,14.83,0,0,1,1.5-3c7.26-8.08,19-7.17,26.29-2.21a24,24,0,0,1,10.32,21.59c-.56,9.88-6.39,18.51-16,23.72a65.91,65.91,0,0,1-15.44,6.09c15.54-1.52,27.46-9.94,31.45-13.09a89,89,0,0,0,7.62-7.13c8.11-8.16,17.33-17.43,35.17-17,6.28.15,11.09,1.33,14.76,3.19l.08-.27c10.83,2.76,13.41,7,17.33,13.48a76.92,76.92,0,0,0,9,12.44c5.32,6,13.7,12.29,23.43,8.61l.54-.18c3.2-.85,7.18-5.15,7.68-9.62.25-2.31-.35-5.47-4.75-7.52-2.51-1.18-4.92-1.32-6.75-.42a3.81,3.81,0,0,0-2.24,3c-.16,1.87,2,3.65,2.85,4.17a1.13,1.13,0,0,1-.49,2.07l-.8.09a1.15,1.15,0,0,1-.78-.2c-1.07-.75-4-3.14-3.76-6.34a6.39,6.39,0,0,1,3.78-5.08c2.7-1.34,6.19-1.21,9.58.38C526.58,115.74,528.83,119.34,528.34,123.74Z"/><path class="cls-1" d="M357.29,88.11c11.66,1.63,12.6,12.77,12.6,12.77C367.56,90.86,357.29,88.11,357.29,88.11Z"/><path class="cls-1" d="M361.72,99.21a10.43,10.43,0,0,0-6.51-10.35C363.47,90.78,361.72,99.21,361.72,99.21Z"/><path class="cls-1" d="M266.47,87.79c-11.66,1.63-12.6,12.77-12.6,12.77C256.21,90.55,266.47,87.79,266.47,87.79Z"/><path class="cls-1" d="M262.05,98.89a10.43,10.43,0,0,1,6.51-10.35C260.29,90.46,262.05,98.89,262.05,98.89Z"/></g></g></svg>