<svg xmlns="http://www.w3.org/2000/svg" viewBox="0 0 199.7 285.82"><defs><style>.cls-1{fill:#d7d2c5;}.cls-2{fill:#e2ded4;}.cls-3{fill:#dedacf;}.cls-4{fill:#c4bdab;}.cls-5{fill:#c7c1b0;}.cls-6{fill:#dbd7cb;}.cls-7{fill:#d0cbbb;}.cls-8{fill:#d9d5c9;}.cls-9{fill:#d5d0c2;}.cls-10{fill:#ada48b;}.cls-11{fill:#aaa087;}.cls-12{fill:#b8b19a;}.cls-13{fill:#b6ae97;}.cls-14{fill:#bcb49f;}.cls-15{fill:#dcd8cd;}.cls-16{fill:#c2bba7;}.cls-17{fill:#ccc6b5;}.cls-18{fill:#c4bdaa;}.cls-19{fill:#b9b19b;}.cls-20{fill:#bab29c;}.cls-21{fill:#b0a78f;}.cls-22{fill:#c0b9a5;}.cls-23{fill:#b2aa92;}.cls-24{fill:#c9c3b2;}.cls-25{fill:#a8a086;}.cls-26{fill:#b6ad97;}.cls-27{fill:#cec9b9;}.cls-28{fill:#b4ab94;}.cls-29{fill:#b3ab94;}.cls-30{fill:#aea68d;}.cls-31{fill:#928768;}.cls-32{fill:#c3bdaa;}.cls-33{fill:#8a7d5c;}.cls-34{fill:#b9b29c;}.cls-35{fill:#beb7a3;}.cls-36{fill:#a59c82;}.cls-37{fill:#aca38b;}.cls-38{fill:#a1977c;}.cls-39{fill:#988c6f;}.cls-40{fill:#9a9377;}.cls-41{fill:#b2a992;}.cls-42{fill:#7a6d49;}.cls-43{fill:#a39b80;}.cls-44{fill:#a89e84;}.cls-45{fill:#9d9479;}.cls-46{fill:#a79e85;}.cls-47{fill:#9a9074;}.cls-48{fill:#948f74;}.cls-49{fill:#b1b09c;}.cls-50{fill:#d1cdbd;}.cls-51{fill:#8e8262;}.cls-52{fill:#867957;}.cls-53{fill:#897c5b;}.cls-54{fill:#cac4b3;}.cls-55{fill:#9b9173;}.cls-56{fill:#e4e0d7;}.cls-57{fill:#a1977b;}.cls-58{fill:#7f724f;}.cls-59{fill:#bdb6a1;}.cls-60{fill:#d8d4c7;}.cls-61{fill:#948869;}.cls-62{fill:#94896a;}.cls-63{fill:#ada48c;}.cls-64{fill:#ccc5b5;}.cls-65{fill:#a59c81;}.cls-66{fill:#746844;}.cls-67{fill:#a3987c;}.cls-68{fill:#cbc8b8;}.cls-69{fill:#796a46;}.cls-70{fill:#a29a7e;}.cls-71{fill:#827654;}.cls-72{fill:#b0a890;}.cls-73{fill:#7f7350;}.cls-74{fill:#8c8060;}.cls-75{fill:#8e8363;}.cls-76{fill:#d7d3c6;}.cls-77{fill:#d4cfc1;}.cls-78{fill:#aba38a;}.cls-79{fill:#b7af99;}.cls-80{fill:#897d5c;}.cls-81{fill:#857755;}.cls-82{fill:#f3f3f0;}.cls-83{fill:#c8c2b0;}.cls-84{fill:#c2bba8;}.cls-85{fill:#746642;}.cls-86{fill:#afa68e;}.cls-87{fill:#938768;}.cls-88{fill:#9e9376;}.cls-89{fill:#9d9477;}.cls-90{fill:#786a46;}.cls-91{fill:#cec8b8;}.cls-92{fill:#c8c2b1;}.cls-93{fill:#695a34;}.cls-94{fill:#d5d1c3;}.cls-95{fill:#71613d;}.cls-96{fill:#e8e5dd;}.cls-97{fill:#fdfcfc;}.cls-98{fill:#a59a7f;}.cls-99{fill:#b0a68d;}.cls-100{fill:#877a59;}.cls-101{fill:#a9a086;}.cls-102{fill:#a2987c;}.cls-103{fill:#cac6b6;}.cls-104{fill:#998d6f;}.cls-105{fill:#aaa187;}.cls-106{fill:#b3aa93;}.cls-107{fill:#aea289;}.cls-108{fill:#827452;}.cls-109{fill:#e1dfd6;}.cls-110{fill:#bab09a;}</style></defs><g id="Layer_2" data-name="Layer 2"><g id="Layer_2-2" data-name="Layer 2"><path class="cls-1" d="M98.83,172.76c3.91-2,7.81-3.94,11.73-5.87,1.1-.54,2.17-1.29,3.51-1a7.31,7.31,0,0,1,4.39,1.28c3.38,2,3.57,4.14.51,6.46l-3,2.29c-1.78,1.35-2.43,2.76-1.53,5.08,1.09,2.77.63,5-3.16,5.14a5.24,5.24,0,0,0-4.47,2.9c2.31-.9,4.77-.91,7.1-1.62,3.23-1,5.63-.13,6.53,3.34.55,2.13,1.38,3.11,3.84,2.39,2.74-.81,5.25.43,7.63,1.73a3.67,3.67,0,0,0,5-.75c1.43-1.65.73-3.06-.65-4.41a3.52,3.52,0,0,1-.48-4.32,4,4,0,0,1,4.11-2.29c4.11.06,4.54-.57,3.24-4.54-.46-1.42-.1-2.19,1.07-2.72,3.94-1.78,5.61-4.76,5.33-9.08-.19-2.85,2.77-4.39,5.39-2.6,1.84,1.26,3.33,1.9,5.34.73s3.08,1.77,5,1.37a5.55,5.55,0,0,1,1.15-.13c3.47.64,4.84,4.36,8,5.45,2.14,2.88,4.83,5.46,6.15,8.81.88,2.22,2.72,3.51,4,5.23,3,3.84,4.75,8.56,8.89,11.55a6.82,6.82,0,0,1,3,4.95c-1.36.79-1.4.83-1.83.49a40.54,40.54,0,0,1-6.38-6,17.49,17.49,0,0,0-6.35-5.32c-3.31-1.5-3.07-4.68-3.4-7.56a6.51,6.51,0,0,0-1.15-3.48c-.25-.26-.48-.52-.73-.77-1.56-1.25-3.15-2.47-4.67-3.76-2.12-1.68-4.39-2.65-7-1.26-1.79.94-3.63-.43-5.39.25a3,3,0,0,1-1.13-.05l-.36-.16-.38-.2c.64,3-1,4.85-3,6.6a3.13,3.13,0,0,0-1.27,3.33c.86,3.22-.93,3.4-3.45,3.29-2-.08-4.19-.58-6.32.89,1.85,1.86,4.5,3.43,2.67,6.61-3.15,3.75-7.71,5.51-11.64,8.14a16.17,16.17,0,0,1-1.79,1,8,8,0,0,1-.84.39c-.39.17-.8.34-1.19.53a5.17,5.17,0,0,1-.74.38c-.37.17-.75.34-1.11.54a6.3,6.3,0,0,1-.72.4c-.24.14-.49.27-.73.42s-.47.34-.69.53l-.67.65-.35.35c-.24.25-.49.47-.75.71l-.81.76c-1.81,2.57-1.56,5.31-.7,8.08.56,1.8.55,3.36-1.46,4.21-9.41,4-18.24,9.3-28.11,12.21a6.23,6.23,0,0,1-1.66.24c-3.93-1.8-4.25-3.67-1.06-6.29a10.44,10.44,0,0,1,3.66-2c3-.9,4.77-2.88,6.32-5.68,2.88-5.18,5.11-11.29,12.34-12.29a6,6,0,0,0,3.47-2.28c1.08-1.22,2.92-2.46,1.83-4.26a4.3,4.3,0,0,0-5.21-1.76c-2.59.91-4.6.91-6-1.83-.55-1-1.84-1.26-3-1.4A14.57,14.57,0,0,1,98.43,194a8.28,8.28,0,0,1-2.4-1.79c.41-5.2.91-10.33,6.67-12.79,1.12-.48,2.35-1.29,2-2.83-.35-1.33-1.77-1.06-2.76-1.48C100.7,174.61,98,175.93,98.83,172.76Z"/><path class="cls-2" d="M1.57,118.43A14.45,14.45,0,0,1,3,107.27a26,26,0,0,0,2.63-7.72A24,24,0,0,1,7.31,94.4c1.46-3.41,3.43-6.6,4-10.41a5.88,5.88,0,0,1,3-4.78,2.3,2.3,0,0,0,1.4-2c-.13-4.81,2.92-8.33,4.87-12.29,1.47-1,2.68-1.32,2.44,1.14-.11,1.11-.94,2-1.14,3.16-1.43,7.92-1.38,7.85,4.53,13.15,1.25,1.13,1.63.17,2.4-.23,3.22-1.68,3.93-1.4,3.58,1.9s.27,4.4,3.84,3.8c2.37-.39,4.2,1.3,4.89,3.78,1.38,5,4.19,6.73,9.38,5.87,1.41-.24,2.82-.49,3.8,1a3.4,3.4,0,0,1,.2,1.18c-.24,3.5-1.73,5.53-5.25,7.16-3,1.41-6.47,3-8.69,6a3,3,0,0,1-2.07,1.34c-5.85.26-9.45,4.47-13.61,7.69-3.52,2.72-4.65,2.67-8,0-2.43-2-5.84-3.06-5.14-7.25.11-.66-.7-1.21-1.49-1.18a4.11,4.11,0,0,0-3.84,2.16A8.49,8.49,0,0,1,3.55,119C2.67,119.65,2,119.42,1.57,118.43Z"/><path class="cls-3" d="M54,99.11c-1.45-1.92-3.11-.75-4.58-.17-2.2.85-4.09,1.24-5.23-1.46-.06-.12-.17-.28-.28-.31-3.12-.67-4.62-2.17-3.78-5.7.33-1.41-2.91-3.14-4.41-2.7-4,1.14-5.13.16-4.64-3.81.12-1,1-1.78.54-3-2.19-.19-2.88,2.34-5.08,2.86a12.08,12.08,0,0,0-2.86-4.11c-.65-.57-1.15-1.35-2.09-1-2.63.86-2.48-.56-2.16-2.39.51-2.86,2-5.6,1.15-8.65-.36-1.32.92-1.56,1.51-2.26.38-.44.66-1.11.06-1.45-.4-.23-1.06,0-1.6,0a29.39,29.39,0,0,1,7.8-10.12c2.41-1,2.73,1,2.93,2.34.52,3.58,2.93,5.35,5.9,6.49A9,9,0,0,1,42.86,70a4.15,4.15,0,0,0,2.77,3.25c4.14,1.6,5.16,4.7,2.45,8.13-1.74,2.2-.86,3,.9,4.23s2.54,2,4-.67c1.12-2,3.63-4.88,6.51-.94.9,1.23,2.35.28,3.51-.16,4-1.49,5.67-1,7.81,2.47.11.19-.21.5-.43.58.24,0,.4-.11.56-.42,1.33-2.64,4.23-3.14,6.42-4.57,6.26-4.12,8.67-2.82,9.07,4.59-.15,6.13-.78,12.23-1.25,18.32-1.8,2.21-2.08.32-2.5-1-1.65-5.1-3.61-5.84-8.31-3.21-1.75,1-3.07,2.47-4.72,3.57-3.23,2.15-5.63,1.92-8.1-.93-1.11-1.28-2.14-2.64-3.81-3.23C56.57,99.48,55.23,99.57,54,99.11Z"/><path class="cls-4" d="M166.72,253.4c-1.8,2.43-3.87,4.68-5.16,7.47a13,13,0,0,0-5.63,3.49c-4.47,4.36-7.21,3.73-9-2.19-2.47.57-3.88,4.38-7,2.65-1.86-1-1.23-2.9,0-4.85-2.54.27-4.89,1.42-7-.19a.89.89,0,0,0-1.36.53c-.53,3.78-2.46,2.47-4.38,1.26s-2.82-.46-3,1.61c0,.28-.11.56-.11.84,0,2.31.08,5.07-2.77,5.42-3.41.41-1.25-3.45-3.21-4.95-.2,2.09.24,4.42-2.26,5.2-2,.64-3.72,2.29-5.9,2.14-11.26-.76-22.19,1.68-33.23,3.09A9,9,0,0,1,83,277.08c1.73,1.37,1.61,3-.36,4.05-4.27,2.23-15-.83-18-5,1.6-6.41,2.82-7.28,9.42-6.61,1.13.12,2.33-.16,3.36.16,5,1.58,8.94.75,11.12-4.52,1.36-.49,2.8-.68,4.19-1,4.8-.44,9-2.87,13.31-4.55,2.18-.84,4.51-1.27,6.58-2.35,2.77-2,.46-2.41-.94-2.65-4.93-.87-9.82-1.89-14.67-3.14a32,32,0,0,1-5.58-1.68c-1.07-.56-2.31-.7-3.37-1.31a1,1,0,0,1-.35-1.1c1.22-1.47,3-1.48,4.67-1.92,3.47.54,6.58-1.29,9.94-1.46,4.63-.24,9.25.42,13.83.76a30,30,0,0,0,12.41-1.31,9.07,9.07,0,0,1,3.71-.6c4.61,1.66,5,2.31,4.47,7.17a14.72,14.72,0,0,0,.47,3.7c.11.37-.49.76-.2,1s.42-.47.8-.5c2-.66,4-1.22,6.19-.62a3.5,3.5,0,0,0,3.72-1.1c2.59-2.45,3.56-2,4.35,1.64a12.29,12.29,0,0,1,14.8-1.4C167.06,252.79,166.94,253.15,166.72,253.4Z"/><path class="cls-5" d="M64.94,276c3.73,3.9,8.62,4.39,13.58,4.5a12.73,12.73,0,0,1,3.32,0c.86.24,1.35-.35,1.55-1.05a1.26,1.26,0,0,0-.84-1.68c-1.83-.6-3.29-2.2-5.49-1.85a3,3,0,0,1-3-1.37,88.57,88.57,0,0,1,19.8-2.83,12.62,12.62,0,0,0,3.75-.33,16.43,16.43,0,0,1,7.75-.75A15.64,15.64,0,0,0,115.41,269c1.55-.9,2.7-1.66,1.25-3.51-.55-.69-1-1.41-.23-2.24a1.43,1.43,0,0,1,1.9-.31c1,.5,2.2.77,2.24,2.21a2.35,2.35,0,0,1-.2.81c-.33.95-.66,1.93.16,2.76a1.18,1.18,0,0,0,1.13-.06c1.07-.75,2.17-1.77,1.44-3.14s.11-2.53.35-3.79c.45-2.47,1-2.75,3-2,1.46.54,2.11,2.31,4,2.41.47-1.18-1.42-2.81.41-3.58,1.25-.52,2.65-.95,3.47,1,.27.65,1.57.35,2.36,0a7.32,7.32,0,0,1,4.55-.34c.38,1.43-1.16,1.8-1.48,2.82a1.92,1.92,0,0,0,.58,2.28c.67.54,1.17.13,1.82-.29a17.72,17.72,0,0,0,4.21-3.39,1.36,1.36,0,0,1,1.49-.54,1.31,1.31,0,0,1,.89,1.68,5.64,5.64,0,0,0,.5,4.41c1.52.64,2.33-1.85,3.9-.8.34.23,1.05.29,1.12-.12.54-3.56,4.36-3.34,6.21-5.42.73-.82.94.41,1.1,1A59.83,59.83,0,0,1,145.07,275a19.32,19.32,0,0,1-7.7,2.65c-5.4.51-10.6,2-15.94,2.74-.41.06-.83.45-1.19.38-4.71-1-9.28.94-14,.54-3.29-.28-6.67.3-10,.61a173.66,173.66,0,0,1-17.52.95c-4.75,0-9.11-.86-13.13-3.64-3-2.05-6.4-3.39-9-6,1.08-2.31,2.78-1.2,4.15-.57A12.34,12.34,0,0,1,64.94,276Z"/><path class="cls-6" d="M174.32,171.56c-2.45.42-4-1-5.16-2.81a4.35,4.35,0,0,0-3.42-2.05c-2.62,3.24-2.77-1-4-1.37-1-.08-1.42.54-2,.94-1.74,1.23-3.33,1.49-4.63-.61-.44-.72-.85-1.38-1.9-1.42-2.67-.1-3.59,1.18-2.52,3.64.27.63,1,1,.9,1.86-1.64,1.54-4.15,2.56-3.11,5.71.21.63-.89,1.47-1.87,1.07a2.67,2.67,0,0,0-3.08.66c-.12,1,.78,1.37,1.34,1.94,1,1,.67,4.21-.54,4.28-1.54.09-2.65,2.07-4.59.65-1.48-1.08-2.71.45-3.24,1.72-.44,1.06-1.32,2.47.88,3.33,1.81.7,1.66,4.3.47,5.72-2.17,2.58-4.32,2.36-6.89.79s-5.55-2.65-8.66-.88c-1.16.66-1.87.06-2.18-1.09-.22-.81-.32-1.66-.57-2.46-1-3.29-2.21-4.14-5.19-2.88-2.53,1.08-5.73.08-7.73,2.66-.29.36-1.1.27-1.48-.3a1.52,1.52,0,0,1-.06-1.59,7,7,0,0,1,6.77-4.18c2.35.13,2.35-.67,2.06-2.3-.12-.68-.08-1.69-.5-2-2.72-1.8-.68-3.36.49-4.27,1.63-1.28,2.91-3,5-3.87s2.06-2.79,0-4c-1.54-.92-3.15-1.73-4.73-2.59a24.14,24.14,0,0,1,8.82-1.67,15.48,15.48,0,0,0,7-1.2c2.45-1.12,4.94-1.86,7.71-1a5,5,0,0,0,2.91,0c4-1.37,8,.3,12-.26.44-.06,1,.47,1.45.73,1.73.92,3.7,0,5.46.68a5.26,5.26,0,0,1,3.86.21,1.89,1.89,0,0,0,1.16.63.34.34,0,0,1,.53.17,1.61,1.61,0,0,0,1.24.66.31.31,0,0,1,.46.23,1.73,1.73,0,0,0,1.25.63l.27-.06.16.21a1.57,1.57,0,0,0,1.26.69l.28,0,.16.24a7.9,7.9,0,0,1,.76.77l.1.13c.28.22.55.45.82.68l.85.37c.43.37.42,1,.74,1.4l.08.14a1,1,0,0,1,.58.64A.59.59,0,0,1,174.32,171.56Z"/><path class="cls-7" d="M62.34,28a.48.48,0,0,1,.55-.39c1-.18,2.31-1,3,.37s-.73,1.76-1.65,2.32c-2.35,1.43-2.21,4.44-3.91,6.3-.27.28,0,.78.25,1.15.75,1.12,7.57,3.67,9,3.22,2.7-.83,4.48-.48,4.43,2.87a2.35,2.35,0,0,0,1.32,2.46c2.77.94,3.19,3.15,3.59,5.62.88,5.29,4.88,6.63,9.32,3.22.77-.6,1.34-1.43,2.13-2s1.72-1.33,2.24-.79c2.78,2.88,4.83,1,7.59-.29A6.17,6.17,0,0,1,108,54.23a5.2,5.2,0,0,1-.56,3.78c-1.28,2.24-.52,4.71-.77,7.07-.22,1.79-.42,3.59-2.4,4.41-.59-.19-.8-.66-1-1.21-.53-1.48,1.26-4.26-.72-4.29-2.24,0-6.1-1-6.48,3.45a1.29,1.29,0,0,1-1.5,1.16c-1.15-1-.91-2.5-1.09-3.83s-.34-2.77-2.08-3.09c-2.62.79-.68,4.62-3.5,5.25-2.21-3.22-5.82-2.51-8-1.33-2.53,1.34-5.12,1.15-7.59,1.94-3,1-4.71-2.5-5.24-3.81C65.15,59,61.37,59,57.56,58.42a6.27,6.27,0,0,1-1-.66c-2.41-2-.23-3.81.37-6.58-1.61,1.91-2.49,2.76-4.05.43s-4-4.3-5.73-6.71c-.86-1.19-2.12-2.26-1.22-3.64,1-1.57,2.35-3.22,4.56-3.17.64,0,1.48,1.35,1.71-.27.64-4.57,4.51-6.08,7.66-8.28.44-.44.81-1,1.53-1A8.67,8.67,0,0,0,62.34,28Z"/><path class="cls-8" d="M85.34,85.51V81c-7.49-.4-11.93,4.73-17.11,8.88-.19-2.12,1.83-2.44,2-3.85,0-.11-.07-.29-.15-.33a15.63,15.63,0,0,0-8.35-.2c-2.74.89-2.74.89-4.5-2.82-1.06.51-1.2,2.18-2.83,2-1-.08-1.32.85-1.08,1.84.15.62.79,1.54-.08,1.8a3.56,3.56,0,0,1-2.79-.26c-1.55-1.19-2.9-2.58-4.85-3.22-.69-.23-.85-1.08-.3-1.77s1-1.56,1.65-1.89c2.78-1.33.58-3.81,1.37-5.59.19-.42-.64-.64-1.19-.83-1.53-.52-3-1.37-4.8-.58-.3-2.92-.1-5.53-2.51-7.55-1.07-.88-1.57-2.18-3.28-1.83-1.17.24-1.78-.69-2.39-1.44s-1.1-1.62-2.26-1.7c-1.42-.08-1.09-1-1.22-2.06-.23-1.73.47-4.16-2.28-4.77,1-1.73,2.61-3,3.37-5.08.67-1.81,2.55-2.84,4.53-3.33a1,1,0,0,1,.65-.51.46.46,0,0,1,.51-.45c.84-.08.76-1,1.25-1.38a.5.5,0,0,1,.61-.32c3.07-.13,2.6,2,2.13,3.72a23.38,23.38,0,0,0-.78,6.69c.07,2.29,1.3,3.68,3.69,3.69,3.77,0,11,4.54,12.44,7.89a4.82,4.82,0,0,1-.93,5.12c.09.72-1.77-.69-.93.84-.74,2.35,1,.42,1.56.82.75.59,2.18,1.42,1.86,1.9-1.54,2.33.87,2.12,1.64,2.93a10.17,10.17,0,0,0,.91.83c.15,0,.35.37.41.06s-.18-.48-.11-.79c4-1.66,7-5.45,12.16-4.42,2.16.43,4-2.22,6-3.51,3.57-2.37,3.66-1.91,5.43,2,1.19,2.64,2.79,4.94,2.5,8C86.88,81.58,88.29,84.25,85.34,85.51Z"/><path class="cls-9" d="M61.56,78.61c-.64.19-1.54.8-1.88.06C58.81,76.73,57,77,55.52,76.78c-.19-1,.27-1.13.9-1.07s1.18.28,1.42-.39-.25-1-.63-1.44-1-1-1.76-.45-1.09,2.52-2.37.7.71-2,1.46-2.8a2.62,2.62,0,0,0,.24-.34c2.22-4.34,2.18-4.46-1.1-7.45-2.17-2-5-3.06-7-5.24-.27-.29-.83-.5-1,0-1,2.83-2.8,1-3.49.15-1.12-1.33-3.78-1.62-2.64-4.9.75-2.15.42-4.9,1.33-7.28.55-1.43-.48-2-1.52-2.56,1.83-1.6,2.31-4.65,5.33-5,.45-.46,1.32-.27,1.58-1a.62.62,0,0,1,.41-.67.41.41,0,0,1,.49-.48.49.49,0,0,1,.52-.46,1.46,1.46,0,0,0,1.17-.72l.07,0a2.42,2.42,0,0,1,.74-.52l1.06-.31a1,1,0,0,1,.66-.5A2.09,2.09,0,0,1,53,32.78c.29-.16.59-.32.89-.46L54.9,32a1,1,0,0,1,.66-.48.52.52,0,0,1,.53-.48,1.34,1.34,0,0,0,1.17-.78h0a5.36,5.36,0,0,1,.81-.47,2.53,2.53,0,0,1,1.77-.24c-.34.61-.57,1.61-1.06,1.76-4.54,1.45-5,5.8-6.77,9.26-1.19-.12-1-1.56-2-2-1.69-.07-.71,2.9-3.06,2.7-1-.08-.9,1.94.25,2.4,2,.78,3,1.93,2.74,4.09a1,1,0,0,0,1.37,1c2.3-.89,2.68.29,2.57,2.18,0,.52-.12,1.1.41,1.52,2.3-.29,0-2.16,1-2.89,3.27,1.52,3.37,1.59,1.71,4.29-.86,1.4-1.1,2.46.29,3.54.66.2,1.54.78,1.94.54,2.84-1.73,4.55,1.39,6.95,1.52.7,0,.93.91.66,1.7s-.13,2.27.49,2.2c3-.36,2.41,2.41,3.68,4,2.17-2.54,5.81.25,7.95-2.53s5.93,1.35,8-2.19c1.32,1.39.69,2.86.89,4.15,1.66,3.84.86,9.52-1.67,11.9,0-.71,0-1.41,0-2.11,0-.42,0-.85,0-1.27.06-2.21-2.58-.4-3-2.09-.42-1.53,1.49-2.56.66-4-.53-.9-1.37-.63-2.16-.07-2.29,1.6-4.64,3.13-6.92,4.74a9.73,9.73,0,0,1-1.38.75c-1.63.79-2-3.14-3.5-1-1,1.46-2.4,1.51-3.6,2.23A9.64,9.64,0,0,1,62.69,77C61.85,77.19,61.67,77.89,61.56,78.61Z"/><path class="cls-10" d="M92.05,246.33c-1.2,1.11-3.18.28-4.26,1.71-1.42,1.39-3.1.87-4.7.56a78.65,78.65,0,0,1-10.93-2.51c-1.81-.62-3.54-.83-4.8,1.06-2,3.24-5.61,2.5-9,3.15,1.52,1.12,3.45.58,4.15,2.28-.1.61-.62.74-1.07,1a1.93,1.93,0,0,0,1.32-1.06c2.79.25,4.67,2.13,6.19,4.09s.36,3.11-1.88,3.23a7.49,7.49,0,0,1-3.26-.72c-3.57-1.48-7-1.57-10.28.78-3.16-.81-5.91,1.86-9.07,1.08-1.62-2.48-4.11-4.49-4.13-7.81a.76.76,0,0,1-.29-.61c0-.23,0-.35.11-.35a3,3,0,0,1,.88-.65,15.25,15.25,0,0,0,2-1,14.42,14.42,0,0,1,4.26-1.64,45.36,45.36,0,0,0,11.08-2.56c2.08-.86.42-1.66.43-2.5a3.84,3.84,0,0,1,3.49-2.2,25.88,25.88,0,0,0,6,0c4.1.81,8,2.5,12.16,3a7.54,7.54,0,0,0,5.17-1.07c2.61-1.62,2.92-3.13.28-4.95.11-1.33,1.13-1.81,2.16-2.27,2.87-.92,5.94.05,8.81-.87,4.09-.75,8.23-1.31,12.17-2.72,6.45-3.6,13.56-5.69,20.28-8.69a8.39,8.39,0,0,1,3.61-.91,3,3,0,0,1,1.66.8c.55.58,1,1.23,1.57,1.82,3.82,6.81,6.27,7.8,14.53,6.63,2.68-.38,5.37-1.65,8.19-.63.32,2.34-1.81,2.39-3,3.27a8.25,8.25,0,0,1-1.2.35,17.82,17.82,0,0,0-4.16.69c-3.23.41-5.53,3.07-8.69,3.66a12,12,0,0,0-5.32,1.9,4.31,4.31,0,0,1-1.11.39c-1.75.19-3.19-.22-3.22-2.3-.06-4.43-3.4-5.44-6.38-4.73-8,1.92-16.38,2.82-23.53,7A32.51,32.51,0,0,1,92.05,246.33Z"/><path class="cls-11" d="M93.92,162.56C86.6,171.09,78.7,179,70.6,186.84c-6.89,6.63-14.29,12.65-21.27,19.15a59.66,59.66,0,0,0-7.81,9.37,29.45,29.45,0,0,1-6.38,7.19A4,4,0,0,0,31.87,224c-3.34,4.3-6.86,8.37-9.09,13.52a55.19,55.19,0,0,1-6.89,10.94c-1.71,2.27-3.28,4.55-3.11,7.58a3.58,3.58,0,0,1-.85,1.65,3.4,3.4,0,0,1-1.65,1,1.71,1.71,0,0,1-1.7-.7c-1.33-5.12.16-9.95,2.79-14,2.86-4.44,4.72-9.24,7-13.89,1.39-2.83,2.24-6.13,5.5-7.64.56,2.86,1.54,1.45,2.64.32,1.54-1.57,1.95-4.13,4.35-4.93A4.92,4.92,0,0,0,34.07,216a203.82,203.82,0,0,1,20-22.13,6.46,6.46,0,0,0,1.61-2.93c.78-2.6,1.74-3.88,5.23-4,3.1-.07,6.64-2.83,8.31-5.66,2.25-3.81,5.64-6.23,8.77-8.82,3.75-3.1,6.58-6.85,9.68-10.44a21.71,21.71,0,0,1,2.9-1.53C93.06,159.05,93.73,160.39,93.92,162.56Z"/><path class="cls-12" d="M143.78,64.35a.49.49,0,0,1,0,.51,7.88,7.88,0,0,1,0,4.71c-.39,3.32.17,6.73-.91,10a1.36,1.36,0,0,1-.28-.31,1.23,1.23,0,0,1-.06-.39c-3.45,2.33-5.26,1.69-4.87-2.39.48-5.13-1-9.69-2.36-14.37a27.06,27.06,0,0,0-.6-6.29c-.22-.8-.57-1.64-1.64-1.65-1.31,0-1.63.87-1.76,1.93-.18,1.4,0,2.81-.16,4.21s.3,3.19-1.46,4.1a12.42,12.42,0,0,0-5-3c-1-2.5.2-5.72-2.47-7.73-.28-.21-.28-.81-.1-1.21,2.24-5-1.3-9.05-1.79-13.47-.66-6-4-11.46-2.82-17.63a67.52,67.52,0,0,0,1.27-7.48l.31-.5c2.38-1.32,1.49-4.07,2.62-5.93,1.7-2.15,2.08-.34,2.23.88,1,7.74,4.19,15.17,3.06,23.22a13.7,13.7,0,0,0,1.22,8.38c-.67-4.24.51-7.31,1-10.47.13-.84.43-1.71,1.42-1.9,1.28-.23,1.84.76,2,1.7.88,4.58,3.5,8.62,4.09,13.26a9.33,9.33,0,0,0,1.5,3.4c.72,1.3,1.69,2.75-.91,3.42-.74.2.26,1.31.54,1.56,4.49,4,3.56,9.51,4,14.11.79-1-.58-2.89,1.26-4.33C144.52,61.8,144.23,63.06,143.78,64.35Z"/><path class="cls-13" d="M124.19,127.72c-.2,2.85-2.68,4.37-4,6.58s-3.35,4.19-5.07,6.27c-5.7-2-8.45,1.59-11.58,5.48S97.24,154.2,93,157.19c-4.11,2.24-7.16,5.71-10.43,8.93-1,.95-2,2.3-3.57,1.66-1.73-.71-1.12-2.34-.89-3.68.55-3.24-2.6-5.2-2.79-8.17a3.27,3.27,0,0,1,.38-1.18,8.6,8.6,0,0,1,1.9-1.55c8.12-2.94,14.19-8.37,19.06-15.38,2.33-3.36,5.73-5.81,8.19-9.09.57-.76,1.39-1.47,2.54-.89.79.81,0,1.88.44,2.8,1-.68,1-1.94,1.61-2.78a2.54,2.54,0,0,1,2-1.29c4.11.13,4.13.18,8.12-2.83,1.16-.87,2-.6,2.94.25C123.61,125,123.68,126.46,124.19,127.72Z"/><path class="cls-14" d="M124.19,127.72c-1-1.29-2.07-2.59-3.09-3.87-1.45.38-1.58,1.6-2,2.61-.28.72-.78,1.41-1.51,1.1-3.06-1.29-3.58,1-4.37,2.95-.21.5-.3,1.11-1.08,1a1.19,1.19,0,0,1-.46-1.44c.23-1,1.36-2.35-.29-2.73-1.4-.32-1.31,1.46-1.82,2.38s-.28,3.38-2.42,2.54c-2.5-1-.32-2.45,0-3.71a7.86,7.86,0,0,0,.11-.83l.09-.43a4,4,0,0,1,.5-.72l.29-.33c.2-.23.4-.44.61-.66s.2-.23.29-.35.38-.51.56-.78l.24-.44c.14-.32.3-.64.45-1,2.37-3.2,4.38-6.67,7.2-9.53a2.54,2.54,0,0,1,2,.2c2.69,2,3.71.52,4.26-2a6.2,6.2,0,0,1,1.36-2.6c5.07-6.2,7-13.88,9.78-21.13,1.45-3.78.75-7.87.49-12-.27-4.5-.2-9.09-.57-13.64,0-.57.53-.92,1.21-.72,1.19,1.93.4,4.74,2.89,6.16.7.4.37,1.52.08,2.34-.83,2.3-.32,4.69-.41,7,0,1.12,0,2.43,1.41,2.66s1.35-1.14,1.8-1.94c.19-.34.32-.72.52-1.15.81.9.31,1.91.53,2.79A74.1,74.1,0,0,1,138.28,99c-1.41,3.55-2.82,7.24-4.39,10.65-1.7,3.68-2.88,7.8-5.69,11-1.39,1.58-1.47,4-3.14,5.39a2.43,2.43,0,0,0-.73,1.11A.44.44,0,0,1,124.19,127.72Z"/><path class="cls-15" d="M1.57,118.43c2.24.34,3.3-1.47,3.7-2.88.62-2.18,2.27-2.82,3.84-3.36,2.73-.93,4.37.51,3.83,3.34-.44,2.34.2,3.56,2.55,3.73,1.14.07,1.57.68,2.15,1.6,1.71,2.69,3.67,3,5.76.79s5.08-3.32,7-6c1.38-2,4.31-1.85,6.62-2.23,1.87-.31,3.27-.65,3.46-2.84a1.51,1.51,0,0,1,2.14-1.38c1.78.6,2.46-.31,3.33-1.6.72-1.07,1.44-2.32,3.25-2.25,2.42.1,4-1.07,3.94-3.77A2,2,0,0,1,54,99.79c1.8,2.6,1.2,5.3.33,8-.94,4.42-4.84,5.93-8.17,7.65a38.87,38.87,0,0,0-6.3,4.13c-.55.43-1,1.31-1.62,1.28-5.29-.28-7.77,3.76-11,6.8-3.7,3.48-4.65,3.45-8.45.16-1.81-1.56-4-2.45-5.7-4.28s-5.23,0-6.36,2.77a6.62,6.62,0,0,0-.28,4.15,12,12,0,0,1,.25,1.8,16.27,16.27,0,0,0,.58,4.86A38.86,38.86,0,0,0,9,143.26c.54,2.73,1.69,5.31,2.12,8.06.21,1.37,1,3-1.27,3.54a33.86,33.86,0,0,1-4.17-10.47C4.3,139,3.27,133.51,2.09,128.06A42.54,42.54,0,0,1,1.57,118.43Z"/><path class="cls-16" d="M97.3,15a.51.51,0,0,1,.68.15.8.8,0,0,1,0,1,3.53,3.53,0,0,1-1.61.64,27.06,27.06,0,0,0-2.8.53,5.11,5.11,0,0,1-1.17.07c-2-.05-4.21-1-5.79,1.26-1.83,2.59-2.3,5,.31,7.41.72.67,2.67,1.17,1.16,2.86a.71.71,0,0,1-.81,0c4.41-.16,2.45,4.54,4.65,6.07.35.25.61.61.94.85,1.57,1.17.12,4.58,2.88,4.5,1.91-.06,3.33-2.08,4.75-3.3,2.49-2.13,5.56-2.39,8.31-3.61,2.47-1.09,4.12-.44,4.57,2.41.1,1.69.22,3.39-.95,4.83-3.41,3.36-7.36,5.15-12.26,4.34a6,6,0,0,0-3.7.59c-.63.31-1.24.66-1.86,1-2.87,1.56-6.18,2.43-8.76.4s.35-4.62.61-7.25c-3.94,1.06-6.5-.46-7.16-4.3-.54-3.1-3.82-4.71-3.77-8.14a12.72,12.72,0,0,1,3.89-8.89c2.15-1.3,4.08-3,6.66-3.47a5.62,5.62,0,0,1,1.64-.53l1-.1c.85.5,1.88.12,2.74.58a.82.82,0,0,1,1.08,0A8.21,8.21,0,0,1,97.3,15Z"/><path class="cls-17" d="M107.32,54.1c-1.71-1.49-4-1-5.95-1.62-1.24-.4-1.9,1-2.71,1.73-2.82,2.47-2.8,2.5-5.28-.18-.35-.39-.46-1-1.38-1.1a7.61,7.61,0,0,0-1.38,1.31c-2.29,3.54-6,3.5-9.55,3.9A2,2,0,0,1,78.58,56c0-1.6-.85-3-.89-4.54,0-2,.18-3.81-3-3.82-1.4,0-2.12-2.27-1.91-4.18s-.53-2.47-2.25-1.8a8.25,8.25,0,0,0-1.41.91c-.62.4-1.58.77-2,.38-2.24-2.2-5.44-2.65-7.8-4.53-.75-.59-.76-1.58.11-2.57A7.24,7.24,0,0,0,61.66,31c0-2.44,2.6-1.34,3.82-2.17-.55-1.39-1.73-.87-2.59-1.14a3.47,3.47,0,0,1,2.92-1.59c.44-.48,1.26-.26,1.62-.89h0a4.48,4.48,0,0,0,.88-.75l.09-.06a1.78,1.78,0,0,1,.72-.53l.79-.37a1.89,1.89,0,0,0,.92-.8l0,0L71.7,22a.5.5,0,0,1,.62-.26c1.88-.17,1.27,1,.85,1.78-.7,1.39-2,2.35-2.71,3.75-1.18,2.4-4.25,4.81,1.18,6.5,1.82.57,3.07,3.4,5.77,3.22.35,3.87,7.59,5,4,10.55-.95,1.48.27,2.94,1.56,4,1.5,1.21,2.59.25,3.69-.7s2.07-1.85,3.37-1.34c2.12.82,3.38-.31,4.91-1.41,2.29-1.66,2.75-1.41,4.31,1.78,2.26-2.65,5.15-4.17,8.44-3.2,2.16.64,2.36,2.92,2,5C109.26,52.79,109,54.19,107.32,54.1Z"/><path class="cls-18" d="M179.29,182.8c0,1.1.2,2.21.33,3.27.22,2,.62,3.92,3.41,4.57,2.21.52,4,2.5,5.36,4.48a33.61,33.61,0,0,0,7.69,7.27s.18-.19.28-.29l2.52,2.7c.17.81-.31,1.22-.94,1.54-3.18.49-6.19,1.76-9.41,2.1a13.06,13.06,0,0,0-2.41.41,6.84,6.84,0,0,1-1.19.18c-2.47-1.08-2.61-3.44-.35-5.41.95-.84,2.4-.69,3.44-1.88a8.56,8.56,0,0,0-5.54-2.26c-4.06-.37-6-2.41-6.38-6.33-.08-1.4.12-2.83-.06-4.21s1.41-3-.53-3.71a5.47,5.47,0,0,0-5.26.49c-.68.5-1.54.92-1.85,1.69-2.5,6.27-6.5,11.89-8.15,18.54-.39,1.59.53,2.67,1.42,3.77a1.63,1.63,0,0,1-.06,1.19,3.2,3.2,0,0,1-1.68.74,8.7,8.7,0,0,1-1.84.09c-6-1.73-7.54-7.16-3.27-11.33.4-.39,1.16-.71,1.13-1.2-.44-5.73,5.74-8.5,6.18-13.89.12-1.48,1.45-2.81,2.74-3.63,1.52-1,1.31-2.3,1.33-3.66a1.41,1.41,0,0,1,.89-.75c3.49.76,7.3,0,10.5,2.13h0C178.18,180.53,178.34,181.86,179.29,182.8Z"/><path class="cls-5" d="M109,51.47a9.1,9.1,0,0,0-.34-2.9c-.5-1.1-1.13-1.64-2.91-1.27a10.21,10.21,0,0,0-6,3.7c-.44.51-1,1.2-1.76.7s-.72-1.41-.11-2.17a1.14,1.14,0,0,0,0-1.72c-1.58-.2-2.53.86-3.5,2.12-.67.88-1.9,1.93-2.86,1.12-2.35-2-3.44-.14-4.87,1.15-.87.78-1.51,2.22-3.14,1.28-1.89-1.08-3.8-3.83-3.44-5.23.43-1.63,1.09-3.2,1.49-4.83.23-.94-.4-2-1.3-1.45-2.46,1.5-2.6-.6-3.11-1.85a6.27,6.27,0,0,1,.11-2.45c-1.31-.89-2.41,1.16-3.47.39a5.77,5.77,0,0,1-1.9-2.67c-.53-1.61-1.71-1.5-3-1.74-2.89-.57-3-1.07-1.36-3.43s2.77-5.49,5.2-7.53c.34-.28-.08-.74-.46-1,1.78-1.27,3.57-2.52,5.88-2.54a1.84,1.84,0,0,0,1.12-.65l.1-.05c.67.56.78,1.33.1,1.76-2.34,1.46-2.87,3.6-2.76,6.16a16.35,16.35,0,0,1-.45,3.19c1.09,1,2.21-.63,3.45.44,1,1.22-2.33,2.5-.52,3.75,1.5,1,1.33,2.44,1.8,3.8a2.68,2.68,0,0,0,3.43,1.62c.91-.34,1.88-.51,2.83-.76A2.7,2.7,0,0,1,87.11,42,5.44,5.44,0,0,0,86,44.63c-.55,1.9.07,2.54,2,2.52,2.55,0,5-.28,7.07-1.87a6.3,6.3,0,0,1,7.42-.59c1.32.73,1.38.14,2-.92s1.82-3.2,3.7-.85c.71.89,1.25.09,1.45-.56.31-1,.64-1.87,1.89-1.87C112.92,44,111.7,49.26,109,51.47Z"/><path class="cls-19" d="M44.49,260.94c.32-.57.79-.5,1.37-.47,1.46.06,1.46,0,1.15-2.18,2,1,4.05.69,6.08.74a11.14,11.14,0,0,0,8.22.67c4.61-1.18,9.72-.26,14.67.26a2.9,2.9,0,0,0-2.43-2c-4.32-.19-5.4-4.85-8.94-6.18-1.56-.58-1.06-2,.56-2.66,1.9-.72,3.88-.43,5.84-.47,3.09.66,6.25,1.17,8.45,3.8-.91,2.38,1.7,1.7,2,2.27,1.93,3.45,5.78,3,8.47,4.71A12,12,0,0,0,93,260.67c1.12.34,2,.85,2.09,2.23.06,1.59-1.46,1.41-2.23,2.06a7,7,0,0,1-4.24.84c-3.23.7-6.27-.14-9.28-1.14-1-.34-1.91-1-2.85.44-3.62,5.3-8.64,3.62-13.11,1.89-2.89-1.11-4.28-1.07-5.35,1.9-.84,2.33-2.55,1.65-4.15.84-2.51-1.27-4.22-3.63-6.73-4.9C46.26,263.55,44.53,262.83,44.49,260.94Z"/><path class="cls-20" d="M67.43,202.25a6,6,0,0,1,1.8-2.32c.38.1.57-.05.56-.44l0,.07a.87.87,0,0,0,.92-.95h-.06c1.74-.27,3.72-1.19,4.91.85,1,1.76.21,3.51-.75,5.12-2.2,3.7-3.18,8-6,11.74,3-.35,5.25-3.64,8-.7a1.42,1.42,0,0,1-.08,1.07c.31-.08.15-.46.37-.59,2.1-1.67,3,.11,4.15,1.39-.57,3.42-3.27,5.39-5.32,7.8-1,1.12-2.68,1.76-2.33,3.71-4.45.49-7.39,4.26-11.61,5.33a5.39,5.39,0,0,0-4,3.38,4,4,0,0,1-2.76,2.35,11.07,11.07,0,0,1-1.1.39c-2.19.64-4.42,1.17-6.18,2.75-1.17.54-.21,2-1,2.64-2.49,1.22-5,2-7.82,1-1.77-1.83-.45-3.22.92-4.12a30.9,30.9,0,0,0,6.92-6.12c2-2.39,5.67-2.18,7.4-5.62,1.45-2.87,5.59-3.52,8.49-5.24a37,37,0,0,1,8.69-3.28,8.13,8.13,0,0,0-7-.28c-1.15.47-2.49,1.19-3.48-.11s.2-2.42,1.05-3.24c3-2.9,4.76-6.55,6.57-10.2.86-1.73,1.54-3.39-.31-4.93A2.49,2.49,0,0,1,67.43,202.25Z"/><path class="cls-21" d="M143.78,64.35l-.19-2.5-.44-.1c-.28,1.59-.65,3.17-.81,4.77-.07.76-.36,1-1,.91a.79.79,0,0,1-.64-1.24,4,4,0,0,0-.22-4.65,4.31,4.31,0,0,1-.13-2.49c.29-2.4.81-4.84-2.67-5.38-.68-.11-.76-.84-.71-1.37.13-1.44-.74-2.68-.9-4.18.82.15,1.65.56,2,.32.7-.54.2-1.54-.28-1.8-2.16-1.17-2.95-2.71-1.82-5a1.07,1.07,0,0,0-.19-.8c-2.31-3.89-3.06-8.34-4.58-13.32-2.3,5-1,10.19-3.39,14.93-3-6.61-1.56-13-1.83-19.12-.11-2.56-.3-4.9-1.79-7.19s-.73-5.43-1-8.17c-.14-1.41-.85-.56-1.4-.49,0-2.15.95-4,1.76-5.9,1.7-1.07,2.17.48,2.16,1.39-.06,6.86,4.16,12.12,6.79,17.9,3,6.53,3.85,13.71,6.94,20.17.63,1.33,1.15,2.07,2.59,2a13,13,0,0,1,1.7,6c.29,3.63.1,7.28.67,10.9C144.63,61.33,144.93,63,143.78,64.35Z"/><path class="cls-14" d="M154.73,234.47h.85c2.24,2.72,4.68,3.33,8,1.63a5.15,5.15,0,0,1,6.4,1.06c1.87,1.75,4.49-.51,6.64-1.39,1.6-.65,2.61-1.11,1.83,1.3l0,0c-.63.47-.47,1.29-.82,1.88-2.11,3.22-3.56,6.86-6,9.85-2.44-.39-5.19,2-7.41-1-.58-.78-1.82.19-2.73.46a2.77,2.77,0,0,1-2.79-.22c-3.19-2.63-3.93-2.86-7.91-1.28-2.17.86-4.58.62-6.66,2-1.34.92-2.68.34-2.61-1.79s.13-4.46,2.88-6.64c-2.49,1.18-3.94,2.18-5.69,1.18-.49-2.07,1.77-1.73,2.45-2.78a3.75,3.75,0,0,0,3-.93,9.23,9.23,0,0,1,6.29-2.46C151.76,234.31,153.47,235.51,154.73,234.47Z"/><path class="cls-22" d="M138.64,241.24c2.46.45,4.27-2.22,6.85-1.54.25,1.56-1.21,2-1.88,2.47-2,1.52-.22,3.76-1.38,5.47-.45.67.9.71,1.48.43a15.45,15.45,0,0,1,4.21-1.64c1.57-.27,3.65-.37,4.94-1.93.21-.26,1-.47,1.1-.34,2.3,2.37,4.41-.61,6.71-.2.6,1.81-1.87,1.72-1.94,3.27,1.77,1.47,3-.45,4.4-.92s2.38-1.06,2.67,1.06,1.6.74,2.58.77,2.69-2.12,3.27.62c-1.73,1.45-2.69,3.73-4.93,4.64-1.34-1.26-3.4.61-4.23-.48-2.32-3-4.67.15-7-.35-1.11-.24-1.83,1.11-2.4,2.08s-1,1.75-2.27,1.07c-1.48-.81-.54-1.5.09-2.26a1.06,1.06,0,0,0-.06-1.51c-.51-.5-1-.15-1.53.07a2.23,2.23,0,0,0-1.41,1.93c-.06.53-.2,1.26-.95,1.06-3.34-.93-6.7-.25-10.05-.22-1-2.22-2.82-4.37-.51-6.88a1.19,1.19,0,0,0-.36-1.83c-1.17-.7-1.77-2.23-3.37-2.3,0-2.39,2.58-1.27,3.39-2.54h0A1.87,1.87,0,0,1,138.64,241.24Z"/><path class="cls-23" d="M68.33,203.12c1.72-.11,2.78.54,2.5,2.42a10.35,10.35,0,0,1-.9,3.22c-2.41,4.54-4.65,9.21-8.77,12.33.23,1,.84,1.31,1.31.95,3.6-2.74,7.43-1.13,11.8-.83a7.83,7.83,0,0,1-5.07,3.11c-5,1.27-9.2,4.12-13.6,6.55-1.6.88-3.41,2.33-1.07,4.84-3.73-1.87-6,.36-7.8,2.54a16.52,16.52,0,0,1-5.7,4.82,3.64,3.64,0,0,0-2.34,3.26.77.77,0,0,1-.06,1.12,4,4,0,0,1-2.38.67c-2.9-.19-3.54-1.41-1.63-3.7,2.64-3.17,6-5.54,9.22-8a6.67,6.67,0,0,0,2.69-4c1-4.12,4.81-6.06,7.45-8.92,3.91-4.24,7.67-8.61,11.6-12.84-3.15,2.63-3.15,2.63-4.94.89a30.48,30.48,0,0,1,5-6.86c.86.2.65-.47.73-.89l0,.05C67.07,203.72,67.39,202.51,68.33,203.12Z"/><path class="cls-16" d="M14,163.54c-.75-.38-.75-1.14-.91-1.82-.69-3.91-1.83-7.73-2.26-11.68,1.19-2.1,1.63-5.11,4.54-5.43,3.36-.36,4.2,2.77,5.5,5a73.43,73.43,0,0,1,3.75,8.47,1,1,0,0,0,.44.61c.11-.25-.09-.56.14-.79,2.68-5,8.26-7.36,11-12.32a1.73,1.73,0,0,1,2.52-.74c1,.52,2.37,1.27,2,2.4-1.1,3.68.13,7.93-2.71,11.17a1.77,1.77,0,0,1-1.16,0c-.8-.54-1-1.61-2.37-2.62-.72,4.85-5.48,7.09-6,11.81-.11,1-.56,2-1.77,2a2.72,2.72,0,0,1-2.51-1.94c-.92-2.26-2.08-4.26-4.47-5.25-1.17-.79-1.06-2.19-1.4-3.47-1.74.81-2,2.49-2.92,3.66A2.2,2.2,0,0,1,14,163.54Z"/><path class="cls-22" d="M47.19,264.83c.09-.86.45-1.47,1.24-.65a29.9,29.9,0,0,0,5.54,4.5,3.74,3.74,0,0,0,2.64,1c.93-.59.52-1.55.76-2.31.72-2.24,3-3.33,4.75-2,2.76,2.07,6.31,1.06,9.16,2.65.23.13.75-.18,1.1-.36a18.9,18.9,0,0,0,3.07-4.36,1,1,0,0,1,1.31-.67c3.77,1.84,7.92,2.2,11.9,3.21a2.14,2.14,0,0,0-.81,1.39c-.77,4.21-2,5.4-6.18,4.22-3.13-.89-6.36-.05-9.38-1.27-2-.78-3.37,2.38-5.76.29-.2,2.33.83,4.58-1.59,5.54a3.82,3.82,0,0,1-3.31-1.38c-1.31-1.48-3-2.48-5.09-1.37C53.46,270.39,49.66,268.35,47.19,264.83Z"/><path class="cls-24" d="M78.49,189.59c4.2-4.92,8.29-10,14.41-12.71,3,1.69,4.4,6.93,1.74,9.54-4.35,4.26-5.92,9.42-6.71,15.11,1.55-.85,2.86-3,5.22-1.7.36,3.54-1.44,5.94-4.11,7.89-2.85-1.24-5.42.63-8.15.77-1.52.08-3.71-.18-2.54-1.85,3.46-4.94,3-11.51,7.31-16.26C83.16,190.1,80.48,192.23,78.49,189.59Z"/><path class="cls-25" d="M60.64,211.48a1.11,1.11,0,0,0,1.74.45,35.47,35.47,0,0,1,4.32-2.58c-1.2,2.73-2.16,5.47-5.09,7.09-1.38.76-3.21,1.69-3,4.07.06.67-1.07,1.66-1.87,2.14a33.37,33.37,0,0,0-6.56,5.87c-1.46,1.52-3.74,2.63-2.56,5.59.49,1.21-1.27,1.67-2.1,2.29a74,74,0,0,0-10.22,8.65c-.47.5-1.08.91-1.11,1.7.58.56,1.32.35,2,.45-1.85,3.22-5.5,1.79-8.07,3.13a6.35,6.35,0,0,1-1.89.22c-1.78-.24-2.65-1-1.49-2.8a10.91,10.91,0,0,1,2.77-2.56c7.84-6,14-13.78,21.49-20.17a4.76,4.76,0,0,0,1.48-2.5Z"/><path class="cls-26" d="M15,162.49c-.33-1.58,1-2.42,1.59-3.6.47-.95.63-2.45,2.09-1.85a2.06,2.06,0,0,1,1,2.8,1.28,1.28,0,0,0,.41,1.78c1.66,4.85,5.15,8.65,7.9,13.12-.62-2.79-.27-5.42,1.84-7.48,1-1,2-2.16,3.63-1.68A3.87,3.87,0,0,1,36.16,169a28.86,28.86,0,0,1-.07,8.85,12.26,12.26,0,0,0,.41,6.25c0,.21,0,.43.06.64s-.06.43-.09.64a3.41,3.41,0,0,1-.69,1.1,2.94,2.94,0,0,1-2.29.93c-2.82-1.43-.44-3.81-1.21-5.71-.55,0-.49.66-.76,1-.94,1.14-1.33,3.15-3.27,2.8-1.65-.3-1.74-2.11-2-3.42-.81-4.29-3.84-7.25-6.23-11.65-.17,3,1.25,4.6,1.4,6.52-.07.84-.11,1.72-1.34,1.57-3-4-4.18-8.74-5.15-13.53.14-.49-.24-.83-.36-1.25A1.53,1.53,0,0,1,15,162.49Z"/><path class="cls-27" d="M92.82,199.73c-1.24,1.1-3.7.44-4,3.05-.1.7-1.74.24-3.21.27,1.84-2.74,2.26-5.53,2.63-8.32s2.2-4.94,4.07-7c.81-.9,4-1.65,1.1-3.81-.1-.07,0-.6.13-.73,2.78-2.39,1.07-4.32-.59-6.27,1.91-1.47,3.65-3.17,5.93-4.12.12.73.35,1.51,1.26,1.28,1.31-.32,2.47.42,3.74.32,1-.07,2.21.28,2.26,1.41s.42,2.57-.93,3.42a10.81,10.81,0,0,1-2.48,1.56c-3.8,1-4.72,3.93-4.77,7.3,0,1.66-1.91,2.51-1.59,4.23C96.17,195.24,95.31,197.87,92.82,199.73Z"/><path class="cls-28" d="M92.9,16.79l.84,0a2.94,2.94,0,0,1,2.35-.31c.1.1.28.22.27.31A5.59,5.59,0,0,0,100,22.3c.26.1.5.26.77.34,2,.6,3.32,3.65,5.85,2.32,2-1.05,3-3.28,4.27-5.11,2.37-3.39,5.54-6.36,6-10.83.32-.57.71-1,1.45-.72,1.28,1.52.43,3.41.87,5.08l-.09.3c-.19,3.63-.73,7.14-3.09,10.1-4.09,2.64-7.38,6.3-11.52,8.91-2.67,1.69-4.33,3.41-7.1-.48-1.45-2-4.34-3.63-6.45-5.6C86.94,22.89,87.76,18.63,92.9,16.79Z"/><path class="cls-29" d="M24.28,222.6c-2.37,1.92-3.66,4.65-4.75,7.3-1.44,3.49-3.17,6.85-4.51,10.37-1,2.71-3.29,4.63-4.3,7.51C9.5,251.24,9.47,254.7,9,258.18a1.85,1.85,0,0,1,.47,1.13c-1.13,3.48-4.49,6.12-3.8,10.27-.66,1.88-1,4-3.33,4.67-.07,0-.25-.14-.31-.26a.87.87,0,0,1,.07-.74c.54-6.74,2.68-13.17,3.82-19.8.54-3.18,1.39-6.3,2.08-9.45a6.71,6.71,0,0,1,1.77-3.73c3-2.54,3.89-6.23,5-9.71.8-2.46,1.72-4.69,3.89-6.21.21-.31.43-.61.61-.93,2.5-4,4.82-8.1,5.77-12.82,3.34.36,4.21,2.29,3.25,5.26a23.86,23.86,0,0,1-2.52,5.74A2.33,2.33,0,0,1,24.28,222.6Z"/><path class="cls-30" d="M92.9,156.54c3.46-2.54,4.83-7.12,8.9-9.1.48-.23.47-1.31.9-1.81,1.46-1.69,1.76-4.67,4.9-4.58.12,0,.25-.12.36-.21,3.47-2.74,3.47-2.74,7.19-.27-2.5,4.45-6.1,8-9.84,11.32a106.92,106.92,0,0,0-7.87,7.92,2.81,2.81,0,0,1-1.77,1.05,1.42,1.42,0,0,0-1,1,.81.81,0,0,1-.75.74c-.87-1.33-1.76-2.25-3.46-.92a8.24,8.24,0,0,1-2.65.83C88.24,159.41,90.8,158.17,92.9,156.54Z"/><path class="cls-29" d="M178.49,237.06c-.14-.48-.32-1.46-.79-1-1.15,1-1.5,3.44-3.88,1.57-.37-.29-.83.55-1.25.87-2.33,1.76-2.65,1.65-3.72-1.25-.16-.42-.34-.93-.77-.73-1.61.74-3.29-.4-5.1.85-3.52,2.44-5.62,1.4-7.4-2.87l3.39-2.53a2.7,2.7,0,0,1,.87-.81c5.87.57,10.94-1.53,16-4.28,1.64-.89,4.06.28,5.88-1.63.82-.86,1.53.54,1.53,1.63a3,3,0,0,1-1,1.23c-.06.33-.36.26-.59.32.12.28.25.24.4-.13.36-.31.67-.7,1.21-.68a.85.85,0,0,1,.35,1.24.53.53,0,0,1-.32.58,3.06,3.06,0,0,1-.66.82Q180.59,233.64,178.49,237.06Z"/><path class="cls-31" d="M197.93,205.68c.31-.3.63-.59.95-.88,1.63,1.41.51,2.52-.48,3.52-1.48,1.48-3.06,2.85-4.6,4.27-3.61,2.28-6.63,5.38-10.28,7.6-5.7,4.17-13.37,3.59-19,7.93a4.59,4.59,0,0,1-1.16.29c-4-.9-5-5-7.77-7.22-.57-1.3.33-2.13,1-3a13.5,13.5,0,0,1,1.38-1.72,11.47,11.47,0,0,1,2.56-1.13,7.35,7.35,0,0,1,1.14-.3,4.63,4.63,0,0,1,3.46.62c1.45,3.38,3.6,4.8,7.21,2.83,1.23-.66,2.73-.55,4.13-.61a14.5,14.5,0,0,0,10.73-5C190.12,209.56,194.27,208,197.93,205.68Z"/><path class="cls-32" d="M78.49,189.59c2.92.33,4.93.1,6.34-.85.76-.5,1.43-1,2.23-.17,1,1,.43,1.89-.38,2.51-2.83,2.15-3.63,5.23-3.94,8.49s-3,5-4.23,8.37c2.26-1.07,4.42-.23,6.28-1.4,1.65-1,2.85-.24,4,.87.94,2.41-1.09,3.32-2.33,4.63-2.6,1.8-5.19,3.35-8.5,1.39-1.22-.72-2.39.43-3.53.88a2,2,0,0,1-2.31-.38,1.83,1.83,0,0,1-.13-2.66c2.52-2.89,3.12-6.49,4.13-10,.76-2.61,0-4.82-2.44-5.69-.23-.08-.26-.44-.21-.75l.17-.17a1,1,0,0,1,.62-.63l.21-.22a1,1,0,0,1,.64-.63C75.71,191.49,77.31,190.73,78.49,189.59Z"/><path class="cls-33" d="M25.12,221.75c0-1.74,1.17-3.09,1.73-4.65,1.34-3.7,1.41-3.68-1.68-6.42-2-1.1-1.54-3.47-2.58-5.07-.42-2.34.64-4.48.89-6.73a3.65,3.65,0,0,1,2-1.72c.28-.14.56-.29.83-.45a4,4,0,0,0,.85-1,4.52,4.52,0,0,1,.52-.77,8.73,8.73,0,0,1,.61-.73l.33-.37a10.12,10.12,0,0,1,.71-.75,6.85,6.85,0,0,1,1.25-1,5.1,5.1,0,0,1,5,5.63,12.37,12.37,0,0,0-.48,3.27c-.42,4.25-3.92,7.31-4.41,11.54C30.58,217.21,28.64,220.44,25.12,221.75Z"/><path class="cls-34" d="M22.59,205.61a1.61,1.61,0,0,1,1.64,1.5c.25,1.2.62,2.38.94,3.57,1.32,4-1.77,6.74-2.69,10.1-2.64-.09-1.21,2.63-2.43,3.52-2.85,1.93-3.81,4.84-4.6,8-.66,2.69-2.49,5-3.4,7.68-.37,1.06-1.35,1.46-2.24.24C13.19,228.39,16.72,216.57,22.59,205.61Z"/><path class="cls-7" d="M11.57,149.76c.73,3.14,1.4,6.28,2.2,9.4.27,1.06.38,1.93-.68,2.56-2.31-1.7-2.73-4.3-3.23-6.86,1-.71.67-1.58.49-2.59-.57-3.13-2.34-6-2.16-9.28-1.4-3.91-2.13-7.68.51-11.52,2-2.9,4-3.32,6.43-.73a23.16,23.16,0,0,1,1.46,2.06c2.83,3.72,5.75,7.3,11.2,6.5,1.42,1.1,2.05,2.6.58,3.83-1.64,1.36-3.58,2.89-6,1.32-2.19-1.44-4-3.41-6.33-4.65-2.74-.45-4.41,1-4.42,4.33A42.3,42.3,0,0,0,11.57,149.76Z"/><path class="cls-35" d="M73.48,194.83c1.81.77,3.46.2,5.09-.61a1.66,1.66,0,0,1,2.27.28,2.17,2.17,0,0,1,.16,2.73c-.23.36-.38.88-.7,1-3.41,1.57-3.74,4.78-4.4,7.9a7.81,7.81,0,0,1-3.08,5.29,1.31,1.31,0,1,0,1.77,1.87c1.56-1.7,3.15-2.4,4.92-.3,1,1.17,2.08.38,3.12.17,1.25-.24,2-1.66,3.36-1.61-.34,3.06-1.59,5.37-4.92,6-1.48,0-2.45-2.53-4.27-.86-1.88-1.62-2.9-1.76-5.73,0-1.28.81-2.29,1.47-4,.33,3.48-4.06,4.4-9.44,7.35-13.85,1.65-2.48.75-3.71-2.29-3.93a5.42,5.42,0,0,1-1.53-.64A6.71,6.71,0,0,1,73.48,194.83Z"/><path class="cls-36" d="M142,43c-1,.35-.85,1.84-2.1,1.94a3.33,3.33,0,0,1-1.25-2.48c-.11-.69.12-1.64-.26-2.06-3.08-3.38-2.58-7.94-4-11.86-1.48-4.07-3.73-7.86-4.55-12.19a1.89,1.89,0,0,0-1.05-1.26c-3.19-.79-3-3.28-2.85-5.65s-.93-4.66-1.1-7c0-.64-.78-.72-1.31-.87.55-1.65,1.27-2.29,2.36-.37.35.61.64,1.24,1,1.87,1.58,4.45,4,8.5,5.78,12.88a37.27,37.27,0,0,1,3.67,9.8,18.66,18.66,0,0,0,2.24,5.87c1,1.64,1.94,3.44,1.7,5.53-.41,1.12.47,1.74,1,2.5C142.19,40.6,141.91,41.86,142,43Z"/><path class="cls-37" d="M183.53,219.22l8.58-6.52c.54-.41,1.07-1,1.69-.11a115.37,115.37,0,0,1-10.14,16.23c-.32-.38-.65-.76-1-1.13-.06-.67.16-1.41-.52-2-1.9.59-2.13,3.39-4.5,3.45-1.06-.59.78-1.34-.18-2.12-2.34,1.2-5,1.82-7.1,3.89a5.21,5.21,0,0,1-6.15,1c-1.62-.89-3-.2-4.42,0,.07-3,2.58-2.94,4.48-3.33,3.17-.64,6.35-1.14,9.11-3C176.81,223.54,180.57,222,183.53,219.22Z"/><path class="cls-38" d="M12.38,256.45c-2.27-4,1.21-6.22,2.91-8.83.81-1.25,2.08-2.21,2.22-3.84.08-.95.72-1.41,1.34-2A11,11,0,0,0,22.1,237c1.66-6.08,6.53-9.93,9.9-14.82,1.22-1.76,2.12,0,3.14.41-6.79,8.69-12.22,18.23-17.57,27.82.63.78.32,1.69.36,2.56a2.84,2.84,0,0,1-.29,1.06c-1.3,1.41-2.73,2.61-4.77,2.74Z"/><path class="cls-39" d="M38.65,247.1c0-.26,0-.52,0-.77,2.94,0,5.87-.06,8.53-1.56,1.83-2.69,5-2.23,7.56-3.15,1.58-.58,3.29-.77,4.89-1.31,4.52-1.06,8.91-2.62,13.47-3.49,2.17-.31,4.3-1,6.52-.87a6.47,6.47,0,0,1,2.64.51,1.21,1.21,0,0,1,.68,1.08,1.84,1.84,0,0,1-.87,1c-6.5,1.46-12.82,3.88-19.64,3.58L59,243.79a2.21,2.21,0,0,1-1.85,1.35c-6,1.41-12.44,1.78-16.81,7.08,0,.3,0,.61,0,.91-3.78,0-7,1.94-10.41,3.06-1.33.43-2.51,1.31-4,1.36-.49-2,1.37-2.52,2.41-3.44C31.52,251.36,35.15,249.32,38.65,247.1Z"/><path class="cls-40" d="M50.48,222.52a1.83,1.83,0,0,1-.31,2.6c-2.64,2.29-4.66,5.25-7.72,7.1a5.91,5.91,0,0,0-1.87,1.68c-3.66,5.46-8.95,9.16-14,13.15A5.22,5.22,0,0,0,25,248.91c-.31.71.54.71,1.05.81-1.94,3.28-4.93,4-8.42,3.44l-.16-.2c-.2-1,.4-1.56.93-2.19,9.26-6.85,17.5-14.83,25.74-22.83C46.09,226,48.34,224.32,50.48,222.52Z"/><path class="cls-41" d="M22.69,259.89A158.77,158.77,0,0,0,9.45,282c-2.19,4.34-2.45,4.36-7.15,3-.95-2.85,2.92-2.5,3.08-4.62a1.69,1.69,0,0,1,1-.44,2.43,2.43,0,0,1,1,.51l.36.42c.41-.09,0-.41.17-.59,0-3.89,1.58-7.39,2.72-11a9,9,0,0,1,.43-1.06,15.75,15.75,0,0,1,1.11-2,21.07,21.07,0,0,1,3.71-3.66C18.09,261.55,19.49,258.39,22.69,259.89Z"/><path class="cls-42" d="M22.69,259.89c-2.88,0-4.25,2.93-6.86,3.44-.52-2.14,1-3.47,2.17-4.73,3.05-3.13,5.49-7,9.61-8.94A14.66,14.66,0,0,1,33.92,248a2.89,2.89,0,0,0,2.27-.81l2.46-.1c0,1.62-1.54,1.9-2.51,2.6-3.48,2.5-7.17,4.72-10.16,7.85A5,5,0,0,1,23.64,259a2.69,2.69,0,0,0-1.05.9Z"/><path class="cls-43" d="M118.3,8.3l-.84.85c-.31,3.92-2.81,6.61-5.74,8.53-2.49,1.63-5.78,1.83-8.68,2.67-1.76.51-2.33-1.87-2-3.69-.25-1.17-1.78-.66-2.18-1.62a1.81,1.81,0,0,1,1.51-.51c4,.36,7.3-1.27,10-4,1.88-1.9,4.25-2.49,6.7-3A1,1,0,0,1,118.3,8.3Z"/><path class="cls-44" d="M30.24,193l-.85.87a6.75,6.75,0,0,0-.85.84h0a5.56,5.56,0,0,0-.83.85h0c-.55.42-.38,1.22-.88,1.67h0c-2.11.09-1.84-1.76-2.2-2.92-.73-2.38-1-4.89-1.91-7.23a17.17,17.17,0,0,0-2.62-8.49,1.71,1.71,0,0,0,.82-1.68c.86-3.14,2.2-1.78,3.23-.22,2,3.07,2.9,6.61,3.64,10.15a8.8,8.8,0,0,0,2.57,5.1A.8.8,0,0,1,30.24,193Z"/><path class="cls-45" d="M11.55,268.32c-.7,4.35-2.28,8.48-3.36,12.73a.56.56,0,0,1-.84,0h0c-.26-.29-.56-.56-.84-.85h0c-1.57-2.61,1.53-4.67.78-7.67-3.46,3.23-2.8,8.31-6,11.25A6.17,6.17,0,0,1,1,276.62c.68-1.08,0-2.53,1.15-3.37,1.14-.54,1.77-1.48,2.71-4.1C7.09,269,9.29,268.38,11.55,268.32Z"/><path class="cls-46" d="M1.32,283.78c.52-3.32,2.34-6.21,3.1-9.46a9,9,0,0,1,1.37-2.59A1.75,1.75,0,0,1,8,271.11c1,.34,1.07,1.24.89,2.07a7.48,7.48,0,0,1-1,3.16c-1,1.18-.71,2.66-1.37,3.86-.75,1.72-1.55,3.37-3.71,3.73-.22,0-.33.7-.49,1.08C1.58,284.91,1.43,284.36,1.32,283.78Z"/><path class="cls-47" d="M22.71,187a9.9,9.9,0,0,1,2.6,5.51c.18,1.52.2,3.37,1.51,4.64-.81,1.17-2.34.91-3.34,1.69A31.09,31.09,0,0,1,22.71,187Z"/><path class="cls-48" d="M132.64,15.93a26.61,26.61,0,0,1-5.78-12.88C129.33,7.1,132.43,10.86,132.64,15.93Z"/><path class="cls-34" d="M98.82,15c1,0,2,.07,2.93.14.45,0,.82.19.47.76-1.43.84-2.85,1.33-4.25,0,0-.26,0-.52,0-.77A2.16,2.16,0,0,1,98.82,15Z"/><path class="cls-1" d="M159.36,163.19c-1.83-.12-3.8.82-5.46-.68C155.72,162.74,157.68,161.85,159.36,163.19Z"/><path class="cls-34" d="M97.3,15l-4.75,0C94.13,14.47,95.72,14,97.3,15Z"/><path class="cls-21" d="M143.83,69.57l0-4.71A3.86,3.86,0,0,1,143.83,69.57Z"/><path class="cls-21" d="M141.23,39.63c-1-.58-2.34-1-1-2.5A3.84,3.84,0,0,1,141.23,39.63Z"/><path class="cls-49" d="M18.35,250.77a3.58,3.58,0,0,1-.93,2.19c-1.3-.94,0-1.73.15-2.59Z"/><path class="cls-34" d="M91.46,15c-1,.14-2,.36-2.74-.58Z"/><path class="cls-35" d="M68.33,203.12l-2,.66a1.88,1.88,0,0,1,1.07-1.53Z"/><path class="cls-34" d="M87.72,14.49a1.54,1.54,0,0,1-1.64.53A1.86,1.86,0,0,1,87.72,14.49Z"/><path class="cls-5" d="M67.43,25.17a1.48,1.48,0,0,1-1.63.89A2.49,2.49,0,0,1,67.43,25.17Z"/><path class="cls-7" d="M46.21,37.73c-.21.84-.82,1.05-1.58,1Z"/><path class="cls-9" d="M38.69,44.07c-.07.77-.39,1.32-1.25,1.38C37.72,44.86,37.87,44.17,38.69,44.07Z"/><path class="cls-7" d="M15,162.49c0,.53-.11,1.07-.17,1.6l-.47,0a.49.49,0,0,1-.31-.59Z"/><path class="cls-16" d="M14.31,164.13a3.88,3.88,0,0,1,.48,0c.55.22.86.49.15.93A.88.88,0,0,1,14.31,164.13Z"/><path class="cls-1" d="M173.26,170.11a1.38,1.38,0,0,1-.74-1.4C173.22,168.94,173.22,169.53,173.26,170.11Z"/><path class="cls-35" d="M66.39,203.73c.09.44.35.92-.17,1.24-.08.05-.36-.23-.56-.35C65.73,204.17,65.9,203.82,66.39,203.73Z"/><path class="cls-29" d="M177.69,238.91a1.59,1.59,0,0,1,.82-1.88A2.48,2.48,0,0,1,177.69,238.91Z"/><path class="cls-16" d="M79.32,18.54a1.21,1.21,0,0,1-1.12.65A1.12,1.12,0,0,1,79.32,18.54Z"/><path class="cls-5" d="M71.7,22l-.86.66C70.93,22.17,71.19,21.91,71.7,22Z"/><path class="cls-5" d="M70.82,22.67a1.15,1.15,0,0,1-.92.8A1,1,0,0,1,70.82,22.67Z"/><path class="cls-5" d="M69.11,23.84l-.72.53A.63.63,0,0,1,69.11,23.84Z"/><path class="cls-5" d="M68.3,24.43a1.08,1.08,0,0,1-.88.75A.82.82,0,0,1,68.3,24.43Z"/><path class="cls-17" d="M62.34,28l-1,.5Z"/><path class="cls-7" d="M58.08,29.78l-.81.47A.66.66,0,0,1,58.08,29.78Z"/><path class="cls-7" d="M57.26,30.26a1.24,1.24,0,0,1-1.17.78A1.1,1.1,0,0,1,57.26,30.26Z"/><path class="cls-7" d="M55.56,31.52,54.9,32Z"/><path class="cls-7" d="M53.84,32.32l-.89.46A.78.78,0,0,1,53.84,32.32Z"/><path class="cls-7" d="M51.33,34l-.66.51Z"/><path class="cls-7" d="M49.61,34.85l-.75.52C49,35,49.19,34.77,49.61,34.85Z"/><path class="cls-7" d="M48.8,35.4a1.24,1.24,0,0,1-1.17.72A1.16,1.16,0,0,1,48.8,35.4Z"/><path class="cls-7" d="M47.11,36.58a.66.66,0,0,1-.49.48A.43.43,0,0,1,47.11,36.58Z"/><path class="cls-9" d="M36.93,45.9l-.65.51Z"/><path class="cls-13" d="M124.33,127.15a1.3,1.3,0,0,1,.73-1.11A1.26,1.26,0,0,1,124.33,127.15Z"/><path class="cls-11" d="M94.67,161.82a1.21,1.21,0,0,1,1-1Z"/><path class="cls-1" d="M164.38,164a1.28,1.28,0,0,1-1.16-.63A1.06,1.06,0,0,1,164.38,164Z"/><path class="cls-1" d="M166.15,164.86a1.37,1.37,0,0,1-1.24-.66A1.11,1.11,0,0,1,166.15,164.86Z"/><path class="cls-1" d="M167.86,165.72a1.42,1.42,0,0,1-1.25-.63A1.26,1.26,0,0,1,167.86,165.72Z"/><path class="cls-1" d="M169.55,166.56a1.39,1.39,0,0,1-1.26-.69A1.27,1.27,0,0,1,169.55,166.56Z"/><path class="cls-1" d="M170.75,167.53l-.76-.77C170.51,166.74,170.72,167.05,170.75,167.53Z"/><path class="cls-1" d="M171.67,168.34c-.28-.22-.55-.45-.82-.68C171.12,167.89,171.39,168.12,171.67,168.34Z"/><path class="cls-1" d="M173.92,170.89l-.58-.64Z"/><path class="cls-35" d="M75.12,193.18c-.21.21-.43.42-.64.64A.67.67,0,0,1,75.12,193.18Z"/><path class="cls-35" d="M74.27,194l-.62.64A.65.65,0,0,1,74.27,194Z"/><path class="cls-35" d="M70.69,198.61a.93.93,0,0,1-.92.95A1.16,1.16,0,0,1,70.69,198.61Z"/><path class="cls-35" d="M69.79,199.49c0,.44,0,.82-.56.44A.51.51,0,0,1,69.79,199.49Z"/><path class="cls-37" d="M182.68,230.22l.66-.82C183.35,229.86,183.06,230.07,182.68,230.22Z"/><path class="cls-41" d="M22.59,259.94l1.05-.9A1.22,1.22,0,0,1,22.59,259.94Z"/><path class="cls-50" d="M80.11,236.9c-2.3-.24-4.41.91-6.68.85-1.48-2.09-.74-3.55,1.52-4.07a8.37,8.37,0,0,0,4.85-3.09c1.68-2.1,4.15-3,6.58-3.58,4.93-1.25,6.21-5.33,6.92-9.33a5,5,0,0,1,2.86-4.14,26.43,26.43,0,0,0,9.07-5.1,2.25,2.25,0,0,0,1-2.55c-.42-1.1-1.54-1-2.5-1.18-1.29-.18-2.43.61-3.69.65-2.21.08-4-.42-3.82-3.17.88-3.07,1.88-6.09,2.54-9.22,2,1.29,3.9,2.6,6.49,2.71,1.34,0,3.26.22,3.67,2.18.49,2.33,2,2.31,3.42,1.27,3.11-2.29,5.24.5,7.66,1.35,1.21.43.82,1.93.21,3-1.75,3-4,5.55-7.55,6.17a12.1,12.1,0,0,0-5.24,2.46c-1.07.8-2.89,1.52-1.59,3.6.2.32-.39,1.64-.83,1.76-2.63.77-2.78,3.15-3.65,5.11-1,2.2-3.72,3.94-6.55,4.56a8.3,8.3,0,0,0-4.67,3.29c-1,1.37,0,2.88,1.94,3.24-2,3.57-5.6,2.9-8.82,3.21A4,4,0,0,0,80.11,236.9Z"/><path class="cls-51" d="M82.82,236.29c3.21-.47,6.43-.9,9.27-2.65,6.46-2.21,13-4.29,18.93-7.72,3.88-2.23,8.08-3.77,12.12-5.6-2.48-7.17-2.12-9.5,1.81-12.26,3.18-.65,5.58-3.11,8.75-3.76a3,3,0,0,1,1.09.38c1.66,1.92,4,.08,5.86,1.1a2.36,2.36,0,0,1,.78.76c0,.18,0,.36.08.54a2.5,2.5,0,0,1-.4,1c-.1.13-.21.26-.31.4s-.46.49-.7.72-.23.23-.35.35-.45.46-.69.69-.24.22-.35.34a6.44,6.44,0,0,1-.77.61c-.28.19-.56.37-.85.54a11.66,11.66,0,0,0-1.2,1c-1,1.13-2.21,2.16-3.33,3.44,2.1-.12,3.92-1.63,6-.79a2.22,2.22,0,0,1,1.21,1.89c-.8,2.08-3,2.57-4.45,3.93a10.07,10.07,0,0,0-1.42,2.06l-.42.27c-7.84,3.48-16.17,5.8-23.68,10.05-4.72-.46-9,2.19-13.65,2,.24.38.85.11,1,.59-3,1.75-6.37.28-9.51.9a22.16,22.16,0,0,1-2.53.73,2.87,2.87,0,0,1-2.43-.86l0,0c-.3-.19-.39-.36-.28-.51A.45.45,0,0,1,82.82,236.29Z"/><path class="cls-7" d="M159,174.33c.47-.79,1.41-1.47,2-1.18,3.68,1.73,8.49-3.11,11.51,2-1.26,2.52-4.33.82-5.93,2.54-.89,1-2.21,1.16-3.27,1.8-.84.5-2.06.92-2.17,1.86-.71,6.17-5.2,9.24-9.8,12.26-1.9.76-3.68,2.25-5.93,1,.72-3.19.72-3.19-3.53-5.84,2.5-3.07,3.05-3.19,10.58-2.31.09-.25.32-.6.23-.73-2.09-3.09-.1-5,2.05-6.73,1.65-1.33,3.08-2.49,1.31-4.71a1.25,1.25,0,0,1,0-1.56,1.9,1.9,0,0,1,1-.72c.54-.13.57.38.62.79A1.83,1.83,0,0,0,159,174.33Z"/><path class="cls-52" d="M98.78,193c1.56,3.46-.77,6.17-1.74,9.14-.72,2.46-2.3,4.43-3.74,6.47-5.17,5.7-9.61,12-15.35,17.24-1.33,1.2-2.45,2.77-4.54,2.7-.49-.1-1.39,0-1-.75a8.18,8.18,0,0,1,1.91-2.22,52.49,52.49,0,0,0,6.8-8c2.23-1.5,3.35-3.92,4.92-6,1-1.38,2.49-2.36,2.81-4.17a18.32,18.32,0,0,0,4-7.68c1.33-2.41,1.82-5.21,3.5-7.45Z"/><path class="cls-53" d="M145.42,194.67,151.3,193c1.42,4.21-2.16,6.25-3.91,9.1-.26.29-.54.56-.82.83s-.54.54-.83.79c-1.53.91-2.17,3.34-4.6,2.74-1,.07-2-.66-3.16.1-1.88,1.21-3.08.22-3.58-1.78-2.77,1.44-6,2.08-8.29,4.41-.35.36-.92.8-1.3.06-.16-.3.08-.81.14-1.23l0,.08c.41-.13.64-.49.94-.77h0a3.11,3.11,0,0,1,.85-.68l.13-.11c.34-.59,1.13-.4,1.54-.87l0,0c.44-.51,1.25-.34,1.64-.91h0c.5-.43,1.28-.28,1.72-.84h0c.48-.45,1.32-.3,1.67-1,3.35-3,7.62-4.54,11-7.43C144.84,195.26,145.12,195,145.42,194.67Z"/><path class="cls-54" d="M166.59,177.71c.9-1.51,1.78-2.89,4-2,.49.2,1.29-.35,2-.56,1.66,1.45,3.82,2.31,5.07,4.24-2.58.32-5.05-1.57-7.77-.21C168.61,179.8,168,177.56,166.59,177.71Z"/><path class="cls-54" d="M179.29,182.8c-1.54-.64-1.77-1.94-1.69-3.38A4.62,4.62,0,0,1,179.29,182.8Z"/><path class="cls-51" d="M133.51,203c-.26.84-.92,1-1.67,1A2.1,2.1,0,0,1,133.51,203Z"/><path class="cls-51" d="M131.85,203.94a1.62,1.62,0,0,1-1.72.84A1.84,1.84,0,0,1,131.85,203.94Z"/><path class="cls-51" d="M130.14,204.77a1.63,1.63,0,0,1-1.64.91A1.74,1.74,0,0,1,130.14,204.77Z"/><path class="cls-51" d="M128.47,205.7a1.74,1.74,0,0,1-1.54.87C127.21,205.86,127.81,205.73,128.47,205.7Z"/><path class="cls-51" d="M126.8,206.68l-.85.68Z"/><path class="cls-51" d="M125.93,207.37l-.94.77A1,1,0,0,1,125.93,207.37Z"/><path class="cls-55" d="M53.11,108.25c1.26-2.72.7-5.63.86-8.46a1.56,1.56,0,0,0,.06-.68A1.94,1.94,0,0,1,57.15,99c2,2.14,1.31,4.7,1.09,7.17-1,3-.51,6-.63,9,0,1.14,0,2.27-.14,3.39a9.91,9.91,0,0,1-.19,1.33,9.18,9.18,0,0,1-.34,1.3c-.16,4.91-.9,9.77-1.34,14.66a14,14,0,0,0-.56,4.6,14.68,14.68,0,0,1-.35,2.72c-1.21,5.44-.87,11.25-3.9,16.26-3,1.42-2.92-.91-2.89-2.61,0-2.6.83-5.16.71-7.79a56,56,0,0,0,.91-9.14,9.4,9.4,0,0,1,.24-1.39c.87-3,.37-6,.45-9a17.6,17.6,0,0,1,.36-3.55c.89-2.79.36-5.67.54-8.5C51.3,114.29,52.48,111.33,53.11,108.25Z"/><path class="cls-56" d="M56.46,119.27c0-1.14,0-2.28.08-3.41,1-3.11-.22-6.38.69-9.49,0-2.46,0-4.92-.07-7.38,3-.47,4,2.07,5.43,3.83a4.09,4.09,0,0,0,6.06.62c2.44-2.13,5.28-3.66,7.92-5.48.92-.63,1.8-.89,2.63,0a2.83,2.83,0,0,0,2.21,1c2,0,2.14,1.27,2.18,2.81,0,1.35-.44,2.83.75,4a3.42,3.42,0,0,1,2.08,1.86,2.36,2.36,0,0,1-.17,1.14,6.86,6.86,0,0,0-.8,2.37c-1.45,7.1-3.87,8.87-11.1,8.14-.76,1.22.67,2,.68,3,0,1.87,0,3.1-2.72,2.79-5.78-.66-6.71-.24-6.13,6.56a11.49,11.49,0,0,1-1.19,7c-2.28,4.3-.85,8.08,2.8,11.1-.57,3.64-1.9,6.84-5.22,8.86-3.73-2.52-4.65-5.14-3.56-8.87a26.44,26.44,0,0,0,1-9c-.31-5.23,0-10.67-3-15.45a5.31,5.31,0,0,1-.62-5.2l0,0c.25-.16.34-.34.27-.53S56.53,119.27,56.46,119.27Z"/><path class="cls-57" d="M86.05,107.31c-1.15.1-1.53-.64-1.71-1.58-.52-6.79,1.07-13.47,1-20.23,1.4-2.13.62-4.53.83-6.81a50.38,50.38,0,0,0,1.67-11.9c1.22-1.05.51-2.64,1.09-3.85s.3-2.92,2.28-3a44.14,44.14,0,0,1-.09,13.72c-.7,5-1.11,10-1.87,15-.31,2.06.42,3.85.92,5.72C90.48,99.22,90.39,103.94,86.05,107.31Z"/><path class="cls-29" d="M136.09,241.24c-.43,1.77-2.54,1.31-3.39,2.54-3.3-.24-6,2-9.28,2.13-.82,0-1.69.53-2.44.37-4.21-.92-8.53-.14-12.74-.9-3-.54-6.07-.8-8.87.23a16.68,16.68,0,0,1-7.32.72c.69-1.08,2-.91,3-1.43.74-.39,1.81-.35,2.34-.89,3.46-3.52,8.24-4.44,12.45-6.47,1-.5,2.18-1.14,3.18-.85,3,.88,5.66-.64,7.94-1.8,3.52-1.81,6.72-1.07,10-.25,2,.5,2.47,2.75,2.2,4.12C132.56,241.9,134.55,241.11,136.09,241.24Z"/><path class="cls-58" d="M79.39,253.05A22.73,22.73,0,0,0,71,249.63c-1.47-.8-3.67-.3-4.37-2.47.74-3.11,1.25-3.56,4.09-2.65a108.56,108.56,0,0,0,12.92,3.14,21.3,21.3,0,0,0,4.13.38h0c1,.91,2.41-.08,3.39.82,6.67,1.59,13.23,3.7,20.1,4.39a4.75,4.75,0,0,1,1.21.34c1.4.52,3.53.41,3.76,2.15s-2.22,1.28-3.06,2.36c-7.54,2.06-14.87.06-22.23-1.18-1.79-.3-3.57-.67-5.33-1.09a22.56,22.56,0,0,1-2.41-.78c-.35-.15-.69-.33-1-.51-.76-.52-1.73-.55-2.5-1.06Z"/><path class="cls-59" d="M82,253.91a2.07,2.07,0,0,1,.78.1c.51.48,1.27.33,1.82.71,4.24,0,8.25,1.4,12.39,2,5.4.79,10.76,1.67,16.25,1.37-.49.87-1.33.91-2.18.93a4.89,4.89,0,0,0-2.83.51c-3.67,2.46-8.07,3.21-12,5a8,8,0,0,1-3.29.39c2.13-2.62,2-2.4-.94-3.48s-6-2.93-9.41-3.32a1.07,1.07,0,0,1-.92-.66c-1.17-2.24-1.19-2.23-3.19-.61.83-1.18-1.73-3,1-3.84h0C80,253.94,81.24,253.2,82,253.91Z"/><path class="cls-10" d="M91.2,248.86c-1.19,0-2.46.28-3.39-.83C89,248.05,90.3,247.65,91.2,248.86Z"/><polygon class="cls-22" points="136.94 254.79 136.75 255.15 136.59 254.99 136.94 254.79"/><polygon class="cls-1" points="165.74 166.7 165.39 166.51 165.55 166.35 165.74 166.7"/><path class="cls-60" d="M94.63,68.45c1.35-1,.45-2.7,1.13-3.92.39-.71.64-1.91,1.63-1.63a7.67,7.67,0,0,0,6.07-.59c.73-.39,1.14.91,1.27,1.76.3,1.88-1.15,3.5-.72,5.39.84,5.13-1.19,9.44-3.89,13.55a1.22,1.22,0,0,1-.75-1.91c-1.74,2.6-3.75,5.56-5.76,8.52-.74,1.08-1.89,2.69-3.66,1,.14-6.88,2.43-13.41,3.3-20.17A2.87,2.87,0,0,1,94.63,68.45Z"/><path class="cls-61" d="M99.77,83A103,103,0,0,0,104,69.46a6.6,6.6,0,0,0,1.65-4.27,1.36,1.36,0,0,1,1.14-.58,2,2,0,0,1,1.17.58c1.43,1.86.66,3.81,0,5.58a178.25,178.25,0,0,0-7.39,25.73c-.21.76-.49,1.5-.67,2.28a15.71,15.71,0,0,1-.44,1.63c-.3.86-.59,1.72-.81,2.61-.09.37-.2.72-.31,1.08a38.93,38.93,0,0,1-3.94,10.2c-1.4,2.12-2.34,4.61-4.68,6-1.44.15-1.63-.83-1.73-1.91a6,6,0,0,1,.2-1.19c.21-.8.37-1.6.55-2.41a184.52,184.52,0,0,0,8.65-27.1C97.79,86,98.12,84.1,99.77,83Z"/><path class="cls-62" d="M94.63,68.45Q92.58,79.91,90.5,91.37c0,.17,0,.34,0,.51a6,6,0,0,1-.62,2.49l-.39.35c-1.7-2.11-1.83-4.5-1.53-7.09.86-7.44,2.59-14.79,2.36-22.35,0-1.81-.2-3.65.84-5.3,2.48.13,3.3,1.73,3.4,3.89C94.67,65.4,94.63,66.93,94.63,68.45Z"/><path class="cls-63" d="M107.28,65.07l-.85,0a14.83,14.83,0,0,1,0-7.6c1.15-.9.69-2.2.84-3.35.93-.64,1.14-1.72,1.66-2.62,1.22-3.57,2.58-7.11,2.56-11,1.48-1.49.6-3.38.85-5.07.49-3.14.14-6.48,2.23-9.23,2.1-.66,1.89,1.21,2.46,2.23a4.8,4.8,0,0,1,.06,1.31,30.7,30.7,0,0,0-.31,5.16c-1.1,5.22-3,10.24-3.7,15.55C111.19,55.32,110,60.5,107.28,65.07Z"/><path class="cls-64" d="M106.48,57.44c0,2.53,0,5.07,0,7.6l-.77.15C105.89,62.6,104.81,59.88,106.48,57.44Z"/><polygon class="cls-9" points="54.78 70.99 54.43 70.79 54.59 70.63 54.78 70.99"/><polygon class="cls-9" points="61.56 78.61 61.91 78.81 61.75 78.96 61.56 78.61"/><polygon class="cls-7" points="57.32 57.44 57.13 57.79 56.97 57.63 57.32 57.44"/><path class="cls-23" d="M66.65,247.16c1.47.81,3.13,1.27,4.37,2.47-2.15.25-4.38-.22-7.25.61A16.42,16.42,0,0,0,70.25,253c.23,1.27-1.39,1.11-1.25,2.13.17.16.36.47.55.47,3.45-.08,5.74,2.46,8.56,3.78.49.23,1,.69.55,1.35a1.25,1.25,0,0,1-1.4.71c-2.3-.88-4.93-.06-7-.94-2.82-1.19-5.56.94-8.2-.45-.17-.09-.58.07-.77.24-1,.88-1.62,2.64-3.36,1.89S54.09,261,53.09,259a2.77,2.77,0,0,0,1.8-.94A4.57,4.57,0,0,1,60.27,257c2.22.82,4.56,1.33,6.86,1.93a1.43,1.43,0,0,0,1.54-.43c.36-.51.1-1.07-.31-1.51a9.06,9.06,0,0,0-1.5-1.47c-1.28-.84-3.11-.91-3.67-2.73l-.79.29A4.11,4.11,0,0,0,58.64,252,2.45,2.45,0,0,1,56,250.42a7.19,7.19,0,0,1,5.37-1.52A7.18,7.18,0,0,0,66.65,247.16Z"/><path class="cls-65" d="M174.22,226c-2.3,2.56-5.5,2.86-8.6,3.37-2.17.36-4.43.42-5.81,2.55H159a52.85,52.85,0,0,0-7.62,1.43c-4.08,1-7.81.4-11.56-.74a4.44,4.44,0,0,1-3.42-4.16c0-1.28-.73-1.66-1.12-2.46,1.81-1.67,4.05-1.07,6.16-1.2a12.69,12.69,0,0,1,7.86,2.54c3,2.31,5.91,2.12,9.06,1.21,1.61-.47,3.35,0,4.87-.86H164C167.43,227.1,170.53,224.78,174.22,226Z"/><path class="cls-66" d="M142,226l-6.74,0a2.09,2.09,0,0,1-.93-1.64,1.43,1.43,0,0,1,.12-1.27c1.41-1.87,3.63-2,5.61-2.35a54.51,54.51,0,0,0,16.58-5.17c1.5.63,1.17,1.71.68,2.82l-1.77,2.48c-.1.18-.19.37-.28.56a7.24,7.24,0,0,1-1.39,1.26C150.33,225.31,146.08,225.34,142,226Z"/><path class="cls-67" d="M86.06,238.65c1.25.26,3-.53,3.39,1.58.32,1.68-.52,2.6-1.93,3.32a19.88,19.88,0,0,0-2.74,2,2.31,2.31,0,0,1-1.92.67c-4.89-1.11-9.94-1.65-14.49-4C74.25,240.92,79.94,238.73,86.06,238.65Z"/><path class="cls-68" d="M86.06,238.65c-2.78-.06-4.78,2.08-7.39,2.57a63.68,63.68,0,0,1-10.3,1c-2,.57-4,1.67-5.9-.07q8.46-1.94,16.93-3.85c1.07-.24,2.17-.38,3.26-.56.8-.56,1.88,0,2.66-.63l2.37,0Z"/><path class="cls-69" d="M40.38,252.22a5.52,5.52,0,0,1,4.15-4.82c3.95-1.34,8-2.24,12.09-3.28.16,0,.42.31.64.48-2.57,3.28-6.68,3.52-10.11,5.11l-4.21,1.77c-.5.42-1.26.25-1.75.72h-.4Z"/><path class="cls-70" d="M47.15,249.71c3-2.37,6.67-3.54,10.11-5.11l1.78-.81c.55,1.48,2.87-.5,3,1.37s-1.86,1.29-2.84,1.82A25.47,25.47,0,0,1,47.15,249.71Z"/><path class="cls-71" d="M97.2,236.21l-2.47-.14c3.43-1.71,7.24-1.84,10.75-3.16a3.84,3.84,0,0,1,4.33.67A41.6,41.6,0,0,1,97.2,236.21Z"/><path class="cls-29" d="M138.64,241.24h-2.55c1.07-2.11,3.29-1.91,5.09-2.54C140.82,240,139.27,240.18,138.64,241.24Z"/><path class="cls-29" d="M154.73,234.47c-1.19,1.41-2.81.64-4.24.84C151.68,233.9,153.3,234.67,154.73,234.47Z"/><path class="cls-23" d="M62.18,253.42a1.25,1.25,0,0,1-1.41.34c-.1,0-.14-.21-.21-.32L62,253.1C62.48,253,62.53,253.1,62.18,253.42Z"/><path class="cls-39" d="M41.19,252.2a1.79,1.79,0,0,1,1.75-.72A1.67,1.67,0,0,1,41.19,252.2Z"/><path class="cls-51" d="M134.4,223.45c0,.31-.05.61-.08.91-.28-.28-.56-.55-.83-.83l.1-.12.42-.27Z"/><path class="cls-72" d="M92.9,156.54c-1.7,2-3.39,4-5.09,5.93a14.84,14.84,0,0,1-6.33,8.25c-3.56,2.33-5.64,6.34-9.69,8a1.3,1.3,0,0,0-.63,1c-.18,3-2.5,4.12-4.71,5.29-1,.51-2,.61-2.49,2-.71,2.12-2.44,2.25-4.09,1.2s-2.33-.3-2.58,1.21c-.53,3.25-2.4,5.48-5,7.45-2.1,1.62-3.59,3.94-5.35,5.92-3.1,3.48-6.47,6.72-9.4,10.36-1.32,1.64-2.32,3.51-4,4.93a2.11,2.11,0,0,1-2.64.36,1,1,0,0,1-.23-.88,4.57,4.57,0,0,1,.46-.84c.09-.12.19-.25.27-.38s.33-.54.5-.8a6.13,6.13,0,0,1,.49-.82c.17-.28.36-.54.55-.81s.17-.29.24-.43c.22-.49.4-1,.6-1.48Q41.12,199.41,48,186.71a6.65,6.65,0,0,1,1.21-1.33c3.69-2.75,7.21-5.81,12.21-6,1.25,0,2.28-1,3.36-1.68,3-1.12,6.13-2.11,6.38-6.24.08-1.3,1.5-1.93,2.6-2.59,1.8-1.08,2.94-2.5,2.29-6.12-2.77,5.09-6.51,5.95-10.84,4.63-2.42-.74-2.06-3.08-2.57-4.9.05-3.46,2.25-5.93,4-8.61,1.37.47,2-1.31,3.35-1.07a9.26,9.26,0,0,1,1.63.57c1.38.68,3.16.12,4.32,1.42a4.14,4.14,0,0,0,1,3.11c2.19,2.34,3,5,1.73,8.09-.11.29.22.74.42,1.35,2.36-.89,3.74-2.87,5.19-4.5C86.73,160.1,89.31,157.69,92.9,156.54Z"/><path class="cls-73" d="M31.18,217.51c-.07.28-.13.57-.2.85-1.36.68-1.7,2.12-2.42,3.27-1.36,2.18-1.77,2.52-4.62,3.7-.57-1,.6-1.78.34-2.73l.84-.85c2.25-1.7,3.33-4.22,4.6-6.61.56-1,0-1.83-.35-2.69a44.17,44.17,0,0,0,8.05-14.69c1.3-3.93,3.73-6.9,6.46-9.72,1.26-1.31,2.86-2.44,4.84-1a256.52,256.52,0,0,1-13.5,24.26,13.43,13.43,0,0,0-.82,1.9,4.35,4.35,0,0,1-.8,1h0a7.58,7.58,0,0,0-.76.84,2.8,2.8,0,0,0-.12.76,7.31,7.31,0,0,1-.8,1h0A4.38,4.38,0,0,0,31.18,217.51Z"/><path class="cls-38" d="M9.13,259.16l-.09-1,1.63-.07c.08.16.15.33.23.5A1.09,1.09,0,0,1,9.13,259.16Z"/><path class="cls-38" d="M11.52,257.28l.86-.83.07.06a.78.78,0,0,1-.38.95Z"/><path class="cls-38" d="M10.67,258.11l.85-.83.07.06c.18.76-.1,1.05-.86.84Z"/><path class="cls-22" d="M136.1,61.67c-1,2.07.11,4,.48,6s1.23,4-.45,5.93a1.87,1.87,0,0,0-.07,2.37c2.44,3.52,1,7.33.42,10.87-.73,4.8-3.28,9.07-5.46,13.4-.12.25-.47.48-.45.69.38,4.38-2.79,6.86-5.15,9.8-1.07,1.33-.66,3.24-1.89,4.73s-2,1.55-3,.37a3.38,3.38,0,0,0-3.18-1.62,1.23,1.23,0,0,1-.37-1.27c-.19-.36.92-.23.28-.76l-.9-.25a3.8,3.8,0,0,0-1.89.22l-.92.44a8,8,0,0,0-1.27,1c-1.4,1.34-2.66,2.82-4.15,4-1,.86-2.08,2-3.6.79,0-3.34,1.82-5.8,4.13-7.94,1-1,2.32-1.67,3-2.93,1.75-3.26,3.53-5.47,7.37-2.09,1.64,1.44,5.55-.56,7-3.09,5.57-10,6.09-21.1,7-32.1.06-.69.08-1.51-.77-1.74a1.93,1.93,0,0,0-2.1,1.07c-1,1.54-1,3.49-1.84,5.14-1.85,3.76-4,4.77-6.91,3.17,1.42-5.26,4.39-9.61,8-13.62,1.47-2,.64-4.36.73-6.55.17-4.44.09-4.45,4.72-4.92A14.68,14.68,0,0,1,136.1,61.67Z"/><path class="cls-32" d="M116.6,29.48q0-.42,0-.84c-.74-1-.07-2.51-1.21-3.37a1.67,1.67,0,0,1,.35-1.73q1.67-4.93,3.34-9.86a2.72,2.72,0,0,1,.69,2.71c-.49,1.74-1.23,3.53-1.19,5.28.06,2.11-1.89,4.39,1.21,6.49,1.65,1.12,1.58,4.43.75,6.78-.6,1.68-.55,3.28.76,4.22,2.31,1.66,2.21,3.84,2.16,6.21,0,1.33-.89,3.15,1.78,3.45,1.08.12,1,2,0,2.22-3.7.94-3.07,2-.5,3.74.73.5.84,1.95.6,3.16a24.8,24.8,0,0,0-.21,3.77c0,.18,0,.36,0,.54a10.11,10.11,0,0,1-.28,2.19c-1,1.84-1.42,4.3-4.34,4.12-.23-.16-.62-.36-.6-.55.5-4.66-3.49-8-3.59-12.47-.06-2.84-1.91-3.88-4-4.89-.25-4.52,1.56-8.63,2.68-12.87a11,11,0,0,0,.74-3.19C116.84,33,115.58,31.06,116.6,29.48Z"/><path class="cls-74" d="M129.4,64.23c-1.94,4.87-5.18,9-7.77,13.5-.37,2.62-2.6,4.13-3.75,6.29-3.18,3.55-5.08,8.13-8.89,11.19a7.51,7.51,0,0,1-1.56.76,2.83,2.83,0,0,1-1.16,0,1.77,1.77,0,0,1-.88-.72l-.09-.58a5.45,5.45,0,0,1,.54-1.67,8,8,0,0,1,.6-1c6.45-8.2,11.81-17.12,17.31-26a4.23,4.23,0,0,0,.92-2.7c0-.59,0-1.2.46-1.66v0C128.4,60.46,128.6,60.58,129.4,64.23Z"/><path class="cls-75" d="M117.5,112.49c0,.56-.08,1.12-.11,1.68-1.27,4-4.93,6.44-6.74,10.1a5.19,5.19,0,0,1-.84.91h0a8.63,8.63,0,0,1-.85.86h0a11.63,11.63,0,0,1-.86.86h0c-.26.31-.58.56-.85.86h0c-4.29,4.4-8.69,8.73-12.27,13.7A34.76,34.76,0,0,1,77.65,154c-.47.48-1.26.28-1.71.8h0c-1.69-.26-3.59.8-5-.83,1.84-2.64,4.91-3.65,7.37-5.45,6-4.41,11-10,16.7-14.66,8.05-6.66,14.08-15.09,21.4-22.35a.88.88,0,0,1,1.1.13h0a.54.54,0,0,1,.22.55C117.61,112.39,117.56,112.49,117.5,112.49Z"/><path class="cls-72" d="M75.94,154.83a1.7,1.7,0,0,1,1.71-.8A1.72,1.72,0,0,1,75.94,154.83Z"/><path class="cls-13" d="M109.81,125.18l.84-.91Z"/><path class="cls-13" d="M109,126l.85-.86Z"/><path class="cls-13" d="M108.12,126.88,109,126Z"/><path class="cls-13" d="M107.28,127.73l.85-.86Z"/><path class="cls-76" d="M51.44,126.17l-.06,3.27c-1.15,3.05.27,6.32-.8,9.38a1.72,1.72,0,0,1,0,.78c-3,3-3.67.19-4.65-1.87a4.54,4.54,0,0,1,0-1.22,46.43,46.43,0,0,0,.87-14.92c-.21-2-1.46-1.8-2.15-1-2.3,2.62-6.71,3.29-7,7.82-.1,1.49-1.31,2.6-3,1.51-2.65-1.64-4-.72-5,2-2.16,5.61-6.22,6.58-10.8,2.67a18.12,18.12,0,0,1-4.62-5.4c-1.64-3.22-2.47-3.31-4.36-.39-1.1,1.7-2.25,2.44-4.15,1.47-1-4.82,1.71-8.73,6.35-9,.6,0,1.24,0,1.5.54,1.58,3.22,5.27,3.94,7.44,6.3,1.39,1.5,2,1.51,3.49.47,1.6-1.16,3.28-2.22,4.27-4,1.25-2.2,3.69-2.88,5.4-4.47.1-.1.26-.25.35-.22,4.59,1.4,6.11-3,9-4.81.61-.4,1.11-.82,1.88-.53,1,.35,1.68.33,1.62-1,0-.41.07-1,.57-.94,3.58.7,4.39-2.09,5.63-4.36a34.75,34.75,0,0,1-.9,9.32.86.86,0,0,1-.56.4,4.52,4.52,0,0,1,.15,1.42C51.61,121.66,52.21,124,51.44,126.17Z"/><path class="cls-77" d="M5.65,130.28c1.86-.18,3.5-.5,3.5-3a2,2,0,0,1,2.27-2c1.54.1,3.18.9,3.44,2.32.77,4.22,4.27,5.81,7.16,7.93,1.55,1.14,3.82.44,5.2-1a5.8,5.8,0,0,0,1.4-2.53c1.52-5.07,3.26-5.62,7.44-2.42,1.07-.6,1-1.66.91-2.61-.17-2.08.27-3.41,2.73-3.78,1.51-.22,2.61-1.73,3.39-3,.95-1.54,2.06-1.25,3.48-1.21,2.06.06,2.14,1,1.39,2.38-.49.91-.93,1.66-.44,2.72,2.07,4.54-.15,8.7-1.21,13-1.41-1.32-.86-3.17-1.28-4.76s-1.18-2.91-2.89-3.26-2,1.14-2.69,2.18c-.81,1.3-2,2.34-2.55,3.84-.66,1.72-1.83,2.19-3.06.47-1.37-1.91-2.1-1.13-2.92.46s-1.31,3.17-3.24,3.61c-5.48,2.55-8-1.81-11-4.81a11.74,11.74,0,0,1-2.2-3.47,2.61,2.61,0,0,0-2.78-1.48c-1.06.29-2.33,1-2,2.68.07.39.1,1.08-.09,1.18-3.69,2-1.91,4.9-1.45,7.61a10.45,10.45,0,0,1,0,1.68,8.48,8.48,0,0,1-1.69-5.93c-1-1.57.25-3.53-.84-5.09C5.65,131.41,5.65,130.85,5.65,130.28Z"/><path class="cls-76" d="M5.66,132c1.52,1.49.58,3.39.84,5.09C5,135.57,5.91,133.67,5.66,132Z"/><path class="cls-34" d="M115.74,23.54l0,1.7c-.07.5-.49.65-.85.86a32.46,32.46,0,0,1-2.53,9.32c-.58-2.34-2.12-2.05-3.45-1-1.17,1-1.88,2.71-3.61.8a.78.78,0,0,0-.73.06c-1.46,2.74-5.3,2.43-6.67,5.26-.57,1.18-1.4,1.41-2.74,1.25a2.1,2.1,0,0,1-2.09-2.16A4.93,4.93,0,0,0,90.22,35c-2.31-1.25.3-2.69-.21-4-1.37-1.6-3.35-.56-5-.94.4-1.74,1.86-1.14,2.76-1.63a.34.34,0,0,0-.1-.62c-2.78-.75-2.82-3.65-4.25-5.44-.39-.49,0-1.42.76-1.69a1.89,1.89,0,0,0,1.17-1c.58-1.1-.28-3,1.15-3.34a10.19,10.19,0,0,1,5.66.08c.26.1.51.24.76.36-1.3,1.37-3.47,2.05-3.39,4.49.06,1.78-.41,3.67,2.15,4.34,1.24.33,1.83,1.65,2.41,2.8.44.87.9,2.09,2.05,1.8,2.43-.6,2.78.56,2.86,2.57a1.24,1.24,0,0,0,2.14,1c3.45-3.38,8.77-4.54,11.1-9.14C113.18,22.71,114.43,23.43,115.74,23.54Z"/><path class="cls-78" d="M98,15.91l4.25,0c-.4.89-1,1.71-.31,2.76s1.12,1.63,2.28.73c1-.77,2.06-1.46,3.08-2.2.42-.31,1.07-1.06,1.34-.55,1.84,3.46,2.59-.15,3.42-.67,2.42-1.5,4.73-3.31,4.65-6.66a3.55,3.55,0,0,1,.78-.2c.28,2.37-.57,4.18-2,6.14-2.42,3.25-4.78,6.57-7.24,9.8-1.76,2.31-2.27,2.31-4.7.57s-4.54-4-8-2.3c-.78.39-2.12-.67-2-.74,1.55-1-1.54-2.52.31-3.15,1.43-.49,1.86-1.59,2.43-2.7-.3-.19-.39-.38-.27-.54s.22-.24.33-.24Z"/><path class="cls-34" d="M96.34,16q0,.39-.06.78H93.74C94.38,15.77,95.38,16,96.34,16Z"/><path class="cls-79" d="M164.9,215.86l-4.27,0c.19-2.45,2.37-2.45,3.94-3.09,3.51-1.42,7.34-2.05,10.52-4.27.33-4.09,1.2-8.24-1.7-11.93-1.72.16-2.2,1.81-3.16,2.9-.22.31-.46.6-.71.89s-.47.58-.7.87c-1,1.15-1.16,2.72-2,3.93-1.88,1.3-2,3.61-3.18,5.35-.66.64-1.35.91-2.13.18,0-.25,0-.5,0-.76-.17-3.91,0-7.62,2.43-11.12,2.22-3.25,3.45-7.1,5.95-10.3,1.19-1.54,1.92-3.13,4.11-2.77s2,2.42,2.35,4c.21,1.07-.06,2.22.42,3.28,1,1.83.68,4.58,3.57,5.18.8.17,1.52.81,2.29,0,.28-.31.92-.75,1-.49.94,2.61,4.06,1.16,5.4,3,.48.65,1.32,1.16.88,2.15-.35.78-1,.69-1.77.65-2.48-.12-3.57,1.33-4.31,3.56-.68,2.06.91.9,1.41,1.26-.27,2.67-2.7,3.07-4.47,3.77C175.69,214,170.67,216.53,164.9,215.86Z"/><path class="cls-54" d="M146.23,202.25c1.87-3,4.77-5.38,5.07-9.21a6.05,6.05,0,0,1,3.42-2.82c1.74-.74,3.46-1.91,2.25-4.41-.48-1,.29-1.18,1-1.18s1.27.6,2.16.23c.9-1.37-2.15-2.48-.5-4,2-1.76,3.94-3.58,6.92-3.2-.09,1.08.69,1.8,1.23,3a12.3,12.3,0,0,0-4.15,3.75c-.22.35-.83.72-.77,1,.67,2.83-1.81,4.35-2.55,6.53-.44,1.32-1.32,1.64-2.09,2.36s-1.65,1.62-1,2.89c1.21,2.26-.25,3.26-1.92,4.21a3.77,3.77,0,0,0-.82,6c.41.42.8.67.73,1.33-.25,2.31,1.51,1.88,2.83,2a.93.93,0,0,1-.05,1.23c-1.91,1.65-4.09,1.71-6.39,1.13C148.14,210.35,144.49,207.65,146.23,202.25Z"/><path class="cls-80" d="M164.9,215.86c6.31-1.89,12.89-3,18.65-6.43.6-.36,1.14-.8,1.7-1.2a4.52,4.52,0,0,0,.82-.13c.55-.38,1.27-.28,1.83-.64a14,14,0,0,0,5.18-1.17,11,11,0,0,1,4.85-.61c-.56,2.66-3.27,2.84-5,4a26.84,26.84,0,0,0-5.52,4.4c-3.15,3.65-7.3,4.86-11.87,4.84a10.61,10.61,0,0,0-4,.8C166.94,221.54,165.91,221,164.9,215.86Z"/><path class="cls-81" d="M151.4,212.54a17,17,0,0,0,6.69-1c.53-.44,1.3-.24,1.83-.68l1.56-.15a1.74,1.74,0,0,0,1.75-.67,3.65,3.65,0,0,1,2.15-1.25,29.35,29.35,0,0,1,3.71-.86c2.64-.16,5.67-2.93,7.65,1.17-3.37,2.08-7.18,3.07-10.87,4.38-1.8.64-3.9.73-5.24,2.4l.05,0c-.67.77-1.8.11-2.5.8a2,2,0,0,1-.87,1.79c-.07-.93.12-1.95-.93-2.52-4.58.69-9.19,1.21-13.72,2.23a3.17,3.17,0,0,1-3.18-.58l-.84-1.68c1.06-2.28,3.43-1.89,5.27-2.59.77-.16,1.53-.34,2.29-.57a7.25,7.25,0,0,1,1.14-.26A12,12,0,0,1,151.4,212.54Z"/><path class="cls-14" d="M176.76,193c-1.58-1.36-.56-3.47-1.51-5.1-.58-1-.85-1.51-2.11-1.29-1,.18-1.7,0-2,1.44-.36,1.94-.86,2.17-3.11,4a2.64,2.64,0,0,0-1,1.72,11.35,11.35,0,0,1-3.13,6.67c-.58.61-1.27,1.12-1,2.12.76,2.71-1.06,4.92-1.42,7.41-2.3-1.18-3.59-3.22-2.28-4.75,1.79-2.1,1.61-4.61,2.46-6.87.66-1.76.49-3.76,3-4.13.64-.08.94-1,.93-1.73-.06-4,1.81-6.62,5.49-8.39,2.19-1.05,4.05.63,6.08,0,.32-.1,1,.71.66,1.29C176.36,187.7,177.6,190.48,176.76,193Z"/><path class="cls-79" d="M187.9,207.46a1.89,1.89,0,0,1-1.83.64A1.74,1.74,0,0,1,187.9,207.46Z"/><path class="cls-14" d="M159.92,210.81a1.77,1.77,0,0,1-1.83.68c0-.25,0-.49,0-.74Z"/><path class="cls-24" d="M96.29,214.14c-1,1.19-3.72,1.88-1.14,4.1.19.17,0,1.13,0,1.13-3.1.33-1.37,3-2.24,4.45-1.72,2.79-4.83,3.49-7.54,4.62-1.56.65-3.23,1-4.36,2.3-1.72,2-3,4.18-6.33,4-1.67-.11-1.1,1.89-1.24,3.05L59.81,241.2c-1.9-.38-3.92.65-5.76-.49a.81.81,0,0,1-.12-1.16h.84a33.5,33.5,0,0,1,5.7-1.16c1.1-.15,2.5-.16,3-1.3,1.68-4.22,5.71-5,9.22-6.49,2.32-1,5-1.54,6.63-3.49,1.23-1.5,2-3.39,3.17-5,2.49-3.61,6.14-5.18,9.52-7.34a10.86,10.86,0,0,1,1-.68,4.16,4.16,0,0,1,1.1-.49A2.18,2.18,0,0,1,96.29,214.14Z"/><path class="cls-32" d="M92.9,215c-1.39,2.16-4,2.33-5.91,3.74-1.13.85-2.52,1.32-2.58,3a1.77,1.77,0,0,1-1.51,1.75c-1.42.41-2.68.88-1.21,2.74.45.57-.38,1.22-1,1.59A25.73,25.73,0,0,1,77.06,230a62.32,62.32,0,0,0-10.26,4.49c-1.17.71-2.82.75-1.6,2.84.42.71-.64,1.07-1.27,1.34-3,1.28-6.08.83-9.16.89.63-1,2-1,2.44-2.87.46-2.06,3.21-3.49,5.61-3.78,2.58-.31,3.8-2.9,6.29-3.2.39-.05.14-.68.21-1,.3-1.56.68-1.72,1.53-.44s1.57,1.38,2.56.29A126.23,126.23,0,0,0,89,212a18.88,18.88,0,0,1,3.78-3.95c1.65,0,3.3.31,3.59,2.14s-1.17,3-2.64,3.94C93.45,214.4,93.19,214.71,92.9,215Z"/><path class="cls-82" d="M53.92,240.33c1.95.39,4.12-.75,5.89.87l-12.59,3.57c-.45-.19-1.25-.35-1.27-.57-.06-.72.68-1,1.21-1.3A14.29,14.29,0,0,1,53.92,240.33Z"/><path class="cls-32" d="M53.92,240.33l-6.76,2.57c1.58-2.48,4.36-2.56,6.77-3.35C53.93,239.81,53.93,240.07,53.92,240.33Z"/><polygon class="cls-35" points="76.8 216.68 76.61 217.03 76.45 216.87 76.8 216.68"/><path class="cls-83" d="M11.57,149.76c-1.28-3.33-1.19-5.25.22-9,.34-.9-.74-2.3.9-2.77a5.17,5.17,0,0,1,4,.72c.82,4.49,5.77,5,7.93,8.19a.88.88,0,0,0,1.46-.09c2.45-3.48,7.39-3.67,9.55-7.91,1.8-3.53,5.71-2.88,7.51.75,1,2,1.39,4.29.37,6.13-2.43,4.36-1.61,8.56.48,12.47A18.24,18.24,0,0,1,46,170a3.48,3.48,0,0,0,.57,2.8,2.23,2.23,0,0,1,.16,1.11,2.15,2.15,0,0,1-.59,1c-.28.25-.57.49-.87.71l-.43.37c-.28.26-.57.5-.86.75-.77.59-1.49,1.28-2.59,1.09a2,2,0,0,1-.84-2.61c2.15-4.07-.27-7.4-1.68-10.86-.11-.29-1.31-.19-1.66-.95-.65-1.83-.7-3.57.62-5.14,1.27-2.86.33-6.2,1.49-8.89,1.08-2.49.14-3.18-1.92-4.16-.61,1.27-1.1,2.74-2.49,3.5a4.16,4.16,0,0,0-2.13,3.41c-.2,2.07-.88,2.89-2.88,1.45-.66-.47-1.75.05-1.62.66.61,2.8-1.82,3.45-3.16,4.88-2.29-.35-2.69-2.72-3-4-.68-3.09-3.09-5.19-3.83-8.14-.36-1.44-1.82-.94-2.73-1.4-1.58-.8-1.34.68-1.6,1.51C13.6,148.29,11.93,148.45,11.57,149.76Z"/><path class="cls-14" d="M36.14,184.49c-1.79-1.63-2-3.61-1.32-5.8,1-3,.31-6.16.46-9.24a3.12,3.12,0,0,0-1.87-3.08c-1.4-.65-1.93.88-2.75,1.47-1.57,1.13-2.63,2.92-1.92,4.77.77,2-.49,3.51-.34,5.28-1.44-.1-1.41-1-1.58-1.82a9.78,9.78,0,0,0-2.95-5.42,11.47,11.47,0,0,1-3.82-9c2.12.8,4.15,1.63,4.42,4.38a5.46,5.46,0,0,0,1.13,2.22c.29.43.8.9,1.4.53a1.53,1.53,0,0,0,.59-1c.1-1,0-2,.14-2.93.06-.53.2-1.36.54-1.51,4.23-1.8,3.71-7,7-9.65,1.09,1.33,1.31,3,1.71,4.55a1,1,0,0,1,.18,1.18c-.17,4-.36,7.94.89,11.79-.09,3.22,2,5.78,2.72,8.74a3.66,3.66,0,0,1-1.9,3.18,8.25,8.25,0,0,1-.88.57c-.14.1-.29.18-.44.27a4.89,4.89,0,0,1-.91.47Z"/><path class="cls-84" d="M37,159.08v-.85h.85v5.93l-.68.08A6,6,0,0,1,37,159.08Z"/><path class="cls-83" d="M26.23,159.39c-.06.11-.16.32-.2.31a2,2,0,0,1-.69-.29c-.36-.31-.27-.45.19-.31C25.77,159.18,26,159.29,26.23,159.39Z"/><path class="cls-85" d="M10.73,258.18l.86-.84.86-.83a24.2,24.2,0,0,0,5.12-3.36A32.84,32.84,0,0,0,26,249.72l1.62-.06c.84.78.14,1.17-.41,1.56a46.69,46.69,0,0,0-4.72,3.35c-1.28,1.15-1.31,3.18-3.23,4.16-1.68.85-2.36,3-3.42,4.6a15.93,15.93,0,0,1-3.36,3.4c-.59.37-.4,1.19-.92,1.59h0c-2.05,1.81-4.23,2.51-6.7.83-1.09-4.41,2.33-6.89,4.28-10A2.09,2.09,0,0,0,10.73,258.18Z"/><path class="cls-86" d="M30.21,192.11a3.86,3.86,0,0,1-3.31-4c.36-4.35-2.07-7.71-3.57-11.4-.84-2.06-1.63-.25-2.42.17-1.2-1.11-1.17-2.81-2-4.09-.94-1.44-.22-2.65,1-4.35,3.29,5.42,7.5,9.94,8,16.83,2.78-1.61,3.05-4.56,5.15-6.59a7.78,7.78,0,0,1,.16,5.76c-.34,1-.56,1.9.47,2.62C34.14,189.85,32.25,191,30.21,192.11Z"/><path class="cls-87" d="M30.21,192.11c1.08-1.73,2.75-3.06,3.43-5.06l1.64-.88a11.36,11.36,0,0,0,.86-.84h0a3.68,3.68,0,0,1,1.27-1.21c2.58-.65,2.15,2.76,4.07,3,.7,3.49-2.21,5.55-3.26,8.34a8.85,8.85,0,0,0-1.16,1.62c-.11.29-.23.57-.36.85s-.39.82-.61,1.22a4.69,4.69,0,0,1-.49.76,3,3,0,0,1-.69.58l-.44.1c-.19-.2-.49-.37-.54-.6-.29-1.36,1.27-2.28,1-3.43-.16-.75-1.9-.38-1.59-2.32.33-2.17-1.49-2.21-3.13-1.29Z"/><path class="cls-88" d="M37,184.52l-.88.81v-.84h0l.46-.32Z"/><path class="cls-88" d="M36.14,185.33l-.86.84Z"/><path class="cls-37" d="M182.68,227.69l-.84.85Z"/><polygon class="cls-37" points="181.84 228.53 181.64 228.89 181.48 228.73 181.84 228.53"/><path class="cls-89" d="M142,226c2.1-1.41,4.7-1.27,7-2.19l4.94-2c.43-.53,1.27-.29,1.66-.88h0c2.65.92,4,3.24,5.43,5.35a2.74,2.74,0,0,0,2.23,1.47c-3.06,2.69-7,2.23-10.62,2.86-1,.16-1.75-.66-2.52-1.3A14.17,14.17,0,0,0,142,226Z"/><path class="cls-89" d="M174.22,226c-3.33.94-6.61,2.19-10.18,1.68,3.82-2.48,7.41-5.53,12.43-5.09,1.24.11,2-.76,3-1.26,1.35-.69,2.32-2.12,4-2.11C181.34,222.73,177.65,224.2,174.22,226Z"/><path class="cls-79" d="M158.18,216.6c.61-1,1.58-.78,2.5-.8C160.09,216.83,159.12,216.67,158.18,216.6Z"/><path class="cls-90" d="M37,195.51A25.27,25.27,0,0,0,41.23,187c-.64-2.15.66-3.47,2-4.77,2.85-1.33,4.6-3.94,6.91-5.9,1.13-1,2-2.94,4.06-1.63a2.33,2.33,0,0,1,.16,1.08c-.15.7-.39,1.37-.56,2.06a7.43,7.43,0,0,1-.3,1L53,180.42a18.87,18.87,0,0,1-3.37,5.74l-.92.85c-2.26.06-3.69,1.24-5.27,2.89-2.92,3.07-4.37,6.67-5.78,10.52-1.3,3.52-3.42,6.74-5.27,10a3.45,3.45,0,0,1-3,2c.48-2.67,2.16-4.81,3.2-7.24.66-1.53,1.77-2.87,1.9-4.61h0a8.33,8.33,0,0,0,.82-.86h0c.54-.43.35-1.22.83-1.68,0-.28,0-.56,0-.83C36.67,196.76,36.5,196,37,195.51Z"/><path class="cls-47" d="M26.82,197.19a1.67,1.67,0,0,1,.88-1.67A1.71,1.71,0,0,1,26.82,197.19Z"/><path class="cls-47" d="M28.54,194.67l.85-.84Z"/><path class="cls-47" d="M27.7,195.52l.83-.85Z"/><polygon class="cls-29" points="20.05 224.3 19.7 224.1 19.86 223.95 20.05 224.3"/><path class="cls-91" d="M46.31,173.47c-.44-1.1-1.49-.32-2.14-.68.74-4.34,2-8.36-.66-12.88-2.42-4.07-4.5-8.94-1-13.9.89-1.26.5-3,.27-4.54-.32-2-2.41-4.41-3.72-4-1.68.5-3.39,1.53-3.69,3.52-.25,1.63-.92,2.12-2.54,2.64-3,1-5.79,2.73-7.23,5.74-1.52.06-1.63-1.15-2.07-1.92-.57-1-1.18-2.27-2.25-2.37-4-.41-4.38-3.26-4.64-6.3,1.62,1.2,3.48,2.11,4.79,3.69,1.58,1.91,3,1.76,5.31.72,2.45-1.11,1.48-2.17.92-3.56.94-1.52,2.24-2.92,2.72-4.57s1.29-2.57,2.78-2.48,1.07,1.71,1.48,2.67c.09.21.37.34,1,.89-.21-3,2.38-4,3.29-6.19.47-1.1.87-3,2.24-2.61,1.68.47,3.69.9,4.5,3.13s.52,4.41.63,6.62c-1.44,4.68,1.08,9,1.56,13.35.43-.39.37-1.9,1.83-1.5.4,3-.65,6-.8,9-.06,1.33.34,1.82,1.64,1.2.72,3.06-.62,6.55,2,9.22-.27,3.14-2.9,4.1-5.08,5.47A1.14,1.14,0,0,1,46.31,173.47Z"/><path class="cls-10" d="M82.82,236.29a4.37,4.37,0,0,0-.06.72l-2.65-.11A2.82,2.82,0,0,1,82.82,236.29Z"/><path class="cls-10" d="M85.32,237.09c-.73.89-1.69.76-2.66.63a4.63,4.63,0,0,0,.07-.74Z"/><path class="cls-45" d="M11.55,268.32a1.55,1.55,0,0,1,.92-1.59A1.65,1.65,0,0,1,11.55,268.32Z"/><path class="cls-46" d="M6.5,280.2l.84.85Z"/><path class="cls-46" d="M7.35,281.06h.84C7.91,281.63,7.63,281.64,7.35,281.06Z"/><path class="cls-92" d="M93.74,214.14l2.07-3.88c-.58-1.5-2.47-.89-3-2.2A25.72,25.72,0,0,1,97,202.11a16.28,16.28,0,0,0,.42,1.91c1.22-.12,2.67,1.11,3.52.21,2-2.15,3.92.16,5.87-.1,1-.14,1.39.92,1,1.79s-.35,2.31-1.37,3c-3.23,2.1-6,5-10.23,5.25Z"/><path class="cls-93" d="M139.48,217.52a101.53,101.53,0,0,0,10.32-2,10.47,10.47,0,0,1,6.58.31c-3.08,3.44-7.29,4.33-11.53,5a60.21,60.21,0,0,0-10.45,2.58,2,2,0,0,1,0-2.53A17.23,17.23,0,0,1,139.48,217.52Z"/><path class="cls-94" d="M144.58,214.06l-5.94,1.78c-2.69-.19-5,1.88-8.12,1.54a20.8,20.8,0,0,1,5.67-5.77,2.25,2.25,0,0,1,.73-.71,1,1,0,0,1,.61-.25,1.55,1.55,0,0,0,1.05-.83l0,0a1.92,1.92,0,0,0,.88-.88l0,0a2,2,0,0,0,.88-.87l0,0a2.34,2.34,0,0,0,.88-.86h0c3.75.26,5,3.06,6,6l-.34.08-.35,0C145.86,213.73,145.11,213.59,144.58,214.06Z"/><path class="cls-7" d="M147.12,213.33c-2.39-1.63-3.32-4.7-6-6l0-.8,4.23-3.39c.29-.29.68-.48.88-.86h0c.22.32.67.7.61,1A5.46,5.46,0,0,0,149,209.3c1,.78,1.64,2.14,2.44,3.24C150.1,213.53,148.58,213.27,147.12,213.33Z"/><path class="cls-95" d="M124.94,220.35c1.21-1,2.4-2,4-1.36.39.15.4.78.15,1.1C127.88,221.58,126.38,220.82,124.94,220.35Z"/><path class="cls-66" d="M134.41,220.92c0,.85,0,1.69,0,2.53a4.4,4.4,0,0,1-.81,0C133.56,222.48,133.42,221.52,134.41,220.92Z"/><path class="cls-7" d="M141.14,207.3a1.18,1.18,0,0,1-.88.86A1.18,1.18,0,0,1,141.14,207.3Z"/><path class="cls-7" d="M140.28,208.13a1.17,1.17,0,0,1-.88.87A1.1,1.1,0,0,1,140.28,208.13Z"/><path class="cls-7" d="M139.43,209a1.18,1.18,0,0,1-.88.88A1.15,1.15,0,0,1,139.43,209Z"/><path class="cls-7" d="M138.58,209.82a1.14,1.14,0,0,1-1.05.83Z"/><path class="cls-7" d="M136.92,210.9c-.25.23-.49.47-.73.71C136.43,211.37,136.67,211.13,136.92,210.9Z"/><path class="cls-1" d="M160.06,174.64c-.06.11-.16.31-.2.3a1.6,1.6,0,0,1-.68-.29c-.37-.31-.28-.45.18-.3C159.6,174.43,159.83,174.54,160.06,174.64Z"/><path class="cls-54" d="M146.25,202.25l-.88.86Z"/><polygon class="cls-51" points="134.4 204.82 134.6 204.47 134.75 204.62 134.4 204.82"/><path class="cls-3" d="M56.43,120.06c-.41,3.32,2.42,5.37,3.25,8.23.34,1.18,1.27,2.27,1,3.57C60,135,61,138,61.14,141c0,1.29.41,2.42-.59,3.48-.19.19-.45.58-.38.71,1.56,2.63.28,4.73-1.19,6.82-.25.35-.35.88.1,1.09,2.18,1,1.41,4,3.37,5.15.63,2-1,3.16-1.75,4.64a5.25,5.25,0,0,1-2.18,1.92,7.54,7.54,0,0,1-1.13.39,4.33,4.33,0,0,1-1.19.11l-.55-.24c-1.81-5.4-2.78-10.85-1-16.47a7.19,7.19,0,0,0-.82-5.63l.2-2.56c.78-1.34-.16-3,.69-4.29A71.14,71.14,0,0,1,56.43,120.06Z"/><path class="cls-76" d="M53.85,143c2.26,1.4,2.91,3.69,1.73,6.41-1.12,2.56-.23,5.45-1.37,8a.88.88,0,0,0,.23.76c2.06,1.63,2.06,3.68,1.36,6-.07.22.46.63.71.95.33,2.07-1.43,2.33-2.65,3.07a4,4,0,0,1-1.07.3l-.55,0c-.39-.4-.7-.94-1.16-1.18-2-1.05-2.16-2.57-1.43-4.52a29.14,29.14,0,0,0,.89-3.63c1.11-4.83,2.37-9.64,2.68-14.62A4.8,4.8,0,0,1,53.85,143Z"/><path class="cls-77" d="M49.7,148.91c-1.18.66-.55,2.11-1.3,2.94a1.49,1.49,0,0,1-1.45.63.93.93,0,0,1-.56-1.33c.92-2,.11-3.75-.79-5.47-1.28-2.46-.38-5.06-.5-7.59,0-.33.79-.69,1.21-1,1.73,3.33,1.73,3.33,4.24,2.54A27.31,27.31,0,0,1,49.7,148.91Z"/><path class="cls-77" d="M50.58,138.82c.36-3.12-.95-6.38.8-9.38C51.15,132.57,52.06,135.8,50.58,138.82Z"/><path class="cls-3" d="M57.23,106.37c-.24,3.16,1,6.43-.69,9.49C56.82,112.7,55.76,109.44,57.23,106.37Z"/><path class="cls-77" d="M51.44,126.17l0-8.6h.82C52,120.44,52.88,123.41,51.44,126.17Z"/><path class="cls-76" d="M54.74,136.12c-.12,1.45.57,3-.69,4.29C54.13,139,53.55,137.4,54.74,136.12Z"/><path class="cls-3" d="M56.46,119.27q.9.47-.06.81A1.59,1.59,0,0,1,56.46,119.27Z"/><path class="cls-96" d="M67.44,149.76c-5.12-2.82-6.33-8.49-2.63-12.93,1-1.18,1.6-1.9.53-3.53-1.64-2.5.31-5.37-.16-8.09-.05-.28.8-1,1.17-1,2.52.28,5.09-1.92,7.61.37.38-1.48.58-2.66-.66-3.61-.77-.59-1.79-1.21-1-2.36a2.25,2.25,0,0,1,3.35-.62c1.71,1.27,3.16.51,4.71-.07,3.14-1.19,3.74-3.94,4.07-6.8.15-1.24-.15-2.65,1.68-2.86,1.37,1.26,1,2.85.57,4.26-1,3-.9,6-.91,9.07a5.64,5.64,0,0,1-.49,2.21,5.19,5.19,0,0,1-.54,1c-.2.32-.43.62-.65.92s-.22.31-.32.47c-.19.33-.41.65-.62,1-4.66,6.18-9.32,12.35-12.56,19.45C69.93,148,69.21,149.42,67.44,149.76Z"/><path class="cls-97" d="M85.26,121.8a12.12,12.12,0,0,1,.11-8.25,13.93,13.93,0,0,0,.71-5.3l0-.94c2.39-3.86,3.2-8.15,3.48-12.59h0c.89-1,0-2.41.78-3.43l.19.07a15.81,15.81,0,0,0,2.9-3c1.63-2.93,2.95-6,6.21-7.72.42.44-.17,1.47.16,2.32-2.92,11.09-5.46,22.31-10.36,32.79-.37.55-.22,1.34-.83,1.78v0c-.75,1.1-.79,2.57-1.82,3.53a3.61,3.61,0,0,1-.93.67Z"/><path class="cls-98" d="M67.44,149.76c1.87-2.35,3-5.13,4.32-7.75,3-5.78,7.11-10.83,11.06-16,.24-.29.49-.58.75-.85h0a3.9,3.9,0,0,0,.83-.89h0c.77-.23,1.11.21,1.33.83-.5,3.84-3.41,6.32-5.29,9.38-2.7,4.37-6.29,8.25-7.37,13.5a4.88,4.88,0,0,1-2.41,3.66c-1.7-.11-1.77,2-3.14,2.34a24.46,24.46,0,0,0-4.24,8.47,1.54,1.54,0,0,1-.86.41c-.8,0-1.64.3-2.35-.33.8-1.43,1.6-2.87,2.41-4.3A31.71,31.71,0,0,0,67.44,149.76Z"/><path class="cls-19" d="M82,253.91c-1,0-2,.22-2.61-.86C80.32,253.05,81.3,253,82,253.91Z"/><path class="cls-19" d="M84.57,254.72a1.73,1.73,0,0,1-1.82-.71A1.88,1.88,0,0,1,84.57,254.72Z"/><path class="cls-18" d="M117.36,83.63a18.48,18.48,0,0,1,4.27-5.9,4.87,4.87,0,0,0,5.77-3.19,12.29,12.29,0,0,0,1.14-4.48c0-1.15,3.46-3.8,4.56-3.63a1.56,1.56,0,0,1,1.25,1.92c-.79,5.76-.25,11.71-2.36,17.29-.14.37-.51.83-.41,1.11,1.58,4.52-1.15,8-2.81,11.67a10.09,10.09,0,0,0-.75,1.51c-.76,3.15-2.45,5-5.52,6.69-2.54,1.36-3.48.45-4.9-.81-2.18-1.93-3-1.92-4.18.72-.58,1.36-1.16,2.72-2.37,3.37-3.57,1.9-4.79,5.35-6.22,8.71a2.27,2.27,0,0,1-.84,2.25c-6,5-11.27,10.83-17.84,15.15-.33.21-.67.39-1,.59-.17.1-.34.19-.5.3a3.91,3.91,0,0,1-1.09.42l-.57-.09c-1.44-.46.7-2.7-1.41-2.83-.38-2.55,1.91-3.78,2.87-5.66.87-1.72,2-3.28,2-5.3a4.35,4.35,0,0,1,3-3.34q2.07-3,4.13-6.07c2.07,2,4,2.13,5.26-.71,1-2.39,4-1.47,5.09-3.31,3.15-5.43,7.91-9.71,10.31-15.77C115.68,90.73,117.63,87.56,117.36,83.63Z"/><path class="cls-64" d="M112.37,50.65c4,0,4.76.66,5.07,4.73.08,1,0,2,.07,2.95,0,.56.18,1.31.84,1.25,4.12-.41,2.49,2.56,2.14,4.12-.39,1.77-.52,3.28.41,4.83,1.19,2.18-.81,3.39-1.68,4.77-4.2,6.61-8.73,13-12.84,19.67h0c-.44.49-.29,1.28-.87,1.71v0a4.07,4.07,0,0,0-.47,1.23c-.91,3.49-2.41,6.78-3.29,10.29-.43,1.71-1.41,4.07-3.34,3.7-2.17-.42-.91-2.75-.85-4.3,0-.81-.18-1.67.4-2.4h0c.83-.71.14-1.88.82-2.64,0-.54.11-1.08.16-1.63.43-.5.26-1.24.7-1.74,1.14-8.75,3.8-17.09,6.77-25.36.76-2.14,2.32-4.27.87-6.73C108,59.92,110,55.23,112.37,50.65Z"/><path class="cls-92" d="M98,103.16V110c2.12-1.84,3-3.56,3.19-5.22.32-3.74,2.27-6.77,3.61-10.07.49.47.7,1.47,1.73.89a3.17,3.17,0,0,0,.8-.22,2.1,2.1,0,0,0,.79-.69c2.48-1.49,3.61-4.13,5.34-6.27,1.29-1.61,2.11-3.62,3.93-4.79,1.72,3,1.13,5.74-.89,8.27a5.79,5.79,0,0,0-1.57,2.88c-.43,3-1.52,5.59-4.25,7.28a3.68,3.68,0,0,0-1.77,2.3c-.57,3-3.07,4.63-4.49,7-.52.87-1.13,2-2.6.8-.83-.7-1,.41-1.37,1a17.46,17.46,0,0,1-5,4.93,9.8,9.8,0,0,0-1.83-4Q95.8,108.6,98,103.16Z"/><path class="cls-99" d="M89.5,120.1,87,123.58c.12,1.25-.4,1.87-1.7,1.69l-.93-1,.88-2.49h0a3.79,3.79,0,0,0,.74-.86c.93-1.09,1.19-2.68,2.58-3.43C88.8,118.41,88.41,119.52,89.5,120.1Z"/><path class="cls-92" d="M98.78,100.53c0,1,.23,2-.82,2.64C98,102.23,97.9,101.22,98.78,100.53Z"/><path class="cls-92" d="M99.64,97.16a1.75,1.75,0,0,1-.7,1.74A1.68,1.68,0,0,1,99.64,97.16Z"/><path class="cls-99" d="M88.58,117.53a1.85,1.85,0,0,1,.83-1.78C89.53,116.52,89.42,117.2,88.58,117.53Z"/><path class="cls-57" d="M90.31,91.3c0,1.2.11,2.43-.78,3.43C89.53,93.53,89.12,92.24,90.31,91.3Z"/><path class="cls-28" d="M116.6,29.48c-.22,1.71.66,3.6-.81,5.11C116,32.88,115.1,31,116.6,29.48Z"/><path class="cls-28" d="M114.92,26.1l.85-.86c1.23.9.74,2.22.83,3.4C115.53,28.13,116,26.59,114.92,26.1Z"/><path class="cls-31" d="M155.55,220.88a1.63,1.63,0,0,1-1.66.88A1.76,1.76,0,0,1,155.55,220.88Z"/><path class="cls-100" d="M85.43,135.44c2.95-1.49,5.09-4,7.5-6.13,4-3.52,8.32-6.71,11.9-10.7,3.13-1.32,4.82-4.39,7.56-6.19a8.38,8.38,0,0,1,1-.73,2.07,2.07,0,0,0,.74-.1,2.1,2.1,0,0,1,2.52.09c-1.52,4.11-5.33,6.4-7.82,9.76s-6.06,6.15-8.48,9.77a1.84,1.84,0,0,1-.55.62c-6.24,3.5-10.27,9.56-15.87,13.77-4.13,3.1-8.08,6.51-13,8.39l-.91-.86c-.44-.61-.46-1.15.23-1.6l2.36-3.46c-.5-1.21.41-1.77,1.11-2.44,3.67-2.43,5.84-6.59,9.9-8.58h0c.28-.28.57-.56.87-.83h0A2.94,2.94,0,0,1,85.43,135.44Z"/><path class="cls-101" d="M62.44,162.47h.81c1.58,3.94,1.6,3.8,6.41,4.34,2.08.24,3,.1,3.29-2.31.22-1.82,2.63-1.55,3.78-2.77,1.67,4.64,1.14,6.3-2.86,8.3-1.29.64-2.23,1.31-2.11,2.76.29,3.29-1.56,4.52-4.44,5a14.58,14.58,0,0,0-2.38.82c-.36-2.27-.91-4.15-3.87-4.41-2.08-.19-2.57-2.37-3.26-4.07C58.35,166.94,59.34,164.06,62.44,162.47Z"/><path class="cls-102" d="M58.12,170.09a2.63,2.63,0,0,1,1.67,1.78c.28,1.16,1,1.45,2.11,1.63,4.64.73,4.63.78,3,5.06a7.67,7.67,0,0,1-5.6,2.11c-3-.13-5.1,2.64-7.67,4a15.25,15.25,0,0,0-2,1.48c.42-2.41,2.3-4.25,2.63-6.7l.76-.9a5.55,5.55,0,0,0,.07-.82c.51-.46.34-1.25.85-1.71h0C54.87,173.72,54.82,170.73,58.12,170.09Z"/><path class="cls-103" d="M70.21,151.53c-.07.54-.15,1.07-.23,1.6-.92,0-1.21,1.88-2.49.87.38-.74.72-1.51,1.16-2.22S69.54,150.66,70.21,151.53Z"/><path class="cls-11" d="M33.6,214.13l.8-1Z"/><path class="cls-11" d="M32.84,215l.76-.84Z"/><path class="cls-11" d="M31.92,216.68l.8-1Z"/><path class="cls-11" d="M31.18,217.51l.73-.82Z"/><path class="cls-12" d="M133.32,54.4l.71.3c-.1.24-.15.61-.32.67s-.46-.16-.7-.26C133.12,54.87,133.22,54.64,133.32,54.4Z"/><path class="cls-14" d="M116.61,111.68l-2.52-.09c1.15-1.13,2.27-1.17,3.37.07Z"/><path class="cls-14" d="M113.35,111.69l-1,.73Z"/><path class="cls-14" d="M117.5,112.49a4,4,0,0,1-.06-.84c.34.1.48.3.37.58C117.76,112.34,117.6,112.4,117.5,112.49Z"/><path class="cls-104" d="M106.38,93c.14-2.85,2.08-4.87,3.47-7.08,3.2-5.12,6.63-10.09,10-15.11a4.93,4.93,0,0,0,1.06-2.25,10.3,10.3,0,0,0,3.38-5.1c.23-.42.49-.47.8-.08,0,3.11-2,5.51-3.43,7.89a184.49,184.49,0,0,1-14.22,21.09A3.64,3.64,0,0,1,106.38,93Z"/><path class="cls-12" d="M125.08,63.35c-.27,0-.54,0-.8.08a1.6,1.6,0,0,1,.85-1.74C125.11,62.25,125.1,62.8,125.08,63.35Z"/><path class="cls-104" d="M106.5,95.6c-1.37,1.24-1.67.41-1.73-.89a4.76,4.76,0,0,1,.75-.07Z"/><path class="cls-104" d="M105.53,94.67A1.79,1.79,0,0,1,106.4,93,1.52,1.52,0,0,1,105.53,94.67Z"/><path class="cls-104" d="M108.09,94.69a.88.88,0,0,1-.79.69Z"/><path class="cls-15" d="M51.39,117.57c-.37-.19-.8-.76-.61-.83C51.75,116.34,51.17,117.28,51.39,117.57Z"/><path class="cls-105" d="M176.74,209.05a3,3,0,0,0-4-1,27.32,27.32,0,0,1-3.61.94c-.41-1.91.69-3.52,1.2-5.21a3.35,3.35,0,0,0-1.2-4,10.59,10.59,0,0,1,2.82-4.08c.76-.64,1.59-1.37,2.56-.61.75.58,1.62,1.54.93,2.47s-.17,1.2.36,1.9c1.38,1.8,2.48,3.76.19,5.8-.87.78-.34,1.48.45,2S177.81,208.24,176.74,209.05Z"/><path class="cls-106" d="M169.13,199.74c3.31.32,3.38.34,2.46,3.17-.67,2.07-.76,4.4-2.46,6.06l-3.42.77c-1.5-2-.51-3.47.87-4.92a4.9,4.9,0,0,1,1.71-4.24c.26-.31.6-.53.84-.85Z"/><path class="cls-14" d="M166.58,204.82c-.22,1.65-1.14,3.18-.87,4.92l-2.48.25C164,208,163.4,205.21,166.58,204.82Z"/><path class="cls-105" d="M179.82,205.2c-.58-1.17.18-1.79.65-2.35a1.33,1.33,0,0,1,2.15,0c.87,1.16-.49,1.25-1,1.62A8.42,8.42,0,0,1,179.82,205.2Z"/><path class="cls-105" d="M169.13,199.73l-.84.85Z"/><path class="cls-7" d="M144.58,214.06a1.74,1.74,0,0,1,1.85-.69A2.11,2.11,0,0,1,144.58,214.06Z"/><path class="cls-92" d="M92.9,215l.84-.84Z"/><path class="cls-84" d="M40.36,180.25c-1.26-.64-.18-3.29-2.7-3-.72.08-.69-1.12-.57-1.78.24-1.22.91-2.36.75-3.67-1.25-5-1.25-5.59,0-7.63h0c.95-.34.84-1.8,2-1.9.9.74.17,1.47,0,2.18s-.42,1.56.31,1.86c4.27,1.76,2.19,4.92,1.65,7.62-.27,1.36-1.12,2.59.25,3.78l.36.49C42.5,179.64,42.08,180.59,40.36,180.25Z"/><path class="cls-107" d="M53.14,167.58c1.21-.73,2.72-1.06,3.37-2.54h0a4.44,4.44,0,0,1,1-.82,4.6,4.6,0,0,1,.83.11c-.17,4.68-3.85,6.9-6.77,9.65-2.34.59-4,3.17-6.87,2.26a.66.66,0,0,1-.23-.7c.07-.24.14-.36.22-.36h0c.3-.27.58-.57.89-.83a7,7,0,0,0,.79,0l.83-.84c1.33-2.06,4.13-2.65,5.11-5.07h0C52.55,168.13,52.83,167.83,53.14,167.58Z"/><path class="cls-84" d="M42.06,177.7a3.11,3.11,0,0,1,1.7-1.7c.12.17.24.34.37.5-.05,1.34-.58,2-2,1.31Z"/><path class="cls-84" d="M47.13,173.46l-.83.84c0-.28,0-.55,0-.83Z"/><path class="cls-84" d="M45.51,174.35l-.89.83Z"/><path class="cls-84" d="M44.63,175.18c0,.29,0,.57,0,.85a.53.53,0,0,1-.78.08l-.1-.11Z"/><path class="cls-88" d="M43.86,176.11l.78-.08c2.56,0,4-2.92,6.72-2.57-1.45,4-5.35,6-7.59,9.34-1.33,1.12-1.66,2.84-2.54,4.23-.79.29-1.55.65-1.79-.69A2.2,2.2,0,0,0,37,184.52l-.05-.05a.56.56,0,0,1-.17-.56c.07-.18.13-.27.19-.27h0a7.5,7.5,0,0,0,.85-.84,5.38,5.38,0,0,0,2.52-2.55,2.9,2.9,0,0,0,1.81-2.44A1.8,1.8,0,0,0,43.86,176.11Z"/><path class="cls-16" d="M37.84,164.16c-.17,1-1.91,2.14.18,3,1,.41.61,1.18.36,1.75a6.41,6.41,0,0,0-.54,2.85c-.54-.13-1.34-.22-1.37-.79-.24-4-1.17-8,.52-11.92C37.26,160.77,36.3,162.67,37.84,164.16Z"/><path class="cls-26" d="M37.84,182.8l-.85.84Z"/><path class="cls-26" d="M37,183.64c0,.28,0,.55,0,.83h-.83Z"/><path class="cls-33" d="M37,195.51a1.79,1.79,0,0,1-.85,1.7A1.66,1.66,0,0,1,37,195.51Z"/><path class="cls-33" d="M36.12,198a1.65,1.65,0,0,1-.83,1.68A1.77,1.77,0,0,1,36.12,198Z"/><path class="cls-33" d="M35.28,199.73c-.27.29-.54.58-.82.86C34.74,200.31,35,200,35.28,199.73Z"/><path class="cls-108" d="M43.77,182.8a14.25,14.25,0,0,1,5.57-7.4c.76-.57,1.67-1,2-1.94,2.35-3,5.36-5.52,6.92-9.13L60,162.55c.81.22,1.56-1.14,2.4-.08a53,53,0,0,0-4.32,7.62c-1.87,1.64-2.49,4.17-4.18,5.94-.1-1.13-.55-1.54-1.48-.63-1.78,1.74-3.52,3.52-5.3,5.26C46.19,181.61,45.36,182.82,43.77,182.8Z"/><path class="cls-108" d="M54,176a1.86,1.86,0,0,1-.85,1.71A1.67,1.67,0,0,1,54,176Z"/><path class="cls-108" d="M53,178.56l-.76.9Z"/><path class="cls-76" d="M57.45,164.22l-1,.82A1.22,1.22,0,0,1,57.45,164.22Z"/><path class="cls-91" d="M53.14,167.58l-.9.81Z"/><path class="cls-99" d="M84.4,124.3l-.83.89Z"/><path class="cls-99" d="M83.57,125.19l-.75.85A1,1,0,0,1,83.57,125.19Z"/><path class="cls-96" d="M86,120.94a1,1,0,0,1-.74.86C85.51,121.51,85.76,121.23,86,120.94Z"/><path class="cls-109" d="M74.14,146.24l-1.57,1.83c-1.49-.9-.59-1.85-.06-2.79a137.58,137.58,0,0,1,8.93-14.08c1.4-1.9,2.59-3.95,3.87-5.93a4.32,4.32,0,0,0,1.7-1.69c1.27.85.37,1.76-.05,2.49-1.65,2.84-3.4,5.62-5.11,8.42C80.46,139.18,76.91,142.45,74.14,146.24Z"/><path class="cls-110" d="M74.14,146.24c1.65-4.52,4.84-8,7.71-11.75.72.07,1.4.17,1.13,1.19a1.1,1.1,0,0,0,.6,1.37A52,52,0,0,1,74.14,146.24Z"/><path class="cls-110" d="M85.43,135.44l-1,.79A1.18,1.18,0,0,1,85.43,135.44Z"/><path class="cls-110" d="M84.45,136.22l-.87.83Z"/></g></g></svg>