<svg xmlns="http://www.w3.org/2000/svg" viewBox="0 0 285.65 421.65"><defs><style>.cls-1{fill:#a2987d;}.cls-2{fill:#a49a7f;}.cls-3{fill:#a0967a;}.cls-4{fill:#bcb39f;}.cls-5{fill:#aca38a;}.cls-6{fill:#9f977b;}.cls-7{fill:#b1a991;}.cls-8{fill:#c4bdab;}.cls-9{fill:#9f9579;}.cls-10{fill:#c2bba8;}.cls-11{fill:#a0997d;}.cls-12{fill:#c9c4b3;}.cls-13{fill:#6e5f3b;}.cls-14{fill:#a2967a;}.cls-15{fill:#b6ad96;}.cls-16{fill:#aca48b;}.cls-17{fill:#918566;}.cls-18{fill:#817351;}.cls-19{fill:#a9a188;}.cls-20{fill:#ada48c;}.cls-21{fill:#c1bca9;}.cls-22{fill:#aea792;}.cls-23{fill:#7e714e;}.cls-24{fill:#9c9175;}.cls-25{fill:#857856;}.cls-26{fill:#c1bdaa;}.cls-27{fill:#a9a086;}.cls-28{fill:#c2bcab;}.cls-29{fill:#9e9479;}.cls-30{fill:#9b9174;}.cls-31{fill:#c2bdaa;}.cls-32{fill:#a9a187;}.cls-33{fill:#bbb6a1;}.cls-34{fill:#9f977d;}.cls-35{fill:#9c957a;}.cls-36{fill:#9d9579;}.cls-37{fill:#685933;}.cls-38{fill:#b3aa93;}.cls-39{fill:#8f8268;}.cls-40{fill:#beb9a8;}.cls-41{fill:#a0987d;}.cls-42{fill:#b5b29f;}.cls-43{fill:#988a78;}.cls-44{fill:#b1af9c;}.cls-45{fill:#b0a58e;}.cls-46{fill:#aba38a;}.cls-47{fill:#9f9e8b;}.cls-48{fill:#9da188;}.cls-49{fill:#b1ab96;}.cls-50{fill:#857857;}.cls-51{fill:#818465;}.cls-52{fill:#a19f88;}.cls-53{fill:#2e2e27;}.cls-54{fill:#9aa28f;}.cls-55{fill:#a6af9d;}.cls-56{fill:#cfded4;}.cls-57{fill:#c3bca8;}.cls-58{fill:#aba289;}.cls-59{fill:#ada48b;}.cls-60{fill:#c9c3b2;}.cls-61{fill:#8b7f5e;}.cls-62{fill:#f1f0ec;}.cls-63{fill:#d8d9ce;}.cls-64{fill:#c5c9ba;}.cls-65{fill:#b8b19b;}.cls-66{fill:#b6af98;}.cls-67{fill:#b5ae97;}.cls-68{fill:#afa78f;}.cls-69{fill:#837553;}.cls-70{fill:#b9b19b;}.cls-71{fill:#c5bfad;}.cls-72{fill:#8f8364;}.cls-73{fill:#9c8f72;}.cls-74{fill:#867856;}.cls-75{fill:#b4ab94;}.cls-76{fill:#c5bfac;}.cls-77{fill:#aca289;}.cls-78{fill:#a79e84;}.cls-79{fill:#b2a991;}.cls-80{fill:#8d8161;}.cls-81{fill:#847856;}.cls-82{fill:#c0b9a5;}.cls-83{fill:#c7c1af;}.cls-84{fill:#beb8a3;}.cls-85{fill:#f6f6f4;}.cls-86{fill:#f9f9f7;}.cls-87{fill:#958a6b;}.cls-88{fill:#928768;}.cls-89{fill:#b6b6a3;}.cls-90{fill:#b5ad95;}.cls-91{fill:#847755;}.cls-92{fill:#897d5c;}.cls-93{fill:#c2bca8;}.cls-94{fill:#bbb39e;}.cls-95{fill:#b3ab94;}.cls-96{fill:#aaa288;}.cls-97{fill:#f4f4f1;}.cls-98{fill:#908363;}.cls-99{fill:#6c5d37;}.cls-100{fill:#b4ac95;}.cls-101{fill:#b2aa92;}.cls-102{fill:#a19c82;}.cls-103{fill:#bdb5a0;}.cls-104{fill:#a89f85;}.cls-105{fill:#71633e;}.cls-106{fill:#7e724f;}.cls-107{fill:#a69e84;}.cls-108{fill:#827452;}.cls-109{fill:#f9faf8;}.cls-110{fill:#c5beac;}.cls-111{fill:#8b805f;}.cls-112{fill:#978d70;}.cls-113{fill:#999173;}.cls-114{fill:#72633e;}.cls-115{fill:#bcb49f;}.cls-116{fill:#c2bba7;}.cls-117{fill:#bab39d;}.cls-118{fill:#a39a7e;}.cls-119{fill:#b7af98;}.cls-120{fill:#aea58c;}.cls-121{fill:#9a8e71;}.cls-122{fill:#a69b81;}.cls-123{fill:#b1a68e;}.cls-124{fill:#a1967a;}.cls-125{fill:#cac4b4;}.cls-126{fill:#c4bca9;}.cls-127{fill:#dddbd0;}.cls-128{fill:#dcdcd2;}</style></defs><g id="Layer_2" data-name="Layer 2"><g id="Layer_2-2" data-name="Layer 2"><path class="cls-1" d="M97.42,220.17c.15-.5.29-1,.44-1.48.15-.31.3-.62.47-.92l.09.07a1.47,1.47,0,0,0,.5-1.07c.08-.26.16-.52.23-.78a1.39,1.39,0,0,1,.27-.69,2.42,2.42,0,0,0,.59-1,1.17,1.17,0,0,1,.18-.66c.51-.52.37-1.26.66-1.86a1.28,1.28,0,0,1,.25-.68c.6-.8.12-1.85.6-2.68a1.06,1.06,0,0,1,.2-.71.55.55,0,0,0,.22-.54c0-.2-.08-.3-.14-.3,0-.57,0-1.15.08-1.72a3.69,3.69,0,0,0,.43-1.05,10.82,10.82,0,0,1,1-6.46c1.48-3.37,2.23-6.84.81-10.56a38.85,38.85,0,0,1-1.52-6.56,16.52,16.52,0,0,0-2.55-5.7c-3.24-5.12-8.37-5.67-13.62-6a38.72,38.72,0,0,0-16.91,2.68C64,173.71,58.16,175.25,52,174.7c-6.55-.59-12.34-2.37-17-7.69a46.74,46.74,0,0,0-16-12.08c-6.31-2.79-9.42-7.63-9.59-14.54a41.21,41.21,0,0,0-3.51-16.76,42.4,42.4,0,0,1-4-12.27c-.68-1.33-.25-2.21,1.15-2.53s2.72.21,3,1.63c1.82,9.6,7.89,18.07,6.89,28.49-.65,6.85,2.57,11,9.09,13.66a41.36,41.36,0,0,1,15.41,11.47c6.26,7.21,20.09,9.2,29.11,3.86a2.83,2.83,0,0,1,1.15-.57,52.58,52.58,0,0,1,25.32-1.43c7.27,1.31,12.36,6.33,13.33,13.69a54.43,54.43,0,0,0,1,5.37c.15.66.41,1,.81.1a6.41,6.41,0,0,0,.27-.81c1.42-4.08.79-8.29.77-12.45-.12-.38-.22-.76-.34-1.14a19,19,0,0,0-.9-2.14c-.79-3.32-3-6.17-3.29-9.65-.38-1.92-2-2.52-3.49-3.13-1.23-.35-2-1.47-3.18-1.91-.56-.26-1-.82-1.65-.85-.15,0-.25-.26-.43-.07a3.8,3.8,0,0,1,1.65.8c.46.26,1.21.51,1,1.08-.4,1.13-1.47,1.07-2.43.91-2.58-.42-4.76-2.07-7.37-2.38a6.46,6.46,0,0,0-1.18.12s-.13.27-.13.27.25.18.28.19c.81.5,2,.74,1.47,2.12-1.43,1.3-3.17,1-4.87,1a17.34,17.34,0,0,1-4.89-1.35c-.94-.77-.55-1.52.28-1.85a4,4,0,0,0,2.06-2.33c7.49-3.5,14.69-3.43,22,.87,3.55,2.1,5.87,4.6,6.54,8.63,2.14,7.72,4.09,15.47,4,23.58a3.07,3.07,0,0,1-.1,2.47c-5,8.55-7.92,18-11.33,27.2-4.82,13.06-9.67,26.14-15.51,38.81a3.3,3.3,0,0,1-1.41,1.31,1.22,1.22,0,0,1-1.19-.18c-1.16-3.12,1.15-5.31,2.12-7.85.26-.5.5-1,.72-1.51a12.11,12.11,0,0,0,.54-1.49c.28-.57.92-1.08.3-1.8l1-1.71a5.53,5.53,0,0,1,.56-.89c.1-.26.21-.53.31-.8s.3-.62.46-.92l.09.07a1.42,1.42,0,0,0,.47-.83,7.71,7.71,0,0,1,.32-.92v0c.67-.39.52-1.14.76-1.72l.09.08A1.29,1.29,0,0,0,93,232.7a3.58,3.58,0,0,1,.25-1.37l.09,0a.52.52,0,0,0,.32-.5c0-.21-.08-.31-.14-.31a.76.76,0,0,1,.5-.92c.74-.42.8-1,.31-1.63a.79.79,0,0,1,.52-.91A4.9,4.9,0,0,0,96.17,223l.51-.92a1.42,1.42,0,0,0,.55-1.09A3.19,3.19,0,0,0,97.42,220.17Z"/><path class="cls-2" d="M245.05,77.2c4,2,5.16,6.08,3,10A18.12,18.12,0,0,1,244.19,92c.51,1.7,1.82,1.23,2.84,1.44A36.43,36.43,0,0,0,262.89,93c3.54-.83,7.1-1.57,10.66-2.36,1.14-.24,2.37-.85,3,.83-.55,1.54-2,1.74-3.27,2.32-9.32,4.21-19,4.19-28.84,2.65a13.46,13.46,0,0,0-6.64.23c-5.22,1.6-10.7,1.78-16,2.72-3.86.69-7.5,2.14-11.36,2.76-.21,0,.09.69,0,1.07-1.53,1.9-3.86,1.57-5.83,1.87a72.73,72.73,0,0,0-26.4,9.19,32.06,32.06,0,0,1-7.28,3.23,2.23,2.23,0,0,1-2.42-1.68c1-3.66,4.8-4.4,7.15-6.65a15.12,15.12,0,0,1,1.82-1.26,14.87,14.87,0,0,0,1.29-1c1.39-1.15,2.43-2.79,4.38-3.15,3.47-.35,3.49-4,5.48-5.74,5.34-3.35,9.51-8.18,14.77-11.64a47.3,47.3,0,0,1,4.52-3,8.09,8.09,0,0,0,2.33-1.3c.25-.26.5-.51.73-.79,1.25-1.33.31-2.91.52-4.35a1.13,1.13,0,0,1,.73-.8c2,2.8,4.17,2.4,7.28,1.29a59.1,59.1,0,0,1,19.7-3c2.23,0,4.14,1.29,5.85,2.71-1.9,2.33-4.51,1.82-7,1.84-6.88.06-13.72,0-20.25,3-4.09,1.87-7.31,4.88-10.6,7.6-5.09,4.21-10.45,8.14-15.2,12.76-.24.31-.5.6-.77.89s-.51.56-.76.82a1.36,1.36,0,0,1-.24.31c-.33.31-.24.61.13.5a44.78,44.78,0,0,0,5.65-2.55c1.48-.67,2.9-1.73,4.68-.89,1.21,1.52,2.44.63,3.62,0,1.91-1.08,3.62-2.49,5.6-3.44a5.58,5.58,0,0,0,1.24-.91,9.45,9.45,0,0,1,.66-.76,2.52,2.52,0,0,1,1.82-.77c.44,0,.94.46,1.31-.18a4,4,0,0,1,1-.49c4.3-1.06,8.5-2.51,12.87-3.25a18,18,0,0,1,5-.18c5.35.62,8.59-2.47,11.49-6.27,1.38-1.8,1.56-3.53-.1-5.25a4.3,4.3,0,0,1-.61-1.06A1.64,1.64,0,0,1,245.05,77.2Z"/><path class="cls-3" d="M285.56,89.94c-3.72,10.61-9.78,18.84-21.52,21.46a85.54,85.54,0,0,1-14.11,2.28,22.57,22.57,0,0,0-4.16.61c-3.06.75-2.89.69-2.84,3.84a7.63,7.63,0,0,1-3.75,6.62c-5,3.34-10.62,3.38-16.24,3-5.31-.4-10.57-1.35-15.91-1.29a46.67,46.67,0,0,0-7.54.62,70.66,70.66,0,0,1-23.75.37,13.31,13.31,0,0,0-10.35,2.47c-9.88,7.18-18,16.08-25,25.93-5.38,7.51-10.74,15-16.64,22.14-1.28,0-1.35-1-1.13-1.71.91-3,1.44-6.27,4-8.52,2.78.07,3.47-2.58,4.53-4.15a290.2,290.2,0,0,1,25.35-31.46,5.19,5.19,0,0,1,1-.83,39.87,39.87,0,0,0,5.7-3.62,20.77,20.77,0,0,1,17.24-3.77c9.35,2,18.5,0,27.67-.87,5.48-.53,10.5,1.57,15.85,1.45,4.92-.11,9.89.47,14.19-2.7,1-1,2.28-1.92,1.66-3.53s-2.37-1.77-3.92-1.78a33.09,33.09,0,0,1-7.86-1.21,2.55,2.55,0,0,1-.95-.74c0-1,.71-1.34,1.51-1.58,1.1-.32,3.08,1,2.95-1.6a5.49,5.49,0,0,1,3.21-.08c2.55,1.21,5.18,1.05,7.84.51,8.65-1.74,17.73-1.19,26-5.09a19.41,19.41,0,0,0,9.83-9.84C279.76,93.82,280.7,89.61,285.56,89.94Z"/><path class="cls-4" d="M47.56,388c.47-4.36,2-8.42,3.41-12.54,3.55-10.79,7-21.62,9.57-32.68,1.08-4.62,1.49-9.39,2.15-14.1a16.27,16.27,0,0,1,1.06-4.07,1.27,1.27,0,0,0,.14-1.65c.07-1.22-.54-2.56.6-3.6,1.84,1.34,1.16,3.38,1.4,5.17-.4-3.8.93-7.31,2.19-10.71.94-2.53.92-5.23,2-7.68s-1.63-2.55-2.29-3.92a1.15,1.15,0,0,1,.55-1,11.32,11.32,0,0,0,5.3-3.7,1.74,1.74,0,0,1,1.86-.16c1.28,1.41.59,3,.23,4.41-2.67,10.8-5.13,21.66-7.26,32.58a194.06,194.06,0,0,1-11.54,39c-.51,1.21-.39,2.5-.7,3.73-2.74,8-6,15.72-8.27,23.87-1.19,4.33-1.56,8.83-2.87,13.13-.36,1.19-.37,2.81-1.53,3.35-1.43.68-1.55-.31-1-1.43a4.12,4.12,0,0,1,.2-2.5c.53-.79,0-1.84.64-2.6l.21-1.63c.53-.79,0-1.84.64-2.61.07-.54.13-1.09.2-1.63.51-.83.07-1.87.6-2.69.06-.51.11-1,.17-1.53.78-1.05-.05-2.43.71-3.48l.13-1.61c.79-1,0-2.43.71-3.49.07-.53.13-1.06.2-1.59C47.48,389.82,47,388.76,47.56,388Z"/><path class="cls-5" d="M42.51,416c.25.26.5,1.42.73.63a111,111,0,0,0,2.58-11c1.85-9.94,5.56-19.26,9.44-28.54,3.08-7.9,5.73-15.95,8.35-24,2.77-8.53,3.55-17.38,5.61-26a6.46,6.46,0,0,1,.47-2c4.19-6.9,4.34-15,6.59-22.46a23.36,23.36,0,0,1,1.4-3.53c1.91-3.95,3.7-7.95,3.79-12.45.08-4.18,2.52-7.74,3-11.81a5.32,5.32,0,0,1-.06-1.13,4.93,4.93,0,0,1,.45-1.55,7.9,7.9,0,0,1,.44-.93c.24-.45.48-.9.7-1.37a8.88,8.88,0,0,1,.48-1,2.65,2.65,0,0,1,1.23-1.2,1.68,1.68,0,0,1,1,.64c.86,3.46-.78,6.59-1.3,9.86-2.47,15.69-7.39,30.78-11.52,46-1.72,6.36-3.76,12.54-4.55,19.18-.92,7.83-4.63,15-7.18,22.4-1.09,3.19-1.81,6.49-3.13,9.6-4.25,12-11.52,22.8-14.12,35.48-.3,1.47-.17,3.08-.94,4.46-.51,2.23-.71,4.62-2.9,6.36A4.37,4.37,0,0,1,42.51,416Z"/><path class="cls-6" d="M25.74,132.25c3.18,2.3,6.19,4.79,10.26,5.54,4.91.91,9.49,1.11,14.3-1.24a44.78,44.78,0,0,1,19.2-4.16c2.6,0,4.78-.29,6.88-2.3,3.08-3,9.05-3,12.64-.82,4.08,2.47,8.1,5.07,12.33,7.27,3.53,1.84,6.54,4.36,9.7,6.68,2.85,2.08,3.69,5.55,5,8.64,1.93,5.51.66,11.3,1.46,16.9.18.66-.2,1.38.22,2a1.44,1.44,0,0,0,.71-.37c1.13-.88,2-3.25,3.46-2.28,1.75,1.15.21,3.1-.64,4.36-1.45,2.16-1.89,5.17-4.89,6.14-.21.06-.09,1-.23,1.59-.32.8-.65,1.6-1.78,1.23-1.22-3.67-.7-7.49-.92-11.25-.34-5.9.52-11.82-.65-17.71a12.09,12.09,0,0,0-4.3-7c-6.34-5.48-13.64-9.51-20.89-13.56-2.76-1.54-5.9-2.21-8,1.44a3.78,3.78,0,0,0,.68.76,24.15,24.15,0,0,1,2.86,2.37c.28.24.53.5.79.76s.52.52.77.79c1,1.1,2.13,2.11,3.15,3.21a3.5,3.5,0,0,1,.84,1.56c-.28,2.55-1.81,1.46-3.11,1.07a6.8,6.8,0,0,1-1-.67l-.46-.37a28.4,28.4,0,0,1-3.93-3.67,3.11,3.11,0,0,0-4.14-.69c-1.61.9-.87,2.38-.38,3.67.6,1.54,1.6,2.92,1.86,4.59a1.61,1.61,0,0,1-.39,1.11,2.41,2.41,0,0,1-1.76.28c-1.42-.51-2.09-1.83-3-2.86a7.25,7.25,0,0,1-1.26-2.73,32,32,0,0,1-.86-4.09c-.3-2.63-2.13-2.61-4-2.23-2.59.51-5.19,1-7.81,1.36-3.82.19-7.05,1.95-10.18,3.87a5.56,5.56,0,0,1-4.72.75c-4.22-1.06-8.65-1.14-12.72-2.91a18.27,18.27,0,0,1-6.08-3.74C23.26,134,23.47,133.48,25.74,132.25Z"/><path class="cls-7" d="M67.12,167.88a2.38,2.38,0,0,1-1.91,2.45c-4.78,1.1-9.64,2.6-14.52,1.67-5.76-1.1-11.44-2.87-14.89-8.33a4.92,4.92,0,0,0-3.12-2.61,1.47,1.47,0,0,1-.78-.3c-3.72-4.46-9.12-6.27-13.93-9.06-5.25-3-6.65-7.91-6.31-13.93.24-4.41.08-8.9-2.33-13.26-2.14-3.89-2.81-8.62-4-13-.28-1-.34-1.94-1.66-2s-1.69.76-1.83,1.84c-2.79-3-2.49-3.86,1.76-5.23,1.06,1.18,3.21.39,4,2.16,1.14,3.86,3.06,7.38,4.61,11.07.24.3.46.62.67.94a4.38,4.38,0,0,1,.49,1.08,3.6,3.6,0,0,1,0,1.18c-.56,4.61,2.05,8.05,4.35,11.57.51.77,1.54,1.21,1.37,2.38a2,2,0,0,1-1,.56c-2.45-.23-2.9.83-2.12,3,2.38,6.54,7.43,10.3,13.43,13.11,1.48.69,3.37.69,4.21,2.47,0,1.32.94,2,1.9,2.56a20.56,20.56,0,0,1,6.89,7.13c2.48,4,7.15,3.19,11,3.52s8.11.39,11.9-1.53A1.64,1.64,0,0,1,67.12,167.88Z"/><path class="cls-8" d="M263.75,239.28a16.84,16.84,0,0,1-7.26,6,8.48,8.48,0,0,1-5.58.78c-5.33-1-10.8-1.37-16.18-2.08a124.42,124.42,0,0,1-21.27-4.57,5.5,5.5,0,0,1-1.91-.78c-4.27-3.59-9.64-4.27-14.73-5.68,1.06-2.78,3.4-1.86,5.25-1.56,3.43.57,6.86,1.21,10.32,1.63A136.19,136.19,0,0,1,227,236.45c2.47,1.06,5.14.37,7.68.81a8.1,8.1,0,0,1,1.2.3c3.18,1.57,6.41,2.71,10,1.56,2-.64,3.1,1.58,5,1.62a17.87,17.87,0,0,0,9.61-2.14C261.59,238,263.29,236.33,263.75,239.28Z"/><path class="cls-9" d="M60.33,375.4c2-6.4,3.77-12.82,6.21-19.12,2.13-5.46,4.09-11.2,4.21-17.47A28.29,28.29,0,0,1,74,326.44a20.86,20.86,0,0,0,2.32-6.7c.91-6.43,3.19-12.47,4.74-18.71,1-4,2.24-8,3.45-12a10.06,10.06,0,0,0,.39-3.34A12.8,12.8,0,0,1,86,279.94c1.48-3.37,1.46-7.11,2.25-10.66.13-.59-.3-1-.74-1.43-.75-1.75.53-3.08,1-4.59.57-.87,1.11-1.81,2.43-1.39,0,6.52-1.92,12.75-2.9,19.12-2.43,15.69-7.41,30.78-11,46.19-3.25,13.76-6.74,27.52-12.17,40.66A25.68,25.68,0,0,1,62.8,372c-.68.71,0,1.83-.76,2.53h0C61.57,375,61.28,375.9,60.33,375.4Z"/><path class="cls-10" d="M118.65,44.18c-.18,2.06.65,4.22-.61,6.17a3.5,3.5,0,0,1-.52-2.87c-1,5.49.47,12,1,18.38.41,4.73,0,9.73,2,14.17,3.29,7.25,6.32,14.64,10.24,21.59a18,18,0,0,1,2.7,8.79,2.22,2.22,0,0,0,1.16,2.1,2,2,0,0,1,.79.91,5.08,5.08,0,0,1,0,2.54c-.8,2.29.45,5.1-2.11,7.54-2.15-4.08-3.94-8-4.48-12.27a20.82,20.82,0,0,0-4.26-10.39c-4.83-6.09-7.09-13.36-10.25-20.21a11,11,0,0,1-1-4.93c.41-12-1.31-24.19,2.65-35.93a8,8,0,0,1,.34-1.18,13.83,13.83,0,0,0,.79-2.76,9.68,9.68,0,0,1,.27-1.06,17.4,17.4,0,0,0,.65-3.13,2.65,2.65,0,0,1,.47-1,1.36,1.36,0,0,1,1-.27c.72.45.38,1.35.81,1.92.31,1.52-.38,2.87-.73,4.28a1.25,1.25,0,0,0-.11,1.65c0,1,.42,2-.59,2.75C117.79,42,118.43,43.1,118.65,44.18Z"/><path class="cls-11" d="M98.75,234.81,98.3,238c-.38.75.22,1.6-.22,2.32-.43.34-.42-.31-.25.21.12.35.4.25.42-.18a3.43,3.43,0,0,1,1-1.37c3-4,5.15-8.64,8.22-12.68a79.3,79.3,0,0,1,6.06-7c4.68-4.86,7.53-11.07,12.32-15.87,4.61-4.62,9.42-8.74,15.55-11.13a71.35,71.35,0,0,0,8.06-3.57c5.21-2.84,10.63-3.37,16.31-3.14,1.26.05,2.53,0,3.8.05,1.24,1.95.25,2.84-1.59,3.25a11.41,11.41,0,0,1-3.35.14c-11-.86-19.59,5.33-28.34,10.27-6.15,3.48-10.72,9.33-14.27,15.65a8.39,8.39,0,0,1-1,1.52,168.48,168.48,0,0,0-18.54,22.73c-.73,1.05-1.56,2-1.22,3.42-.87,2.28-3.42,2.39-4.92,3.86a9.89,9.89,0,0,1-1.31,1c-.79.47-1.58,1.42-2.56.51-.7-.64-.41-1.56-.21-2.36a38.79,38.79,0,0,1,3.42-8.49,11.37,11.37,0,0,1,.55-1,7.59,7.59,0,0,1,.62-1,2.56,2.56,0,0,1,.87-.73A1.23,1.23,0,0,1,98.75,234.81Z"/><path class="cls-12" d="M134.87,112.8c-.68.1-1.24,2.19-2,.11-.1-.26-.35-.54-.31-.77.83-4.82-2.3-8.48-3.68-12.65a2.89,2.89,0,0,0-.52-1.12c-3.21-3.21-3.9-7.58-5.42-11.57-.8-2.11-2.84-3.45-3.3-5.93a56.09,56.09,0,0,1-1.25-6.42c-.37-5.28-.8-10.6-1.51-15.82-.61-4.42.48-8.45.9-12.69.1,1.47.19,2.94.29,4.41a19.79,19.79,0,0,0,.56,4.58C120.25,60.87,121,67,122.27,73c1.2,5.44,2.88,10.77,6.83,15.08,2.12,2.31,1.76,5.54,2.18,8.38.31,2.1.38,4.09,1.74,5.88a7.53,7.53,0,0,1,1.19,4,1.38,1.38,0,0,0,1.37,1.31C138.36,109.78,138.19,111,134.87,112.8Z"/><path class="cls-13" d="M176.48,231.3c-2.33-.8-4.68.33-7-.07a10.31,10.31,0,0,0-2.32-.49,21.12,21.12,0,0,1-5.72-.36c-5.35-.91-10.66,0-16,.31-2.15.13-5.68,1-5.95-1.27-.31-2.54,3.23-2.22,5.34-2.56,2.64-.43,5.28-.84,7.92-1.15.84-.32,1.68-.63,2.53-.92,4.87-1.14,9.93.47,14.79-1a26.16,26.16,0,0,1,5.59-.3c9,.87,17.78,2.78,26.62,4.47,1.26.24,2.88.79,2.83,2.12-.06,1.57-1.79,1.25-3,1.46-2.63.45-5.31.13-7.92.7-2.82-.82-5.67.55-8.5-.1.51-1,.51-1-2.29-1.14C181.1,231.35,178.75,230.47,176.48,231.3Z"/><path class="cls-1" d="M105.16,72.81c0-.5.09-1,.14-1.5a.53.53,0,0,0,.19-.56c-.07-.18-.14-.27-.2-.27,0-.3,0-.59,0-.88.79-1-.08-2.41.74-3.43l.13-1.66c.72-1.08,0-2.45.68-3.53l.16-1.5c1.57-1.17,1.31-3,1.83-4.64.28-.87.57-2,1.87-.87,1.34,2.54.08,5-.35,7.41-1.53,8.8-2.28,17.56.71,26.24A13.3,13.3,0,0,0,116.41,95c4.77,3,7.52,7.73,9.3,12.78,2.11,6,4.74,11.76,6.47,17.86.24,1.15.25,2.35.6,3.49.12.38.21.76.29,1.14a3.78,3.78,0,0,1-.47,2.86.79.79,0,0,1-1,0,81.53,81.53,0,0,0-6.14-15.55,37.51,37.51,0,0,1-2.24-5.88,23.4,23.4,0,0,0-9-12.28c-5.92-4.29-8.55-10.49-9.06-17.67A25.63,25.63,0,0,1,105.16,72.81Z"/><path class="cls-14" d="M240.76,227.09a3.18,3.18,0,0,1,2.56.17c.55.45,1.29.34,1.88.67h1.29a1.19,1.19,0,0,1,1.26,0,1.67,1.67,0,0,1,1.47.19c.52,1.22,2.92,1.86,1.19,3.79-4.25.36-8.42-.74-12.5-1.44s-8-1.19-12.07-1.55a3.22,3.22,0,0,1-1.14-.57,1.32,1.32,0,0,1,0-1.63c.06-.42,1.07,0,.71-.8A3,3,0,0,1,225,225a2,2,0,0,1,.35-1.39,3.06,3.06,0,0,1,1.27-.61,11.82,11.82,0,0,0,1.25-.47l.78-.4a5.67,5.67,0,0,0,1.05-.77,10.51,10.51,0,0,0,1.17-1.33,4.09,4.09,0,0,0,.43-1.26,3.18,3.18,0,0,0-.56-2.2c-.24-.25-.47-.49-.72-.72l-.44-.31a43.88,43.88,0,0,0-9.19-4.41c-.36-.11-.71-.25-1.06-.39-.7-.27-1.42-.51-2.13-.76a7.09,7.09,0,0,1-1-.49c-2.55-1.57-5.53-1.8-8.29-2.7a43.43,43.43,0,0,0-14.52.15c-5.61.91-11.39.58-17,1.88-1.76-.66-3.15.4-4.64,1a4.53,4.53,0,0,1-1.22,0,71,71,0,0,1-11.65.64c-1.82-.1-3.64-.13-5.09-1.49a1.74,1.74,0,0,1-.45-1.23,3.39,3.39,0,0,1,2.17-1.52,5.28,5.28,0,0,1,2,0c6,.92,11.83-.1,17.66-1.31a15.55,15.55,0,0,0,2.35-.29c.35-.11.72-.18,1.08-.26s.71-.13,1.07-.19a14.87,14.87,0,0,0,2.06-.54,10.34,10.34,0,0,1,2.14-.32,15,15,0,0,0,1.62-.22c.55-.15,1.09-.31,1.65-.44a17.42,17.42,0,0,1,3.53-.3c.78,0,1.57,0,2.35,0a17.67,17.67,0,0,1,2.91.11c3.06,1.43,6.36.45,9.54.92A40.54,40.54,0,0,1,217.9,207a.55.55,0,0,0,.77.15c4.87,1.47,9,4.39,13.28,7,2.44,1.48,2.82,4.88,1.18,7.42a10.85,10.85,0,0,1-3.33,3.14,2.88,2.88,0,0,1-.48.44l0,.3.29.11H230c1.21.79,2.67.35,4,.75.54.68,1.32.47,2,.55C237.57,226.63,239.13,227.56,240.76,227.09Z"/><path class="cls-15" d="M18.82,136.55a2.81,2.81,0,0,0-2.17-1.74c-1-.21-2-.84-1.91-1.89.11-2.24-1-3.83-2.1-5.62-.94-1.58-1.86-3.57.29-5.17,3.48-.06,4.22,3.19,6.12,5a11.49,11.49,0,0,1,4,2.66c.25.65-.12,1.09-.49,1.54-1.5,1.69-.23,2.82.87,3.87A7,7,0,0,1,26,140.73c2.64,4.32,6.82,6.23,11.51,7.32,5.37,1.24,10.8,1,16.24.58a2.85,2.85,0,0,1,2.66,1.3c.56,2.52-1,3.69-3,3.25-5.59-1.22-11.11.46-16.66,0a5.5,5.5,0,0,1-2.48-.3c-2.55-1.51-5.48-2.17-8.06-3.48C21.05,146.83,17.26,143.12,18.82,136.55Z"/><path class="cls-16" d="M121.32,215.31c.09-.69-.08-1.67.31-2,3.11-2.83,4.23-7.31,8.1-9.53,1.16-.66,2-2,2.91-3,4.09-4.31,9.86-5.67,14.84-8.41a11.85,11.85,0,0,0,1.16-.49c5.62-3.95,12-4.1,18.51-3.74,1.94.11,2.56-.67,2.46-2.42,6.38-1.48,12.12.6,17.63,3.42a10,10,0,0,1,4.36,4.39c.81,1.6,1.76,3.12,2.65,4.68.41,1.12-.23,1.66-1.11,2.08-2.71-2.07-5.35-4.2-8.12-6.19-4.31-3.08-8.66-5-14-3.92-4.26.89-8.62.57-12.89,1.22a37.55,37.55,0,0,0-15.66,7.53c-3.47,2.84-8,4.17-11.28,7.69-2.06,2.26-4.46,4.18-6.08,6.86-.7,1.17-1.62,2.34-3.3,2.17Z"/><path class="cls-17" d="M131.55,133.14l.78,0a1.85,1.85,0,0,1,.45.59c.18.31-.09.73.28,1a1.13,1.13,0,0,1,.41-.61c2.67-1.08,4-.65,3.14,2.61-.2.72-.72,1.52-.14,2.33a10.59,10.59,0,0,1-1.46,4.46c-1.85,3-2.88,6.37-5.14,9.89,1.29-1.36,2-2.62,3-.66.27,1.46-.34,2.75-.73,4.09-.46,1-.7,2.27-1.93,2.78-.37.08-1.08-1.07-1.14.36-.09,2-1.21,3.61-2.19,5.26-2.48,5-5.52,9.8-7.63,15-.6,1.47-.78,3.88-2.84,3.51s.08-2.81-1-4c.66-.7-1.5-3.31,1.6-2.37a.65.65,0,0,0,.9-.54c.7-3,3.53-5,4-8.84-1.54,1.71-2.64,3-3.85,4.25-.62.64-1.56,1-2.23.2s.12-1.27.54-1.82c.25-.33.44-.71.66-1.07-.4-1.56.55-2.39,1.67-3.13,2.49-2.49,3.85-5.64,5-8.86a13.16,13.16,0,0,1,1.72-4.13c.69.07.64-.56.87-.92l-.07.07a6.24,6.24,0,0,0,1.76-2.85c0-.41-.11-.93.08-1.23C131.11,143.79,131.66,138.54,131.55,133.14Z"/><path class="cls-18" d="M194.18,232.21c2.9-1.62,6.28-.53,9.27-1.66.25-.09.52-.15,1.07-.32-2-2.26-4.74-1.07-6.91-1.95s-4.9-1-7.37-1.42-4.91-1-7.38-1.35-5-.67-7.45-1c.33-1.64,1.72-1.82,2.94-1.85a162.3,162.3,0,0,1,36.55,2.67c1.23,1.47,2.32,3.06,4.75,2a2.84,2.84,0,0,1,3.09.85c.12.16.22.33.34.49a1.88,1.88,0,0,1,0,1.15,5.61,5.61,0,0,1-1.87,1.4,25.85,25.85,0,0,0-4,2.28,4.83,4.83,0,0,1-4.59.59,54.09,54.09,0,0,1-10.36-1.45c-1.8-.34-3.79-1.34-5.5.37l-1-.14c-.33-.17-.67-.33-1-.48A1,1,0,0,1,194.18,232.21Z"/><path class="cls-19" d="M212.2,76.21c-.09.35-.17.7-.25,1.05-3,2.17-6.65,2.3-10.07,2.34a18.9,18.9,0,0,0-10.55,3.65c-3.6,2.41-6.64,5.55-10.24,8-2.2,1.5-3,4-3.73,6.43-1.86,6.4-5.56,11.88-8.6,17.68a2.79,2.79,0,0,0,1.8,1.7,2.51,2.51,0,0,0,.61.51,7.81,7.81,0,0,0,1.11.58,1.52,1.52,0,0,1,.92,2.32,1.6,1.6,0,0,1-.94.33,7.92,7.92,0,0,1-1.5-.34,12.73,12.73,0,0,1-1.46-.53c-1.31-.34-3.07.27-3.61-1.71,1.21-5.19,2.3-10.44,5.17-15,1.14-1.82.5-3.83,1.3-5.6,3.41-10.3,11.19-16.43,20.35-21.22a20.36,20.36,0,0,0,6.91-.39c4.22-.79,8.49-1.36,12.7.2Z"/><path class="cls-20" d="M285.56,89.94c-3.65,1.33-5.28,4.57-6.49,7.76-1.66,4.36-4.76,7.12-8.58,9.25-5.89,3.29-12.48,4.12-19,4.68-3.63.31-7.19,1.05-10.79,1.5a7.6,7.6,0,0,1-5.86-1.14c4.22-2.18,8.93-2.18,13.45-2.66,6.86-.72,13.56-1.76,20-4.31,3.65-1.44,5.95-4.06,8-7.09a1.63,1.63,0,0,0,.17-2c-.52-.67-1.26-.29-1.93-.18a28.75,28.75,0,0,0-5.2,1.7c-9.43,3.35-18.9,2.08-28.39.29-1.4-.27-2.79-.52-3.6-1.89,2.32-1.56,4.84-.87,7.27-.52,7.58,1.08,15.13,1.64,22.6-.55,3.08-.9,6.06-2.1,9.09-3.16,2.56-.92,4.27-2.86,5.94-4.86C285.46,86.6,285.88,87,285.56,89.94Z"/><path class="cls-21" d="M134.87,112.8c2.13-2.29,2.18-2.67.71-5.15,1.11-6.11.79-12.31,1.19-18.46a119.12,119.12,0,0,1,5.85-30.91c.82-2.39,1.6-4.79,2.36-7.2a43.3,43.3,0,0,1,8.44-15.4c.35-.23.72-.43.86-.86l0,0c1.49,0,1.43.84,1,1.87h0c-.51.32-.63.89-.89,1.36-.94,2.25-2.8,4-3.51,6.35a4.33,4.33,0,0,1-.4,1.11c-.32.54-.49,1.14-.79,1.69a5.26,5.26,0,0,0-.54,1.21c-5.42,16.06-9.15,32.39-9,49.5a48,48,0,0,1-2.86,16.79c-1.79.71-1.79-.93-2.39-1.81Z"/><path class="cls-22" d="M116.24,95.88a8.38,8.38,0,0,1-4.73-4.4c-3.27-7.09-4.09-14.44-3.33-22.26.51-5.28,2.31-10.35,2.14-15.69,0-.18,0-.36,0-.54a7.76,7.76,0,0,1,.18-2.15,7.3,7.3,0,0,1,.3-1,19.09,19.09,0,0,0,.61-2c.08-.35.18-.69.28-1a21.73,21.73,0,0,1,.78-3.28C114,39.2,115.91,35,117,30.59l0,0c.94-.65.18-1.88.88-2.61,1.19-6.6,2.33-13.22,3.59-19.81.3-1.61.35-3.36,1.49-4.72,1.9,3.28,0,6.46-.52,9.58-.69,4.49-1.35,9-2,13.5a8.19,8.19,0,0,1-.13,1.31,7.7,7.7,0,0,1-1.53,2.79c0,.28,0,.56,0,.84-1,1,.06,2.41-.84,3.4,0,.27,0,.55,0,.83-.8.68-.1,1.85-.84,2.55h0c-2.5,6.83-2.72,14.14-4.41,21.11-2.05,8.46-1.37,16.75-.37,25.14a7.3,7.3,0,0,1-.33,1.1c.36,0,.15-.47.39-.6,1.09-.81,2.61-.8,2.48.55C114.5,89.18,116.72,92.34,116.24,95.88Z"/><path class="cls-23" d="M126.41,164.49a50.92,50.92,0,0,1,2.43-5.55c.77-1.33.77,0,1,.48a.93.93,0,0,1,.35.85c-.14.64-.34,1.27-.5,1.9a9.15,9.15,0,0,1-.29.93,11,11,0,0,0-.46,1.88,6,6,0,0,1-.24,1,6.49,6.49,0,0,1-.71,1.29,1.92,1.92,0,0,1-.74.61c-1.69,3.19-3.91,6.19-3.49,10.11C122,180,122,182.81,120.63,185c-2.69,3.51-3.84,7.83-6.13,11.55a13.19,13.19,0,0,0-.88,1.44c-.52.95-1,1.92-1.58,2.83a3.28,3.28,0,0,0-.43,1.29,3.74,3.74,0,0,0,.21,1.28.87.87,0,0,1-.61.92,2.56,2.56,0,0,0-.83,1l.12,0c-1.47.94-1.82,2.45-2.08,4q-2,4.29-3.94,8.57a.54.54,0,0,0-.27.77.85.85,0,0,1-.49.93c-.71.38-.6,1.2-.94,1.78l0-.09c-1,.63-.29,1.85-.89,2.62H102c-.28.09-.41.23-.38.42s.07.31.15.31q-1.22,3.81-2.44,7.62c-.75.75-.9,1.9-1.72,2.6a7.38,7.38,0,0,1-.07.81l-.79.86h0c-2.25-.38-1.46-1.83-1.1-3.14,3.34-12.19,8.79-23.59,13.5-35.25,1.65-4.06,4.91-7.48,5.2-12.17,6.36-4.67,6.63-12.88,10.92-18.76C125.88,166.37,125.85,165.31,126.41,164.49Z"/><path class="cls-24" d="M167.94,230.51a1.63,1.63,0,0,1,1.53.72c-9.52,1.79-19.1,3.19-28.68,4.55-4.74.67-9.19,2.69-13.51,4.69-6.38,3-12.58,6.31-18.85,9.49a117.38,117.38,0,0,0-15.86,10.31c-1.75.23-1.42-1.07-1.54-2.06a4.15,4.15,0,0,1,1.1-2.16,1.94,1.94,0,0,1,1.1-.39c3-.09,4.47-2.69,6.67-4.07,4.38-2.75,9.28-4.6,13.39-7.79,2.26.25,3.69-1.5,5.52-2.29,4.56-1.73,8.59-4.69,13.38-5.84,2-.48-1.16-1.7.44-2.06,3.72-1.77,7.75-.73,11.62-1.21,7.06-.88,14-3.13,21.24-2.26C166.31,230.24,167.18,230,167.94,230.51Z"/><path class="cls-25" d="M264.55,228.87c2.09-1.48,4-.06,5.78.64,1.53.61,1.14,2.44.32,3.63a11,11,0,0,1-4.43,4.23c-4.63,0-8.81,2.89-13.58,2.09-5.61-1-11.44,1-16.95-1.33l0,0c-2.52-1.12-5.32.36-7.82-.88.67-2.35,2.74-1.67,4.35-2,4.82-.06,9.66.25,14.44-.69,3.72.15,7.15-1.22,10.67-2.14.55-.22,1.11-.44,1.66-.69.34-.19.7-.35,1.06-.52C261.49,230.29,263.35,230.22,264.55,228.87Z"/><path class="cls-26" d="M131.4,156.81l1-4.13c.52-1.24-1-3.51,1.8-3.62,3.3-2,5.35-5.21,7.87-7.95,6.91-7.52,14-14.84,22.39-20.72a.72.72,0,0,1,.83-.25,2.17,2.17,0,0,1,.66.69,4.93,4.93,0,0,1,.53,1.33,1.94,1.94,0,0,1-.05.93,3.13,3.13,0,0,1-.55.76,3.56,3.56,0,0,1-.74.53L164,125a7.77,7.77,0,0,1-.78.48,7.23,7.23,0,0,0-1.44,1.21c-.21.28-.42.54-.64.81a9.53,9.53,0,0,1-.72.85c-9.08,7-16.11,16-23.54,24.58-1.53,1.78-2.67,4-5.1,4.8-.08,0-.23-.13-.33-.22A.57.57,0,0,1,131.4,156.81Z"/><path class="cls-27" d="M152,43.42c-3.42,7.88-4.64,16.38-6.82,24.61a118.65,118.65,0,0,0-2.86,18.61c-.93,9-.36,18.16-2.56,27.05-.51,2.57-.51,2.57-1.94,1.8,1.57-12,2.15-24,3.11-36,.91-11.4,5-22,8.33-32.73h0c.52-.45.37-1.23.84-1.7h0C150.88,44.66,150.24,42.63,152,43.42Z"/><path class="cls-28" d="M68,301.7c.87,1.47,2.73.33,3.82,1.46-1.11,7.54-4.26,14.6-5.79,22.08-1.16-.6-.34-1.83-.79-2.67a7.91,7.91,0,0,1-.73-3.25c.49-6.49.77-13,2.68-19.3a.65.65,0,0,1,.89-.17,1.73,1.73,0,0,1,.4.95A1.48,1.48,0,0,1,68,301.7Z"/><path class="cls-29" d="M60.33,375.4l1.71-.84a175.78,175.78,0,0,1-8.33,20.27c-3.19,6.56-5.25,13.6-7.74,20.46-.29-5,1.91-9.51,2.83-14.28a21.18,21.18,0,0,1,3.51-8.3,49.41,49.41,0,0,0,5.25-11.37A34.58,34.58,0,0,1,60.33,375.4Z"/><path class="cls-30" d="M138.26,116.21c1.07-.5.55-1.95,1.51-2.52-.8,7.63-.12,15.41-2.45,22.86-.44.54-.31,1.29-.67,1.86a.64.64,0,0,1-.18.64c-.65-2.16-.65-2.16-.15-4.3a3.31,3.31,0,0,0-3.13.1c-.82-1.65.37-3.3,0-4.95a6.7,6.7,0,0,1,.14-1.89c.5-1.38.38-2.87.72-4.28.64-1.36.36-2.82.43-4.25.33-1.14.25-2.44,1.24-3.34a1.42,1.42,0,0,1,1.11,0,1.66,1.66,0,0,1,.83,1.47c.35-.27.09-.71.27-1Z"/><path class="cls-31" d="M19.05,127.17c-2.61-1-3.71-3.81-6.12-5,0-.28,0-.56,0-.84-.29-.28-.54-.58-.83-.85h0c-1.38-4.08-3.6-7.81-5.09-11.85a2.07,2.07,0,0,0-1.8-.88,1.54,1.54,0,0,1-1.59-1.58,4.76,4.76,0,0,1,5.06,1c2.79,2.21,5.16,4.64,6.31,8.2C16.23,119.31,18.52,122.93,19.05,127.17Z"/><path class="cls-32" d="M22.22,130.61l.84-.78a3.16,3.16,0,0,1,2.68,2.42c-1.22.55-2,1.29-.65,2.45,3.63,3.07,8,4.5,12.55,5.44.88.19,1.88.11,2.84.35,3.28.82,6.35,1.3,9.48-1.17a12.9,12.9,0,0,1,8.68-2.78c.28,1.27-.65,1.84-1.53,2.17-2.92,1.09-5.39,2.93-8,4.58-4.39,2.8-8.71.39-13-.47-2.14-.44-4.07-1.76-6.44-1.51a3,3,0,0,1-2.6-1.17c-1.61-2.1-3.33-4.1-5.09-6.08A2.47,2.47,0,0,1,22.22,130.61Z"/><path class="cls-33" d="M235.69,238.13c4.47,0,8.94.05,13.41.13,5,.09,10,0,14.93-1.47.82-.25,1.66-.37,2.19.58h0a2.36,2.36,0,0,1-.72.33c-.47,0-.71.31-.93.65a1.1,1.1,0,0,1-.8.92c-.52-.92-1.33-1.2-2-.38-1.86,2.26-4.8,2.06-7.15,3.18-1.32.63-3.21-1.23-4.81.24-.1.08-.68-.11-.71-.26-1-3.66-3.36-1.75-5.34-1.4C240.61,241.2,238.08,239.89,235.69,238.13Z"/><path class="cls-34" d="M71.43,288.18c-.05-.73-.19-1.47.61-1.92a8.13,8.13,0,0,0,1.06-4.87c.62-3.64,3-6.9,2.36-10.83a3.5,3.5,0,0,1,.63-2,54.09,54.09,0,0,0,4.52-10.14A2.82,2.82,0,0,1,82,260.37c-.07,3.52-2.24,6.3-3.33,9.47-.62,1.82-1.25,3.48.65,4.91a39.63,39.63,0,0,1-7.61,17.84C69.57,291.26,72,289.61,71.43,288.18Z"/><path class="cls-35" d="M165.37,120.45l-.89-.06c-.51-4.37,1.14-8.29,2.62-12.23a55.82,55.82,0,0,1,5.06-10.54c.86,1.9,1.5,3.83-.11,5.64s-2.28,4.42-3.09,6.76c-1,2.88-1.84,5.82-2.74,8.73C166.64,119.67,166.13,120.12,165.37,120.45Z"/><path class="cls-36" d="M264.55,228.87c.3.22,1.46.2.65.77a38.49,38.49,0,0,1-5,2.59.5.5,0,0,0-.83.07l-.88.77c-2.61-.21-5.4.44-7.59-1.67-.85-1-2-1.73-1.7-3.28Z"/><path class="cls-37" d="M91.74,257.76c.07.9-.37,2,.83,2.51l-1.71,1.6a3.24,3.24,0,0,0-1.77,1.68c-1.33,1.44-2,3.54-4,4.31a3.41,3.41,0,0,1-1.22.25l-.59-.25a2.55,2.55,0,0,1,0-3.13,76.44,76.44,0,0,0,4.48-10.35c.32-.86.8-2,2-1.74s1.08,1.44.78,2.44c-.27.49,0-.16-.15.37s-.88.61-.46,1.23c-.31-.56.31-.75.45-1.14.4-.33.83-.79,1.33-.29C92.4,256,92.14,256.9,91.74,257.76Z"/><path class="cls-2" d="M212.12,76.21c-5.65.37-11.38-.06-16.89,1.69-1.46.46-1.84-1-2.72-1.5,4.88-1.34,9.74-2.8,14.89-2.49A7.08,7.08,0,0,1,212.12,76.21Z"/><path class="cls-38" d="M119.64,28.14a52.6,52.6,0,0,1,1.46-11.52A79.56,79.56,0,0,0,123,3.49l0,0c.9-.69.25-1.85.79-2.65h0a.62.62,0,0,1,1,.12,8.31,8.31,0,0,1-.06,4.26c-.6.85-.18,1.93-.64,2.82a3.74,3.74,0,0,1-.28,2.28c-.5.83-.07,1.88-.61,2.7a3.68,3.68,0,0,1-.24,2.38,13.07,13.07,0,0,0-.56,2,5.61,5.61,0,0,1-.28,3.11c-.6,1.13,0,2.46-.6,3.58.1,2,.2,4-.87,5.82A1.82,1.82,0,0,1,119.64,28.14Z"/><path class="cls-39" d="M111.82,203.39l-.68-.78a1.22,1.22,0,0,1,0-1.7l1.72-3.38a9.38,9.38,0,0,0,.79-.87c1.87-3.69,3.73-7.38,5.62-11.07.26-.5.42-1.52,1.36-.59-.32,2.87-2.1,5.12-3.3,7.61C115.59,196.25,113.67,199.8,111.82,203.39Z"/><path class="cls-40" d="M118.75,166.43c0,1.36-1.22,2-1.67,3.13a1.79,1.79,0,0,1-.82-1.4q-.11-8.15-.19-16.3l.13.12a.9.9,0,0,1,.6.65,4.9,4.9,0,0,1,1.14,4.22C117.65,160.12,119,163.2,118.75,166.43Z"/><path class="cls-41" d="M117,30.59c.3,2.69-.71,5.13-1.6,7.56-.76,2.06-1.71,4-2.57,6.06-1,1,0,2.41-.85,3.4h0c-.82.67-.12,1.85-.86,2.54h0a1,1,0,0,1-1.6,0A78.24,78.24,0,0,1,117,30.59Z"/><path class="cls-42" d="M81.47,260.17c-.69-.37-.74-1.06-.86-1.71a51.16,51.16,0,0,1,5.88-12.71.63.63,0,0,1,1,.05c-.59,2.9-2.6,5.36-2.59,8.44a.92.92,0,0,1,.35.95,16.6,16.6,0,0,1-2,3.17c-.3.41-.62.81-1,1.21A2.25,2.25,0,0,1,81.47,260.17Z"/><path class="cls-41" d="M134.22,149.06c-1.63.7-.54,2.74-1.8,3.62-1.9,0-2.07,2.56-4.49,2.83,2.16-4.28,4.12-8.21,6.13-12.12.25-.5.67-.23.95.12C135.17,145.42,133.65,147.09,134.22,149.06Z"/><path class="cls-43" d="M282.27,86.79c-1.75,4.54-2.38,5.06-5.94,4.86-.67-1.06-1.82-.77-2.78-1C276.33,89.11,279.6,88.61,282.27,86.79Z"/><path class="cls-44" d="M71.43,288.18c1.37,1.42-.63,2.82,0,4.24.76,3.37-.31,5.93-3.4,7.58l-.84,0C68,295.85,69.76,292,71.43,288.18Z"/><path class="cls-41" d="M110.32,53.53c-1.37,1.85-.92,4.21-1.72,6.19-.66,1.64-1-.29-1.58-.24.12-3,1.54-5.73,2.4-8.57,1.11.6,1.66,1.39.9,2.62Z"/><path class="cls-45" d="M152,43.42l-1.9,1.63c.1-3.27,2.61-5.23,4.2-7.68a1.13,1.13,0,0,1,.05,1.7A8.69,8.69,0,0,1,152,43.42Z"/><path class="cls-46" d="M193.32,200.07l.93-1.86,1.68,4.3c-.62,1.06-1.65.92-2.63.9a.63.63,0,0,1-.23-.79,1.13,1.13,0,0,1,.8-.4c-.06-.23-.27-.06-.4-.14a1.3,1.3,0,0,1-.61-.71A1.2,1.2,0,0,1,193.32,200.07Z"/><path class="cls-47" d="M155.29,36.66c-.16-.71-.22-1.48-1-1.87.84-.93,1.48-3.11,2.83-2.08s-.66,2.29-1.21,3.44C155.82,36.37,155.51,36.49,155.29,36.66Z"/><path class="cls-48" d="M176.48,231.3c2.37-1.53,5-.46,7.45-.64.33.12.45.26.35.42s-.2.25-.3.25C181.48,231.86,179,231.46,176.48,231.3Z"/><path class="cls-36" d="M240.76,227.09c-.1.66-.55,1.78-1,1.31-1.21-1.33-2.87-.44-4.1-1.23-.27-.18-.37-.37-.27-.55s.18-.27.28-.27A9.33,9.33,0,0,1,240.76,227.09Z"/><path class="cls-41" d="M105.16,72.81l0,9A12.71,12.71,0,0,1,105.16,72.81Z"/><path class="cls-49" d="M73.1,281.39c1.69,1.84-.36,3.42-.36,5.15a1,1,0,0,1-.39,0,1.48,1.48,0,0,1-.31-.26A8.8,8.8,0,0,1,73.1,281.39Z"/><path class="cls-50" d="M108.42,209.31c-.33-2.55,0-3.29,2.08-4A8.37,8.37,0,0,1,108.42,209.31Z"/><path class="cls-1" d="M110.32,53.53a6.16,6.16,0,0,0-.9-2.62.73.73,0,0,1,.15-.77h1.6C111.05,51.31,111.55,52.64,110.32,53.53Z"/><path class="cls-51" d="M184,231.33a3.78,3.78,0,0,0,0-.67h3.49c-.21,1.09-1.43.68-1.74,1.45C185,232.16,184.5,231.68,184,231.33Z"/><path class="cls-52" d="M96.17,223c1.21,1.93,0,3.06-1.36,4.12A10.09,10.09,0,0,1,96.17,223Z"/><path class="cls-50" d="M97.63,234.83a2.52,2.52,0,0,1,1.72-2.6c0,.91.21,1.86-.6,2.58Z"/><path class="cls-53" d="M97.64,240.69c0-.95-.28-1.95.66-2.65l1,1a1.86,1.86,0,0,1-.88,1.84C98.08,241.13,97.83,241.05,97.64,240.69Z"/><path class="cls-12" d="M118.65,44.18c-1-.87-.77-2-.62-3.11.08-.6.53-.4.86-.07A7,7,0,0,1,118.65,44.18Z"/><path class="cls-12" d="M119.64,28.14c.7.39.72,1.13.9,1.79a4.17,4.17,0,0,1-.22,2.39,1.84,1.84,0,0,1-.69-1.66,2,2,0,0,1,0-2.54Z"/><path class="cls-54" d="M128,149.74c.06,1.35-.3,2.44-1.76,2.85C126.22,151.25,127.11,150.48,128,149.74Z"/><path class="cls-5" d="M46.72,392.22c0,1.22.46,2.52-.71,3.49C46,394.49,45.79,393.24,46.72,392.22Z"/><path class="cls-5" d="M45.88,397.32c0,1.21.45,2.51-.71,3.48C45.11,399.58,45,398.34,45.88,397.32Z"/><path class="cls-22" d="M121.41,24.11c0-1.22-.47-2.53.6-3.58C122.1,21.77,122.38,23.05,121.41,24.11Z"/><path class="cls-41" d="M106.86,61c0,1.21.46,2.53-.68,3.53C106.27,63.31,105.77,62,106.86,61Z"/><path class="cls-41" d="M106.05,66.17c-.08,1.18.42,2.48-.74,3.43C105.3,68.4,105.13,67.16,106.05,66.17Z"/><path class="cls-22" d="M123.09,13.07c0-1-.27-2,.61-2.7A2.88,2.88,0,0,1,123.09,13.07Z"/><path class="cls-22" d="M123.74.88c.11,1,.32,2-.79,2.65A2.84,2.84,0,0,1,123.74.88Z"/><path class="cls-41" d="M117.89,28c.07,1,.23,2-.88,2.61C117.06,29.68,117,28.68,117.89,28Z"/><path class="cls-47" d="M154.36,39.07c0-.56,0-1.13,0-1.7l1-.71A3,3,0,0,1,154.36,39.07Z"/><path class="cls-22" d="M124,8.09c-.07-1-.34-2,.64-2.82C124.59,6.25,125,7.32,124,8.09Z"/><path class="cls-50" d="M101.7,208.39c.16,1,.32,2-.6,2.68A2.69,2.69,0,0,1,101.7,208.39Z"/><path class="cls-50" d="M101.94,223.89c-.06-1-.3-2,.89-2.62C102.74,222.21,103,223.27,101.94,223.89Z"/><path class="cls-52" d="M87.46,245.8l-1-.05a2.7,2.7,0,0,1,.87-1.76c.5.1.56.63.88.9Z"/><path class="cls-29" d="M62,374.56c0-.92-.17-1.89.76-2.53A2.68,2.68,0,0,1,62,374.56Z"/><path class="cls-5" d="M47.56,388c.11,1,.28,2-.64,2.67A3,3,0,0,1,47.56,388Z"/><path class="cls-5" d="M45,402.33c.09,1,.34,2-.6,2.69C44.38,404.08,44,403.05,45,402.33Z"/><path class="cls-5" d="M44.2,406.65c.09.94.25,1.91-.64,2.61A2.85,2.85,0,0,1,44.2,406.65Z"/><path class="cls-5" d="M43.35,410.89c.09.94.26,1.9-.64,2.6A2.8,2.8,0,0,1,43.35,410.89Z"/><path class="cls-17" d="M136.65,138.41a1.73,1.73,0,0,1,.67-1.86A2.07,2.07,0,0,1,136.65,138.41Z"/><path class="cls-12" d="M119.48,38.25c-.75-.61-.69-1.16.11-1.65A1.88,1.88,0,0,1,119.48,38.25Z"/><path class="cls-50" d="M100.85,211.75a1.61,1.61,0,0,1-.66,1.86A1.61,1.61,0,0,1,100.85,211.75Z"/><path class="cls-50" d="M102.78,221.36c-.06-.79.06-1.49.94-1.78C103.63,220.29,103.59,221,102.78,221.36Z"/><path class="cls-19" d="M235.68,226.35c0,.27,0,.55,0,.82a1.81,1.81,0,0,1-1.74-.93A1.87,1.87,0,0,1,235.68,226.35Z"/><path class="cls-36" d="M245.2,227.93a1.73,1.73,0,0,1-1.88-.67A2.3,2.3,0,0,1,245.2,227.93Z"/><path class="cls-52" d="M94.29,228c.88.73.71,1.26-.31,1.63C94.08,229.11,94.19,228.56,94.29,228Z"/><path class="cls-50" d="M93.21,231.33c.05.59.11,1.18.16,1.77a.5.5,0,0,1-.77,0A1.88,1.88,0,0,1,93.21,231.33Z"/><path class="cls-50" d="M92.34,233.83c.15.76.06,1.4-.76,1.72C91.64,234.89,91.63,234.21,92.34,233.83Z"/><path class="cls-52" d="M88.36,241.57c.86.63.72,1.21-.1,1.74l-.34-.25c.07-.27.13-.54.19-.82A.77.77,0,0,1,88.36,241.57Z"/><path class="cls-42" d="M88.24,244.89l-.88-.9a.71.71,0,0,1,.2-.7.42.42,0,0,1,.73,0l0,0C88.25,243.84,88.25,244.36,88.24,244.89Z"/><path class="cls-22" d="M124.68,1l-1-.12c.15-.31.32-.89.46-.89C124.81,0,124.78.53,124.68,1Z"/><path class="cls-28" d="M63.89,322.92c.74.61.68,1.16-.14,1.65A1.88,1.88,0,0,1,63.89,322.92Z"/><path class="cls-55" d="M126.34,152.52c-.18.41.6,1.73-.87.92A1,1,0,0,1,126.34,152.52Z"/><path class="cls-22" d="M122.29,17.42a1.91,1.91,0,0,1,.56-2C123,16.19,123,16.92,122.29,17.42Z"/><path class="cls-47" d="M154.28,34.82a1.06,1.06,0,0,1-.86.86A.92.92,0,0,1,154.28,34.82Z"/><path class="cls-41" d="M105.29,70.48a4.09,4.09,0,0,1,.3.59s-.19.16-.29.24A1.13,1.13,0,0,1,105.29,70.48Z"/><path class="cls-6" d="M116.8,152.63l-.6-.65C116.62,152,116.85,152.18,116.8,152.63Z"/><path class="cls-50" d="M102.49,204.07a.87.87,0,0,1-.43,1.05Z"/><path class="cls-50" d="M110.38,205.27l.83-1A1,1,0,0,1,110.38,205.27Z"/><path class="cls-50" d="M102,206.84a3.83,3.83,0,0,1,.22.62c0,.06-.2.15-.3.22C101.93,207.4,102,207.12,102,206.84Z"/><path class="cls-19" d="M218.67,207.11c-.33.34-.57.22-.77-.15A.73.73,0,0,1,218.67,207.11Z"/><path class="cls-50" d="M100,214.27a1,1,0,0,1-.59,1A1,1,0,0,1,100,214.27Z"/><path class="cls-50" d="M99.15,216l.15,1a.47.47,0,0,1-.76,0A.94.94,0,0,1,99.15,216Z"/><path class="cls-52" d="M98.54,217h.76l-.88.83Z"/><path class="cls-50" d="M98.33,217.77a.75.75,0,0,1-.47.92A.84.84,0,0,1,98.33,217.77Z"/><path class="cls-50" d="M104.21,218.65c-.28-.19-.33-.41-.1-.62a1,1,0,0,1,.37-.15A1.09,1.09,0,0,1,104.21,218.65Z"/><path class="cls-50" d="M97.42,220.17l.18,1a.46.46,0,0,1-.78,0A1,1,0,0,1,97.42,220.17Z"/><path class="cls-52" d="M96.82,221.22q.39,0,.78,0l-.92.88C96.73,221.79,96.77,221.5,96.82,221.22Z"/><path class="cls-50" d="M101.79,224.61c-.63-.46-.37-.65.23-.74A.9.9,0,0,1,101.79,224.61Z"/><path class="cls-56" d="M229,224.65a5.89,5.89,0,0,0,.84,0c.06.28.11.56.17.84l-.12-.19-.21,0c-.22.15-.44.25-.59.16C228.68,225.27,228.82,225,229,224.65Z"/><path class="cls-36" d="M247.75,227.93h-1.26A.78.78,0,0,1,247.75,227.93Z"/><path class="cls-52" d="M93.48,230.57c.31.17.39.39.19.63a1.16,1.16,0,0,1-.37.18Z"/><path class="cls-13" d="M194.83,232.37l1,.48Z"/><path class="cls-52" d="M92.6,233.11c.26,0,.52,0,.77,0l-.94.81A1.18,1.18,0,0,1,92.6,233.11Z"/><path class="cls-50" d="M91.57,235.57c0,.29.07.58.1.87a.46.46,0,0,1-.77,0A.77.77,0,0,1,91.57,235.57Z"/><path class="cls-52" d="M90.9,236.48l.77,0-.89.88Z"/><path class="cls-50" d="M90.69,237.25a.74.74,0,0,1-.46.92A.83.83,0,0,1,90.69,237.25Z"/><path class="cls-8" d="M264.55,238.36c.25-.34.51-.68.76-1q.3.28.18.54c-.07.16-.15.25-.22.25A1.54,1.54,0,0,1,264.55,238.36Z"/><path class="cls-25" d="M265.27,238.12a4.14,4.14,0,0,0,0-.79l.89,0A.82.82,0,0,1,265.27,238.12Z"/><path class="cls-50" d="M89.92,239a.85.85,0,0,1-.56.89A.85.85,0,0,1,89.92,239Z"/><path class="cls-50" d="M88.29,243.28h-.73l.55-1Z"/><path class="cls-57" d="M97.66,153.46a4.65,4.65,0,0,1,3.32,1.6c2.08.54,3.26,2.4,5,3.43-.13.89-1,1.77-.15,2.68,1.93,2.14,2,5,2.84,7.53.44.49.27,1.27.8,1.72h0c.57,1.09.84,2.34-.58,2.78s-2.49-.72-2.83-1.95c-1.14-4.07-4.12-6.22-7.66-7.91A6.24,6.24,0,0,0,96,162.5c-9.65-.22-19.4-1.72-28.68,2.59-6.48,3-13.16,5.06-20.42,2.83-1.08-.33-2.37-.36-3-1.31-2.17-3.2-4.79-6.09-6.64-9.52a2.07,2.07,0,0,1,1-.93,6.43,6.43,0,0,1,4.8.21c3.79,7.16,9.72,8.09,16.73,5.63,7.88-2.76,15.86-5.11,24.22-5.94,1.67-.33,3.53.69,5-.77,1.78-1.12,3.45.87,5,.27-1.94-.58-4.67.05-5.72-2.89,1.45-.9,2.59.18,3.81.62,1.8.64,3.57,1.36,5.38,2.06.41-1.2-.62-1.23-.86-1.76C96.92,153.1,97.27,153.07,97.66,153.46Z"/><path class="cls-38" d="M37.49,156.88c2.46,2.62,5.18,5,6.55,8.53A3.12,3.12,0,0,0,46.42,167a26.89,26.89,0,0,0,17.25-1.57c3.44-1.55,6.9-3.16,10.71-3.76A38.07,38.07,0,0,1,84.72,161c3.21.35,6.48.06,9.72.12a13.5,13.5,0,0,1,12.17,8.73c.14.39.23.81.37,1.21.28.81.65,1.76,1.68,1.51s.69-1.36.81-2.14c1.62,4.8,1,9.6,0,14.39-2.52,1-2.62-1.1-2.57-2.42.17-4.12-2.12-7.53-3.24-11.22-1.24-4.12-5.92-4.5-9.5-5.13a62.89,62.89,0,0,0-22-.14c-1.89.33-3.32,1.45-5,2h0c-2-.49-3.22,1.53-5.06,1.72-1.1.11-2.3,1-3.23.68-3.75-1.08-7.68.32-11.44-1.14-1.69-.65-3.89.12-5.18-1.83-.23-.34-.86-.5-.92-.82-.95-4.46-4.78-6.15-8-8.43a2.68,2.68,0,0,1-1.1-1.22c-.21-.78.54-.74,1.05-.83a1.81,1.81,0,0,1,1.65-.52A4,4,0,0,1,37.49,156.88Z"/><path class="cls-50" d="M126.41,164.49c.17,1.65-.65,3-1.34,4.37A146.92,146.92,0,0,0,118,184.14c-.19.52-.45,1-.65,1.53-.49,1.25-2.37-.24-2.65,1.32-.18.95.71,1.76.33,2.85a15.83,15.83,0,0,1-3.08,5.86,8.2,8.2,0,0,0-2.53,4.67,7.39,7.39,0,0,1-.86,2.35c-2.59,4.65-4,9.84-6.44,14.54a52.34,52.34,0,0,0-4.17,11.87,17.28,17.28,0,0,1-1.56,4.78,1.74,1.74,0,0,0,.39,2.59c-1.12,3.8-3.43,7.18-3.93,11.24,1.45-.06,1.85-1.64,3.06-2,2.52.28,2.18,1.89,1.46,3.44a18.27,18.27,0,0,0-1.48,3.32,3.49,3.49,0,0,1-1.48,1.93l-.61.1a1.36,1.36,0,0,1-.9-.72,2,2,0,0,1,0-1.23c-.43-.08-.27.34-.35.5a2,2,0,0,1-1.35,1.19c-1.92-1.89-.51-3.75-.15-4.73-.09,1.13-1.64,2.34-2.91,3.74a1.76,1.76,0,0,1-1.1.37l-.5-.32c.47-3.67,2.24-7,3.66-10.24,3-6.85,6.28-13.53,8.07-20.82a37.37,37.37,0,0,1,2.14-5c1.62-4,4-7.79,4-12.34a7.26,7.26,0,0,1,1.42-3.5c2.88-5,4.34-10.67,7.75-15.38.21-.29.06-.83.08-1.25a3,3,0,0,1,.87-3.36,1.87,1.87,0,0,0,.85-1.7c1.28.84.55,2.36,1.33,4.25A100.23,100.23,0,0,1,126.41,164.49Z"/><path class="cls-58" d="M77.28,147.55c-.94-1.89-1.92-3.75-2.79-5.66-.71-1.57-1.24-3.21.47-4.53,1.19-.92,5-.72,5.69.6,1,2,3.24,2.64,4.25,4.51-1.58,2.56-3,.84-4.51-.14-.75-.49-1.51-1.74-2.47-.59-.75.92,0,1.92.71,2.6,2.4,2.31,5,4.13,8.65,3.28,1.23-.29,2.49-.45,3.73-.74,6.19-1.42,11.49-.42,15,5.46a6.91,6.91,0,0,0,2.23,1.39,2.92,2.92,0,0,1,.8.68,18.25,18.25,0,0,0,1.44,2.18,2.76,2.76,0,0,1,.36,1,4.56,4.56,0,0,1-1.4,3.5c-2.5-5.85-2.32-6.25-9.87-9.6-4.23-1.87-9.18-2.66-13.78-.18-1.37.75-3.16-.13-4.32,1.23-1,1.08-2.3.84-3.53.65-5.65-.85-11.27-1.82-16.85-3.06-1.44-.32-3.1-.58-3.47-2.5,2.35-2,5.1-.62,7.59-.64a79.85,79.85,0,0,1,10.35.54h1.7c1.56,1.77,4.1,1.73,5.85,3.16C81.42,149.21,78.87,149.27,77.28,147.55Z"/><path class="cls-59" d="M109.46,161.11c-.25-1.52.77-2.79.85-4.24,2.34-3,2.07-5.8-.9-8.26-.33-.18-.65-.38-1-.59a7.62,7.62,0,0,1-.89-.7c-.15-.12-.28-.26-.43-.38s-.56-.51-.84-.78l-.41-.39a74.93,74.93,0,0,0-16.35-10.9,6.8,6.8,0,0,1-1-.63c-1.58-1.26-3-2.84-5.36-2.34-.34.14-.69.27-1,.42a15.12,15.12,0,0,0-3.18,2.5c-1.81-.74-1.41-1.89-.45-3,1.93-2.15,6.4-3,9-1.45,7.57,4.55,15.37,8.76,22.19,14.47,3.77,3.15,4.77,7.47,4.83,12.06.1,8.17,0,16.35,0,24.52a6.1,6.1,0,0,1-.87,3.36c-.64-.33-1.34-.72-1.18-1.54,1-5.55-.29-10.77-1.94-16C110,165.31,109.17,163.27,109.46,161.11Z"/><path class="cls-7" d="M67.11,167.88c1.18-2.12,2.72-3.57,5.4-2.84a2,2,0,0,0,1.91-.61A3.3,3.3,0,0,1,78,164c2.61,1,5.22.23,7.81-.12.48-.07.94-.8,1.49-.53,3.62,1.78,7.56,1.76,11.41,2.36,1.64.25,3,2,4.61,2.85,2.15,1.06,1.91,2.88,1.93,4.7,0,.42-.09,1,.13,1.25a13.65,13.65,0,0,1,2.54,9.13c0,.79.82,1,1.54,1.16-.57,1.14-1.14,2.27-2,4a26.42,26.42,0,0,1-2.2-8.55A14.45,14.45,0,0,0,92.74,167a83.27,83.27,0,0,0-12.6-.77A24.35,24.35,0,0,0,70.29,168,3.26,3.26,0,0,1,67.11,167.88Z"/><path class="cls-60" d="M84,156.06c-.15,1.52-1.24,1.53-2.42,1.68-3.3.41-6.59.94-9.89,1.44a11.87,11.87,0,0,0-3.88,1.38,38.37,38.37,0,0,1-13.62,3.78,10.66,10.66,0,0,1-11.13-5.82c-.3-.54.1-1.06.32-1.56,1.54-1.57,3.36-1.29,5.21-.78,1.37,4.42,3.22,5.28,8.44,4,2.42-.6,4.68-1.9,6.89-1.81-1.17-.3-1.35-.52-1.43-2.07,4.78-.84,9.65-.87,14.42-1.74a2.4,2.4,0,0,1,2,.54A17.92,17.92,0,0,1,84,156.06Z"/><path class="cls-61" d="M79,155.09l-1.67.11c-2.2.26-4.32-.34-6.48-.56a99.39,99.39,0,0,1-11-2.22c-1.49-.39-3-.79-3.77-2.28a5.31,5.31,0,0,0-2.53-.89c-.91.39-1.55-.12-2.18-.67-.47-.72-1-1.44-.14-2.25a4,4,0,0,1,2.49-.54c1.5.25,3,.48,4,1.84,3.61,2.13,7.81,2.06,11.73,3s8,1.31,12,1.92c.53.13,1.22.21,1.3.83s-.57.85-1.13.92C80.72,154.42,79.68,154.22,79,155.09Z"/><path class="cls-62" d="M88.29,152.67c1.74,1.39,4,1.58,6,2.9-1.89,1.1-3.56.16-5.25-.28l-3.23-1c-.66-1,.34-1.16.82-1.59Z"/><path class="cls-63" d="M106,158.49c-2.2-.37-3.42-2.16-5-3.43C103.44,155.05,104.93,156.45,106,158.49Z"/><path class="cls-64" d="M97.66,153.46l-1,.12a1.65,1.65,0,0,1-1.6-1,.69.69,0,0,1,1-.1A1.73,1.73,0,0,1,97.66,153.46Z"/><path class="cls-57" d="M86.65,152.69c-.28.53-.55,1.06-.82,1.59-.4-.11-.75-.36-.69-.77C85.26,152.62,86,152.71,86.65,152.69Z"/><path class="cls-38" d="M109.47,170.42a1.66,1.66,0,0,1-.8-1.72A1.8,1.8,0,0,1,109.47,170.42Z"/><path class="cls-57" d="M96,152.53l-1,.1a4.75,4.75,0,0,1-.23-.56C95.36,151.78,95.69,152.15,96,152.53Z"/><path class="cls-50" d="M85.71,254.24l.83-.86.06.05c.11.15.23.29.34.43l-.23.5-.52.16Z"/><path class="cls-50" d="M84.74,255.08c.05-.28.09-.56.13-.84h.84l0,0C85.88,255.13,85.53,255.38,84.74,255.08Z"/><path class="cls-65" d="M200.92,101.79c-1.81-.14-3.22.86-4.74,1.58-2.63,1.25-5.15,2.76-8.16,3.35a3.22,3.22,0,0,1,1.91-3.22c.27-.29.59-.54.84-.85h0c7.14-4.18,12.75-10.26,19.14-15.38,5.89-4.71,12-7.75,20-6.56a15.11,15.11,0,0,0,7.85-1.27,8.92,8.92,0,0,1,7.25-.5c1.25,1.9,2.95,3.83-.46,5.32-1.16-.32-2-1.58-3.45-1.07-5.81,2-11.86,3-17.83,4.28A8.28,8.28,0,0,0,220,89.33c-4.49,2.28-8.12,5.72-12,8.84a6.48,6.48,0,0,1-.89.67c-.62.38-1.25.73-1.84,1.14a14.49,14.49,0,0,1-2.8,1.56,3.71,3.71,0,0,1-1,.27Z"/><path class="cls-66" d="M168.76,115.37a10.6,10.6,0,0,1,2.31-6.65c3-4.15,4.39-8.93,6-13.58a9.52,9.52,0,0,1,3.56-5c4.7-3,8.29-7.39,13.4-9.81a14.62,14.62,0,0,1,7.56-1.67c2.3.16,4.68-.54,7-1.05a16.29,16.29,0,0,1,3.33-.34c1,1.89,1.64,3.74-.85,5.06-1.83-3.08-4.07-1.28-5.67-.08-3.56,2.67-8.7,3.38-10.55,8.26-.18.47-.93.57-1.52.49-1-.53-.8-1.73-1.46-2.46.12-.53-.74.22-.22,0,0,1.91-.42,3.48-2.59,3.92-2.62-1.72-7.14,0-9,3.61-.68,1.33-1.42,2.8-.94,4.43s.44,2.92-1.52,3.72c-2.64,1.08-.56,3.53-1.25,5.22C174.27,112,171.13,113.17,168.76,115.37Z"/><path class="cls-67" d="M237.37,95.88a145.71,145.71,0,0,0,21.2,2.84,16.06,16.06,0,0,0,5.59-1.22,14.22,14.22,0,0,1,5.39-.77c1.93-.57,3.76-1.72,5.9-1,.29,2.3-1.73,2.57-3.05,3.35-7.24,4.27-15.16,4.49-23.21,3.74-1.4-.13-2.78-.31-4.18-.41a4.78,4.78,0,0,1-1.24-.3l-.57-.25a6.46,6.46,0,0,0-1.72-.58,28.83,28.83,0,0,0-8.45-.08,18,18,0,0,0-5,.54,12.89,12.89,0,0,1-2.63.34,16.21,16.21,0,0,0-5.36.62c-3.24-.23-6.49,2.35-9.73,0l-1.63-.17a42,42,0,0,1,12.64-4.13C226.67,97.65,232,96.73,237.37,95.88Z"/><path class="cls-10" d="M219.52,89.18c1.08-3.21,4.1-2.88,6.52-3.38,1.61-.33,3.31-.07,4.7-1.29a2.22,2.22,0,0,1,1.57-.43c3.2.38,5.94-.86,8.71-2.19,1.9-.92,2.41-.48,3.12,2.13-1.55,4.88-5.94,6.06-10,7.55-1.65.61-3.55.2-5.22.92-4.85,1-9.41,3.13-14.43,3.4C214.6,92.48,218.35,91.81,219.52,89.18Z"/><path class="cls-68" d="M245,78.94c-2.72-.15-5.37-.06-7.55,1.93a2,2,0,0,1-2,.55c-2.69-1.3-5.23.6-7.95.15-5.14-.86-9.84,1.09-13.87,4a82.71,82.71,0,0,0-12.23,10.58c-1.38,1.47-3,1.93-4.32,3s-2.43,2.71-4.24,3.29a11.06,11.06,0,0,1-2.08.26c1.57-3.61,5.41-4.77,8-7.31.79-.79,1.94-1.23,2.63-2.08,3.36-4.09,8.17-6.38,12-9.86,2.68-2.41,6.29-3.55,9.75-4.52a33.84,33.84,0,0,1,7.76-.76c2.76-.11,5.51-.69,8.32-.06,2,.44,3.88-.35,5.78-.87h0Z"/><path class="cls-69" d="M210.3,102.7c3.42.29,6.67-1.31,10.11-.91,1.47-.63,2.9-.62,5.18.55a42.17,42.17,0,0,1-10.91,3c-11.05,1.59-21.82,4-31.62,9.69a12.31,12.31,0,0,1-1,.67c-.69.39-1.39.74-2.05,1.18-1.25.84-2.63,1.47-3.89,2.3a4.59,4.59,0,0,1-2.09.86,1.5,1.5,0,0,1-1-.49,1.69,1.69,0,0,0-1.64-.87,4.13,4.13,0,0,1-.88-.89c0-.25.05-.5.07-.76,10.54-5.78,21-11.58,33.32-12.94C206,103.9,208.39,104.17,210.3,102.7Z"/><path class="cls-70" d="M176.4,109.44c-1.23-1.18-1.08-2.78-1.15-4.26a3.64,3.64,0,0,1,.68-1.93c.67-1,2.26,1,2.81-.76.42-1.29-1.81-1.76-1.11-2.89,1.41-2.3.55-6.09,4.55-6.82.87-.16,1.41-1.67,2.27-2.35,2.45-2,4-1.27,4.63,2.06,0,.14,0,.28,0,.42a6.86,6.86,0,0,1-.36,1.25l-.3.86c-.18.63-.22,1.29-.35,1.94-1.29,2.7-1.66,6-4.9,7.39l-4.22,3.4a.67.67,0,0,1-.92,0,1.58,1.58,0,0,1-.37-.52,1.48,1.48,0,0,0,.38.54.59.59,0,0,1,.2.57c0,.19-.1.28-.16.28Z"/><path class="cls-71" d="M193.27,90.77c1.8-.7,2-2.55,2.86-3.94.51-.82.78-2.29,1.65-2.29,4.35,0,6.77-4,10.67-4.89,3.39-.81,3.36-1,2.65,2.67h0c-.8.63-1.75,1-2.53,1.7-6.24,4-11.85,8.89-17.51,13.68-.53.45-.91,1.63-2,.72A8.85,8.85,0,0,1,193.27,90.77Z"/><path class="cls-68" d="M228.9,92.49c2.14-1.7,5-1.19,7.33-2.57a32.27,32.27,0,0,0,7.91-5.9c2.83-1.27,1-3.32.85-5.08,2.89,1.92,3.31,3.82,1.58,6.45s-4.26,4.34-6.5,6.4c-.9.84-2.08.69-3.19.7Z"/><path class="cls-72" d="M193.27,90.77q-2.1,3.83-4.19,7.65c-1.1,2.13-1.68,4.58-3.87,6-.79.52-1.41.85-2.05-.11a27,27,0,0,0,4.24-8.46c.52-.45.35-1.24.84-1.7s.37-1.23.84-1.7h0c1.29-1.33,1.32-3.54,3.16-4.49C193.58,88.55,193.26,89.72,193.27,90.77Z"/><path class="cls-73" d="M219.52,89.18a3.66,3.66,0,0,1-2,3.87,7.5,7.5,0,0,0-3.05,2.83l0,0a.51.51,0,0,1-.77.08l-1.76.81c-1.64.74-2.83,2.9-5.12,1.66,2.91-3.75,7.06-6.05,10.67-9C218,89.06,218.85,89.25,219.52,89.18Z"/><path class="cls-74" d="M206.86,98.4a6.63,6.63,0,0,0,3.73-1.61c.47-.35.91-.66,1.39-.05,0,.26,0,.52-.06.79a6.28,6.28,0,0,1-.85.86c-2.1,1.34-4.18,2.7-6.31,4-1,.65-2.16,1.37-3.49,1-1.07-.26-.44-1.06-.35-1.66h0a5,5,0,0,1,1-.7l3.32-1.78c.41-.57,1.25-.33,1.65-.9Z"/><path class="cls-66" d="M208.57,84a2.56,2.56,0,0,1,2.53-1.7A2.53,2.53,0,0,1,208.57,84Z"/><path class="cls-10" d="M213.74,95.93l.77-.08C214.29,96.28,214.06,96.48,213.74,95.93Z"/><path class="cls-73" d="M211.07,98.39l.85-.86Z"/><path class="cls-68" d="M190.77,102.65l-.84.85Z"/><path class="cls-66" d="M178.07,107.74h.87l-.87.82Z"/><path class="cls-75" d="M131.4,156.81c.68.67.85,0,1.2-.42,5.88-6.81,11.68-13.7,17.72-20.37a53.66,53.66,0,0,1,10-8.8c.31-.25.56-.57.85-.84h0c.81-.63,1.75-1,2.54-1.7.46-.49,1.24-.33,1.69-.85h0c.29-.27.57-.56.85-.84h0a6,6,0,0,1,5.79-2.3c2.3.25,4.55-.86,6.88-1a5.93,5.93,0,0,1,1.33.11,76.21,76.21,0,0,0,22.12-1.56c4.69-1.12,9.46-.05,14.21.34,6.94.57,13.89,2.72,20.88.54a.89.89,0,0,0,0-.84,3.48,3.48,0,0,0-1.35-.6c-.34-.07-.68-.17-1-.27a13,13,0,0,0-2.71-.31c-1.67-.5-3.88-.08-4.35-2.58,3.22,0,6.33,1.1,9.6.89a3.35,3.35,0,0,1,3.51,2.54c.47,1.84-.46,3.22-2.08,4.14a13.37,13.37,0,0,1-8.3,2.51c-5.59.06-11.17.18-16.65-1.44-3.28-1-6.71-.33-10,.18-4.55.71-9.14,1-13.69,1.57a8.52,8.52,0,0,1-3.74-.48c-9.28-3-17.71-1.15-25.32,4.69-1.45,1.12-3.21,1.77-4.47,3.13h0A289.28,289.28,0,0,0,133,160.49c-1.57,2.08-1.73,2-3.59,1.51a2.53,2.53,0,0,1,.33-1.76c0-.27,0-.54.07-.82C130.86,158.87,130.42,157.41,131.4,156.81Z"/><path class="cls-76" d="M235.67,117.05h.85c.44.53,1.23.35,1.69.84h0c0,2.28-1.68,2.15-3.21,2.32-5.63.62-11.21-.29-16.72-1a58.43,58.43,0,0,0-18.94,0c-6.38,1.17-13,2-19.58,1.26h0a1.59,1.59,0,0,1,0-2.07c4.45-2.63,9.59-3,14.47-4,8.9-1.83,17.9-3.68,27.08-1.82,2,.42,4.24.37,5.9,1.93l.82.07a8.71,8.71,0,0,0,5.1,1.64C233.8,117,235,116.29,235.67,117.05Z"/><path class="cls-77" d="M156.9,132.3c.85-2.72,3.66-3.34,5.59-4.69,2.36-1.65,4.76-3.73,7.52-4.46,5.44-1.42,11-1.9,16.52.17,1.73.64,3.69,1.35,5.55.06.66-.45,1.31-.17,2,0a8,8,0,0,0,4.49-.06c3.89-1.57,8-.91,12-1.56,1.92-.32,4.07.65,6.11,1.07,7.5,1.55,15,2,22.33-.66-.74,1.58-2.22,2.11-3.73,2.46a36.44,36.44,0,0,1-12.85.74c-8-1-16-1.83-24.23-.14-4.74,1-9.85,1.49-14.91.08-3.6-1-7.48-.78-11.23-.52a12.5,12.5,0,0,0-5.41,2.11C163.49,128.77,160.56,131.22,156.9,132.3Z"/><path class="cls-78" d="M227.21,114.5c-3.11.21-6.09-.71-9.1-1.24a17.81,17.81,0,0,0-7.89,0c-3,.81-6.1.59-9.14,1-7.21,1.07-14.19,3-21.3,4.46a1.34,1.34,0,0,1-1.84-.08c0-.87.58-1.2,1.25-1.41,8.33-2.58,16.08-6.93,24.89-8.05,5.29.31,10.5,3.16,15.32.37a3.12,3.12,0,0,1-2.56-1.12c2.43-4.23,6.53-4,10.54-3.94,1.3.75.86,1.44-.11,2.07s-2.09.54-2.86,1.35c.06,1.07.94,1,1.65,1.26a20.63,20.63,0,0,1,2.24.44c1.13.65,3.09.17,3.15,2.28-.93,1.31,1.06.51.66,1.53C230.84,114.41,228.59,112.75,227.21,114.5Z"/><path class="cls-75" d="M231.45,112c-.75-1.34-2.66-.31-3.41-1.65a2.67,2.67,0,0,1,2.24-1c8.95.22,17.39-3.11,26.26-3.65a26.74,26.74,0,0,0,17.85-7.76c.56-.56,1.5-.91,1.09-2-2-.13-3.86,1.22-5.93.85,2.49-2.13,5.46-2.36,8.55-2.45-.35,5.24-4.57,10.24-9.33,11.8-5,1.64-9.95,3.48-15.29,3.78-6.27.34-12.39,1.93-18.67,2.13Z"/><path class="cls-77" d="M129.77,161.91c1.71.36,1.74-1.41,2.5-2.14a38.86,38.86,0,0,0,6.59-8.16c4.33-7.26,11.19-12.2,16.56-18.5a5.32,5.32,0,0,1,1.47-.81,3.48,3.48,0,0,1-1.27,2.55,190.15,190.15,0,0,0-20.47,24.84c-2.1,3-4.38,5.76-6.51,8.7-.87,1.21-1.27.46-1.42-.56,0-.27,0-.53.08-.8a4,4,0,0,0,.74-.95,3.64,3.64,0,0,1,.07-.74,4.8,4.8,0,0,0,.52-.83.87.87,0,0,0,.05-.87.92.92,0,0,1,.26-.85c0-.27,0-.54,0-.8C129.21,161.57,129.47,161.57,129.77,161.91Z"/><path class="cls-79" d="M84.86,273.74c1.9,2.08.2,4.24-.53,5.79a19.86,19.86,0,0,0-1.84,8c-.14,4.43-2.27,8.07-3.69,12-1.61,4.48-3.9,8.7-3.37,13.82.33,3.14-1.85,5.81-3.4,8.43-2.29,3.88-3.56,7.87-2.72,12.37a1.82,1.82,0,0,1-.29,1.59c-1.87,2.31-2.18,4.95-2.18,7.86,0,5.19-2.84,9.72-3.91,14.64-.83,3.8-3.25,6.91-3.63,10.88a12.58,12.58,0,0,1-4,8c-.08-2,.69-3.71,1.26-5.57,1.74-5.73,4.87-11,5.64-17a7.4,7.4,0,0,1,1.27-3.53,8.72,8.72,0,0,0,1.72-5.11c.3-8.29,3.16-16.07,4.75-24.08,1.46-7.37,2.79-14.83,5.06-22,.26-.8.73-1.57-.21-2.23a1.71,1.71,0,0,1-.15-1.62c3.22-6.6,5.48-13.58,8.21-20.37C83.16,274.62,83.54,273.57,84.86,273.74Z"/><path class="cls-80" d="M68,300a19.17,19.17,0,0,0,3.39-7.58c2.54-4,3.93-8.49,5.71-12.8.68-1.64,1.77-3.16,1.86-5a1.55,1.55,0,0,1-.44-1.17c.47-1.62,1.42-2.64,3.24-2.57,1.78,1,.84,2.33.52,3.64a101.06,101.06,0,0,1-8.37,22.61,1.35,1.35,0,0,0-.08,1.19c-1.11,2-2.34,3.73-5,3.41a1.82,1.82,0,0,1-.76-1A3,3,0,0,0,68,300Z"/><path class="cls-81" d="M73.84,298.29c-.73-2.12.12-3.88,1.06-5.75,2.46-4.84,4.59-9.8,5.2-15.31a12.91,12.91,0,0,1,1.6-3.85c.38-.8.75-1.54-.21-2.18-.41-2.08,1.17-2.66,2.56-3.38h0c.28-.29.6-.53.86-.83,1.9-.53,2.09-3.15,4.18-3.44,0,1.65-1.15,2.84-1.61,4.3a5.16,5.16,0,0,0-.06.79c-.28.28-.52.61-.8.89,0,.26-.05.52-.06.79-.27.3-.5.62-.79.9a6.85,6.85,0,0,0-.07.78,11.17,11.17,0,0,1-.78.92,5.55,5.55,0,0,0-.06.82c-1.9,3.26-2.93,6.88-4.15,10.41a95.76,95.76,0,0,1-6,13.33Z"/><path class="cls-44" d="M68.07,300.73c.25.32.51.64.76,1H68Z"/><path class="cls-9" d="M86.62,269.53l.8-.89Z"/><path class="cls-9" d="M85.77,271.22l.79-.9Z"/><path class="cls-9" d="M84.92,272.92l.78-.92Z"/><path class="cls-75" d="M108.62,147.54c2.39-.31,3.31,1.56,3.89,3.16a6.59,6.59,0,0,1-.24,5.68c-.24.41-1.29.34-2,.49-.83-.67-1-1.78-1.69-2.55s-1.86-.08-2.54-.84a7.65,7.65,0,0,1-2.85-3,7.19,7.19,0,0,0-6.91-3.12c-2.92.27-5.83.68-8.72,1.19-1.49.26-2.84,1.07-4.45.16-2.3-1.32-4.72-2.4-6.33-4.68-1-1.39-.74-2.47.25-3.76.84-1.08,1.5-1.09,2.38-.24s1.65,1.54,2.41,2.37c1,1.1,2,.61,3,.08h0a11.23,11.23,0,0,0,.86.83c.79-.36,2.26,1.47,2.46-.77,1.64,2.3,3.81,1.62,6.12,1.38a16.77,16.77,0,0,1,13.24,4.33C108.83,149.34,108.52,148.15,108.62,147.54Z"/><path class="cls-7" d="M51.09,146.75l.85,1.6c-6.25,1.59-11.81-.42-17.19-3.29-.64-.22-.28-1.14-.94-1.35a1.65,1.65,0,0,1-.81-.29,4.23,4.23,0,0,1-.52-.68c-.17-.22-.32-.45-.48-.67,0,0-.29-.28-.3-.26-.51-.11-.72.43-1.14.52a5.2,5.2,0,0,1-4.66-1.07l-.3-.48c-.87-2-1.38-4.16-3.58-5.38a3.46,3.46,0,0,1-1.44-3.29c.05-1,.73-1.4,1.64-1.5a5.18,5.18,0,0,0,1.86,4.86A19.79,19.79,0,0,1,27,138.52c1.11,1.46,2.25,2.5,4.22,1.65a2,2,0,0,1,2,.2c3,2.16,6.68,1.83,9.93,3a4.88,4.88,0,0,0,4.45-.35c3.37-2.76,7.42-4.24,11.06-6.47,2.69-.49,5.37-.95,8-1.56,3.17-.74,4,0,4.67,3.26-3.65,2.08-7.76,2.28-11.77,2.81-2.12.27-4.26.48-6.06,1.59-3.26,2-6.6,3.53-10.61,2.9-.49.31.21,1,0,.46-.1-.23,0-.38.21-.37C45.78,145.82,48.66,144.72,51.09,146.75Z"/><path class="cls-82" d="M108.62,147.54c.16.82,1.21,1.21,1,2.4-1.47-.47-3-.61-4.17-1.74-3.83-3.68-8.51-3.75-13.29-2.93-2.75.47-2.71.61-3.35-2.21,0-.21-.4-.36-.61-.53l-.85-.74c.43-1,1.64-.82,2.66-1.7-2-1.75-4-3.18-6.79-2.73-1.14-.84-2.27-1.69-3.4-2.54-.37-2,1.55-2.34,2.52-3.36,3-1.27,4.56,1.57,6.78,2.54,6.32,3.35,11.88,7.86,17.78,11.86h0c.28.28.56.57.85.84a9.62,9.62,0,0,0,.85.84Z"/><path class="cls-83" d="M57.73,147.63c-1.51,0-2.82-.7-4.21-1.09-1-.71-2.93.47-3.26-1-.38-1.73,1.5-2.19,2.71-2.62a56.35,56.35,0,0,1,15.61-2.67c1.38-.07,2.81.43,2.91,2.28-2.59,2.86-6.29,1.68-8.9,2.56a48.92,48.92,0,0,1,10.59-.11c1.22.49,1.32,2,2.4,2.61-1,1.2-2.29.77-3.49.8A137.81,137.81,0,0,1,57.73,147.63Z"/><path class="cls-84" d="M71.35,142.43a2.5,2.5,0,0,0-2.07-1.28c-6.28.68-12.63,1.12-18.63,3.63.64,1.64,2.32.63,2.87,1.76l-2.43.21c-2.93,0-5.86,0-8.81-1.44,3.88-.69,7.57-1.33,10.66-3.73a5.86,5.86,0,0,1,3.12-1.15c5.16-.33,10.1-2.07,15.28-2.19.24,1.45.49,2.91.73,4.37A.5.5,0,0,1,71.35,142.43Z"/><path class="cls-85" d="M71.35,142.43a4.74,4.74,0,0,0,.72.18l1.11,2.33c-3.52,2-7.32.55-11,.85A2.19,2.19,0,0,1,60,144.61Z"/><path class="cls-86" d="M83.24,137.36c.54-1.05,1.11-2,2.57-1.26a19.36,19.36,0,0,1,6.55,4.8c-1.68,1.08-3.4.68-5,.89l-3.47-3.51a3.56,3.56,0,0,0-.67-.92Z"/><path class="cls-75" d="M82.36,131.46l-2.52,3.36H79A3.46,3.46,0,0,1,82.36,131.46Z"/><path class="cls-82" d="M83.23,137.36a1,1,0,0,1,.67.92A1,1,0,0,1,83.23,137.36Z"/><path class="cls-58" d="M85.76,143.3l-.86-.83Z"/><path class="cls-5" d="M56.08,150.14a85.55,85.55,0,0,0,15.24,3.37c.18,2.3-1.48,2.44-3,2.47-10.79.17-21.64.33-32.33-.87-8-.89-14.57-5.52-19.24-12.37-1.72-2.53-.86-4.49,1.28-6.2h.84c-.07,2,1.7,2.31,2.94,3a.91.91,0,0,1-.94,1.18c-1.4.11-1.72.77-1,1.92,2,3.38,5.51,5,8.59,7.13,2.08-1.05,3.08.73,4.46,1.63a4.27,4.27,0,0,0,2.73.94c4.14-.9,8.48.74,12.55-1.09,1.58-.71,3,.48,4.4,1C54.62,152.87,55.8,152.4,56.08,150.14Z"/><path class="cls-1" d="M18,136.54c.84,1.93-2.51,2.92-1.36,4.47,1.72,2.32,3.1,5,5.72,6.6,2.21,1.32,3.73,3.9,6.78,3.67,4.61,4.43,10.4,2.82,15.82,3.07,1,.05,2,.12,2.94.15l19.9.67c1.47.05,2.84-.09,3.54-1.66,2,.52,4.09.73,6,1.69A33,33,0,0,1,67,156.86L62,157a15.5,15.5,0,0,1-12.57,0l-6,0-5.1-.1c-1-.94-2.41.06-3.39-.83l-1.69,0c-1.16-1.13-2.8-1.15-4.17-1.78-6.67-3.09-12.3-7.23-14.44-14.74-.32-1.1-1.57-2.4-.2-3.45C15.58,135.18,16.84,136,18,136.54Z"/><path class="cls-15" d="M7,108.59c2.17,3.75,4.8,7.3,5.09,11.85-.34-.23-.86-.39-1-.71-1.33-3-2.36-6.17-4-9.07C6.77,110.12,7,109.29,7,108.59Z"/><path class="cls-15" d="M12.06,120.44c.27.29.55.57.83.85C12.61,121,12.33,120.73,12.06,120.44Z"/><path class="cls-87" d="M232.31,236.46c-1.41.27-3-.5-4.22.76-.22.44-.52.48-.88.16l-14.53-3.31c1.7,0,3.31-.28,4.42-1.78,4.15.7,8.16,2.16,12.44,2.33C230.69,234.66,232.22,234.6,232.31,236.46Z"/><path class="cls-33" d="M227.21,237.38l.88-.16c2.52.44,5.22-.52,7.62.93C232.88,237.89,229.92,239,227.21,237.38Z"/><path class="cls-38" d="M134.88,118.75c0,1.7,0,3.39,0,5.08-1,1.27.15,3-.82,4.25l0,1.67a1.11,1.11,0,0,1-1.67,0h0c-.91-1,.1-2.43-.86-3.39-3.09-7.28-5-15-8.53-22.13a23.8,23.8,0,0,0-6.71-8.36c-1.69-3.35-3.13-6.75-1.94-10.52-1.09-.41-1.65.15-2.29.36-1-4.61-2.54-9.09-1.79-14,.23-1.52,1-3.25-.18-4.88a2.07,2.07,0,0,1,.08-2c2.33-2.6,1.38-6,2.15-8.94.91-3.48,1.51-7.09,2.28-10.64a20.07,20.07,0,0,1,2.54-7c.36,3.33-1.49,6.22-1.91,9.45s-.51,6.7-.65,10.07c-.21,5.05.23,10.09-.37,15.17a13.83,13.83,0,0,0,1.15,7c2.45,5.48,4.34,11.28,7.4,16.39,1.83,3,4.32,5.78,5.87,9.09.42.89,1.15,1.83,1.08,2.7-.4,5.19,3.07,9.21,3.78,14.57,1.26-2.76-.36-5.35,1.4-7.37A3.2,3.2,0,0,1,134.88,118.75Z"/><path class="cls-27" d="M134.88,118.75c0-1.14,0-2.28,0-3.42l.06-2.47,1.67,1.67a1.13,1.13,0,0,1,0,1.67C135.48,116.7,136,118.24,134.88,118.75Z"/><path class="cls-38" d="M117.94,34.91c.11-1.18-.4-2.51.84-3.4C118.68,32.68,119.16,34,117.94,34.91Z"/><path class="cls-38" d="M117.09,38.29c0-.94-.15-1.94.84-2.55C117.91,36.67,118.08,37.67,117.09,38.29Z"/><path class="cls-38" d="M119.64,28.12c0,.85,0,1.69,0,2.54h-.84C118.81,29.73,118.62,28.72,119.64,28.12Z"/><path class="cls-16" d="M101,242.43c-.76-.08-1.37-.26-1-1.27.42-1.25,1.51-2,2.22-3a134.49,134.49,0,0,1,9.63-12.53c2.25-2.55,4.26-5.42,6.7-7.89a23,23,0,0,1,2-1.56l.37.47c.42,2.59-.7,4.5-2.48,6.3-3.43,3.46-6.68,7.1-8.82,11.55-.41,1.62-1.94,2.62-2.33,4.26-.87,1.5-2.61,1.93-3.78,3.07a6.57,6.57,0,0,1-.9.67l-.51.24A1.07,1.07,0,0,1,101,242.43Z"/><path class="cls-88" d="M101,242.43h.85a2.69,2.69,0,0,1,2.79,1.89c-2.76,3.25-5.07,7-9.56,8.29a3.74,3.74,0,0,1,1.22-3.38c1.48-1.31.78-2.41-.4-3.43C97.24,244.11,99.68,244.12,101,242.43Z"/><path class="cls-89" d="M97.64,240.69a7.08,7.08,0,0,1,.77.17,1.33,1.33,0,0,1-.17.38c-.44.39-.46,1.65-1.24,1.12C96.42,242,97,241.1,97.64,240.69Z"/><path class="cls-16" d="M120.47,216.15l.85-.84h0c.19.76-.09,1-.85.84Z"/><path class="cls-50" d="M96.77,236.5l.79-.86Z"/><path class="cls-90" d="M216.19,226.32c-7.49-.8-14.95-1.89-22.46-2.31-6.09-.35-12.25-1-18.32.5l-5.8.15c-1.71.77-3.52.33-5.27.33-1.11,0-2.81.75-3.22-.82-.33-1.26.92-2.16,2.08-2.73,7,.2,13.8-1.11,20.63-2.31,2.29,1.36,5,.66,7.4,1.55,5.44.74,10.9,0,16.34.24,3.77.19,7.57-.42,11.31.42a2.11,2.11,0,0,1,1.28,1.54c.07,2.28-1.54,3-3.32,3.45Z"/><path class="cls-91" d="M153.57,226.39c-2.85,1.2-5.93,1.16-8.91,1.57a9.33,9.33,0,0,0-4.91,1.54c3.92.56,7.54-.37,11.18-.42s7.48-1.1,11.08.61A266.9,266.9,0,0,1,135.28,233c-2.23.16-4.64,2-6.83-.2a1.93,1.93,0,0,1-.56-1.13c1.43-1.19,3.3-1,4.81-1.6-1.21,0-2.41.82-3.78.65-.61-.14.15-2.19-1.6-1-1.45,1-2.89,2.64-5.09,1.84-.78-1.37.1-2.28.87-3.22.28-.29.59-.55.89-.81l.45-.39c3.44-3.08,6.4-6.68,10-9.61,1.33-1.1,2.67-3.61,5.12-1.52.15,1.53-.73,2.67-1.47,3.87s-1.81,2.59-2.75,3.86c-.43.72-1.05,1.3-1.44,2.05,6.45-.64,12.9-1.26,19.34.08Z"/><path class="cls-92" d="M128.08,231.38c1.23,1.35,2.57,1.59,4.48,1.31,5.36-.77,10.72-1.56,16.09-2.27a130.16,130.16,0,0,1,13.36-.73c2,.3,4.12-.65,5.93.82-5.24-.32-10.31.88-15.4,1.8A82,82,0,0,1,135.86,234c-1.22,0-2.57-.33-3.55.81-2.78,1.52-5.67,2.59-8.92,2.16C123.17,233.69,124.17,232.5,128.08,231.38Z"/><path class="cls-91" d="M163.71,222.11a4.09,4.09,0,0,0-2.16,2.55h8.06c-3,1.78-6.34.69-9.48.9a30.63,30.63,0,0,1-4.88,0c-.08-.18-.17-.35-.25-.53.17-1.49,1.35-2.35,2.15-3.46,1.06-1.41,2-2.92,3.75-3.66,4.29-2.12,8.38-4.5,11.25-8.51a11.11,11.11,0,0,1,1.6-1.87c1.25-1,1.67-.12,1.84,1l.3.48,0,.58a5.43,5.43,0,0,1-.37,1.07,15.28,15.28,0,0,1-3.59,5c-.92.89-1.84,1.77-2.71,2.72-.25.28-.51.54-.77.81l-.4.39C166.92,221,165.22,221.38,163.71,222.11Z"/><path class="cls-91" d="M155.25,225.54a2.16,2.16,0,0,1-1.68.85l-.15-.16a.82.82,0,0,1,.13-1,1.34,1.34,0,0,1,1.55.1Z"/><path class="cls-27" d="M132.34,129.76H134c.33,1.8-.58,3.39-.82,5.1-1.62.12-.48-1.17-.86-1.69C132.33,132,132.33,130.89,132.34,129.76Z"/><path class="cls-27" d="M131.48,126.37c1.25.89.74,2.22.86,3.39C131.09,128.87,131.61,127.54,131.48,126.37Z"/><path class="cls-93" d="M184,204.24l-2.53.13a1.43,1.43,0,0,1-1.67,0c-4.23-1.8-8.54-3.12-13.21-2.18a7,7,0,0,1-2.5.08c-7.6-1.21-14.17.7-19.47,6.43-.76.56-.08-2.57-2-.49-4.75,5.3-9.9,10.26-14.79,15.45-3.07,2.39-6.58,4.19-9.34,7a2.81,2.81,0,0,1-1.13.35c-1.38-.21-1.54-1.06-1-2.09,1.26-2.29,2.22-4.8,4.52-6.36,3.17-2.16,5.26-5.25,7.2-8.45,2.53-4.15,6.5-6.74,10.27-9.56a30.45,30.45,0,0,0,6.08-3.69c8.14-5.72,17-7.47,26.48-4.13a51.13,51.13,0,0,0,11,2.17C185.79,199.37,186.22,200.89,184,204.24Z"/><path class="cls-94" d="M184,204.24a6.26,6.26,0,0,0,.46-2c.14-1.31.1-2.24-1.58-2.16s-3.2-1-4.94-.15c-1.07.51-2.16-.23-3.21-.66-2.6-1.06-5.23-2.05-7.86-3.05-.39-.15-.86-.4-1.21-.29-4,1.23-8.2.53-12.33,1.75-3.79,1.13-6.63,3.05-9.7,5.22-1.4,1-2.82,3.42-5.36,2.27.84-2.94,11.57-11.44,14.39-11.36a.81.81,0,0,1,.86.74c1.87-4.83,6.9-2.16,9.95-4.19a13,13,0,0,0,3.37-.05c8.22-2.42,14.61,1.94,21.14,5.65,3,1.71,4,5,2.79,7.47l-4.21.09-.9.75Z"/><path class="cls-46" d="M175.53,209.38a4,4,0,0,1,.06-.84c1.58-1.69,3.79-1.46,5.76-1.64,3.69-.33,7.6-.08,11.06-.85,4.1-.92,8.07-.6,12.09-.9a6.87,6.87,0,0,1,4.07.85c2.5,1.93,5.88,1.66,8.47,3.38.68.8,1.85.11,2.54.84h0c.53.63,1.78.32,1.9,1.47a1.72,1.72,0,0,1-.89.87c-3,.73-5.9-.29-8.68-1.16a56.77,56.77,0,0,0-12.46-2.1c-2.17-.18-3.89.33-4.94,2.36a9.19,9.19,0,0,1-.5,1.11,12.45,12.45,0,0,1-3.64,3.9c-1.47,1-2.78,2.27-4.65,2.51a2.06,2.06,0,0,1-1.05-.45c-3-1.95-5.7,0-8.44.65-2,.46-4,1.35-6.11,1.05-1-.14-2.37,0-2.21-1.73h0l.85-.82a5.42,5.42,0,0,1,2.57-2.52c4.88-.72,9.72-1.58,14.55-2.58,1.85-.38,2.84-1.34,4.2-2.81-3.27-.73-6-.19-8.71.23C179.39,210.5,177.22,211.45,175.53,209.38Z"/><path class="cls-60" d="M144.28,208.55c.94-2.7,3.06-4.22,5.51-5.31,4.68-2.09,9.54-3.12,14.66-1.91.68.16,1.69.63,1.93,0,1.33-3.26,3.06-.89,4.58-.4a20.6,20.6,0,0,0,7.79.95c2.56-.16,1.4,1.3,1.05,2.42l-.17.36a2.24,2.24,0,0,0-.7.37l-.85.14c-.5.45-1.26.29-1.76.74-2.31-.13-4.39.93-6.61,1.25-4.31.63-8.62,1-12.9-.2-.51-1.75-1.67-1.06-2.62-.61-2.54,1.21-5.37,1.73-7.68,3.45-.9.67-1.94,1.23-3.13.57C142.91,209.41,143.41,208.89,144.28,208.55Z"/><path class="cls-19" d="M250.92,231.4a19.1,19.1,0,0,1,7.59,1.67c-3.61,1.08-7.06,2.81-11,2.56-3.05-1.39-6.1-2.72-9.6-1.87a2.56,2.56,0,0,1-2-.18c-3.12-2.21-6.78-2.28-10.35-2.72A3.53,3.53,0,0,1,223,229.7c0-.28,0-.56,0-.84s.07-.28.1-.42a2.63,2.63,0,0,1,.57-.63l.4-.17a.65.65,0,0,1,.67.39,64.44,64.44,0,0,1,13.14,1.32C242.07,230.27,246.56,230.65,250.92,231.4Z"/><path class="cls-95" d="M190.77,203.41a9.16,9.16,0,0,0-4.87-7.86c-2.89-1.28-6.26-1.52-8.41-4.36-.58-.77-1.86-.43-2.83-.44H162.83c-1.7.9-3.39,1.32-5.09,0a2.13,2.13,0,0,1,1.85-.82c5.2.24,10.27-.94,15.41-1.26a12.29,12.29,0,0,1,7.76,2.5c2.12,1.51,3.88,3.52,6.65,4.17,2.26.53,2.27,3.41,3.91,4.74,0,.56,0,1.13,0,1.69.3.19.4.38.3.56s-.2.29-.31.29c0,.27,0,.53,0,.8Z"/><path class="cls-96" d="M153.52,207.73a5.27,5.27,0,0,0,4.6,1.65c3.63-.2,7.32.55,10.9-.73a1.91,1.91,0,0,1,2.27.71,3.84,3.84,0,0,1-4,3c-4.13.12-8.24,1.31-12.37.47-2.33-.47-5.42-.69-3.85-4.59C151.73,207.42,152.5,207,153.52,207.73Z"/><path class="cls-97" d="M153.52,207.73a1.86,1.86,0,0,0-1.79.59c-1.14.87-1.31,2.47-2.51,3.29-2.53.67-4.56,3-7.53,2.19-.63-1.79.07-2.89,1.8-3.46a81.61,81.61,0,0,1,10.43-5.07c1.49-.66,2.81-.66,3.81.51.81.95-.43.92-.92,1.21l-1.55,0c-.55.34-1.27.21-1.78.65Z"/><path class="cls-98" d="M167.92,211.93l3.37-2.57.86,0a3.48,3.48,0,0,1-1.27,3.33c-3.11,2.22-6,4.77-9.75,6a1.08,1.08,0,0,1-.23-1.06c1.27-2.28,3.46-3.56,5.45-5.06A2.91,2.91,0,0,1,167.92,211.93Z"/><path class="cls-99" d="M223,228.86a4.73,4.73,0,0,0-4.36-.4,5.64,5.64,0,0,1-4.52,0c-.1-1.54,1.78-1.09,2.11-2.1h0c3.08-.69,6.05-2.53,9.35-.88h0a.69.69,0,0,1,0,.91l-.82.86a11.78,11.78,0,0,0-.89.84h0a5.19,5.19,0,0,0-.88.81Z"/><path class="cls-18" d="M225.54,225.44a32,32,0,0,1-9.35.88c.83-1.24,2.6-1.25,3.38-2.56.62-.61.81-1.6,1.68-2a3.14,3.14,0,0,1,2.13-.26,3.57,3.57,0,0,1,1,.48,2.67,2.67,0,0,1,1.11,1.83C225.5,224.35,225.52,224.9,225.54,225.44Z"/><path class="cls-46" d="M231.45,216.15c1.23.9.72,2.22.82,3.39l-.5.34a2.23,2.23,0,0,1-1-.56c-1.48-2.22-4.13-2.58-6.19-3.86-1.4-.86-3.57-1.08-3.29-3.53h0c3.81-.82,6,2.75,9.31,3.39h0C230.86,215.61,231.17,215.87,231.45,216.15Z"/><path class="cls-46" d="M225.47,223.8a3.43,3.43,0,0,1-1.66-1.7c2.05-2.3,4.93-2.16,7.62-2.55h0a.53.53,0,0,1,.21.57c-.07.19-.14.29-.21.29a3,3,0,0,1-1.7,1.68,9.63,9.63,0,0,0-.85.84h-.84c-.27.29-.61.52-.86.84Z"/><path class="cls-19" d="M230.59,215.31a5.53,5.53,0,0,1-3.94-1.2,13.29,13.29,0,0,0-5.37-2.19l-1.7-1.7C223.76,210.81,227.27,212.86,230.59,215.31Z"/><path class="cls-19" d="M217,209.38c-3-.62-6.23-.81-8.47-3.38,2,.52,3.93,1.09,5.92,1.56A3.25,3.25,0,0,1,217,209.38Z"/><path class="cls-19" d="M229,224.65c0,.42.22.69.68.69-.38.91-1.17,1.36-1.77.58C227.44,225.37,228.35,224.89,229,224.65Z"/><path class="cls-19" d="M219.58,210.22c-.93,0-1.93.16-2.54-.84C218,209.41,219,209.23,219.58,210.22Z"/><path class="cls-46" d="M179.8,204.33l1.67,0a1.82,1.82,0,0,1-1.74.75.53.53,0,0,1,.06-.8Z"/><path class="cls-46" d="M176.32,205.94a1.78,1.78,0,0,1,1.76-.74A1.72,1.72,0,0,1,176.32,205.94Z"/><path class="cls-60" d="M153.48,207.62a1.65,1.65,0,0,1,1.78-.65A1.79,1.79,0,0,1,153.48,207.62Z"/><path class="cls-36" d="M246.45,229.38c0-.1.07-.29.11-.29a.83.83,0,0,1,.36.11c0,.1-.07.29-.11.29A.83.83,0,0,1,246.45,229.38Z"/><path class="cls-46" d="M185.66,204.25l.9-.75Z"/><path class="cls-93" d="M179.79,204.32a5.39,5.39,0,0,1-.06.8,3.55,3.55,0,0,1-.8-.06Z"/><path class="cls-19" d="M231.45,216.15l-.86-.84Z"/><path class="cls-19" d="M231.45,220.41v-.86h.82Z"/><path class="cls-19" d="M228.9,222.93l.85-.84Z"/><path class="cls-19" d="M227.2,223.78l.86-.84Z"/><path class="cls-18" d="M225.55,226.36c0-.3,0-.61,0-.91C226.12,225.75,226.1,226.05,225.55,226.36Z"/><path class="cls-18" d="M223.84,228.06a1.17,1.17,0,0,1,.89-.84,5.49,5.49,0,0,0,0,.81Z"/><path class="cls-84" d="M33.23,143.31h.85c1.73,1.81,4.1,2.36,6.34,3.11a38.17,38.17,0,0,0,11.52,1.93l1.61.9a31.06,31.06,0,0,1-10.94.77,28.63,28.63,0,0,1-17.36-7.24c-1.33-1.19-.59-1.49.35-2h0C27.71,143,31.08,141.3,33.23,143.31Z"/><path class="cls-100" d="M157.74,190.74h5.09c-.9,2-2.7,1.7-4.36,1.68-1.9,0-3.67,0-4.24,2.42-.25,1-.58.42-1.28,0-1.49-.94-3.14.36-3.85,1.32a19.43,19.43,0,0,1-7.63,5.74,7.26,7.26,0,0,0-3.2,3.26c-1,1.94-2.94,2.85-4.5,4.19a21.53,21.53,0,0,0-4.82,5.12c-5.15,6.45-11.78,11.58-16.45,18.47-.81,1.2-2,2.38-3.88,1.86a3.72,3.72,0,0,1,.69-2.74c3.14-3.47,5.48-7.63,9.13-10.65,1.67-1.38,1.35-3.5,2-5.24l.85-.84a4.08,4.08,0,0,0,3.13-2.54,16.1,16.1,0,0,1,5.75-6.41,15.57,15.57,0,0,0,2.07-2.07c2.21-2.1,4.3-4.47,7.66-4.64,1.18-.07,1.62-.94,2.3-1.62A25.46,25.46,0,0,1,157.74,190.74Z"/><path class="cls-101" d="M223,229.7c2.85.25,5.85.05,8.53.86,3.46,1.06,6.61,2.48,10.49,1.92,1.92-.27,4.29,1.05,5.56,3.15-5,1.21-10.14.77-15.22.83-1-1.11-2.33-.81-3.55-.78-3.7.08-7.09-1.33-10.6-2.18-.43-.1-.71-.79-1.06-1.21,1.39-.58,2.59-1.62,4.17-1.73.45-.52,1.27-.3,1.69-.87Z"/><path class="cls-102" d="M208.18,230.25c.31-.22.42-.35.54-.37,1-.2,1.94-.42,2.77.34a.77.77,0,0,1-.16.71C210.26,231.64,209.26,231.58,208.18,230.25Z"/><path class="cls-19" d="M223,229.69a1.68,1.68,0,0,1-1.69.87A1.81,1.81,0,0,1,223,229.69Z"/><path class="cls-103" d="M178.07,118.72l1.71.06c0,.56,0,1.11,0,1.67a14.23,14.23,0,0,1-6.45.81c-2.65-.41-4.69,1.3-7.09,1.73l-.84-1.7a5.15,5.15,0,0,1,4.24-1.71l1.68,0c.25.3.58.54.85.83.28,0,.56,0,.84,0a6.59,6.59,0,0,1,.85-.82l1.7-.86A2,2,0,0,1,178.07,118.72Z"/><path class="cls-66" d="M169.62,119.58c-1.41.58-2.63,1.64-4.24,1.71,0-.28,0-.56,0-.84.28-.57.56-1.13.85-1.7a1.94,1.94,0,0,0,2.27,0C169.5,118,169.51,118.93,169.62,119.58Z"/><path class="cls-2" d="M170.48,117.83l.88.89A1.22,1.22,0,0,1,170.48,117.83Z"/><path class="cls-66" d="M172.15,120.44l-.85-.83Z"/><path class="cls-66" d="M173.84,119.62l-.85.82c0-.28,0-.57,0-.85A3.94,3.94,0,0,1,173.84,119.62Z"/><path class="cls-45" d="M136.57,116.2v-1.67c.18-.21.52-.42.52-.63,0-5.9,2.19-11.53,2.06-17.47a117.5,117.5,0,0,1,3.57-30.76c1.41-5.68,3.44-11.24,5.17-16.86a3.39,3.39,0,0,1,1.38-2.06c-1,5.94-3.47,11.49-4.82,17.34a111.62,111.62,0,0,0-3,15.87c-.91,10.69-.43,21.52-3,32.05a20.89,20.89,0,0,0-.18,4.2,1.15,1.15,0,0,1-1.69,0Z"/><path class="cls-45" d="M150.11,45.05a1.7,1.7,0,0,1-.84,1.7A1.74,1.74,0,0,1,150.11,45.05Z"/><path class="cls-1" d="M112,47.61c.11-1.18-.4-2.51.85-3.4C112.74,45.38,113.24,46.71,112,47.61Z"/><path class="cls-1" d="M111.16,50.14c0-.93-.16-1.93.86-2.54C112,48.53,112.16,49.54,111.16,50.14Z"/><polygon class="cls-38" points="112.01 85.72 111.81 86.07 111.65 85.91 112.01 85.72"/><path class="cls-3" d="M129,164.47l-.85.87c0-.94-.13-1.93.83-2.55,0,.3,0,.59.05.89a.49.49,0,0,1,.17.54C129.09,164.39,129,164.47,129,164.47Z"/><path class="cls-17" d="M129.77,161.91,129,162a1.73,1.73,0,0,1,.76-1.75Z"/><path class="cls-50" d="M111.14,200.91v1.7C110.3,202,110.3,201.48,111.14,200.91Z"/><path class="cls-3" d="M128,166.08l-.74.95Z"/><path class="cls-50" d="M113.65,196.66l-.79.87Z"/><path class="cls-104" d="M95.08,252.6l9.3-8.49a3,3,0,0,1,.76-.87,13.35,13.35,0,0,1,1.51-1c2-1,3.69-2.48,5.83-3.16,1.28-.41,2.8-1.26,3.82.13s-.21,2.58-1,3.71a2.58,2.58,0,0,1-1.66,1.15c-.64.73-1.13,1.76-1.93,2.16a91.15,91.15,0,0,0-17.17,10.56c-.92.74-1.11-.14-1.21-.86,0-.17,0-.33,0-.5a2.57,2.57,0,0,1,.85-1.18C94.51,253.72,94.8,253.16,95.08,252.6Z"/><path class="cls-105" d="M84.05,267.82l-2.56,3.38a6,6,0,0,0-2.55,2.53c-1.25.77-1.94.45-1.6-1A23.34,23.34,0,0,1,80,267c2.3-4.18,3.51-8.93,6.59-12.7h0a5.07,5.07,0,0,1,.82-.85c1.31-1.92,3.13-3.51,3.61-6.21,1.64,2.31-.88,4.3.1,6.38,1.48-.93,1.34-2.86,2.79-3.77.55,1.62-.92,2.92-.58,4.43a2.46,2.46,0,0,1-.76,1.77,2.19,2.19,0,0,1-.84,1.74c-.2-1,.43-2.76-1.76-1.79v-2.66c-2.29,1-1.46,3.17-2.31,4.59a77.43,77.43,0,0,0-3.6,7.38C83.69,266.1,82.84,267,84.05,267.82Z"/><path class="cls-106" d="M113.67,244.1c.81-1.43,1.62-2.85,2.65-4.69a10.07,10.07,0,0,0-6.11,1.92,10,10,0,0,1-4.11,2c-.29.26-.6.51-.91.74l-.81.08c-.88-.5-1.94-.74-2.53-1.69h0a2.84,2.84,0,0,1,1-.51c3.18-1.38,6.29-2.9,9.35-4.53s6.37-2.5,9.7-.4c1.21,1.85-.66,2.54-1.37,3.67l-1.11,1.08a6.89,6.89,0,0,1-.75.67c-.73.62-1.46,1.24-2.21,1.85C115.51,245,114.55,245.33,113.67,244.1Z"/><path class="cls-107" d="M119.63,240.74c.85-1.14,1.7-2.27,2.54-3.41a1,1,0,0,1,.89-.78c3.15-.24,6-2.26,9.25-1.78l1.63.13c-5.06,2.59-9.79,5.78-15.23,7.5,0-.27.09-.55.13-.82A9,9,0,0,1,119.63,240.74Z"/><path class="cls-50" d="M92.58,256a1.75,1.75,0,0,1,.76-1.77l.08.08a1.14,1.14,0,0,1-.06,1.63h0Z"/><path class="cls-19" d="M259.39,232.3c.23-.55.49-.69.83-.07Z"/><path class="cls-103" d="M163.68,124.68a2.58,2.58,0,0,1-2.54,1.7A2.54,2.54,0,0,1,163.68,124.68Z"/><path class="cls-103" d="M165.37,123.83a1.74,1.74,0,0,1-1.69.85A1.71,1.71,0,0,1,165.37,123.83Z"/><path class="cls-103" d="M166.22,123l-.85.84Z"/><path class="cls-103" d="M161.14,126.38l-.85.84Z"/><path class="cls-27" d="M136.57,116.2h1.69v3.53Z"/><path class="cls-27" d="M134,128.08c.18-1.44-.56-3.05.82-4.25C134.69,125.26,135.43,126.88,134,128.08Z"/><path class="cls-108" d="M86.59,254.27a68.92,68.92,0,0,1-6.8,14.87,26.77,26.77,0,0,0-1.91,3.73c-.26.68.5.81,1.07.86,0,.29,0,.57,0,.86-1.6.06-3-.14-2.18-2.3,1.09-2.88,2.26-5.74,3.41-8.59.47-1.16,1.32-2.19,1.27-3.53,0-.24.1-.49.14-.73a4.21,4.21,0,0,1,.74-.94c.74-1.18,1.09-2.63,2.4-3.42l1-.8Z"/><path class="cls-105" d="M90,256.36c-.1.24-.18.66-.29.67-.33,0-.46-.26-.26-.55s.45-.53.56-.48C90.49,256.21,90,255.8,90,256.36Z"/><path class="cls-105" d="M84.91,267l-.86.83Z"/><path class="cls-34" d="M82.35,258.5l-.74.94A1.08,1.08,0,0,1,82.35,258.5Z"/><path class="cls-16" d="M193.32,202.61c0-.29,0-.57,0-.85h.84a.6.6,0,0,1,0,.84Z"/><path class="cls-95" d="M194.17,202.6v-.84c.34.12.47.33.33.6C194.44,202.47,194.28,202.52,194.17,202.6Z"/><path class="cls-7" d="M34.93,156c1.17.11,2.49-.39,3.39.83l-.83,0C36.56,156.83,35.55,157,34.93,156Z"/><path class="cls-24" d="M93.36,256l.06-1.63a7.31,7.31,0,0,1,.8-.05A1.7,1.7,0,0,1,93.36,256Z"/><path class="cls-108" d="M87.42,253.42c-.27.29-.55.57-.82.85q0-.42,0-.84Z"/><path class="cls-6" d="M76.74,147.49c3.13.33,5.15,1.87,8.27,3.3C81.29,150.75,78.85,150.15,76.74,147.49Z"/><path class="cls-59" d="M108.62,154.32a2.57,2.57,0,0,1,1.69,2.55C108.59,156.79,108.61,155.56,108.62,154.32Z"/><path class="cls-59" d="M106.08,153.48c.93,0,1.93-.15,2.54.84C107.69,154.3,106.69,154.48,106.08,153.48Z"/><path class="cls-75" d="M106.92,145.86c-3-.24-5-2.33-7.18-4a67.78,67.78,0,0,0-9.57-6.64c-.44-.23-.69-.84-1-1.27A45.38,45.38,0,0,1,106.92,145.86Z"/><path class="cls-75" d="M89.14,134c-2.59,0-4.06-2.94-6.78-2.54C85.49,130.31,86.28,130.61,89.14,134Z"/><path class="cls-75" d="M107.77,146.7l-.85-.84Z"/><path class="cls-75" d="M108.62,147.54l-.85-.84Z"/><path class="cls-109" d="M49.4,157,62,157c1,1,2.38.55,4.16,1.12-3.28,1.19-6,2.08-8.67,3.14s-5.18.32-7.8-.11c-1.5-.24-2.4-.91-2.59-2.26C46.83,157.18,48.88,158,49.4,157Z"/><path class="cls-73" d="M206.86,98.4a1.71,1.71,0,0,1-1.65.9A1.69,1.69,0,0,1,206.86,98.4Z"/><path class="cls-2" d="M201.89,101.08l-1,.7A1,1,0,0,1,201.89,101.08Z"/><path class="cls-110" d="M275.48,95.88c.71.09,1.64.27.85,1.18-3.37,3.84-7.1,7-12.35,8.27-5.47,1.26-10.91,2.41-16.54,2.44a6,6,0,0,0-2.46.44c-5.44,2.45-11.21,2.13-16.94,2.09l-2.49-.07c.29-2.79-2.41-1.5-3.42-2.51,1.58-1.78,4.26-1,5.94-2.51a3.53,3.53,0,0,1,3-1.1,35.3,35.3,0,0,0,13.11-2.27,4.41,4.41,0,0,1,3.19-.58c9.74,1.78,19,.71,27.51-4.76A3,3,0,0,0,275.48,95.88Z"/><path class="cls-111" d="M217.11,108.53c1.5.07,3.07-.09,4.25,1.2-4.53,3.18-9.35,2.25-14.19,1.1-.93-.23-1.89-.37-2.83-.55-3.6-1.57-6.75.46-9.94,1.45-2.91.91-5.72,2.25-8.6,3.29-1.3.48-2.81,1.54-4.35.33,2.24-3,6-3.47,9-5,4.88-2.47,10.3-3.31,15.63-4.53,4.48-1,9.17-1,13.52-2.7a23.83,23.83,0,0,1,4.4-.76c-1.28-.9-2.52-.34-3.61-.56,1.55-1.36,3.41-.65,5.15-.76.83.38,1.67.79,2.45-.11,1.58-1.27,3.43-.66,5.18-.73a65.08,65.08,0,0,0,8.83.37,2,2,0,0,1,1.31.36l0,0c.06,1.94-1.56,1.79-2.64,1.86-3.35.19-6.63,1.15-10,1-5.55-.27-10.55,2.5-16.1,2.85C215.41,107.42,216.59,107.56,217.11,108.53Z"/><path class="cls-112" d="M217.11,108.53a27,27,0,0,0-6.14-.94c.13-1.66,1.3-1.4,2.18-1.59,3.92-.85,7.86-1.62,11.76-2.57,4.92-1.18,10-.67,14.93-1.6,1.2-.22,2.56.28,3.52-.89l.86.9c-2.17,3-5.55,2.87-8.65,3.26a64.6,64.6,0,0,1-7.5.11C224.11,105.29,220.3,105.89,217.11,108.53Z"/><path class="cls-69" d="M242.43,101c-3.07-.42-6.28.9-9.24-.77,3.07-1,6.15-.06,9.22,0,.22.18.29.35.22.53S242.5,101,242.43,101Z"/><path class="cls-69" d="M228,100.92c-.24,1.18-.88,1.21-2.45.11Z"/><path class="cls-112" d="M242.43,101c0-.27,0-.53,0-.8l.91.76Z"/><path class="cls-113" d="M181.45,115.35A95.73,95.73,0,0,0,193.57,111a67.72,67.72,0,0,1,7.58-2.23c1.29-.34,2.89-.54,3.19,1.55a52.76,52.76,0,0,0-11,2.88c-4,1.69-8,3.46-12.31,4.21a4.18,4.18,0,0,0-3,1.35l-2.53,0c1.07-1.41,2.83-1.69,4.22-2.57.46-.5,1.27-.28,1.69-.84Z"/><path class="cls-111" d="M181.45,115.35a1.66,1.66,0,0,1-1.69.84A1.77,1.77,0,0,1,181.45,115.35Z"/><path class="cls-66" d="M178.31,104.72a1.4,1.4,0,0,1,0,1.76c-.25.41.32,1.71-1,1.08a.91.91,0,0,1-.46-1.38C177.11,105.6,177.21,104.79,178.31,104.72Z"/><path class="cls-66" d="M189.08,92.49a1.77,1.77,0,0,1-.84,1.7A1.74,1.74,0,0,1,189.08,92.49Z"/><path class="cls-66" d="M188.24,94.19a1.81,1.81,0,0,1-.84,1.7A1.7,1.7,0,0,1,188.24,94.19Z"/><path class="cls-103" d="M179.77,120.45a4.87,4.87,0,0,1,3.21-.82c5.65,1.2,11-.7,16.49-1.45,6.34-.86,12.64-1.2,18.94,0a70.6,70.6,0,0,0,16.28,1.4c1.48-.06,2.82-.17,3.53-1.72,2.42.56,1.61,1.74.19,2.29a16.6,16.6,0,0,1-9.44.87,36.9,36.9,0,0,0-7.08-.62,51.48,51.48,0,0,1-5.39-.53c-5.39-.74-10.79-2.15-16.27.23a8.37,8.37,0,0,1-6.12.48c-1.43-.51-3,.09-4.54.29C186.31,121.34,183,122.08,179.77,120.45Z"/><path class="cls-103" d="M235.67,117.05c-.93,0-1.93.16-2.54-.84C234.06,116.23,235.06,116.06,235.67,117.05Z"/><path class="cls-103" d="M238.21,117.9a1.73,1.73,0,0,1-1.69-.84A1.7,1.7,0,0,1,238.21,117.9Z"/><path class="cls-75" d="M222.13,107.72h4.13c0,1-1.87,1.31-.71,2.51C223.81,110.2,223.21,108.64,222.13,107.72Z"/><path class="cls-75" d="M129,164.47c0-.26,0-.53,0-.79.32.11.44.31.29.57C129.22,164.35,129.07,164.4,129,164.47Z"/><path class="cls-15" d="M33.23,143.31c-2.56-.77-5.68.11-7.62-2.53a15.92,15.92,0,0,0,5.93.84.56.56,0,0,1,.85,0h0a9.74,9.74,0,0,0,.85.85Z"/><path class="cls-32" d="M32.39,141.62h-.85C31.82,141,32.11,141,32.39,141.62Z"/><path class="cls-32" d="M33.23,142.47l-.85-.85Z"/><polygon class="cls-32" points="34.08 143.31 34.27 142.96 34.43 143.12 34.08 143.31"/><path class="cls-114" d="M123.06,236.55l-.89.78c-1.2,0-2.77,1.52-3.41-1-.17-.68-1.22,0-1.85.23a75.92,75.92,0,0,0-9.88,4.52c-1.38.68-2.7,1.5-4.34,1.33-.21-.19-.29-.38-.22-.57s.13-.29.2-.29c.89-1.84,3.11-1.92,4.34-3.3,1.8-2.51,4.93-2.63,7.31-4.09,2.6-.92,4.83-2.93,7.81-2.79,2.71-.56,4.61-2.75,7.21-3.61.51,1.08-.59,1.82-.44,2.76a2.12,2.12,0,0,1-.82.86h0A17.55,17.55,0,0,0,123.06,236.55Z"/><path class="cls-115" d="M114.57,234.86c-2.25,1.72-5,2.39-7.56,3.4-.57-.39-.51-.82-.11-1.31.58-.71,1.15-1.44,1.72-2.16a12.78,12.78,0,0,0,3.8-3.23c4.35-6.46,10.7-11.06,15.72-16.91.15-.17.53-.13.81-.19-1.62,3.39-3.7,6.48-6.91,8.48-2.78,1.73-3.42,4.8-5.17,7.16l1.07.46C118.41,233.24,115.68,233.41,114.57,234.86Z"/><path class="cls-88" d="M102.67,241.56c0,.28,0,.57,0,.86h-.84Z"/><path class="cls-116" d="M185.71,218.71l4.18-2.59c3.58-.38,7.08-.63,10.71.32a18.28,18.28,0,0,0,11-1,6,6,0,0,1,1.27.09,19,19,0,0,0,4.81.66,10.72,10.72,0,0,0,1.64.05,17.55,17.55,0,0,1-4.15-.42c-5.92-.24-11.68-1.82-17.61-1.83-1.53,0-3.14.07-4.33-1.23,0-.27,0-.54,0-.82,3.36-4.37,8.37-2.93,12.08-2,7.24,1.73,15,2.21,21.44,6.72,1,.67,2.72.71,2.25,2.5-.37,1.37-1.75,1.09-2.81,1.34-9,2.07-18.16,1-27.25,1.09-2.73,0-5.56,1.09-8.25-.28l-4.88,0a1.68,1.68,0,0,1-1.89-1.66l.33-.38C184.81,219.08,185.33,219.11,185.71,218.71Z"/><path class="cls-117" d="M190.78,221.24c5.71,0,11.41-.55,17.12,0,6.94.65,13.64-1,21-2.17a27.73,27.73,0,0,0-10.49-5.26c-2.16-.47-4.33-1.3-6.64-1.05a4.51,4.51,0,0,1-2.67-1c-1.55-.86-3.27-1.58-5.18-1a4.23,4.23,0,0,1-1.65.22,18.6,18.6,0,0,0-9,.91c1.6-3.57,2.87-3.92,6.26-3.78,6.35.25,12.25,2.36,18.35,3.62a20.54,20.54,0,0,0,3.34.17c1.71,2.46,4.55,3.07,7,4.15,1.68.71,2.94,1.53,3.11,3.47-2.12,2.1-5.12,1.57-7.62,2.55h0c-.56-.59-1.29-.4-2-.41a3.31,3.31,0,0,0-1.38.68.69.69,0,0,1-.88-.27c-7,0-14.07,0-21.1,0-1.81,0-3.64-.23-5.42.48C191.9,223,191.26,222.17,190.78,221.24Z"/><path class="cls-118" d="M167.91,218.7c2.39,1.7,4.85.91,7.14,0a11.42,11.42,0,0,1,5.1-1.2c2,.13,3.19-1.54,4.78-2,1.28,1.31.26,2.24-.08,3.23,0,.52-.6.54-.84.87h0a41.71,41.71,0,0,1-20.3,2.55Z"/><path class="cls-46" d="M219.58,222.09l.84,0,.48-.33c.13.14.27.27.41.41a3,3,0,0,1-1.74,1.63C219.57,223.2,219.58,222.65,219.58,222.09Z"/><path class="cls-119" d="M167.92,211.93l-.87.83a10.73,10.73,0,0,1-6.3,2c-2.63.13-5.24.61-7.19,2.68a6.14,6.14,0,0,0,.12,1,10.12,10.12,0,0,1,.29,1.08,2.83,2.83,0,0,1-.1,1.16c-5-1.52-9.53,1.23-14.34,1.24-1.34,0-3.09-.09-2.1-2.36l1.77-3.35a1.39,1.39,0,0,1,1-.46c3.66-.34,7.79.21,9-4.76.62-1.09,1-2.37,2.5-2.68-.55,1.43-.76,2.52,1.29,3a24.74,24.74,0,0,0,10.66.13C165.17,211.19,166.64,210.57,167.92,211.93Z"/><path class="cls-120" d="M137.43,219.57c.1.92.39,1.61,1.53,1.57a20.94,20.94,0,0,0,7.28-1.58c2.2-.92,4.22-1.34,6.11.81.75.86,1.06-.13,1.18-.84,2.39-.77,4.36-.84,4.22,2.57l-2.65,3.24-1.59.14c-3,1.94-5-2.55-7.78-1.19-2.56,1.25-5,2.14-7.68.36-1-.66-3,.66-3.13-1.66Z"/><path class="cls-121" d="M140,216.17l-.77.05c-2.28-.13-3.6,1.46-5.07,2.8-3.2,2.93-5.85,6.45-9.46,8.94a1.63,1.63,0,0,1-.39-1c.56-1.66,2.24-2.48,3-4,4.45-4.61,8.88-9.23,13.34-13.82a11,11,0,0,1,3-2.66c.73.67.53,1.42.63,2.09-.26.6-.53,1.19-.79,1.79-.65,1.1-1.3,2.2-1.94,3.3A2.25,2.25,0,0,1,140,216.17Z"/><path class="cls-122" d="M134.92,223c2.19.48,4.53.37,6.34,2.17.6.59,1.47.37,1.68-.92s.79-2.63,2.45-1c.62.62,1.32.08,1.93-.21,1-.49,1.87-.61,2.35.68.68,1.89,2.28,1.78,3.84,1.76a4.8,4.8,0,0,1-.09.75c-3.2,0-6.4.14-9.6.08-4.16-.07-8.3,0-12.85,1.75C132.12,225.73,133.65,224.45,134.92,223Z"/><path class="cls-123" d="M124.63,227.13c0,.28,0,.56,0,.83v0c-.28.28-.53.59-.82.85a6.24,6.24,0,0,0-1.72,2.54,24,24,0,0,1-7.56,3.48c.65-1.8,2.64-2.56,3.37-4.3C120.24,229.55,121.35,226.22,124.63,227.13Z"/><path class="cls-92" d="M128.08,231.39l.82-.86,6.43-1.83C133.38,230.7,131.94,231.17,128.08,231.39Z"/><path class="cls-121" d="M123.85,228.84l.82-.85Z"/><path class="cls-101" d="M175.53,209.38a10.39,10.39,0,0,0,6.18-.28c3.35-1,6.63-.24,10.56-.68-2.13,3.41-3.65,6.4-7.94,5a1.25,1.25,0,0,0-.81,0c-6.46,2.52-6.72,2.56-12.19,1.92,1-1.81,2.7-3.17,3.47-5.14a7.33,7.33,0,0,1,.73-.84Z"/><path class="cls-124" d="M157.75,222.1c-.51-2.33-2.66-2-4.22-2.57h0l-.84-.85,0-.82c-.84-2,.46-2.16,1.82-2.08a11.68,11.68,0,0,1,6.68,2.08c0,.28,0,.56,0,.83C159.49,219.32,159,221.06,157.75,222.1Z"/><path class="cls-46" d="M175.53,209.38l-.73.84Z"/><path class="cls-118" d="M168.76,217.88l-.85.82Z"/><path class="cls-115" d="M124.63,227.13c-2.6.41-4,3.11-6.69,3.43a11.52,11.52,0,0,1,5.23-4.71c1.62-.67,2.55-2.21,4.1-2.91C127.24,224.87,125.39,225.66,124.63,227.13Z"/><path class="cls-125" d="M212.81,216.15a21.08,21.08,0,0,1-10.52,1.72c-1.52-.14-3.12.22-4.43-1-.89-.8-1.81-.2-2.77-.11-1.75.17-3.65.86-5.2-.69l3.38-3.38c5.56,0,11.11-.11,16.51,1.61,2.06.65,4.46-.65,6.43.91C215.31,216.46,214,216,212.81,216.15Z"/><path class="cls-90" d="M184,219.56l.84-.87.86,0A1.79,1.79,0,0,1,184,219.56Z"/><path class="cls-18" d="M223,228.86c.29-.27.58-.55.88-.81A1.17,1.17,0,0,1,223,228.86Z"/><path class="cls-126" d="M140,216.17c.46-.88.66-1.93,1.58-2.53,2.76-.29,4.83-2.62,7.68-2.64.44,4.21.28,4.64-3.75,5.08C143.69,216.27,141.81,218.18,140,216.17Z"/><path class="cls-120" d="M161.15,217.86c-2-.09-4,.28-5.85-1.33-1-.88-2.41-.44-2.65,1.33-1.27-1.35-1-2.07.82-2.55,3.41-.93,6.74-2.14,10.39-1.79a9.94,9.94,0,0,0,3.19-.76A46.93,46.93,0,0,1,161.15,217.86Z"/><path class="cls-46" d="M221.28,221.25c.93,0,1.93-.16,2.53.84l-2.5,0-.09-.1A.54.54,0,0,1,221.28,221.25Z"/><path class="cls-88" d="M105.19,244c.3-.25.6-.5.91-.74C105.79,243.53,105.49,243.78,105.19,244Z"/><path class="cls-24" d="M119.64,240.74l-.8.84Z"/><path class="cls-127" d="M229.22,107.53c3.28-1.92,6.13-1.58,9.5-1.32A15.5,15.5,0,0,1,229.22,107.53Z"/><path class="cls-128" d="M212.81,216.15c.88-1.25,2.24-.69,3.4-.89,1.58.06,3.21-.06,4.45,1.31-.9.75-1.87.35-2.77.43-1.56-1.1-3.52.22-5.08-.85Z"/><path class="cls-125" d="M212.81,216.15c1.69.27,3.59-.66,5.08.85C216.19,216.75,214.29,217.7,212.81,216.15Z"/><path class="cls-90" d="M221.28,221.25q0,.39-.06.78l-.4,0h-.4Z"/><path class="cls-120" d="M152.68,218.68l.84.86Z"/></g></g></svg>