<svg xmlns="http://www.w3.org/2000/svg" viewBox="0 0 236.68 262.85"><defs><style>.cls-1{fill:#d3c7be;}.cls-2{fill:#bbaa9b;}.cls-3{fill:#e4ddd8;}.cls-4{fill:#dad0c8;}.cls-5{fill:#ebe5e0;}.cls-6{fill:#e8e2dd;}.cls-7{fill:#c9bbb0;}.cls-8{fill:#d5cac1;}.cls-9{fill:#ded5ce;}.cls-10{fill:#d2c6bd;}.cls-11{fill:#cec1b7;}.cls-12{fill:#bead9f;}.cls-13{fill:#cdc0b6;}.cls-14{fill:#cabdb2;}.cls-15{fill:#c6b8ac;}.cls-16{fill:#b8a798;}.cls-17{fill:#c1b2a5;}.cls-18{fill:#b7a596;}.cls-19{fill:#a6917f;}.cls-20{fill:#a89382;}.cls-21{fill:#b3a090;}.cls-22{fill:#aa9584;}.cls-23{fill:#b19d8d;}.cls-24{fill:#c5b6aa;}.cls-25{fill:#a79381;}.cls-26{fill:#a48f7d;}.cls-27{fill:#dfd7d0;}.cls-28{fill:#ad9989;}.cls-29{fill:#b5a495;}.cls-30{fill:#9e8675;}.cls-31{fill:#cabcb2;}.cls-32{fill:#9b826f;}.cls-33{fill:#978370;}.cls-34{fill:#968270;}.cls-35{fill:#c1b3a6;}.cls-36{fill:#dfd6d0;}.cls-37{fill:#856954;}.cls-38{fill:#dbd3cc;}.cls-39{fill:#c9baaf;}.cls-40{fill:#b0b5aa;}.cls-41{fill:#b7c7be;}.cls-42{fill:#bfaea1;}.cls-43{fill:#dbd1ca;}.cls-44{fill:#d8cdc5;}.cls-45{fill:#cec2b7;}.cls-46{fill:#d7ccc3;}.cls-47{fill:#dcd3cb;}.cls-48{fill:#c1b1a4;}.cls-49{fill:#bdac9e;}.cls-50{fill:#c7b9ad;}.cls-51{fill:#99806d;}.cls-52{fill:#baa799;}.cls-53{fill:#cabcb1;}.cls-54{fill:#c6b7ac;}.cls-55{fill:#fff;}.cls-56{fill:#c0afa2;}.cls-57{fill:#cbbdb2;}.cls-58{fill:#d2c6bc;}.cls-59{fill:#bfb0a2;}.cls-60{fill:#af9b8a;}.cls-61{fill:#e1d9d3;}.cls-62{fill:#beada0;}.cls-63{fill:#98806d;}.cls-64{fill:#8e725c;}.cls-65{fill:#a69180;}.cls-66{fill:#81634c;}.cls-67{fill:#8d725c;}.cls-68{fill:#967c67;}.cls-69{fill:#ad9b8b;}.cls-70{fill:#a89281;}.cls-71{fill:#ae9b8b;}.cls-72{fill:#d8cec6;}.cls-73{fill:#957b67;}.cls-74{fill:#9d8774;}.cls-75{fill:#886a54;}.cls-76{fill:#d0c4ba;}.cls-77{fill:#917863;}.cls-78{fill:#b9a899;}.cls-79{fill:#917662;}.cls-80{fill:#b4a191;}.cls-81{fill:#75573f;}.cls-82{fill:#bfafa2;}.cls-83{fill:#b6a394;}.cls-84{fill:#baa99a;}.cls-85{fill:#b19e8e;}.cls-86{fill:#c5b7ab;}.cls-87{fill:#856851;}.cls-88{fill:#b19d8c;}.cls-89{fill:#baa899;}.cls-90{fill:#cbbeb3;}.cls-91{fill:#8d715b;}.cls-92{fill:#947b67;}.cls-93{fill:#b6a495;}.cls-94{fill:#a48d7c;}.cls-95{fill:#e0d8d1;}.cls-96{fill:#9d8471;}.cls-97{fill:#e3dcd6;}.cls-98{fill:#e0d8d2;}.cls-99{fill:#a18c7a;}.cls-100{fill:#ad9887;}.cls-101{fill:#e7e0db;}.cls-102{fill:#f9f7f6;}.cls-103{fill:#d3c8bf;}.cls-104{fill:#c6b7ab;}.cls-105{fill:#907762;}.cls-106{fill:#886b55;}.cls-107{fill:#cdc1b6;}.cls-108{fill:#cfc2b8;}.cls-109{fill:#ccc0b5;}.cls-110{fill:#a5907e;}.cls-111{fill:#967d68;}.cls-112{fill:#8e715c;}.cls-113{fill:#9e8774;}.cls-114{fill:#ab9685;}.cls-115{fill:#a48e7d;}.cls-116{fill:#a38876;}.cls-117{fill:#9f8875;}.cls-118{fill:#cfc3b9;}.cls-119{fill:#d1c5bc;}.cls-120{fill:#6f4f37;}.cls-121{fill:#997d68;}.cls-122{fill:#9a826e;}.cls-123{fill:#d4c8bf;}</style></defs><g id="Layer_2" data-name="Layer 2"><g id="Layer_2-2" data-name="Layer 2"><path class="cls-1" d="M1.26,92.55C2.43,87.32,3.62,82.08,5,76.93c1.14-4.14,3-8.12,4-12.32.44-1.89,1.71-3.2,2.56-4.79,1.63-3,1.87-6.78,4.74-9.18.27-.22.33-.76.39-1.17,1-7.83,6.53-13.18,11-19a14.07,14.07,0,0,1,11-5.79c5.13-.2,10-2.45,15-3.33a1.19,1.19,0,0,1,1.13-.1c.42.86,0,1.52-.52,2.16-1.85.93-3.57,2.11-5.51,2.87-1.69-.55-3.15.3-4.67.76a15.3,15.3,0,0,0-4.2.52c-.35.13-.7.23-1.05.34a9.72,9.72,0,0,1-1.08.35c-3.44.79-5.79,3.09-5.61,6.42.2,3.72-1.53,8.5,3.78,10.59a3.54,3.54,0,0,1,2.47,2.68c.22,1.64,1,2.56,2.74,2.57.55,0,1.46,0,1.54.47.78,4.32,4.19,3.29,7,3.61,1.78.2,2.87,1.6,4.11,2.77,3.71,3.51,5.94,2.86,9.25-1,2.49-2.92,3-7.89,8.05-8.44.73-.08.44-1.25.79-1.8,1.38-2.2,2.21-5,5.33-5.47a2.63,2.63,0,0,1,1.55.94,4.12,4.12,0,0,1,.48,1.12c.26,1.35.22,2.78,1.15,3.94a4.31,4.31,0,0,1,.16,4.15,12.15,12.15,0,0,0-6.76,6.68c-1.25,2.74-2.67,4.94-6.27,3.49-.46-.19-1,.35-1.45.69-2.19,2.65-5.8,3.25-8.14,5.79-1.48,1.61-9.19,0-10.24-2.21-1.26-2.62-3-3.86-5.88-3.92-2.55,0-4.31-1.28-4.41-4.1-.06-1.47-.93-2.18-2.17-2.8-1.93-1-4.92-.85-4.26-4.6.18-1-2-1.11-3.22-1.16a2.51,2.51,0,0,0-2.6,2.31c-.27,1.5,0,3.14-1.25,4.36-3.35,3.94-3.56,9.07-5.15,13.67a169.78,169.78,0,0,0-5.58,21.48c-1.24,6.07.95,10.9,4.8,15,1.7,1.78,4.23.22,5.86-1.46,4-4.1,5.06-3.87,7.48,1.44a12.15,12.15,0,0,1,1.33,6.89A8.1,8.1,0,0,0,35,118.81c.35.45.87,1,.8,1.45-.8,6.28,3.93,10.43,6,15.62.25.65.42,1.51,1,1.82,4.68,2.51,3.39,6.79,3.24,10.71-.05,1.12-.66,2.38-.06,3.31,1.85,2.83,4.32,5.34,2.36,9.23-.43.84.89,1.23,1.76,1.2,2.52-.09,2.51,1.67,2.58,3.4.08.38.13.76.18,1.14,2,3.58,2.83,7.56,3.66,11.53a28.07,28.07,0,0,1-.06,8c-.64,1.63-.4,3.45-1.1,5.06-2.56,2.28-4.68.65-5.17-1.55-1.37-6.14-6.23-11.16-5.53-17.92a3,3,0,0,0-1.95-3c-3.76-1.55-3.17-3.59-.13-6.27-2.93-.12-3.68-1.77-4.19-3.8a10,10,0,0,0-3.12-5.1c-2.38-2.2-3-5.61-2-9a1.63,1.63,0,0,1,.92-.57c.77.22,1.09.87,1.44,1.49a6.05,6.05,0,0,1,.36.92c.13.45.24.9.39,1.34.12.25.23.52.34.78a6.1,6.1,0,0,0,.38.68s.22.23.22.19a.67.67,0,0,0,0-.72,151.37,151.37,0,0,0-7.4-21.12c-.47-1-.45-3.45-2.89-2.34-1.46,4.47-1.46,4.47-5.29,2.61-.35.06-.42.27-.44.61-.1,1.89.57,4.59-1.91,5s-4.24-1.73-5.07-4.19c-1.74-5.2-1.82-10.73-3.36-16-1.87-6.36-2.71-13-4.73-19.36C5.12,90.61,2.72,93.55,1.26,92.55Z"/><path class="cls-2" d="M163.08,97.77a.6.6,0,0,1,.72-.21,2.74,2.74,0,0,1,2.79.12c-.47,2-2.17,2.06-3.53,2.74,3.13-1.42,6.5-.26,9.72-1a2,2,0,0,1,2.39,1.26c-.29,1.32-1.48,1.74-2.41,2.43a9.29,9.29,0,0,1-1.6.66l-1.6.67c-4.82,1.7-10.15,2.17-13.87,6.45-1.29,1.49-3.36,2-4.9-.59-1.9,4.57-4.58,8-9.52,9-.54.11-1.31.33-1.47.75-2.57,6.52-10.74,6.32-14.16,11.82a3.57,3.57,0,0,1-2.56,1.37c-2.46.4-3.6,2-4,4.29a8.45,8.45,0,0,1-.39,1.1,8.9,8.9,0,0,0-1.14,3.9c-2,7-4.36,13.89-9,19.72-2.2,2.78-3.16,6.26-5.18,9.14-.9,1.29-1.36,3.26-3.64,2.85-1.53-1.59,0-2.83.47-4.19.3-.91,1-1.95-.19-2.61-.91-.5-1.78.29-2,1-1.55,4.11-6,5.73-8,9.53-1.19,2.28-3.56,3.33-6.17,4-6.52,1.73-12.11,4.76-14,12a49.06,49.06,0,0,0-4,7.9c-.58,1.33-1.21,3.32-3.17,2.65-1.75-.6-1.41-2.55-1.34-4.07.11-2.41,1.37-4.55,1.73-6.94.33-2.22-.84-1.88-2.16-1.58-1.23-.64-.77-1.56-.41-2.46a6.38,6.38,0,0,1,.61-.86c.11-.13.23-.25.33-.38a4.84,4.84,0,0,0,.77-1.22c.14-.46.3-.92.48-1.36s.42-.9.64-1.35a6.25,6.25,0,0,1,.53-.9c.21-.31.43-.59.66-.88l.34-.44c4-5.76,8.26-11.32,13.88-15.65,2.74-2.64,4.63-6.06,7.23-8.71,7.41-7.55,12.77-17,21.8-23,6.34-3.3,6.93-9.41,7.46-15.47a8.76,8.76,0,0,1,1.44-4.73c2.46-3.39,1.08-7.47,1.34-11.12a126.81,126.81,0,0,0-1.92-30c-.91-5.33-4.94-9.13-6.78-14-.7-1.84-1.93-3.52-.76-5.57,3.85-.27,5.48,2.69,6.51,5.37A95,95,0,0,1,119.5,74c1.49,7.26,3.13,14.46,2.81,21.91-.09,2.14,1.61,1.81,2.52,2.59,1.15,2.57.82,5.22.13,7.76a51.83,51.83,0,0,0-1.69,11.61,34,34,0,0,1-.78,4.54,4.49,4.49,0,0,0,3.47-1.33,17.34,17.34,0,0,1,6.09-3.6,7.14,7.14,0,0,0,2.95-2.31c4.36-4.5,9-8.44,14.91-11.06,3-1.32,5.71-3.39,8.77-4.76a6.89,6.89,0,0,1,3.18-1A2,2,0,0,0,163.08,97.77Z"/><path class="cls-3" d="M227.46,189.9c0,1-.21,2.16-1.16,2.5-5.08,1.79-6.77,6.65-9.62,10.44-.5.67-.83,1.39-1.7,1.62a8.86,8.86,0,0,0-6.52,6c-1.09,3.18-3,3.29-5.4.86-4.86-4.92-5.39-4.9-10.06.41-.85,1-1.69,2.28-2.93,2.28-4.77,0-8.68,2.93-13.23,3.59a3.31,3.31,0,0,0-2.58,1.21c-.78,1.17-.54,3.58-2.78,3-2.54-.65-5.35-.87-7.29-3-.85-.94-1-2.84-3.08-1.86-1.79.84-3.27,1.85-3,4.08.25,1.71-.09,3.2-1.64,4-7.14,3.74-12.83,9.57-19.82,13.56-3.12,1.78-6.52,2.6-9.72,4.05s-6.54,2.64-8.94,5.9c-2,2.65-5.72,1.67-9,1.7.58,2.24-.07,4.41.37,6.63s-1.25,2.51-3,2.51c-4.64,0-9.29.08-13.69-1.75a2.62,2.62,0,0,0-1.65.19c-.85-.54-1-1.86-2.47-1.78-1.74.1-2.59-1.33-3.4-2.63-.3-.22-.59-.45-.87-.68h0a1.08,1.08,0,0,1-.14-1.12,2.88,2.88,0,0,1,2.08-1.26c.55-.08,1.24.2,1.65,0,4.56-2.46,10.46-2.12,14.27-4.52A36,36,0,0,1,113,241.15c9.49-.71,15.51-7.54,22.45-12.74.93-.7,1.07-1.93,1.43-3a4.36,4.36,0,0,1,.61-1c1.36-1.15,2.73-2.28,4-3.54a13.16,13.16,0,0,1,1.95-1.37c4.1-4,10-4.21,14.68-7.1,3.89-2.39,7.95-4.52,12.92-4.53,3.49,0,6.62-2.54,8.3-5.27,2.63-4.29,6.18-4.09,9.84-3.13A12.77,12.77,0,0,0,199.68,198c1.32-.82,2.69-.64,4.07-.71,2.08-.1,4.48.93,5.21-2.57.31-1.54,2.52-1.47,4.1-1.34a10.57,10.57,0,0,0,8.86-3,6.67,6.67,0,0,1,5.69-2.17A1.28,1.28,0,0,1,227.46,189.9Z"/><path class="cls-4" d="M232.52,165.28c-.27.61-.55,1.22-.83,1.83-1.08,1.56-1.13,3.45-1.68,5.18-2,6.33-6.86,9.66-12.78,11.63-2.53.84-5.13,2.79-7.92.49a.41.41,0,0,0-.41,0c-6.57,6.34-14.31,1.8-21.52,2.3a9.68,9.68,0,0,0-2.87.61c-3.83,1.52-7.42,1.83-10.25-1.92-.81-1.09-2-.68-3.11-.93-1.49-1.69.38-2.49.94-3.63a1.21,1.21,0,0,0,.08-1.23,4.49,4.49,0,0,0-.76-.53,13.52,13.52,0,0,0-1.53-.47c-11.37-.8-21.87,2.76-32.36,6.36C131,187.2,125,190.61,118.61,193a1.75,1.75,0,0,1-1.56-1c.15-3.25,3.4-3.86,5-5.87,3.94-3,8.35-5.4,12.3-8.44l.86-.72.42-.38c.26-.27.53-.53.8-.79l.4-.41c4.55-4.14,8-9.33,12.9-13.17,1.76-1.62,4-2.81,4.44-5.54a4.06,4.06,0,0,1,1.67-2.29c.28-.26.59-.5.89-.74l.44-.39a12,12,0,0,1,3.09-2.19c3.28-1.41,4.47-.53,4.14,3-.34,3.77,1.17,6.71,3.79,9.36,1.07,1.08,1.28.35,1.87-.14a9.87,9.87,0,0,1,3.08-1.35c5-1.77,6-1.32,6.74,3.79.54,3.91,4.14,6.15,6.31,9.09a21.38,21.38,0,0,0,6.19,4.94c5.53,3.27,9.46,3.17,14.26-1.12a65,65,0,0,1,13.74-9.1,73.91,73.91,0,0,0,10.48-6.57,1.52,1.52,0,0,1,1.95-.13C233,163.76,233.18,164.57,232.52,165.28Z"/><path class="cls-5" d="M201.26,221.93l-.88.24c-.61,0-.54.63-.81,1a.56.56,0,0,1-.22.75,1.25,1.25,0,0,1-.64.62l-.83.26c-.71.69-1.89,0-2.54.83l0,0c-.74.63-1.78.1-2.53.66l-1.75.17c-.28.26-.54.53-.8.82h0c-.32.29-.72.53-.65,1.05l0,0c-.6,0-.84.41-1,.9-2.26,3.6-4.75,7-9,8.46a4.4,4.4,0,0,0-1.08.64c-4.16,3-4.16,3-8.09,1-2.59,3.81-6.59,6.31-9.4,10-1,1.26-2.69,1.35-3.88,1.32-4.19-.09-6.84,2.34-9.11,5.19a19.29,19.29,0,0,1-5.6,4.63,4.68,4.68,0,0,1-3.12.84,6.56,6.56,0,0,0-4.12.42,2.84,2.84,0,0,1-3.15-.54c-2.08-1.56-4.08-1.65-5.94.38a2.56,2.56,0,0,1-3.75.38,3.8,3.8,0,0,0-4.65-.26c-2.32,1.34-4.64-.46-7-.37-.84-1.42-.86-1.44-.48-1.81a12.69,12.69,0,0,1,4.38-2.5,13.62,13.62,0,0,0,7.28-6.06c2-3.35,6.12-3.7,9.22-5.52a27.77,27.77,0,0,0,5.25-3.44c5.18-4.86,11-8.6,18.09-10.12a9.36,9.36,0,0,0,3.72-1.94c2.84-2.17,5.52-3.82,9.62-2.52,2.35.75,5.43-1.34,7.92,1,.28.26.75-.15,1-.48,3.72-4.62,9.25-4.74,14.39-6,4.74-1.17,9.57-2.4,13.14-6.24,1-1,2-2.57,3.88-1.8,0,.6.07,1.21-.43,1.67a1.15,1.15,0,0,1-.61.67l-.15.15c-.21.33-.42.65-.64,1L206,218a1.25,1.25,0,0,1-.6.7l-.07.11c-.41.48-.28,1.22-.74,1.68l0,0a2.68,2.68,0,0,1-.79.59l-1.64.3A8.33,8.33,0,0,1,201.26,221.93Z"/><path class="cls-6" d="M208.18,213.74c-.38.19-.9.27-1.11.56-3.23,4.48-8.17,6.16-13,8-.65.25-1.38.72-2,.61-3.53-.67-6.45,1.47-9.7,2.09-2.54.48-5.15,1.73-5.21,5.16,0,.29-.55.56-.81.81-.88-.21-1.05-.89-1.43-1.49-1.13-1.79-2.88-2.4-4.48-1.48s-3.17,2.68-4.56-.35c-.3-.64-1.32-.34-1.92,0-1.64,1-3.67,1.19-5,3a5.87,5.87,0,0,1-4.39,2.29c-5-.08-8.08,3.93-12.32,5.42a11.31,11.31,0,0,0-4,3c-2.13,2.18-4.07,4.45-7.47,5.08-2.33.43-3.85,3.14-6.72,3.05-.88,0-1.34,1.38-1.65,2.29-1,2.94-3.34,4.4-6,5.5-1.8.74-3.59,1.51-5.36,2.33-.66.31-1.22.81-.34,1.54-1.45,2.52-3.51.46-5.26.68a1.9,1.9,0,0,0-2.52.82l-.87,0a8.31,8.31,0,0,0-.92-.63l0,0c-1-1.11-2.57-.17-3.72-.85h-.33L97,261l-.91-.61L94.5,260a.85.85,0,0,1-.49-.54,1.36,1.36,0,0,0-.57-.46,1.33,1.33,0,0,1-.61-.4l-.89-.16-.89-.66h0c.21-1.09.72-2.12,1.94-1.4,3.54,2.1,7.46,1.77,11.28,1.9.85,0,1.66.22,2.48.22,2,0,2.27-.43,1.22-2.48-.25-.49-.93-1.1-.56-1.45,2.3-2.16-.07-3.61-.81-5.12.64-1.26,1.45-.89,2.26-.65a11.24,11.24,0,0,0,7.44-.22c.64-.25,1.44-.31,1.69-1.09,1.08-3.42,4.09-3.95,6.94-5.13,7.27-3,14.89-5.41,20.6-11.41,2.76-2.9,6.77-4.19,10.09-6.4,1.18-.77,2.17-1.2,1.48-3.23-.86-2.55.23-4,2.93-5,.94-.37,1.68-1,2.57-1.4,1-.45,2.16-.49,1.79,1.12-.53,2.32.89,3,2.61,3.52.92.27,2,0,2.85.6.67.48,1.28,1.13,2.18,1.07,1.37-.5.27-1.46.47-2.16.37-1.32,1.14-2.52,2.48-2.52a10.81,10.81,0,0,0,6.78-1.82c2-1.39,5-1.36,7.72-1.35,1.41,0,2.33-1.52,3.05-2.71a10.18,10.18,0,0,1,2.42-2.9c3.06-2.36,5.2-2.06,7.54,1,.08.11.16.23.23.35.77,1.34,1.58,3.19,3.15,3s1.54-2.2,2-3.63a6,6,0,0,1,7.08-4,4.67,4.67,0,0,1-2.34,3.25C210.23,209.13,209.39,211.54,208.18,213.74Z"/><path class="cls-7" d="M34.35,144.24c-1.76,3.37-.18,6.46,1.6,8.91,2.11,2.91,3,3.36,3.68,6.86.18.9.48,2,1.46,1.39,2.36-1.38,1.77.91,2.16,1.67.57,1.11-.14,1.86-1.27,2.11-.55.13-1.57-.5-1.35.75.11.63.4,1.48,1.22,1.53,2.38.15,3.46,1.55,3.85,3.71.08.41.35.89.21,1.21-1.58,3.71,1.13,6.22,2.41,9.17A30.31,30.31,0,0,1,50.4,188c.48,2.52,1.75,3.7,4.27,3.61,1.87,1.87.69,4.49,1.61,6.59a10.13,10.13,0,0,1,0,4.74,6.38,6.38,0,0,1-1.17,2.29c-2,2-3,.34-3.63-1.3-1.59-4.2-3.54-8.23-5.32-12.33a56.47,56.47,0,0,0-5.9-9.94,26.43,26.43,0,0,1-4.83-14.06c-.06-1.67.23-3.36-.18-5-.44-3-2.54-5.29-3.33-8.16-.39-1.4-1.48-1.63-2.51-.38-1.43,1.76-2.86,3.09-5.25,1.26-.49-.38-.2.65-.34,1-.4,1-1,1.78-2.11,1.74s-1.27-1-1.52-1.77c-1.17-3.61-3.55-6.34-6.31-8.8-1-.85-2-1.76-2.18-3-.79-5.5-5.14-9.71-5.52-15.36,0-.54-.48-1-1.33-1.08.45,2.73-.43,4.26-3.48,3.49-1.12-6.75-2-13.5-.83-20.34.25-3.11.6-6.14,4.48-6.93,1-.2,2.21-.48,2.48.72a57.2,57.2,0,0,1,1.65,11.65c-.43.28-.77-.61-1.22-.1a1,1,0,0,1,.8.44,3.38,3.38,0,0,1,.45,2.41,13.94,13.94,0,0,0,3.19,10.31c2.75,3.63,4.12,8.4,6.15,12.64.41.87.46,1.89,1,2.76,1.34-.4,1.35-1.82,2.23-2.46a3.58,3.58,0,0,1,1-.64c1.55-.23,2-1.17,1.95-2.66-.1-4.08,2.43-7.16,4.2-10.51C32.05,133.47,34.83,138.27,34.35,144.24Z"/><path class="cls-4" d="M76.5,247.66a10.55,10.55,0,0,1-4-3.55c-.55-.38-.32-1.23-.94-1.57l0,0a5.94,5.94,0,0,0-.71-.94l0-.06c1.08-2.69,2.36-.5,3.43,0,1.36.58,2.49,1.17,2.36-1.12s1.4-2.19,2.81-2.15c5.9.2,11.62-1.36,17.47-1.62a2.67,2.67,0,0,0,2-.65c3.07-3.7,8.25-3.63,11.76-6.69a9,9,0,0,1,5.84-2.16c3.86.1,7.21-2.12,11-2.21,1.78-.05,2.66-1.63,2.82-3.23a3,3,0,0,0-2.86-3.14c-3-.45-4.11-1.79-3.92-4.77.12-1.79-1.19-2.66-3-2.88a5.62,5.62,0,0,1-5.25-4.73,5.21,5.21,0,0,1,3.43-6.09c5.47-.87,10.74-3.17,16.45-2.28.4,1.81.4,1.81-2.17,2.1,1.93,2.26,3.73,4.55,1.6,8,4.3-2.87,5.46-2.92,8.82.74,1.87,2,1,4.33-.82,6.31-1.56,1.73-.65,4-1.07,6a15,15,0,0,1-3.83,3.7h0c-1.11,2.55-3.09,3.66-5.81,4.22s-6.34.47-7.3,4.51c-.35,1.48-2.09,1.09-3.29,1.35a8.75,8.75,0,0,0-5.09,2.11c-4.23,3.23-9.45,4.28-14.64,4.34-2.82,0-4.41.93-5.44,3.33-1.65.91-3.27.26-4.91,0-2-.5-3.75-.85-4.35,2.05A2.9,2.9,0,0,1,83,248.82C80.86,248.24,78.58,248.52,76.5,247.66Z"/><path class="cls-8" d="M232.55,162.88c-2,1.74-4,3.55-6.05,5.19-1.19.93-2.19,2.83-4.25,1.29-.55-.41-1.11.19-1.41.61-1.48,2.13-5,2.22-5.39,5.48,0,.38-.48.83-.93.63-3.71-1.69-4.94,2-7.1,3.4-5.31,3.49-8.14,5.35-14.5,2-3-1.56-4.56-5-8.14-5.53-.37-.06-.83-.83-.91-1.33a5.54,5.54,0,0,0-3.49-4.68c-1.9-.87-1.62-3.62-1.81-5.67-.22-2.47-.51-2.67-2.9-1.84-1.06.36-2.16.57-3.23.89a5.9,5.9,0,0,0-1.57.58c-1.84,1.18-2.15.48-4.23-.61-3.74-2-2-6-4-8.56-.49-.63.6-1.09,1.1-1.53s.76-.87.34-1.43a1.48,1.48,0,0,0-1.51-.45c-2.24.27-3.64,2-5.41,3.09-1.15-2.65,1-3.49,2.6-4.38,2-1.06,4-2,6-2.88,1.09-.48,2.49-.83,2.21-2.56,2.62-1.46,4-4.84,7.53-4.9,1.31,1.58-.3,2.46-.92,3.5-1.32,2.23-3.11,4.18-4,6.62a.45.45,0,0,0,.26.57,2,2,0,0,0,.7-.25c.23-.17.46-.33.67-.51l.32-.32c.22-.25.44-.48.67-.72s.24-.24.35-.37c.84-.72,1.71-1.93,2.83-1.41,1.41.65.68,2.22.75,3.41a2.31,2.31,0,0,1-.35,1A5.32,5.32,0,0,1,175,152c-.27.13-.56.23-.83.34a6.12,6.12,0,0,0-1.13.6c-.21.2-.41.4-.6.62s-.35.49-.54.73a6.62,6.62,0,0,1-1,1,3.33,3.33,0,0,0-1.12,1.62c1.71,3.7,5.08,1.88,7.75,2.35,3.15.34,6.37-.56,9.45,1.36,2,1.23,2.83,2,2.17,4.5-.89,3.35,0,4,3.25,2.65,2.29-.93,3.38.15,4.44,1.89,2.65,4.36,5,4.53,8,.26s7.45-4,11.46-4.55c2.35-.31,4.08-.51,5.07-2.65,1.07-2.32,3.18-3.58,5-5,2.7-2,5.05-4,5.42-7.63.07-.76.32-1.9,1.45-1.59.89.23.57,1.09.24,1.74a15.08,15.08,0,0,1-.12,5C232.33,157.72,233.66,160.42,232.55,162.88Z"/><path class="cls-9" d="M170.74,184.05c1.39.19,2.11-1.35,3.74-1.36.54,1.69.81,3.71,3.09,4.36a8.5,8.5,0,0,0,6.11-.53c2-.91,4.15-1.85,6.28-.15a10.61,10.61,0,0,1,9.41.94c3.26-1.45,7.94-.27,9.16-5.05,1.44-.31,1.48.84,1.84,1.44.77,1.28,1.68,1.2,2.86.7,1.87-.79,3.53-2.51,5.85-1.41,3.59-3.56,9.15-5.37,10-11.31.29-1.86.77-3.57,2.56-4.57l-.06,12.72c-.72,1.09.14,2.43-.56,3.52-6.19,3.06-11.9,7.41-19.28,7.39a10.81,10.81,0,0,0-4.91,1,4.61,4.61,0,0,1-5.19-.31c-1.75-1.38-3.38-.87-5.14-.17-4.26,1.69-8.24,4.16-13.19,3.74-2.17-.19-3.9,1.67-5.41,3-3.68,3.37-8.16,4-12.78,4.58-1.37.16-1.82-.58-2.08-1.54-.82-3-2.74-4.33-5.76-4.73-2.75-.35-3.18-2.85-3.77-5,1-2.4,3.36-2.65,5.34-3.5,2.92-1.26,5.87-2.44,8.84-3.57C168.72,184,169.69,183.45,170.74,184.05Z"/><path class="cls-10" d="M118.23,201.07c-3,3.49-2.9,6,.39,8.34a2.84,2.84,0,0,0,1.91.58c3.15-.08,4.75,1.58,4.2,4.79-.41,2.33.07,2.94,2.23,2,.9-.39,1.3.14,1.65.76.81,1.46,2.36,1.88,3.69,2.61,0,1.57-1.38,2.46-1.63,3.89-.2,1.09-1.27,2.3-2.35,2.13-3.64-.57-6.7,2-10.09,1.76-2.75-.21-4.57,2-7.13,1.88-.66,0-.74.58-.94,1.14a2.89,2.89,0,0,1-3.63,2.08c-1.81-.48-3.1-.07-3.85,1.56s-3.2,1.17-3.57,3.18c0,.18-.81.42-1.12.31-3.86-1.44-7.62,1.71-11.48.23a.92.92,0,0,0-.79.2c-1.94,1.87-4.09,1.36-6.3.64a2.69,2.69,0,0,0-1.17,0c-.83.16-1,.38-.86.73.37,1.09,1.78,2.12.25,3.31s-2.59.17-3.8-.6c-.9-.57-1.42-2.46-3-1l-.85-.9c-.58-.34-.34-1.22-1-1.5v0c.72-2.37,3.41-2.89,4.8-3,3.72-.41,7.28-1.9,11.22-1.29,4.72.73,8.64-2.14,12.51-4.32a19.74,19.74,0,0,1,7.88-2.71,14.45,14.45,0,0,0,8.51-3.31,3.75,3.75,0,0,0,1.61-2.82c0-2.73-4.73,0-3.92-3.54s-2.23-2.56-3.74-2.84c-5-.92-5.26-1.62-2.54-5.64,1.63-2.41,3.62-4.65,4.46-7.55a2.34,2.34,0,0,1,1.58-1.63,4.35,4.35,0,0,1,1.14,0c1.64.62,3.25-.36,4.89-.1A1.61,1.61,0,0,1,118.23,201.07Z"/><path class="cls-11" d="M233.46,150.29c-.08-.27-.09-.66-.27-.78-.53-.35-.69.13-.6.48.88,3.52-2,5.23-3.65,7.51-.82,1.16-2.58.89-3.62,2.42s-2.92,2.44-3.63,4.63c-.63,2-3.61,2.55-5.66,1.43a1.66,1.66,0,0,0-2.17.44c-1.38,1.21-2.51,2.76-4.6,1.06-.62-.51-1.31.16-1.75.73a23.37,23.37,0,0,0-2,2.65c-1.25,2.1-2.18,4.72-5.42,2.61-2.67,1.86-2.82-.34-3.52-2-1.82-4.39-2.59-4.45-5.86-.7-3.25-2.35-4.34-1.89-1.74-8.6-2.6,1.35-3.1-1.9-5.2-1.82s-4.22,0-6.33,0c.1-1.5,1.31-1.77,2.37-1.8,5.4-.17,10.63-1.84,16-1.85a7.83,7.83,0,0,1,5.08,1.73c5.86,5.11,11.52,4,14.92-.94a11.32,11.32,0,0,1,4.49-3.81c5.34-2.47,7-7.86,10.13-12.12.69-.94.19-2.21.33-3.32s-.49-3,1.69-3.23a.55.55,0,0,1,.16.64c.55.82.1,1.87.62,2.7C235.48,142.25,235.91,146.24,233.46,150.29Z"/><path class="cls-12" d="M36.06,162.87a4.43,4.43,0,0,1,.46,3.91c-.84,2.58.56,4.57,1.15,6.7s1.79,3.77,2.07,5.9c.09.66.51,1.72.93,1.81,2.73.52,2.43,3.3,3.78,4.74,1.75,1.87,1.89,4.33,3,6.37a81.7,81.7,0,0,1,5,11.89c.37,1,.88,1.78,2.11,1l.42.51c.3,2.16-.24,3.94-2.27,5.06-4.12-1.2-4.11-5-5.17-8.14-.82-5.63-3.61-10.52-6.07-15.51-.38-.76-.79-4.22-3-.78-.8,1.23-2.14-.57-2.81-1.52-1.23-1.76-2.43-3.44-4.85-3.51a5.24,5.24,0,0,1-2.8-3c-3.13-6.8-8.49-12-12.91-17.84-1.64-2.17-3,1.07-4.43-.12-.25-2.74-2.21-4.91-2.57-7.61a.46.46,0,0,0-.26-.76.73.73,0,0,1-.5-.95.49.49,0,0,0-.31-.76c-.94-.72-.42-1.74-.54-2.63a2.82,2.82,0,0,0-.1-2c-.55-1.58-.09-2.84,1.47-3.41s2.28.49,3.1,1.55c2.56,3.29,5.06,6.59,6,10.81.85,3.92,5.45,4.22,7,7.51C29.36,156.58,32.3,156.85,36.06,162.87Z"/><path class="cls-13" d="M8.1,116.28c.51-.08,1.48-.4,1-.75-1.83-1.42-1.57-3.09-1.59-5.11,0-1.77-1-3.59-.68-5.46-1.36-.58-1.81.78-2.71.93-2.25.36-3,1.76-2.86,3.86a1.79,1.79,0,0,1-.74,1.43,45,45,0,0,1,.54-14.55l.06-.09A.35.35,0,0,1,1.29,96c.24-.17.33-.35.27-.55s-.13-.3-.2-.3c-.27-.84-1-1.66-.1-2.56a18.15,18.15,0,0,0,1.85-1c2.23-1.46,3.62-1.11,4,1.38.73,4.52,3.24,8.66,2.73,13.45-.22,2.08,2.76,2.95,2.59,4.41s-1.15,3-.24,4.69c1.54,2.88,1.65,6,1.86,9.24a10,10,0,0,0,3.9,7.7c1.14.83,2.38.32,2.26-1.07-.16-1.79.13-3.48.1-5.18,1.94,0,2.7,1.69,4.15,2.23,1.32-.95,1.39-2.33,1.43-3.72,2.43.5,2.84,2.18,2.51,4.3.07,2.28.06,4.48-1.92,6.19a3.18,3.18,0,0,0-.91,3.11c.39,1.54-.33,3-.06,4.47l-3-.23q-.95,2.11-1.9,4.23a1.11,1.11,0,0,1-1.38.62,1,1,0,0,1-.8-.87,18.09,18.09,0,0,0-4.66-10.58,1.75,1.75,0,0,1-.45-1.16c.33-2.88-.92-4.76-3.37-6.17-1-.59-1.21-1.82-1.55-3.1C7.56,122.37,8.48,119.33,8.1,116.28Z"/><path class="cls-14" d="M110.58,201.81a5.84,5.84,0,0,1-1.67,4.45c-1.63,1.85-2.69,4.23-4.53,6.1-.94,1,.9,1.93,1.53,1.78,1.93-.45,3.52.49,5.26.72,1,.13,2-.19,2.51.94.72,1.48-.54,1.95-1.33,2.68-.15.14-.14.46-.19.69.4.38.78.08,1.16,0,1.09-.35,2.45-.82,2.92.57s1.18,2.74-.2,4.3c-2.93,3.29-6.67,4.57-10.83,4.9a13,13,0,0,0-7,2.51c-3.33,2.42-7.37,3.51-11.19,5-.85.32-1.64-.32-2.45-.39-2.18-.19-4.49-1-6.42.82a1.54,1.54,0,0,1-1.55.42c-1.72-.56-3.47-1.52-3.92,1.47-.07.47-1,.39-1.52.15-.84-.38-1.61-.55-2.22.36-1.32-.77-1.66-2.26-2.5-3.38,2-3.08,5.44-2,8.21-2.84,4.62,1.36,8.33-1.87,12.55-2.59,3.71-.64,7.36-1.83,11-2.7,4.21-1,4.89-2.26,3.79-6.47a3.76,3.76,0,0,1-.11-2.07c.56-1.82.45-2.78-2-2.73-1.78,0-2.9-1.11-1.64-3.12.76-1.22.74-2.71,1.34-4a3.5,3.5,0,0,1,1.22-1.34c2.22-1,3.66-3,5.44-4.54C107.54,202.39,108.55,200.67,110.58,201.81Z"/><path class="cls-15" d="M232.48,134.94a1.73,1.73,0,0,0-.72,1.45c1.11,7.46-4.94,11.5-8,17a12,12,0,0,0-5.86,3.49c-.72.73-2,1-1.62,2.57.16.59-.41,1.31-.89,1.2-2-.41-2.77.71-3.6,2.14a1.33,1.33,0,0,1-2.16.34c-1.74-1.56-4.42.52-6-1.57a4.91,4.91,0,0,0-1.08.53c-.64.35-.91.24-1-.57-.27-2.73-2.05-3.69-4.56-3.74-.21-1.59,1.34-1.89,2-2.82.51-.48,1-.95,1.55-1.4l.42-.32a10.5,10.5,0,0,1,.9-.57c.62-.38,1.2-.82,1.83-1.18a4.15,4.15,0,0,1,1.1-.35c2.38-.68,3.56,1.87,5.74,2.08,5.46.51,8.6-3.35,12.41-8.27,3.93-5.09,4.11-11,4.3-16.91a4.31,4.31,0,0,1,1.14-2.65c.9-.85,1.74-1.17,2.38.26C231.31,128.71,231.89,131.82,232.48,134.94Z"/><path class="cls-16" d="M175,101c-.36-.47-.82-.9-1.4-.79-4.19.79-8.65-.28-13,2.21.52-3.45,3.63-3,5.19-4.41-.56-.59-1.32-.34-2-.48a51,51,0,0,1,14.57-3.16,59.14,59.14,0,0,0,9.35-1.33c3.9-1,7.95-1.43,11.84.4.56.48,1.31.4,2,.64a.4.4,0,0,1,.49.32c.05,1.35-1.1,1.64-1.93,1.66-2.55,0-3.46,1.82-4.38,3.66a6.2,6.2,0,0,1-.81.81c.39-.12.49-.54.84-.75,3.48,0,4.19,3.2,5.54,5.27.85,1.3-.27,3.25-2.18,3.93-7.58.08-7.59.08-10.8-7.31a4.11,4.11,0,0,0-2-2c2.18,1.78,1.4,2.64-.37,3.26a3.66,3.66,0,0,1-1.14.16c-1.44-.31-2.71-1.14-4.19-1.33-.36-.07-.7-.17-1.05-.27C178.09,100.81,176.39,102.22,175,101Z"/><path class="cls-17" d="M36.06,162.87c-.72-.44-2.06-.9-2.05-1.32.08-3-2.69-2.16-3.91-2.48-1.72-.44-3.22,1.4-4.6,2.58-.76.66.79,1.87-.35,2.59-1.13,0-1.43-.82-1.88-1.52a7.52,7.52,0,0,0-3.55-3.23c-3.09-1.32-4-4.45-4.78-7.38-.56-2-.84-4-3.08-5.13-.94-.48-1.3-2.1-1.91-3.21-.44-.81-1-1.44-2-.94-.78.41-1.39,1.3-1,2.09.61,1.14,1,2-.46,2.68a33.74,33.74,0,0,1-3.37-8.48c1.2-2.21.16-4.05-1-5.87a1.6,1.6,0,0,1-.78-1.73l2.93-1.35c.07-1.51-2.28-1.54-1.61-3.35,1.45-.8,2.8.76,4.29.19.77,4,1,8,3.79,11.1a2.63,2.63,0,0,1,.69,1.5c.15,4.81,3.5,7.65,6.52,10.68a16.17,16.17,0,0,1,3.72,7.22c3.05-.69-.47-3.86,2.11-4.8l1.59,3.14c.83-1.29,3-.34,3.05-2.43a1.78,1.78,0,0,1,1.9-1.86c1.25.08,3,1.16,2.83,2-.6,2.66,1.79,3.93,2.21,6.05A12,12,0,0,1,36.06,162.87Z"/><path class="cls-18" d="M124.83,98.5a4.38,4.38,0,0,0-3.77,1.67c0-4.4.39-8.25-.16-12-.3-2,1.12-4-.3-5.88a10.09,10.09,0,0,1-1.82-5.5c-.38-4.49-1.89-8.71-3-13a16.44,16.44,0,0,0-6.88-10.2c-2.81-.71-2.93-3.66-4.37-5.48s-3.21-4.1-3.65-6.78a1.21,1.21,0,0,1,.85-.79h.62a6.66,6.66,0,0,1,1.15.36c3.28,1.12,5.33,3.6,6.89,6.48,1.07,2,2.59,3.73,3.51,5.73,1,2.29,2.06,1.36,3.31.52,1.73,2.44,3.07,5,3,8.14a7.32,7.32,0,0,0,1,3.6c2,3.59,2.28,7.42,2.23,11.41,0,3,.92,5.79,1.72,8.63s1.07,5.45-.1,8.16a1.68,1.68,0,0,1-.44-1.64c.1,1.18-.49,3,.3,4.83Z"/><path class="cls-19" d="M229.17,112.23a7.86,7.86,0,0,0,4,1.27,2.67,2.67,0,0,1,2.81,2.07c.9,4.31-2.54,5.63-5.15,7.54-7.59,5.57-17.15,5.78-25.46,9.39a4.46,4.46,0,0,0-1.82,1,4.56,4.56,0,0,1-1.08,1.31,59.31,59.31,0,0,1-6.28,3.73c-.3.17-.62.31-.94.46l-.87.47-.4.27c-.26.2-.53.38-.8.56s-.55.33-.84.48a10,10,0,0,0-1.21.84,7,7,0,0,1-1.32.9c-1,.37-2.24,1.09-2.94-.22-.51-1,.44-1.78,1.07-2.5a10.47,10.47,0,0,1,2.2-1.89,9.23,9.23,0,0,1,.94-.59c.31-.19.63-.37,1-.53a23.75,23.75,0,0,0,2.74-1.83,79.36,79.36,0,0,1,13.72-7.35c.37,0,.51-1,1.06-.26-.69-.73-.81.43-1.3.4-1.31.61-2.64,2-3.84-.15.94-2.71,3.62-3.55,5.57-5.18a4.53,4.53,0,0,1,2.29-.68,2.13,2.13,0,0,1,1.06.5c2.33,3.62,4.68.88,6-.58,2.81-3.11,6.22-5.55,9-8.66A9,9,0,0,1,229.17,112.23Z"/><path class="cls-20" d="M204.58,95.23c5.59,1.94,11.19,3.89,16,7.56,1,4.42-3.35,5.7-5.25,8.65,2,1.1,4.08,1.8,4.81,4-.21,2.08-1.67,3-3.42,3.63a3.6,3.6,0,0,1-1.62-.72c-4-2.15-7-5-7.12-10-.06-3.24-3.52-3.22-5.07-5.1-1.32-1.59-4.59-1.93-3.75-4.83C199.82,96.07,202.41,95.73,204.58,95.23Z"/><path class="cls-21" d="M10.7,160.31a4.13,4.13,0,0,0,2.94-3.95c2.35,2.85,2.95,5.8,5.44,7.39,2.3,1.47,3,4.62,4.75,6.17,3.48,3.05,4.05,7.67,7.13,10.74A86.92,86.92,0,0,0,39.62,194c.77,1,1.51,2.07.94,3.46-1.27,1-2.15,0-2.92-.74-5.86-5.41-11.1-11.27-13.39-19.18A10.45,10.45,0,0,0,21.2,172c-.64,1.52,0,3.39-1.35,4.7C15.88,171.75,12.26,166.61,10.7,160.31Z"/><path class="cls-21" d="M204.58,95.23c-1.14.78-2.25,1.6-3.42,2.33-1.76,1.1-2.09,2.77-.39,3.24,2.81.78,4,3.73,6.8,4.31,2.62.54.32,3.46,2,4.52-.7,3.58,1.47,5.31,4.29,6.63a3.32,3.32,0,0,1,1.74,1.72,3,3,0,0,1-3.06,1.35,3.81,3.81,0,0,1-1.06-.5,13.62,13.62,0,0,0-10.09-3,3.55,3.55,0,0,1-4.08-2.86c-.39-1.5-1.14-3.54,1.35-4.33,2.54-2.76,2.55-3.12,0-5.39-.61-.54-1.23-.86-1.2-2,.05-1.49-1.34-1-2.21-1.12a20.49,20.49,0,0,1,.24-2.07,2.84,2.84,0,0,1,3-2.64c1.1-.09,2.56,0,3.51-1Z"/><path class="cls-22" d="M19.85,176.7c-.65-1.87.85-3.9-.56-5.8-.36-.49.56-1.31,1.33-.77,1.91,1.35,3.7,3.11,4.16,5.32,1.75,8.39,7.13,14.32,12.95,20,.8.77,1.7,1.43,2.56,2.15a2.39,2.39,0,0,1,1.5.91,27.57,27.57,0,0,1,3.74,7.5,17.93,17.93,0,0,0,5.83,9.05,1.83,1.83,0,0,1,.23,1.17,2.31,2.31,0,0,1-1.26,1.27c-2.24.37-3.17-1.31-4.29-2.72C43,210.92,41.53,206.15,39,202c-2-3.24-3.79-6.83-8.1-7.68h0c-.1-.45-.52-.65-.77-1A54.73,54.73,0,0,1,19.85,176.7Z"/><path class="cls-23" d="M48.77,25.66a10.31,10.31,0,0,1,5-2.62c1.49,4,1.75,4.28,5.56,2.33,3.61-1.85,8.33-2,10.44-6.33.19-.33.41-.65.62-1A37.47,37.47,0,0,0,74,10.25v0c1.61,0,1.5.95,1.07,2L75,15.51a4.43,4.43,0,0,1-.41,2.21c-.87,1.69-1.3,3.6-2.48,5.14-2.13,2.67-3.21,5.93-5,8.77-1.25,1.94-2,2.94-4.85,2.38-3.29-.63-6.92.47-10.36-.55a5.77,5.77,0,0,1-.94-.68c-1.36-1.78-5-2.06-3.74-5.58C47.45,26.45,48.18,26.14,48.77,25.66Z"/><path class="cls-24" d="M76,17.81c1,.28,2.05.72,2.18-.85s0-3.08.08-4.62a39.11,39.11,0,0,1,1-10.4l.61-.24a2,2,0,0,1,.86.93,13.67,13.67,0,0,1,.4,4.59c.08,10.73,4.24,20,10.19,28.63A5.64,5.64,0,0,1,91.9,37c.89,4.22,1.73,8.44,4.23,12.11a4.07,4.07,0,0,1,.67,3.57c-.29.63-.68,1.09-1.47.89a7.68,7.68,0,0,1-3.23-3.23c-3.38-8.31-10.37-15-11-24.53-.16-2.21-1.74-3.76-3.34-5.16C77.14,19.72,75.18,19.59,76,17.81Z"/><path class="cls-25" d="M79.37,1.1c1.91-1.57,2.31-1.52,4.26.53A115,115,0,0,0,97.09,26c.89,1.24,1.59,2.71,3.3,3.08l7.76,9.25c.41,1.39.76,2.83-.9,3.63s-2.42-.74-3.44-1.62c-2.88-2.49-4-6.4-7.12-8.68a5.41,5.41,0,0,1-.89-.76c-.5-.61-1-1.24-1.46-1.84a76.92,76.92,0,0,1-14-27.31A5.39,5.39,0,0,1,79.37,1.1Z"/><path class="cls-26" d="M75,234c-3,0-5.64,1.27-8.48,1.84-1.23-1.79-3.65-.3-5-1.81,1.85-.65,2.21-1.33,1.92-3.58a2.23,2.23,0,0,1,1-2.54c4-.31,7.9,1.61,11.92.36a45.19,45.19,0,0,0,10.49-7.79c1.26-1.18,2.2-3.11,4.49-2.55.93,2.72-.88,4.53-2.28,6.37a44.65,44.65,0,0,1-5,5.12A30.22,30.22,0,0,1,75,234Z"/><path class="cls-27" d="M91.11,243.34c1.7.26,3.29,1.13,5.08.84,1.37-.11,3.16.7,3.46-1.67,0-.39.38-.9.76-.93,4.13-.31,8.19-2.82,12.41-.44l.31.5c-1.24,2.28-3.17,1.91-5.09,1.25-1.58-.54-2.41-.16-2.55,1.56-.17,2-1.43,2.46-3.27,2.9-1.3.31-2,1.76-3.91.67a4,4,0,0,0-5.77,1.56c-1.06,1.72-2.83,2.74-5,1.7-1.19-.56-2.16.07-3.16.53a.76.76,0,0,1-1,.08h-.37l-.31-.2a2,2,0,0,0-1.24-.61l-.28,0-.16-.23-.84-.77,0,0c-.26-.28-.53-.54-.81-.8l-.84-.14c.34-2.48,2.45-1.35,3.18-1,4,1.8,6.25,0,8.1-3.27A9.53,9.53,0,0,1,91.11,243.34Z"/><path class="cls-28" d="M96.19,30.73c1.6.19,3.07.75,3.65,2.35,1.08,3,3.48,4.92,5.37,7.27.42.52.7,1.31,1.58,1a1.46,1.46,0,0,0,.93-2,.87.87,0,0,1,.43-1.05c2.72,3.53,5.58,7,7.43,11.09-.09.27-.67.67.19.67a7.13,7.13,0,0,1,1.44,3.59c-1.26.84-.06,2.9-1.84,3.6-2.28-3.58-4.71-7.07-6.77-10.77A10.66,10.66,0,0,0,103,41.74c-.26-.3-.57-.55-.85-.85h0c-1.63-2.07-3.73-3.74-5.1-6C96.26,33.61,95.06,32.39,96.19,30.73Z"/><path class="cls-29" d="M219.94,115.5c-2.31-.76-3.4-3.92-6.64-2.73.34-2.41,2-3.42,3.16-4.14,2.29-1.49,3.24-3.54,4.08-5.84,2.67,3.34,6.54,5.57,8.63,9.44a.9.9,0,0,0,0,.46c-1.81,1.74-4.28,1.85-6.47,2.68a13.44,13.44,0,0,1-1.69.41A1.47,1.47,0,0,1,219.94,115.5Z"/><path class="cls-30" d="M30.88,194.33c.87-.24.73-2.28,2.81-.34A38.63,38.63,0,0,1,43,208c1.18,2.85,3.21,5.21,4.91,7.75a2.89,2.89,0,0,0,2.5,1.3,3.83,3.83,0,0,1-.1,4.55A35.32,35.32,0,0,1,42,210.85C39.08,204.83,35.76,199,30.88,194.33Z"/><path class="cls-26" d="M70.78,18.87c-.75,2-2.27,3.41-3.67,4.91-.28.29-.76.75-1,.67C63,23.46,60.93,26,58.54,27c-1.94.8-3.47,1.05-4.93-.07s.5-2.54.19-3.87c.2-.53.74-.94.56-1.61.53-.61,1.65-.19,2-1.12.12-.42.46-.48.83-.49,1.23.61,2.39-1.31,3.63-.1,1,2.44,2.31,1,3.53.28C66.36,18.77,68.32,17.44,70.78,18.87Z"/><path class="cls-31" d="M64.82,228.05c-1.83,1.91.71,3.61.18,5.55-1,.72-2.32.23-3.52.4-2.23-1.48-4.95-2.18-6.76-4.31-.33-.3-.44-1-.32-1,3.68-.09,4.3-3.29,5.77-5.61a2.89,2.89,0,0,1,1.06-.39c.54,0,1.09.07,1.64.1,1.82.15,3.31-1.6,5.22-.89a1.24,1.24,0,0,1,.48.94,3.29,3.29,0,0,1-.37,1l-.29.47c-.18.31-.39.61-.6.91C66.54,226.22,66,227.43,64.82,228.05Z"/><path class="cls-32" d="M202.93,133.24c-.28-.21-.39-.6-.13-.71,4.24-1.72,8.33-3.86,13-4.41a19.62,19.62,0,0,0,9.72-3.46,34.87,34.87,0,0,1,4.83-2.47c2.72-1.41,5.42-3,5.6-6.62,2,3.12-.52,4.82-2.13,6.78-1,1.16-2.84,1.42-3.08,3.25-.53-.06-1-1-1.58-.1-1.06.88-2.16,1.68-3.3,2.45s-2.53,1.3-3.84,1.87c-5.12,1.39-10.37,2.2-15.49,3.59a16.54,16.54,0,0,1-1.86.37A2,2,0,0,1,202.93,133.24Z"/><path class="cls-33" d="M100.39,29.05c-.66,0-.82,1.84-1.81.52-1.83-2.45-3.74-4.85-5.4-7.41-3.53-5.46-6.84-11-8.84-17.3-.34-1-1-2.05-.71-3.23,2.48,2.55,3.81,5.86,5.39,8.91A127.81,127.81,0,0,0,99.2,26.48C99.78,27.28,100.55,27.93,100.39,29.05Z"/><path class="cls-34" d="M70.78,18.87c-3.08-.1-5.5,1.42-7.81,3.2-.79.62-1.56,1.27-2.53.29s-.11-1.79.16-2.67c-.3-.2-.39-.39-.29-.58s.21-.28.32-.28c3.45-2.93,7.86-4,11.73-6.18C73.12,15.05,71.06,16.74,70.78,18.87Z"/><path class="cls-35" d="M61.47,223c-1.85.68-1.55,2.46-2,3.87-.84,2.75-.84,2.74-3.85,1.86-.81-.24-.84.41-.92.95A9.94,9.94,0,0,1,51.06,224c-.36-1.59.08-2.36,1.83-1.81a3.8,3.8,0,0,0,4.27-.56c.44-.31.87-.65,1.3-1a1.69,1.69,0,0,1,1.55-.37C61,220.93,61.94,221.59,61.47,223Z"/><path class="cls-36" d="M91.11,243.34c.09,2.65-2.22,4-3.33,6-.64,1.16-1.94.45-3,.18-2.06-.51-4.1-2.17-6.31-.39l-.9-.18a.72.72,0,0,1-.56-.54c-.15-.26-.31-.52-.47-.78,2.18-1,4.32-.31,6.48.13s3.13-.22,3.42-2.27c.12-.89-.82-2,.28-2.69s1.84.24,2.77.38C90,243.29,90.56,243.3,91.11,243.34Z"/><path class="cls-37" d="M52.93,223.05c-1.09-.6-1.7-.24-1.87,1-.83-.62-.68-1.52-.71-2.38a10.91,10.91,0,0,1,.1-4.55l.84-.85c.75-.73-.11-1.94.77-2.63a1.28,1.28,0,0,1,1.12.18,13.9,13.9,0,0,1,2.69,5.53C56.24,221.15,57.08,224.33,52.93,223.05Z"/><path class="cls-38" d="M76,17.81c.15,1.46,2,.83,2.41,1.91-.26,1.86.41,3.62.59,5.43a3.27,3.27,0,0,1-.16,1.12c-.61.51-.59,1,0,1.51a2,2,0,0,1-.42,1.69c-2,1.34-2.37-.18-2.64-1.56a31.29,31.29,0,0,0-1.33-5.14,7.66,7.66,0,0,1-.34-1.27c.08-1.61-.88-3.63,1.65-4.31A.66.66,0,0,1,76,17.81Z"/><path class="cls-26" d="M70.78,18.87c-.49-2.33,1.07-4.14,1.58-6.22A3.08,3.08,0,0,1,74,10.25C74.6,13.75,72.6,16.28,70.78,18.87Z"/><path class="cls-3" d="M230.87,183.19c.12-1.15-.38-2.44.76-3.36.35,2.73,1.1,5.53-1.55,7.65a1.76,1.76,0,0,1-1.82.14C226.93,184.85,230.47,185,230.87,183.19Z"/><path class="cls-7" d="M2.16,133.25c.1-.08.27-.27.29-.25a4.22,4.22,0,0,1,.7,6.12Z"/><path class="cls-11" d="M232.55,162.88c.35-2.53-.76-5.22.79-7.62,0,1.92.09,3.85.11,5.78,0,1.48.27,3-.93,4.24Z"/><path class="cls-26" d="M75.1,12.28a2.57,2.57,0,0,0-1.07-2,8.44,8.44,0,0,1,2.4-4.38A10.19,10.19,0,0,1,75.1,12.28Z"/><path class="cls-39" d="M75.79,17.19c-1.44,1.51-.5,3.37-.75,5.06-3-1.22-1.15-3.3-.89-5.09a1.74,1.74,0,0,1,.8-1.65A1.65,1.65,0,0,1,75.79,17.19Z"/><path class="cls-5" d="M103,262.71c.21-.73-.91-1.79.12-2.11.82-.25,1.78.5,2.4,1.29C104.72,262.37,104.05,263.17,103,262.71Z"/><path class="cls-2" d="M124.93,96.78c-1.38-1.58-.69-3.34-.66-5.21,1,.59.62,1.39.8,2A7.47,7.47,0,0,1,124.93,96.78Z"/><path class="cls-9" d="M228.37,187.33l1.71.15a5.5,5.5,0,0,0-2.62,2.42c0-.5-.05-1-.08-1.52C227.22,187.57,227.56,187.23,228.37,187.33Z"/><path class="cls-40" d="M60.63,18.83l0,.86c-1.14-.28-2.21,1.6-3.4.13C58.11,18.69,59.39,18.84,60.63,18.83Z"/><path class="cls-3" d="M97.51,261.23c1.3,0,2.76-.65,3.72.85C100.06,261.5,98.63,262,97.51,261.23Z"/><path class="cls-41" d="M56.37,20.31c-.3,1-1.11,1.15-2,1.12a2.7,2.7,0,0,1-.75-.08A4.76,4.76,0,0,1,56.37,20.31Z"/><path class="cls-15" d="M233.26,138.28c-.92-.74-.68-1.74-.62-2.7C233.65,136.3,233.25,137.34,233.26,138.28Z"/><path class="cls-6" d="M195.34,225.58c.59-1.07,1.59-.87,2.54-.83C197.19,225.51,196.2,225.35,195.34,225.58Z"/><path class="cls-6" d="M192.78,226.26c.67-.88,1.62-.71,2.53-.66C194.67,226.6,193.67,226.24,192.78,226.26Z"/><path class="cls-18" d="M115.77,50.06a5.84,5.84,0,0,1-.51.44c-.57-.54-.07-.81.32-1.11A.72.72,0,0,1,115.77,50.06Z"/><path class="cls-21" d="M201.52,94.12a1.77,1.77,0,0,1-2-.64C200.29,93.44,201.05,93.35,201.52,94.12Z"/><path class="cls-6" d="M204.63,220.45a1.71,1.71,0,0,1,.74-1.68C205.28,219.4,205.57,220.2,204.63,220.45Z"/><path class="cls-6" d="M199.57,223.12c.2-.38-.56-1.58.81-1Z"/><path class="cls-14" d="M69,239.17a1.42,1.42,0,0,1,1,1.5C69.25,240.43,69.09,239.81,69,239.17Z"/><path class="cls-10" d="M71.55,242.54a1.45,1.45,0,0,1,.94,1.57A1.7,1.7,0,0,1,71.55,242.54Z"/><path class="cls-42" d="M79.37,1.1l.7,0c.22.17.29.34.23.52s-.13.28-.2.28h-.8C79.32,1.66,79.35,1.38,79.37,1.1Z"/><path class="cls-1" d="M1.36,95.11c.33.14.44.36.27.62-.06.11-.22.16-.34.23Z"/><path class="cls-16" d="M163.08,97.77a1.39,1.39,0,0,1-1.22.6A1.19,1.19,0,0,1,163.08,97.77Z"/><path class="cls-17" d="M7.06,150.23c.5.09.89.23.31.76A.88.88,0,0,1,7.06,150.23Z"/><path class="cls-17" d="M7.87,151.94c.55.09.91.25.26.76A1,1,0,0,1,7.87,151.94Z"/><path class="cls-30" d="M30.13,193.36a1.18,1.18,0,0,1,.77,1A1,1,0,0,1,30.13,193.36Z"/><path class="cls-6" d="M207.14,216.08c.2-.22.41-.44.61-.67C207.78,215.85,207.54,216,207.14,216.08Z"/><path class="cls-6" d="M206.35,217.2l.64-1Z"/><path class="cls-6" d="M205.44,218.66l.6-.7C206.08,218.4,205.82,218.58,205.44,218.66Z"/><path class="cls-6" d="M203.8,221.08l.79-.59C204.54,221,204.28,221.18,203.8,221.08Z"/><path class="cls-6" d="M201.26,221.93l.9-.55C202,221.8,201.74,222,201.26,221.93Z"/><path class="cls-6" d="M198.71,224.49l.64-.62C199.46,224.42,199.18,224.55,198.71,224.49Z"/><path class="cls-6" d="M190.23,227.25l.8-.82Z"/><path class="cls-6" d="M189.58,228.31a1.05,1.05,0,0,1,.65-1.05A.89.89,0,0,1,189.58,228.31Z"/><path class="cls-6" d="M188.62,229.18a1,1,0,0,1,1-.9A1.24,1.24,0,0,1,188.62,229.18Z"/><path class="cls-10" d="M70.86,241.63a1.1,1.1,0,0,1,.71.94A.86.86,0,0,1,70.86,241.63Z"/><path class="cls-4" d="M77,248.44a.75.75,0,0,1,.56.54C77.11,249,76.93,248.85,77,248.44Z"/><path class="cls-36" d="M79.27,249.3l.81.8Z"/><path class="cls-36" d="M80.1,250.13l.84.77C80.39,250.93,80.1,250.69,80.1,250.13Z"/><path class="cls-36" d="M81.38,251.08a1.48,1.48,0,0,1,1.24.61A1.05,1.05,0,0,1,81.38,251.08Z"/><path class="cls-36" d="M83.3,251.89l1-.08c0,.29,0,.59,0,.88A1,1,0,0,1,83.3,251.89Z"/><path class="cls-36" d="M84.31,252.7l.87.68A.81.81,0,0,1,84.31,252.7Z"/><path class="cls-3" d="M91.05,257.78l.89.66C91.38,258.58,91.11,258.32,91.05,257.78Z"/><path class="cls-3" d="M92.83,258.6l.9.11L94,259l-.23.32Z"/><path class="cls-3" d="M94.36,259.35a2.44,2.44,0,0,1,.14.65c-.49.05-.68-.25-.76-.66l.1-.1Z"/><path class="cls-3" d="M96.1,260.34,97,261A.82.82,0,0,1,96.1,260.34Z"/><path class="cls-3" d="M101.18,262.05l.92.63C101.55,262.82,101.29,262.55,101.18,262.05Z"/><path class="cls-43" d="M55.5,177.26c-.69-2.24-1.5-4.45-2-6.72-.15-.68.13-1.09-.85-1.35-2-.52-1-1.83-.52-2.93h0a1.39,1.39,0,0,1-.76-1.39c.2-1.22.53-2.12-1.5-1.78-3,.5-3.44-.13-2.78-3A10.57,10.57,0,0,1,48,157.7c.61-1.19.6-1.38-.91-2.14-1.75-.88-3.43-3.44-2.36-5.63,1.24-2.56-1.18-5.27.93-7.64.51-.59-.59-1.54-1.29-1.88-2.84-1.38-4.09-3.74-4.49-6.71a3.47,3.47,0,0,0-1.69-2.77c-2.65-1.43-2.95-3.82-3-6.47,0-1.6.66-3.4-.81-4.79-.78-2.55-2-5-1.79-7.78,1.19-3.22,2-6.46.73-9.86-.8-2.21.22-3.83,1.78-5.23A4.93,4.93,0,0,0,37,92.34c-.28-2.11-.6-4.79-2.84-5.2-2.52-.46-2.47,2.52-3.36,4.14a6.39,6.39,0,0,0-.25.81c-.47,1.25-.26,3.12-2.08,3.29S26,93.84,25.24,92.49c-.27-.48-.43-1-1-1.34-1.06.22-.83,1.3-1.23,2-.83,1.36-1.92,2.11-3.51,1.55-1.4-.5-1.61-1.65-1.67-3.06-.25-5.95,1.92-11.32,4-16.69a43.06,43.06,0,0,0,2.73-14.29c.14-4.5,3.05-7.44,7.47-6.72,2.22.37,3.53,1.54,3,3.68-.64,2.72,1,3.83,2.9,4.24,5.23,1.1,7.66,6.6,12.77,7.83.81.2,1,1.3.6,2.19a5.78,5.78,0,0,1-.59.87c-.65.79-.25,1.52.17,2.24a4,4,0,0,1-.09,3.9c-5.43-2-6.91-.79-6.74,5.49a17.86,17.86,0,0,1-1.72,9c-.78,1.5-1.82,3.33-1,4.81,2.49,4.66,2,10,3.91,14.78s1.38,10,2,15c.61,5.3.34,10.65,4.13,15,.92,1.07.49,2.42.31,3.67-.45,3.2-.27,6.16,3,7.94a1.61,1.61,0,0,1,.86,2.09c-1.15,4.39,0,8.57,1.31,12.72a4.54,4.54,0,0,1,.1,1.22,22,22,0,0,0-.29,3.71A3.71,3.71,0,0,1,55.5,177.26Z"/><path class="cls-44" d="M50.45,72.2c.69-1.31.36-2.42-1.12-2.39-2.44,0-3.86-1.14-5.18-3-2.22-3.08-6-3.66-9.18-5-1.57-.64-2-1.13-1.55-2.62,1.21-4,.51-4.93-3.59-4.67-2.07.13-3,2-4.2,3.26-.94,1-.49,2.09.3,3a1.57,1.57,0,0,1,.1,2.28c-1.27,1.34-1.15,3.15-1.59,4.74-.77,2.82,0,5.77-2.29,8.58-1.6,1.93-1.35,5.43-2.65,8.06a6.59,6.59,0,0,0-.43,4.86,2.11,2.11,0,0,1-.19,2.28c-.81,1.08-.26,1.9.79,2.32a1.86,1.86,0,0,0,2.64-1.35,15.67,15.67,0,0,0,.3-2.5,1.41,1.41,0,0,1,1-1.24,1.34,1.34,0,0,1,1.39.76c.64,1.24,1.17,2.54,1.77,3.8.31.64.74,1.3,1.52,1.26s1-.91.95-1.6c0-2.23,1.25-4,2.07-5.93,1.13-2.59,3.6-2.46,5,0a19.62,19.62,0,0,0,1.56,3c1.14,1.37-.25,2.74.28,4.07.72,1.81-1.15,2-1.94,2.79-1.66,1.62-2.87,2.83-1.61,5.65,1.35,3,.32,6.35-1.08,9.37-1.3-4.29-3.41-8.46-1.81-13.17.43-1.27,1.49-2.4.94-4.59C28.9,99.23,22,98.23,18.56,103.36c-1.08,1.6-3.45,0-3.57-2.8a42.06,42.06,0,0,1,.92-8c.28-1.82.88-3.77.13-5.43-1.87-4.08-.07-7.54,1-11.35,2-7.14,4-14.3,6.3-21.37a1.56,1.56,0,0,0,.77-1.81c-1.09-2.31.51-3.51,1.78-4.93.67-.76,1.51-1.11,2.18-.51,1.38,1.23,3.26.66,4.76,1.62.35,1.28-1.44,1.56-1.39,2.77.38,1.46,1.9.83,2.81,1.26,2.39,1.11,5.23,1.28,4.1,5.31-.37,1.35,1.49,2.26,3,2.19,3.56-.18,6.44.46,7,4.75a1.47,1.47,0,0,0,2,1.07,5.09,5.09,0,0,1,4.4.77c1.64,1.06,2.75.54,3.23-1.09a3.17,3.17,0,0,1,3.56-2.31c1.18.08,1.6.65,1.44-1.08-.2-2.18,2.16.06,2.68-1.23A2.74,2.74,0,0,1,66.1,65c-2.27,2.59-2.32,7.35-7.41,7.36-1.6,0-2.44,2.63-4.46,2.75C52.27,75.05,51.35,73.63,50.45,72.2Z"/><path class="cls-45" d="M77.56,40.9c-2.45,1.93-5.11,3.72-4.81,7.43.11,1.37-.57,2.09-1.7,1.21s-2-.69-2.7.47c-1.65,2.62-3.34,5.22-4.94,7.87a5.86,5.86,0,0,1-9.84.8c-2.51-3-5-4.12-8.79-2.81-1.74.6-2.45-.28-2.35-2.25,0-.41.24-.81.26-1.22a2.16,2.16,0,0,0-.29-.76c-.85-.72-1.57.22-2.38.17-1.44-.09-2.9-1-2.52-2.21.84-2.58-1.36-3.44-2.42-3.59-3.69-.51-3.78-3.38-3.93-5.74-.13-2.06-.21-4.16-.3-6.25-.15-3.39,3.32-6.35,7.75-6.67.15,2.66-2.89,3.81-3,6.55,0,1.53-.41,3,.31,4.41.76,5.83,5.71,6.54,9.94,8.13a2.39,2.39,0,0,1,1.14.27c1.4,1.14.7,2.86,1.13,4.34,2.69-.38,5.13-.49,7.52,1.43s5.62.61,7.78-1.52c3-3,3.41-7.75,7.46-9.91,1.1-.59,1-2.22,1.28-3.46.59-3.09,2.41-4.59,5.6-4.35a3,3,0,0,1,.62,1.14,10.35,10.35,0,0,1-.34,6C77.88,40.57,77.72,40.73,77.56,40.9Z"/><path class="cls-46" d="M23.35,54.45c.19.66.76,1.52.53,1.95-1.64,3-1.69,6.48-3,9.58-.84,1.92-1.73,3.86-1.52,6.28.23,2.77-1.59,5.28-2.7,7.8-.69,1.55-1.12,2.82-.3,4.34,1.5,2.79,1.39,5.65.54,8.61-.61,2.15-.18,4.46-1,6.64-.51,1.4.38,2.63,1.31,3.62,1.49-.51,1.41-2.1,2.34-2.59,2.15-1.13,3.54-4.3,6.78-2.69,1.31-1.67,3.57-2,4.93-3.64a7.92,7.92,0,0,1,1.06-1.29c.69-.51,1.31,0,1.92.34a1.06,1.06,0,0,1,.42,1.74c-1.22,1.46-1.38,3.38-2.28,5a3.65,3.65,0,0,0-.07,4,4.31,4.31,0,0,1,.53,4.7c-.46,1.13.23,2.19.71,3.21-.08,2.58,1.49,5,.85,7.62a9.42,9.42,0,0,1-2.7-8.74c.6-3.22-1.87-5.73-3-8.53-.44-1.11-3.13-.52-3.35,1-.64,4.4-4.74,2.77-7,4.34-.37.26-1.42-.08-1.42-.56,0-3.17-3.07-4.53-4.09-7.2-1.5-3.9-1.91-7.67-.13-11.29,1.21-2.45.25-4.92,1-7.38.63-1.93.86-4,1.83-5.9,1.92-3.78,2.34-8,3.56-12.06C20.13,60.17,20.62,56.78,23.35,54.45Z"/><path class="cls-47" d="M53.81,74.84c.44-.84,1.81-.72,2-1.34,1-3.26,3.3-3.3,6-2.32.78-2.34,1.12-4.56,3.19-6,1.32-.91.55-2.61.72-4,.37-1.68.77-3.23,2.85-1.35,1.64,1.48,3.1.86,3.28-1,.24-2.4,3.46-3.28,2.69-6-.17-.62.65-.75,1.15-1a9.43,9.43,0,0,1,4.45-.8l.5.43c1.19,1.72,1.27,3.76,1.63,5.72.78,4.22,2,8.4,1.33,12.79a3.5,3.5,0,0,1-.53,1.2,1.17,1.17,0,0,1-1.12.43c-2.35-2.49-.13-6.15-2.35-8.89-1.86.57-2.8,2.12-3.75,3.66a14.37,14.37,0,0,0-1,3.26,10.87,10.87,0,0,1-1.21,3.26,1.94,1.94,0,0,1-1.06.48c-2.65-.21-3.81,2.09-5.58,3.35s-3.16,2.56-5.12.56c-1.53-1.57-2.41-.37-3.35.77-1.14,1.39-2.19,3.15-4.45,1.72C52.77,78.19,52.42,76.55,53.81,74.84Z"/><path class="cls-48" d="M74.15,17.16c.31,1.69-.69,3.62.89,5.09h0a61.81,61.81,0,0,1-8.65,21.4c-1.13,1.71-2.82,2.63-4.48,3.7-2,1.32-3.28-.08-4.89-.88-1.93-.95-4.35,1.9-6.23-.56-1.39-1.82-2.91-1.11-4.46-.33-4.27-1.36-7.29-6.72-7.24-12.33,0-3.41.94-5.93,4.59-6.74,1.58-1,3.21-1.64,5.09-.85l-.86,1.68c-2.82,1.19-2.94,3.83-3.22,6.28a2.43,2.43,0,0,0,2.14,2.71c4.81,1.09,9.5,3,14.63,1.6a7.2,7.2,0,0,0,4.95-4.73C67.93,29.44,70,26,71.63,22.26,72.64,20.65,72.48,18.45,74.15,17.16Z"/><path class="cls-49" d="M82.6,70.49c.42-4.61-.52-9-1.63-13.47,1.14-2.2-.11-4.05-.86-6h0c-.17-1.44.52-3-.86-4.23-1-1.26.19-3-.85-4.23,0-.28,0-.56,0-.85A1.65,1.65,0,0,1,78,40.53c-.25-2.13.5-4.33-.43-6.42,0-.28,0-.56,0-.83-.81-1.63.12-2.93.82-4.27l0-1.65a.55.55,0,0,1-.2-.59c.06-.19.13-.29.2-.29,0-.27,0-.55,0-.82,1.49-.21,2,.93,2.35,1.95C82,31.91,83.88,36,83.83,40.7c-.06,5.19.85,10.36,1.11,15.55.62,2.81.49,5.76,1.48,8.52C85.82,67.12,85.74,69.83,82.6,70.49Z"/><path class="cls-50" d="M43.68,26.51c-.06.13-.14.25-.19.38-.57,1.54-3.08,1.59-3.13,2.8-.15,3.43-.46,7,1.24,10.24C42.71,42,44,44,46.22,45.13a1.17,1.17,0,0,1,0,1.7h0a1.31,1.31,0,0,1-1.87,0c-2.4-3.56-7.29-4.39-9.14-8.49a3,3,0,0,1-1-3.53c.4-1.25,2.29-2.3.86-4.07-.47-.58.41-.79.9-1a4.6,4.6,0,0,0,2.66-2.46h0c.3-.27.57-.55.85-.84C40.86,26.79,42.27,25.53,43.68,26.51Z"/><path class="cls-51" d="M28.43,129c-.74-1.49-1.18-3.16-2.51-4.3,0-.81-.31-1.79.63-2.24s1.53.18,2.08.91a29.68,29.68,0,0,1,3.72,7.45,147.1,147.1,0,0,1,5.9,17.83c.21.84.4,1.63-.37,2.3a3,3,0,0,1-.94-.84l0,0c-.58-.42-.42-1.22-.88-1.7v0c-.55-.46-.4-1.25-.84-1.76a2.22,2.22,0,0,0-.13-.77c-.43-.47-.23-1.25-.78-1.68h0A68.88,68.88,0,0,0,28.43,129Z"/><path class="cls-52" d="M55.5,177.26c0-1.12,0-2.24,0-3.36.92-1,0-2.41.81-3.41a5.9,5.9,0,0,0,0-.84c-.83-5.38.87-10.53,1.44-15.78a7.2,7.2,0,0,1,.24-1.21c.15-.57.37-1.12.57-1.68.1-.36.22-.72.34-1.08s.22-.73.34-1.09a21.55,21.55,0,0,0,.49-2.91c.76-1.17.07-4,3-2.66a5.39,5.39,0,0,1,.35,3.7,250.83,250.83,0,0,0-4.91,36.93c-.1,1.38-.22,2.9-2.17,3l-.65-.36Z"/><path class="cls-52" d="M55.44,198.51c-1.5-2.15-.4-4.58-.77-6.86.26-1.7-.58-3.58.81-5.11l.09.08c1.93,2.65.83,5.69,1.1,8.56a10.41,10.41,0,0,1-.12,1.47A2.75,2.75,0,0,1,55.44,198.51Z"/><path class="cls-45" d="M78.41,42.59c1.39,1.19.63,2.81.85,4.23C77.83,45.64,78.61,44,78.41,42.59Z"/><path class="cls-7" d="M34.35,144.24a1.68,1.68,0,0,1,.79,1.68A1.73,1.73,0,0,1,34.35,144.24Z"/><path class="cls-7" d="M35.26,146.69a2,2,0,0,1,.84,1.76A1.55,1.55,0,0,1,35.26,146.69Z"/><path class="cls-7" d="M36.09,148.43a1.88,1.88,0,0,1,.88,1.7A1.55,1.55,0,0,1,36.09,148.43Z"/><path class="cls-45" d="M39.45,26.51l-.85.84Z"/><path class="cls-45" d="M78.39,40.9q0,.42,0,.84l-.83-.84h0C77.84,40.5,78.12,40.53,78.39,40.9Z"/><path class="cls-7" d="M36.94,150.11l.94.84A1.15,1.15,0,0,1,36.94,150.11Z"/><path class="cls-53" d="M99.61,173.92c2.71-1.17,3.4-3.92,4.62-6.15a82.06,82.06,0,0,1,5-8.07c2.46-3.46,4-7.65,5.42-11.72.7-2,2.59-3.81,1.87-6.27.93-1,1.11-2.28,1.69-3.4.71-.68,1.27-1.69,2.28-1.81,7.92-.95,12.74-6.66,18-11.66,1.68-1.6,3.32-3,5.73-3.22a4.89,4.89,0,0,1,2,.5c3.41,1.53,4.28,1.06,5.31-2.81a2.41,2.41,0,0,1,.57-1c6.16-2,6.16-2,12.53.52-.9-1.08-1.88-1.34-2.45-2.06-1.5-1.89-.94-3.17,1.19-3.73a12.42,12.42,0,0,1,6.26.15c5.11,1.29,10.21,2.55,14.85,5.18a2.65,2.65,0,0,1,1.11.46,1.86,1.86,0,0,1,.33,2.72c-1.86,1.21-3.76.68-5.64,0-3.78-1.26-7.47-1.7-11.31.1-5.26,2.47-10.72,4.47-14.61,9.19-1.89,2.3-5,3.05-7.42,4.67-1.08.72-2.19,1.2-2.49,2.59a3.71,3.71,0,0,1-.57,1,1.36,1.36,0,0,1-1.05.23c-.92-.42-.75-1.92-2-2a4.82,4.82,0,0,0-.84.45l-.76.73c-10.63,10.79-21.89,21-29.72,34.22a3.27,3.27,0,0,1-2,1.48,7.23,7.23,0,0,0-5.72,3.88,6.41,6.41,0,0,1-5.4,3.5,1.71,1.71,0,0,1-.84-1.44,2.83,2.83,0,0,1,.57-1.55c.32-.43.66-.85,1-1.29s.37-.6.56-.9C98.28,175.56,98.58,174.46,99.61,173.92Z"/><path class="cls-54" d="M108,135.76a67.82,67.82,0,0,0-13.33,13.58c-1.57,2.13-4.07,3.81-4.84,6.28-.61,1.93-3.37.37-3.3,3,.05,1.87-2.6,2.8-3.6,4.5a10,10,0,0,1-3.72,3.93,1.36,1.36,0,0,1-.36-1.55c3.14-4.67,3.24-10.69,7.08-15.13,1.86-2.15,2.24-5.38,3.93-7.88,1.47-2.18,2.12-5,5.34-5.46.43-.06.86-.29.74-.83-.7-3.13,2-3.71,3.77-4.8,2.89-1.75,6-3,4.76-7.59-.53-1.94,1.68-3.43,2.68-5.1,1.84-3.08,1.43-4.77-1.66-6.66a3.37,3.37,0,0,1-1.24-1.1c-1.14-1.86.27-9.29,2.32-10.31,1.32-.66.43-1,.18-1.34-3.77-5.14-4.23-11.48-6.35-17.21-.84-5.45-.51-11-.87-16.46a2.15,2.15,0,0,1,1-2.13c3.61,1.15,2.27,4.54,3.43,6.74.43-.31,0-1.6,1-1.83,2.54-.63,3.76-2,3.2-4.73a1.64,1.64,0,0,1,1.31-1.91c1-.2,1.52.54,1.92,1.32a5.35,5.35,0,0,1,.79,2c.76,8,3.91,15.62,4.23,23.65.31,7.64,1,15.45-1.09,22.92-1.72,6.29-3.37,12.54-3.85,19C111.35,133.15,108.49,133.59,108,135.76Z"/><path class="cls-55" d="M61.47,189.13a4.3,4.3,0,0,0-.94,2.52c-.28,1.75-.09,4.06-3.08,2.57A4.7,4.7,0,0,1,57.1,193a12.75,12.75,0,0,1,.25-4,14.08,14.08,0,0,0,.73-5.39c1.29-12,2.3-24.13,4.55-36a21,21,0,0,0,.54-5c.06-1.15.57-2.23.61-3.39a12.1,12.1,0,0,1,.36-2,88.7,88.7,0,0,0,1.57-11,12.55,12.55,0,0,0,.59-3.7c0-.42,0-.84,0-1.26a14.85,14.85,0,0,1,.37-3.11,13.3,13.3,0,0,0,.5-3.08c.63-4,1.61-7.93,2.47-11.88a8.59,8.59,0,0,1,1.06-2.86A9.65,9.65,0,0,0,71.82,97a9.1,9.1,0,0,1,.41-1.14c1.86-4.66,6.07-7.91,7.39-13,.52-2,2.46-2.08,3.71,0,1.21,6.49-.81,12.62-2.43,18.7S78.29,114,76.54,120.15c-.6,2.09.42,4.19.29,6.3a4.7,4.7,0,0,1-.24,1.23c-.42,1.07-1.21,2-1.61,3a11.12,11.12,0,0,1-1,1.85l-.79,1.29a7.45,7.45,0,0,1-.55.83,16.58,16.58,0,0,0-1.08,1.64c-.15.3-.31.59-.48.88a10,10,0,0,1-.48.92,7.52,7.52,0,0,1-.54.91,21.57,21.57,0,0,0-2.92,5.86c-.86,2.7,0,5.15,1.1,7.57,0,10,.31,20-3.93,29.43a63,63,0,0,0-2.2,5.93A6.37,6.37,0,0,1,61.47,189.13Z"/><path class="cls-56" d="M108,135.76c-.23-.85-1.3-2,.24-2.43,2.17-.61,2.59-2.15,2.26-3.9-.39-2,1.49-4.06-.18-6-.07-.08.14-.61.33-.69,2.78-1.27,2-3.55,1.69-5.72-.08-.55-.28-1.4,0-1.64,2.43-2.13,2-5.08,2.26-7.77.36-3.52,2.66-7,.4-10.64a2.55,2.55,0,0,1-.11-1.65c1.49-7.12-.48-13.84-2.2-20.63-.68-2.7-1.47-5.42-1.3-8.28a4.07,4.07,0,0,0-1.55-4c-.33.18-.49.21-.55.3-1.26,1.8,1.34,3.63.13,5.19-1,1.31-3.56.15-4.46,1.69-1,1.69-1.41.48-2.07,0-.92-.71-.8-1.74-.79-2.71a2.94,2.94,0,0,0-1.7-3.11c-2.36-1-1.53-3.7-2.74-5.31l-.18-.52c0-.18,0-.36-.05-.54a4.76,4.76,0,0,1,.44-1.51c.13-.33.28-.64.44-1a2.94,2.94,0,0,0,.2-1.49c-.61-.84-1.64-.11-2.32-.62.17-1.52-.65-2.63-1.42-3.84a24.25,24.25,0,0,1-3.69-12.32c2-.17,2.17,1.52,2.61,2.71,1,2.81,2.44,3.39,4.35.85,1.69-2.24,2.41-.83,3.2.68,2,2.47,2.77,5.72,5,8,1.31,1.32,1.31,3.34,2.58,4.68,0,4.63,2.74,8.23,5,11.8a22.07,22.07,0,0,1,3.5,9.1c.4,3,1,6.06,1.39,9.1.29,2.17,1.23,4.36-.14,6.52-.7,1.11-.18,2.19.39,3.18a6,6,0,0,1,.75,4.88c-.5,1.58-1.53,3,0,4.52-2,3.38.75,7.68-1.19,10.43-2.18,3.11-1.37,6.61-2.93,9.59-.13.24-.36.54-.3.76C116.94,130,112.11,132.64,108,135.76Z"/><path class="cls-57" d="M101.27,81.55c1.16.73,1,2.07,1.07,3.06.06,3,1.6,5.58,2.3,8.38.64,2.61,2.77,4.87,4.31,7.25.31.47.74.83.63,1.51-.75,1-1.44,0-2.16-.17-2-.47-2.46-.11-2,2,.36,1.52,1,3-.6,4.17-.09.07-.09.26-.11.4-.1,1.12-.37,2.32.68,3.13s1.6-1,2.66-.61c.06.18.13.43.23.66,1.92,4.18.81,7.67-2.33,10.8-2.09,2.09.21,3.79.7,5.64a83.79,83.79,0,0,1-10.13,6.8c-.13,1.62,1.54,1.79,1.8,2.82-.3.33-.49.7-.64.68-3.37-.45-5.1.76-6.41,4.19-1,2.74-3.34,5-3.68,8.21,0,.27-.13.7-.3.75-3.77,1.26-3.1,4.84-4.08,7.6s-3.19,5.24-4,8.24A71.4,71.4,0,0,0,66.6,181.44a4.16,4.16,0,0,1-1.75,1.75c-1.35-1.29-.59-2.7,0-3.88,1.19-2.38,2.55-4.67,2.6-7.45,0-.88.53-2,1.26-2,3.43-.05,3-2.82,3.89-4.86,1.46-3.26,2.42-7,6.07-8.8A2.42,2.42,0,0,0,80,154.62c1.7-7.27,6.15-13,10.41-18.85,2.6-3.59,3.74-8.14,6.25-11.9.94-1.41,0-3-.24-4.52.2-3,1.94-5.52,2.89-8.28,3-2.22,2.84-4.68,2.21-8.35-1.13-6.58-1.92-13.39-1-20.17C100.59,82.16,101,81.85,101.27,81.55Z"/><path class="cls-58" d="M97,119.61c1.74,2,1.58,4,0,6a26.8,26.8,0,0,0-4,7.72c-1.09,3.34-3.55,5.91-6,8.35-.72.73-1.52,1.41-1.63,2.33a9.25,9.25,0,0,1-3.27,6.19c-.94.8-.26,1.89-.53,2.67-.65,1.81.16,5-3.53,4.54a1.2,1.2,0,0,0-1,.64c-.92,3.59-4.64,6.06-3.95,10.36.19,1.2-.42,2.94-2.6,2-1.86-.83-2.35.5-2.26,1.88a7.54,7.54,0,0,1-2.2,6.1,6,6,0,0,0-1.24,4.78h0a11.28,11.28,0,0,0-.83.87c0,.28,0,.55,0,.83a6.7,6.7,0,0,0-.79.89l-.06,1.65c-.28.28-.54.57-.8.86h0a.47.47,0,0,1-.72,0A46.86,46.86,0,0,1,65,177.13a15,15,0,0,0,1.39-6.49c-.15-6.3,1.46-12.47,1-18.76,8.12-3.65,12.77-10.71,17.5-17.71,3-4.41,5.38-9.24,9.23-13a9.26,9.26,0,0,1,.92-.62l.47-.29a5.79,5.79,0,0,1,1-.51Z"/><path class="cls-59" d="M144.47,122.21c-4,.9-6.2,4.15-8.73,6.83-3,3.1-6.62,5.1-10.07,7.41-2.11,1.41-5.1.61-7.45,1.86.32-4.73.32-4.71,5-6.07a3.62,3.62,0,0,0,2.07-1.26c2.17-2.85,4.32-5.69,8.5-5.74,1.82,0,2.91-2.3,3.21-3.29.84-2.82,2.86-3.56,5.07-4.09,3.93-1,5.79-3.87,7.37-7.13.23-.46-.09-1.22.56-1.45s1.51-.54,2-.28c.95.48-.46,1.54.34,2.23,1.71-.39,3.59-.56,4-3a2,2,0,0,1,2.13-1.54c2.79-.08,2.8-.3,6.8-3.25.47-.34.76-.29,1,.06,1.13,1.48,2.32-.11,3.47.09.28-.29.6-.54.85-.85h1.7c2.51-.67,4.78-2.46,7.62-1.69h0a2.92,2.92,0,0,1,1.21,2.47,8.55,8.55,0,0,0-.65,4.3,1.75,1.75,0,0,1-1.09,1.24,2,2,0,0,1-1.11-.14,2.34,2.34,0,0,1-.59-1c-.22-.51-.47-1.34-.88-1.33-2.9,0-5.89-.86-8.65.74-5.06,1.8-9,5.58-13.81,7.8a4.21,4.21,0,0,0-2.39,3.66h0A24.5,24.5,0,0,0,144.47,122.21Z"/><path class="cls-60" d="M58,194.2c.35.34.65.43,1-.1.48-.84,1-1.64,1.56-2.45l3-2.1c1.4,2.77.65,5.38-.38,7.88a9.39,9.39,0,0,0-.34,7c3.33-3.34,3.34-8,6.24-11,.26-.11.61-.11.78-.28,6.43-6.5,16-8.64,22-15.75,1.47-1.77,3.51-1.64,5.4-1.82,1.07-.11,1.25.86.67,1.77h0c-.54.42-.37,1.21-.88,1.65l-.85.88c-.63.62-.67,1.51-1,2.26a5.93,5.93,0,0,1-.51.88,7.12,7.12,0,0,0-1.15,2.87c-1.9,2.91-3.32,6.34-7.47,6.76-3.35-2.38-5.83-2.17-8.87,1.5-3.34,4-8.41,6.53-10.44,11.75-.53,1.38-1.86,1.54-3.21,1a16.67,16.67,0,0,1-4.4-2.4,4.37,4.37,0,0,1-.72-.93,20.47,20.47,0,0,1-1-2.75,25.72,25.72,0,0,1-.45-3.4c-.1-.56-.22-1.13-.27-1.7C56.79,194.85,56.85,194,58,194.2Z"/><path class="cls-21" d="M97.9,177.28l-.13-.82c-2,.8-5-.69-5.78,2.71-.13.6-.62.69-1.08,1A33.65,33.65,0,0,0,84.44,185c-1.24,1.3-2.44,3.23-5.16,2-1.22-.56-2.93.75-3.5,2.37-.66,1.88-2.47,2.6-3.67,3.92-1,1.11-2,.59-3,.07,1.64-7.61,7.63-10.59,14.14-12.31a12,12,0,0,0,7.15-5.14c1-1.34,1.16-3.43,3.68-3.48.71,0,1.61-1.85,2-3a7.71,7.71,0,0,1,2.14-3,2.15,2.15,0,0,1,2.65-.65,2.42,2.42,0,0,1,1.15,2.9,10.44,10.44,0,0,1-2,3.69,5.17,5.17,0,0,0-.44,1.59A4.88,4.88,0,0,1,97.9,177.28Z"/><path class="cls-49" d="M180.05,101c-1.79.65-3.62,1.2-5.33,2-1,.46-1.55-.11-2.29-.32A2.53,2.53,0,0,1,175,101C176.66,101.08,178.35,99.09,180.05,101Z"/><path class="cls-59" d="M118.22,138.31c.08,1.45-.16,2.74-1.69,3.4A4.54,4.54,0,0,1,118.22,138.31Z"/><path class="cls-49" d="M170.73,102.73l-.85.85Z"/><path class="cls-57" d="M64,184.06l.83-.87Z"/><path class="cls-57" d="M63.19,185.78l.79-.89C63.71,185.18,63.45,185.48,63.19,185.78Z"/><path class="cls-57" d="M62.33,188.29c.26-.29.53-.57.8-.86C62.86,187.72,62.59,188,62.33,188.29Z"/><path class="cls-57" d="M61.6,188.3q.36,0,.72,0l-.85.83A1.81,1.81,0,0,1,61.6,188.3Z"/><path class="cls-61" d="M228.37,187.33l-1,1c-1.12,2-3.93.87-5.13,2.94-1.11,1.89-3.09,2.6-5.26,2.93a11.3,11.3,0,0,1-4.07.14c-3.29-.65-4.08.4-3.41,3.88a7.51,7.51,0,0,1-.1,1.5,10.89,10.89,0,0,0-6.79-1.44,13.71,13.71,0,0,0-2.64,1c-3,.89-6,3.24-9.48,1.4-2.23-1.19-4.71-.26-7.05-.86-1.45-.37-1.69,1.19-2.18,2.13a14.35,14.35,0,0,1-13.07,7,3.58,3.58,0,0,0-2.31.56c-2.32,1.27-4.65,2.51-7,3.6-3.41,1.55-6.56,3.77-10.45,4.16-2.11.21-2.73,2.76-4.76,3.15a1.51,1.51,0,0,1-.47-1.06c2.43-3.33,4.54-7.07,9.43-7.19.91,0,1.83-.5,1.76-1.45-.21-2.85,3.54-5.42.58-8.46-.21-.21.08-.8.38-1.46-2.36.69-4.45,1.62-6.66,2.13-2.47.57-3.56-.62-3.15-2.93s.71-4.43,2.05-6.33c1.88-1.26,3.51-3.26,6.2-2.07.56.07,1.13.11,1.21.86.23,2.15,1.24,2.94,3.57,2.9,3.09,0,5,2.47,5.83,7A3.59,3.59,0,0,1,169,201c2.28.87,3.89-1,5.65-2a30.54,30.54,0,0,0,4.46-3.16c2-1.6,3.9-3.17,6.74-1.78a2.55,2.55,0,0,0,2.44-.35c3.29-2.32,7.43-2.69,10.84-4.72,1.18-.71,1.48-.28,2.23.7,1.66,2.18,2.71,2.43,4.9,1a6.79,6.79,0,0,1,4.38-1.07c5.22.63,9.3-1.58,13.46-4.16,2-1.24,4.62-1.12,6.74-2.31a2.53,2.53,0,0,1-1.25,2.3A2.06,2.06,0,0,0,228.37,187.33Z"/><path class="cls-27" d="M121.6,234c1.33-.42,3-.35,2.63-2.64a2.07,2.07,0,0,1,2.29-2.38c1.59,0,3-.9,4.44-1,2.77-.14,4.8-1.59,6.74-3.32.18,2.59-1,4.11-3,5.93-3.91,3.65-9,5.47-12.76,9.29-2.46,2.51-5.79,1.57-8.82,1.71-.39-2.21,1.5-2.39,2.78-2.95A11.24,11.24,0,0,0,121.6,234Z"/><path class="cls-27" d="M137.7,224.71a8.63,8.63,0,0,1,3.38-3.4l.43-.32.42.32C140.89,222.9,139.83,224.48,137.7,224.71Z"/><path class="cls-27" d="M143.63,219.62v.85l-1.7.84h0C141.22,219.47,141.89,219,143.63,219.62Z"/><path class="cls-62" d="M168.2,145c1.14.14,1.59.66.59,1.51-2.15,1.84-4.94,2.45-7.4,3.69-1.88.95-3.95,1.61-4.23,4.15h0c-.29.27-.58.56-.86.85a2.87,2.87,0,0,0-1.67,1.72c-.24,2.47-2.24,3.44-4,4.65-2.57.29-4.8,1.08-5.69,3.84a4.57,4.57,0,0,1-1.74,2.14c-.28.25-.57.48-.87.7a9.84,9.84,0,0,1-.94.65c-4.46,3-8.46,6.65-13.41,8.89-1.72,1.12-3.63,1.94-5.17,3.34-1.52,1.07-3,2.2-4.49,3.26-.43.29-.88.54-1.31.82a18.94,18.94,0,0,1-1.61,1c-.24.17-.5.32-.76.48l-.35.27-.68.59-.33.3a4.94,4.94,0,0,1-.72.58,2.6,2.6,0,0,1-.89.3,1.53,1.53,0,0,1-1.24-.59,1.3,1.3,0,0,1-.07-.93,4.3,4.3,0,0,1,.52-.81l.32-.36c.21-.24.43-.47.66-.7l.33-.36.63-.77.29-.42c.17-.31.35-.61.51-.93,1.91-3.67,3.38-7.64,7-10.17a21.58,21.58,0,0,0,12-6.45c5.83-6.15,12.2-11.12,20.23-13.87a7.43,7.43,0,0,0,1.42-.91c.29-.21.61-.4.91-.59l.45-.29a13.13,13.13,0,0,1,1.28-.81,7.22,7.22,0,0,1,1.33-.46c.27-.1.55-.21.81-.33l.37-.24.66-.57.32-.3a4.6,4.6,0,0,1,1.1-.76,9.58,9.58,0,0,1,1.28-.42c.41-.14.83-.3,1.24-.47s.85-.28,1.27-.43c.27-.13.53-.27.8-.42l.38-.26a3.58,3.58,0,0,1,.85-.43A.85.85,0,0,1,168.2,145Z"/><path class="cls-63" d="M172.46,178.94c1.1.18,2,.46.84,1.73-3.64,3.41-8.6,3.23-13,4.46-15.16,4.27-30.22,8.76-44.53,15.43-1.16.54-2.2,1.32-3.49.4l0,0a1,1,0,0,1,0-1.24c9.58-9.88,22.12-14,34.88-17.48,4.56-1.25,9.32-1.88,14-2.68A40,40,0,0,1,172.46,178.94Z"/><path class="cls-64" d="M172.46,178.94a2.63,2.63,0,0,1-2.27.87c-6.44.15-12.64,1.83-18.95,2.8a75.16,75.16,0,0,0-17.32,5c-6.68,2.74-13.6,5.38-18.75,10.89a3.79,3.79,0,0,1-2.85,1.61c-1.7-2.69.51-3.93,2.05-5.33a7.87,7.87,0,0,1,3.9-2.12c15-8.4,30.86-14.09,48.11-15.51,1.81-.15,3.68-.33,5.21,1.06l.86.72Z"/><path class="cls-65" d="M112.32,201a4.94,4.94,0,0,0,3.46-1.2c3.92-2.75,8.38-4.28,12.93-5.62a28.08,28.08,0,0,0,5.79-2.37,21.48,21.48,0,0,1,7.07-2.51c4.33-.65,8.25-2.59,12.43-3.54,4.6-1.05,9-3.15,13.73-3.33,2.07-.08,3.56-1.68,5.57-1.72-.43,1.45-2,2-2.56,3.38l-2.51.87c-5.64,1.24-10.93,3.55-16.31,5.53a341.72,341.72,0,0,1-34.54,10.49C115.69,201.05,114,202.9,112.32,201Z"/><path class="cls-66" d="M122.59,186.8l-5.31,4.82c-.73,1.83-2.3,2.56-4,3.12a15,15,0,0,0-6.88,4.63c-3.54,3.73-8,6.07-12.07,9-1.26.91-2.47,1-2.48-1.1a9,9,0,0,0-.87-3.23,2.51,2.51,0,0,1,0-1.69,4.48,4.48,0,0,1,.6-.95,5.79,5.79,0,0,1,.83-.74,7.59,7.59,0,0,1,1-.54,6.18,6.18,0,0,1,1-.42,3,3,0,0,1,1.11,0c1.18.62,2.39,1.95,3.41-.21,1.76-2.77,4.53-4.35,7.17-6.09,4.44-2.63,8.53-5.78,12.8-8.67C121.79,182.76,122.41,183.2,122.59,186.8Z"/><path class="cls-67" d="M122.59,186.8c-.26-.78-.53-1.55-.94-2.77-4.27,3-8.54,5.93-12.75,8.95a4.18,4.18,0,0,1-2.56,1.21c.24-3.7,3.16-4.74,5.91-6h0a5.19,5.19,0,0,0,.88-.81h0c.28-.28.56-.55.86-.81h0a5.22,5.22,0,0,1,.83-.8l1.64-.94a7.57,7.57,0,0,0,.88-.82c1.69-1.13,3.06-2.72,5-3.42,1.09-.65,2.17-1.56,3.46-1.45,3.08.26,5.41-1.06,7.67-2.92,1.6-1.31,1.7-1.18,3.4.21h0a3.2,3.2,0,0,0-.9.82h0c-.32.25-.56.56-.86.82C131.37,181.58,126.77,183.89,122.59,186.8Z"/><path class="cls-68" d="M136.93,176.47c-.9-1.22-1.7-.56-2.41.19a13,13,0,0,1-4.06,3c-1.29.57-2.5,1.36-4,.52s-2.69.59-4.08.47c1.17-1.94,3.37-2.31,5.12-3.37,4.4-.53,7.45-3.33,10.52-6.16,1.22-1.13,2.55-2.16,3.86-3.19h0a7.57,7.57,0,0,0,.88-.82l1.7-1.68c1-2.22,2.93-3.2,5.1-3.86.63.19,1.1.5.8,1.28C145.45,166.94,141.93,172.44,136.93,176.47Z"/><path class="cls-69" d="M113.17,194.26l4.11-2.64,1,1a10.18,10.18,0,0,1-3.13,2.71c-1.59,1.14-3.19,2.38-2.82,4.74l0,.86a1.88,1.88,0,0,0-1.71.83c-2.65.28-3.59,2.8-5.4,4.18-1.27,1-2,2.7-4,2.51.71-4.77,4.53-7.52,7.35-10.84C109.66,196.31,111.11,194.68,113.17,194.26Z"/><path class="cls-65" d="M150.38,162.84l-.82-.81c-.29-.76,0-1.06.76-.93a12.15,12.15,0,0,0,4.32-4.14c1.11.6.77,1.36.09,2C153.29,160.24,152.15,161.89,150.38,162.84Z"/><path class="cls-8" d="M156.31,155.24l.86-.85Z"/><path class="cls-68" d="M136,177.28l.9-.82Z"/><path class="cls-68" d="M135.16,178.1l.86-.82A1.08,1.08,0,0,1,135.16,178.1Z"/><path class="cls-63" d="M172.45,178.94l-.86-.72A1,1,0,0,1,172.45,178.94Z"/><path class="cls-5" d="M94.36,259.35a1,1,0,0,1-.52-.11,1.24,1.24,0,0,1-.12-.53A.67.67,0,0,1,94.36,259.35Z"/><path class="cls-70" d="M55.44,198.51l.14-1.79c2.69,2.09,2.1,4.45.59,6.89l-.75,0C55.43,201.88,55.44,200.19,55.44,198.51Z"/><path class="cls-12" d="M54.62,205.15a1.83,1.83,0,0,1,.8-1.58l.26-.09c.41,1,.38,1.72-.94,1.78Z"/><polygon class="cls-13" points="8.1 116.28 7.75 116.09 7.91 115.93 8.1 116.28"/><path class="cls-9" d="M143.63,219.62a1.54,1.54,0,0,0-1.7,1.69h-.85c-.5-2.72-1.69-5.44,1.66-7.52,1.15-.71-.05-2.89,1.68-4.84-2.9.7-4.42.42-4.72-2-.18-1.37-1.23-.67-1.84-.16-1.07.89-2,1.91-3.09,2.79a1,1,0,0,1-1.51-.08c-.45-.45-.63-1.09-.19-1.49,3.88-3.52.09-5.78-1.31-8.44,1.27-.71,3.12.51,4.2-1.13l.39-.4a13.8,13.8,0,0,0,3-1.56c2.78-1,5.25-3.2,8.54-2.23-.53,2-1.12,4-1.56,6.05-.38,1.74.25,2.32,2,1.79,2.87-.87,5.7-1.89,8.61-2.86-1.42,3.71-1.42,3.71,1.51,7.23-2,.92-4.29,1.64-2.73,4.72.55,1.09-1.69,2.81-3.61,2.32s-2.85,0-3.68,1.57C147.36,217.08,144.51,217.34,143.63,219.62Z"/><path class="cls-71" d="M147.86,194.2a52.5,52.5,0,0,0-8.48,3.36c-1,.95-2.43,0-3.41.85v0c-6.05,0-11.79,2-17.73,2.68l-.86-.13a35,35,0,0,1,12.21-4.16,15.89,15.89,0,0,0,5.57-1.78c1.95-1.16,3.73-2.08,6.22-1.88,1.78.14,3.65-1.18,5.38-1.94,5.75-2.51,11.86-3.89,17.73-6a13.64,13.64,0,0,1,3.75-.26c-3.06,1.87-6.53,2.79-9.79,4.22-1.64.71-3.37,1.22-4.69,2.51C151.57,192,149.81,193.31,147.86,194.2Z"/><path class="cls-36" d="M121.6,234a1.92,1.92,0,0,1-.43,2.6,14.57,14.57,0,0,1-5.42,3.16c-1.08.41-2.14.68-2.62,1.86-3.85-1.87-7.68.19-11.52.22-2,0-1.6,2.09-.87,3.68-1.7-.14-3.42.3-4.55-1.36,0-.7,0-1.41,0-2.11,0-1.7.88-2.27,2.43-2,6.34,1,11.94-1.3,17.51-3.8C117.07,233.33,119.5,234.07,121.6,234Z"/><path class="cls-72" d="M158.87,150.16l-1.64,0a5,5,0,0,0-.89.84h0a8.53,8.53,0,0,0-.87.83c-1.8,1.24-3.35,3-5.9,2.71a1.82,1.82,0,0,0-1.15.44c-4.51,3.4-10.16,5.46-13.36,10.33-1.77,2.71-4.53,3.52-6.81,5.25-1.88,1.43-4.26,1.95-6,3.62-.95.88-1.31-.35-1.48-1.18-.12-3.69,2.66-6,4.25-8.86a13.23,13.23,0,0,0,1.94-2.15,4.3,4.3,0,0,1,.86-.79,13.3,13.3,0,0,0,6.89-4.61c3.2-3.78,7.26-6.6,10.75-10.05a8.05,8.05,0,0,1,4-2.08c1.67-.39,3.17-1.2,3.6-3.12.1-.41.19-1.12.41-1.15,4.58-.54,5.13-7.09,10.37-6.79a8.26,8.26,0,0,0,5.08-1.84c3.56-2.59,7.9-.89,11.74-2.11,1.24-.4,1.79,1,1.86,2.27-1.45,3.43-2.8,6.93-6.82,8.24a3.25,3.25,0,0,0-2.71,1.64c-1.14,1.85-3,2.57-4.79,3.42a7.55,7.55,0,0,1-.83.05,10,10,0,0,0-.87.85h0a9.76,9.76,0,0,0-.86.84l-1.64,0a5.38,5.38,0,0,0-.9.82l-1.66,0a7.75,7.75,0,0,0-.88.84h0a6.83,6.83,0,0,0-.85.85h0A7.57,7.57,0,0,0,158.87,150.16Z"/><path class="cls-73" d="M175.7,140a39.89,39.89,0,0,0,6.09-8.35,19.27,19.27,0,0,1,3.57-5.47,14.21,14.21,0,0,0,1.94-2.57,10.75,10.75,0,0,1,2.39-2.37,2.52,2.52,0,0,1,1.11-.33c2.84,1.63.26,3.26,0,4.89a65.24,65.24,0,0,1-5.73,8.44c-.22.28-.47.55-.71.82l-.32.42c-.82,1.39-1.43,2.9-2.34,4.24a6.87,6.87,0,0,1-.64,1c-2.31,3.16-5.28,5.72-7.87,8.62l0,0a2.92,2.92,0,0,1-.87.88l0,0a2.2,2.2,0,0,1-1,.85,1.26,1.26,0,0,0-.66.12.55.55,0,0,1-.83,0c-1.4-1.47-.09-2.57.6-3.63C172.15,144.89,174,142.45,175.7,140Z"/><path class="cls-74" d="M199.65,155.32c-.51,1.27-2,1.38-2.74,2.41-6.2,0-12.19,2.06-18.4,1.94-.36,0-.72.4-1.08.61a43.75,43.75,0,0,1-6.18-.27c-2.43-.43-2.87-1.46-2.23-3.93,8.12-1.64,16.38-1.44,24.59-1.84C195.62,154.15,197.86,153.76,199.65,155.32Z"/><path class="cls-75" d="M170.75,154.48l.82-1c.31-.24.62-.48.92-.73l0,0c.43-.58,1.23-.43,1.72-.88l0,0c.64-.85,1.86-.1,2.51-.91h0c1.2-1.38,2.87-1.68,4.54-1.95,5.19-.7,10.36-1.47,15.61-.68a7,7,0,0,1,3.89,2.42,5.19,5.19,0,0,1,.67,1.07l.21.6a1.48,1.48,0,0,1-.3,1.16v0c-4.76,1.5-9.77,1.2-14.52.85a36.47,36.47,0,0,0-13.63,1.26C171.36,156.25,171.34,156.19,170.75,154.48Z"/><path class="cls-76" d="M180.91,150.05c-1.43.26-2.73,1.08-4.25,1-1-1.11-.2-2.48-.34-3.85l-3.13,2.11a37,37,0,0,1,7.6-9.33,7,7,0,0,1,2.61-1.34,4.49,4.49,0,0,1,1.21-.13c.56.09,1.2.18,1.46.7C187.53,142,184.08,149.24,180.91,150.05Z"/><path class="cls-77" d="M170.75,154.48c.08.54.22,1.34.91.93a18.46,18.46,0,0,1,14.14-1.95,11.24,11.24,0,0,0,4.21,0c3.78-.57,7.52.1,11.28.1a3.06,3.06,0,0,1-1.64,1.71c-3.56.35-7.2-.47-10.71.73a3.36,3.36,0,0,1-2.08,0c-3.93-1.54-7.65-.1-11.45.59-2.13.39-4.38,1-6.39-.54A2.57,2.57,0,0,1,170.75,154.48Z"/><path class="cls-76" d="M176.65,151c-.62.89-1.57.88-2.51.91C174.7,150.85,175.71,151,176.65,151Z"/><path class="cls-76" d="M174.17,151.9a1.94,1.94,0,0,1-1.72.88A1.57,1.57,0,0,1,174.17,151.9Z"/><path class="cls-76" d="M172.36,150.12l.87-.88A1.2,1.2,0,0,1,172.36,150.12Z"/><path class="cls-76" d="M171.38,150.94l1-.85A1.2,1.2,0,0,1,171.38,150.94Z"/><path class="cls-76" d="M169.89,151.05a2.88,2.88,0,0,1,.83,0C170.44,151.53,170.16,151.51,169.89,151.05Z"/><path class="cls-76" d="M172.49,152.74a1,1,0,0,1-.92.73C171.87,153.22,172.18,153,172.49,152.74Z"/><path class="cls-78" d="M41.13,198.45l-.84-.85c-1-3.49-3.62-5.92-5.75-8.63A16.92,16.92,0,0,1,31,180.66a3,3,0,0,1,4.18,1.5c.74,1.33,1.66,2.55,2.64,4,1.27-.94-.85-2.6,1.17-3.3.71,1.67,2.84,1.75,3.77,4,2.1,5,4.69,9.71,6,15-1.3,1.43-2.71,1.44-4,.08S42.09,199.86,41.13,198.45Z"/><path class="cls-79" d="M54.74,205.26a2.54,2.54,0,0,0,.94-1.78,7.06,7.06,0,0,0-.1-6.76c0-.26,0-.53,0-.79,1.07-1.57-.34-3.61,1-5.14,1.79.15.67,1.92,1.5,2.57,0,.28,0,.56,0,.84a1.65,1.65,0,0,0-.76,1.7,4.84,4.84,0,0,1,.75.94l.12,4.14c.68.72,0,1.86.78,2.56h0c2.28,4.45,1.25,9.29,1.68,14,.14,1.57-1.56,2.23-2.06,3.52a1.72,1.72,0,0,1-.51,1.11c-1.57,1-3,3-5.08.92.55-.06,1.38.1,1.61-.2.74-1,1-2.84.53-3.36-1.55-1.73-1.36-4.21-2.94-5.82-1-1.45,0-2.4.84-3.38A20.9,20.9,0,0,0,54.74,205.26Z"/><path class="cls-80" d="M53,210.29l-.84,3.38h0c-.56.41-.2,1.33-.9,1.68-2.73-.45-3.86-2.6-4.84-4.76-1.83-4-3.51-8.1-5.26-12.15,1.21.81,3,.66,3.74,2.29.84,1.81,2.38,1.46,3.88,1.1C49,205.54,50.6,208.66,53,210.29Z"/><path class="cls-1" d="M10.62,111l-.3-.24c.11-.06.23-.18.34-.17s.2.15.3.23Z"/><path class="cls-1" d="M1.15,96.54l.4.47-.46-.38Z"/><polygon class="cls-7" points="22.5 142.54 22.15 142.35 22.31 142.19 22.5 142.54"/><path class="cls-81" d="M113.17,194.26a81.36,81.36,0,0,0-12,14.24l-.78.86a26,26,0,0,1-6.3,7.17,6.75,6.75,0,0,1-3,1.36c-3.39,2.43-5.79,6-9.38,8.22-1.63,1-3,2.49-5,2.88a3.12,3.12,0,0,1-2.85.23c-2.11-.86-4.93-1.2-5.12-4.19-.15-2.45,3.23-5.38,6.11-5.69.88.13-.17,3.19,2.12,1.3,3.87-3.2,7-7.18,10.93-10.3a1.85,1.85,0,0,1-1.1.44,1.65,1.65,0,0,1-1-.53c-.18-1.76,1.61-2.84,1.59-4.55a4,4,0,0,1,3.1-2.19l.57,0c1.12,1.35,3.66,2.2,1.46,5,2-3.37,5.79-3.18,8.14-5.53,3.1-3.11,6.7-5.71,10.08-8.55C111.56,193.79,112.28,193,113.17,194.26Z"/><path class="cls-17" d="M93.56,216a50.89,50.89,0,0,1,6.82-6.63c-.45,1.91.53,4.31-2.2,5.25,1.86,1.84,3.64.73,5.23.49.71,1.26-.37,2.06-.33,3,0,1.19-.7,2.18.66,3.63,1.7,1.8-.3,5.45-3.14,6.38a39.42,39.42,0,0,1-6.93,1.63c-3.28.45-6.14,2.64-9.67,2.11-1.17-.18-1.34,1.73-2.94,2A31.29,31.29,0,0,1,75,234a41.21,41.21,0,0,1,8.54-5c2.08-1.49,4.54-1.06,6.85-1.44,1.54-.26,2.75-.29,1.58-2.82A7.09,7.09,0,0,1,93.56,216Z"/><path class="cls-82" d="M200.4,151.82c-.5-1.23-1.85-1.54-2.66-2.43-.69-2.48-1.87-4.28-4.78-4.75-1.23-.19-3-.93-2.75-2.95l.86-.84q.41-.42.84-.81l.82-.06c.29-.27.6-.53.87-.82h0c.27-.28.55-.54.84-.79l.85-.06c2.33-1.05,2.83.82,3.63,2.25,2,3.63,3,4,6.41,1.76a2.58,2.58,0,0,1,3.08-.21c1.67,1,3.52,1.72,5.21,2.75,3.85,2.36,6.45,1.32,7.13-3.25.58-3.9,2.86-7.3,2.93-11.32a3.92,3.92,0,0,1,2.09-3,5.38,5.38,0,0,1,3.36-1.78c-.48,1.22-1.86,2.25-.69,3.81.31.42.74,1.12.33,1.56-2.31,2.45-.74,5.26-.84,7.91,0,.41.21,1-.14,1.15-3.5,1.74-3.05,6.67-6.58,8.21-1.5.66.84,2.4-.95,2.41a3.11,3.11,0,0,0-2.49,1.28c-1.65,2-3.41,2.47-6.21,2.27-2-.13-3.33.14-4.59-1.69-.66-1-2.11-.48-3.22-.55h0a3,3,0,0,1-1.67,1.7,2.65,2.65,0,0,1-.82-.91v0A5.45,5.45,0,0,1,200.4,151.82Z"/><path class="cls-77" d="M201.28,152.65c.27.31.54.61.82.91a4.47,4.47,0,0,1-.82.07Z"/><path class="cls-49" d="M180.9,103.58a5.81,5.81,0,0,1-.85-2.54c2-.39,3.57.57,5.08,1.69-.9-.67,4.11-.58.17-2.06-1.82-.69.42-2,1.11-2.85,3,2.46,3,6.6,6,9.09,1.16,1,1.6,2,3.25,1.22a2.28,2.28,0,0,1,3,.52,14.87,14.87,0,0,0-.76,3.13c-.06,2,1.61,2.91,3.75,2.86,4-.08,8,.3,10.56,4.19-.45.6-1.24,1.22-1.75,1-4.42-2.16-9.83.26-14-3.12a7.1,7.1,0,0,0-5.6-1.24c-4.88.61-4.93.54-5.79-4.49a4,4,0,0,1,.26-1.13c.34-.74.87-1.55-.63-1.59a2,2,0,0,1-.93-.55C183,106.17,181.61,105.13,180.9,103.58Z"/><path class="cls-21" d="M195.31,100.17c-.16.78.28,2.17-.7,2.11s-.1-1,.08-1.55C194.77,100.51,195.08,100.36,195.31,100.17Z"/><path class="cls-83" d="M101.27,40.9l-2.08-1.21c-.81.85.22,2.14-.24,2.37-1.18.59-2.77.22-3.59,1.81-.15.29-.78-.54-1.1-1C92.83,41,93,38.3,91.11,36.66h0C84.57,26,81.92,14.1,80.1,1.93h0q0-.4,0-.81c1.86.1,2.3,1.55,2.47,2.92a23.85,23.85,0,0,0,3.54,9.35,5.16,5.16,0,0,1,.81,2.77,2.86,2.86,0,0,0,.9,2.29c3.38,2.91,5.11,7,7.55,10.58.52.44.31,1.26.85,1.69h0c.58,3.4,3,5.58,5.36,7.69a1.76,1.76,0,0,1,.58,2.47Z"/><path class="cls-83" d="M102.12,40.89l.85.85Z"/><path class="cls-84" d="M225.78,127.28c-.68,2.07-2.23,4-1.15,6.38a1.29,1.29,0,0,1-.46,1.52c-2.26,1.65-1.55,4.36-2.37,6.53-.21.56.17,1.27-.16,2-1.74,3.84-4.71,4.71-8.21,2.12-2-1.51-4.86-1.49-6.38-3.71a8.06,8.06,0,0,0-.82.66c-1,1.09-1.88,3.23-3.39,2.6-1.81-.75-4.42-1.09-4.75-4-.18-1.55-.75-3.07-2.79-3.09a37.4,37.4,0,0,1,6.76-4.2c2.49,2.91,6.38,3,9.57,4.34,2.51,1.09,5.44-.16,7-2.93,1.25-2.18,1.72-4.81,3.71-6.58A5.3,5.3,0,0,1,225.78,127.28Z"/><path class="cls-85" d="M222.37,128.94c-.51,3.22-2.75,5.78-3.43,8.93-.15.73-.66.78-1.26.61a1.91,1.91,0,0,0-2,.34c-2.37,2.74-4.46,1.05-6.35-.52-.6-.5-1-1-1.66-.61-2.61,1.43-3.85.15-4.68-2.19a6.54,6.54,0,0,0-.94-1.39l.87-.87,1.66,0c.29-.28.61-.51.89-.79C211.13,131.34,216.65,129.68,222.37,128.94Z"/><path class="cls-57" d="M190.2,125.6c.35-1,.7-2,1.06-3s-.26-1.09-1-1.15c-.69-1.65.55-2.36,1.54-3.2a2.62,2.62,0,0,1,2-.51c4.63,1.68,9.48,2,14.31,2.55,1.28.14,3.37.25,2.39,2.7l-5.88,4.29c-1.83,3.24-5,3.45-8.21,3.71-1.14-2.39,1.15-2.5,2-3.15C196.39,124.75,192.81,127.2,190.2,125.6Z"/><path class="cls-86" d="M190.21,141.69a9.06,9.06,0,0,0,6.56,2.95c1.34.09,2,.58,1,1.69s2,2.12,0,3.06a95.62,95.62,0,0,0-16.83.66c2.32-1.13,4.1-2.62,3-5.54-.45-1.25.16-1.79,1-2.41a1.7,1.7,0,0,0,.73-2.2c-.45-.9-1.43-.69-2.25-.75,1.72-3.42,4.9-4,8.18-3.82,1.77.09,1.44,1.24.31,2.15h0a5.2,5.2,0,0,0-.86.83c-1.64.86-2.66,2.3-4,3.62C188.46,142.65,189.24,141.5,190.21,141.69Z"/><path class="cls-17" d="M210.52,123a8,8,0,0,0-7.27-2.13,5.69,5.69,0,0,1-4.7-.66,10.11,10.11,0,0,0-6.64-1.41c-2.26-.93-4.52.93-6.78,0-1.74-1.53-1.64-3.8-2-5.76-.25-1.53.86-2.85,2.81-2.71-.15,1.76.75,3.2,1.28,4.88a23.74,23.74,0,0,1,3.39-.83c2.18-.21,4.26-.37,6.26,1.21,2.32,1.83,5,3.09,8.14,1.63.81-.37,2.26-.43,2.74.42,1.17,2.06,2.89,1.08,4.44,1.17h0c1.67,1.11,1.87,2.21,0,3.32Z"/><path class="cls-87" d="M221.66,114.66c2.48-.72,4.88-1.77,7.51-2-1.08,3.09-4.21,4.27-6.15,6.56-.44.52-1.57.77-1.62,1.23-.41,3.54-3.89,3.07-5.82,4.6a1.88,1.88,0,0,1-2.66-.2c-1-.93-.13-1.79.16-2.67.69-1.56.82-3.64,3.31-3.48l3.55-3.23q.38-.06.75-.15C221,115.11,221.33,114.88,221.66,114.66Z"/><path class="cls-88" d="M196.15,130.72c2.81-1.18,5.95-1.54,8.49-3.41,1.41,1.82,2.8-.24,4.21,0-.23.34-.38.83-.7,1-4.55,2.52-9.12,5-13.68,7.49-1.12-.09-2-.51-2.17-1.75A3.72,3.72,0,0,1,196.15,130.72Z"/><path class="cls-89" d="M192.71,134l1.76,1.77a2.7,2.7,0,0,1-2.54,1.7c0-.51,1-1.45-.33-1.46-3.09,0-5.67,1.47-8.16,3.13h0a2,2,0,0,1-2.43,0c.83-1.41,1.67-2.81,2.51-4.22C186.57,134.58,189.38,131.78,192.71,134Z"/><path class="cls-49" d="M216.39,118.73c-1.41.87-2.16,2.37-3.31,3.48-.28,0-.56,0-.84-.06a2.65,2.65,0,0,0,0-3.32l3.39-.85Z"/><path class="cls-88" d="M209.35,126.7c.32-.15.54-.06.58.28,0,.06-.18.2-.3.22a5.18,5.18,0,0,1-.78.09C209,127.1,209.18,126.9,209.35,126.7Z"/><path class="cls-89" d="M191.07,138.31l.86-.83Z"/><path class="cls-84" d="M194.45,138.37l-.84.79Z"/><path class="cls-84" d="M193.6,139.16l-.87.82Z"/><path class="cls-84" d="M191.91,140l-.84.81Z"/><path class="cls-79" d="M51.23,215.36a2,2,0,0,1,.9-1.68c0,.94.17,1.94-.84,2.55Z"/><path class="cls-89" d="M71.63,22.26c-.15,4.77-4,8.13-4.86,12.67-.38,1.9-2.54,2.87-4,4.18-.44.4-1,.66-1.49.23-1.53-1.37-2.67-.91-3.9.48-.71.79-1.6.52-2.64,0A29.72,29.72,0,0,0,47,37.43c-3.61-.55-4.65-3.47-2.66-6.76.13-.21.42-.49.37-.63-1.52-4,1.78-2.2,3.18-2.7-1,1.78.2,2.64,1.53,3.2,1,.4,1.86.64,1.86,1.89h0c3.22,0,6.44,1.84,9.67,0,.52-.29,1.08-.61,1.5-.08,2.07,2.61,2.27.73,3.53-.95C68.19,28.53,68.56,24.56,71.63,22.26Z"/><path class="cls-90" d="M84.34,57a2.6,2.6,0,0,1-.85-2.25c-.14-3-.39-6.07-.46-9.12a55.22,55.22,0,0,0-3-17.13,5.19,5.19,0,0,0-1.64-2.83c-.9-2-1.55-4,0-5.94a10.6,10.6,0,0,1,4.25,8.22c.23,4.15,2.93,7.44,3.89,11.35.06.26.2.62.41.71,3.65,1.69,3.84,5.56,5.41,8.55.57,1.08.67,2.36,2.23,2.78.9.25.71,1.4.74,2.23,0,.2,0,.4,0,.6a4.09,4.09,0,0,1-.47,1.12c-1.24,1.07-1.76,3.48-4.22,2.33-2.4-4.28-3.53-9.07-5.25-13.36C84.88,48.33,86.52,52.8,84.34,57Z"/><path class="cls-91" d="M91.1,57.79c1.54-.74,2.17-2.39,3.38-3.45a3.08,3.08,0,0,0,.82-.75l0,0,.89-.74L97.66,52c1.88-1,2.08,0,1.87,1.54-.47.48-.31,1.25-.78,1.73h0c-.54.43-.38,1.22-.85,1.69h0c-4.25,5.71-9.34,10.82-12.41,17.38-.47,1-1.4,2.17-2.62,1.33-1.71-1.19-1.33-2.89-.33-4.46a4.77,4.77,0,0,1,.06-.76c1.57-1.7,2.38-3.86,3.44-5.86C86.72,61.6,88.18,59.16,91.1,57.79Z"/><path class="cls-42" d="M80.1,1.93c.91,5.33,3.27,10.24,4.31,15.56A66.83,66.83,0,0,0,90,33.19c.54,1.15,1.28,2.14,1.16,3.47-2.32-1.87-3.38-4.46-4.78-7-1.59-2.88-1.83-6.3-4.22-8.88-1.94-2.1-.84-5.34-1.35-8C80.06,9.14,80.23,5.55,80.1,1.93Z"/><path class="cls-28" d="M96.19,30.73A1.73,1.73,0,0,1,95.34,29,1.71,1.71,0,0,1,96.19,30.73Z"/><path class="cls-92" d="M75,219.59c-3.47.52-4,3.72-6.14,6.18,3.12.71,4.6,3.86,7.85,3.22-1.11,1.22-2.58.72-3.91.79-2.42.11-4.73-1.41-7.26-.42-.42.17-.59-.79-.73-1.31,0-1.43,1.24-2.18,1.74-3.33a5.59,5.59,0,0,0,.79-.89l0,0a2.94,2.94,0,0,0,.77-.84l.24-.81c.33-1.94,2-2.83,3.16-4.16.23-.24.48-.46.73-.68a6.16,6.16,0,0,1,.78-.56c.4-.23.83-.43,1.23-.66l.76-.53a5.34,5.34,0,0,1,.8-.54,2.59,2.59,0,0,1,1-.15,1.16,1.16,0,0,1,1,1C77.56,217.63,76.88,219.08,75,219.59Z"/><path class="cls-18" d="M93.56,216c-2.06,2.34-.66,5.29-1.37,7.9-.47,1.72,2.28.57,2.73,2.28-3,3.78-7.51,2.24-11.43,2.77.84-1.65,2.31-2.74,3.58-4a13.18,13.18,0,0,0,4-7.07A3.67,3.67,0,0,1,93.56,216Z"/><path class="cls-20" d="M221.66,114.66l-1,.69Z"/><path class="cls-93" d="M72.5,217.92a15.83,15.83,0,0,1-4.12,4.24c-2.17,0-3.78,2-6,1.68-.29-.28-.56-.57-.86-.83h0l-1.7-2.54c.12-1.91.74-3.78.34-5.72-.24-1.16-.3-2.46.94-2.91,1.48-.54,2.21.67,2.86,1.82.49.85.09,2.47,1.85,2.25,1.43-1.22.44-3,1-4.39.68-1.62.86-3.67,3.22-3.93a3.36,3.36,0,0,1,.93,4.49c1.07-1.54,2.26-1.22,3.42-.17a9.75,9.75,0,0,1,1.73,2.38,1,1,0,0,1-.22,1.09h0c-.31.26-.56.58-.87.84l0,0c-.44.52-1.24.35-1.67.89h0C73,217.36,72.76,217.63,72.5,217.92Z"/><path class="cls-35" d="M61.47,223l.86.83Z"/><path class="cls-93" d="M68.14,223a1,1,0,0,1-.77.84Z"/><path class="cls-93" d="M67.35,223.83l-.79.89Z"/><path class="cls-19" d="M205.48,132.41l-.89.79Z"/><path class="cls-94" d="M66.57,217.1c-2.58.72-2.9.61-3.36-1.62-.25-1.2,0-3.06-1.53-3-1.8.09-.92,2-1,3.11-.12,1.67,0,3.37-.91,4.87l-.86.82a.53.53,0,0,1-.84,0c2.64-3.59,1.21-7.71,1.22-11.56,0-2-.23-4.13-.39-6.2,2,.94,4.13,2.71,6.08,2.57s1.92-3.42,3.44-4.87,2.09-3.67,4.57-4.05c.66-.11,1.35-1,1.75-1.71A12.6,12.6,0,0,1,81,190.19c3.15-1.34,3.37-1.37,5,2.33,0,.17-.07.34-.1.51a4,4,0,0,1-.57.89c-.11.14-.24.26-.35.4a7.76,7.76,0,0,1-.8.72c-1,.75-2.08,1.52-3.15,2.22a6.06,6.06,0,0,1-2.76.78,3.88,3.88,0,0,0-3,1.14c-3.92,3.28-6.57,7.52-8.91,12A5.69,5.69,0,0,0,66.57,217.1Z"/><path class="cls-93" d="M58.07,221.3c.28,0,.56,0,.84,0l-.9.84C58,221.86,58,221.58,58.07,221.3Z"/><path class="cls-39" d="M46.22,46.83v-1.7c3.08-2.68,3.15-2.73,5.2.19a1.64,1.64,0,0,0,2.43.65c3.65-1.58,3.66-1.56,5.82,1.2,3.72-.79,5.53-3.87,7.81-6.41a3.81,3.81,0,0,0,.8-1.87c.59-2.58,1.19-5.14,3.19-7.13a3.14,3.14,0,0,0,.88-2.3c-.43-2.95,1.32-5,2.69-7.21a8.89,8.89,0,0,1,1.68,5.92c0,1.44.81,1.14,1.65.84a6.51,6.51,0,0,1-.82,4.27c-.58.39-1.11,1-1.74,1.15a3.39,3.39,0,0,0-2.77,4c.27,2.48-1.1,3.6-2.76,4.7-.57.38-1.7.32-1.75,1-.25,3.56-3.45,5.42-4.65,8.42-.82,2-2.14,2.78-4.13,1.67-1.79-1-2.4,1.28-3.83.72s-.84-2.84-2.62-3c-2-.19-4.12-.7-6,1C46.24,50.79,48.13,48.45,46.22,46.83Z"/><path class="cls-39" d="M78.39,26.48v.88C77.82,27.07,77.82,26.78,78.39,26.48Z"/><path class="cls-95" d="M58.93,152.71a119.6,119.6,0,0,1-2.54,16.94c-1.61-1.87-2.61-3.93-1.9-6.48a2.75,2.75,0,0,0-.47-2.4c-1.42-1.94-.49-3.38,1-4.64-.52-1.28-1.66-1-2.49-1.31-.54-.17-1.11-.06-1.17-.85-.2-2.55-2.21-4.9-.86-7.63.89-1.81.57-3.15-1.37-4.12s-.68-3.44-1.85-4.92c-1.68-2.13.33-5.22-1.79-7.28,1.89-3.09-.46-6-.26-9.06a38.53,38.53,0,0,0-.54-6.71c-.21-1.94-2.52-1.88-2.35-3.54s.74-3,.75-4.52a6.26,6.26,0,0,0-1.39-3.46,8.33,8.33,0,0,1-.47-9.5c1.77-3.06,2-6.32,1.64-9.73-.09-.83,0-1.69-.05-2.53-.11-1.59,1-2.58,1.82-3.7s2.44.09,3.81-.87c1-.72.74,2.11,2,2.61a3.06,3.06,0,0,1,1.88,2.61c1.22,7.33,3,14.56,3.83,21.95-.57,1.25-1.79,2.23-1.74,3.75.14,4.25-1.9,8.38-1.86,12.24,0,4.85,0,10.53,2,14.73C57.58,140.31,58.2,146.42,58.93,152.71Z"/><path class="cls-96" d="M55.52,104.42c-1.82-8.44-2.9-17-5-25.41-.06-1.46.31-3-.81-4.24-.59-.88-.86-1.73.2-2.46a.84.84,0,0,0,.58-.11c1.87-.07,2.39,1.57,3.36,2.64,0,1.72-.1,3.47.89,5,2.16,4.42,1.83,9.34,2.78,14a28,28,0,0,0,.59,3.74c.36,2.44.67,4.89-.28,7.28a1.54,1.54,0,0,1-1.88.72A.79.79,0,0,1,55.52,104.42Z"/><path class="cls-1" d="M56.36,170.49c-.07,1.19.35,2.49-.81,3.41C55.63,172.72,55.14,171.4,56.36,170.49Z"/><path class="cls-44" d="M49.87,72.31c-.06.82-.13,1.64-.2,2.46C48.51,73.85,48.42,73,49.87,72.31Z"/><path class="cls-1" d="M52.15,166.26c.06-.12.15-.35.19-.34.28.07.21.2-.2.34Z"/><path class="cls-39" d="M35.21,38.36a3.83,3.83,0,0,1,1.23.09c1.63.68,1.47,3.91,4.25,3,.46,2,3.11,2.16,3.45,4.33.13.82,1.21,1,2.08,1.08-1.71,1.26-3.26,1.57-4.31-.78-.29-.67-.64-1.32-1.46-1.24-1.09.1-2.53.86-3.09-.3-.77-1.59-2.29-2.9-2.15-4.89C35.24,39.2,35.21,38.78,35.21,38.36Z"/><path class="cls-39" d="M78.39,40.9h-.83V34.11C79.23,36.21,78,38.65,78.39,40.9Z"/><path class="cls-97" d="M57.11,97.87a104.22,104.22,0,0,1-2.41-18c2.36,0,2.64-2.26,3.79-3.54,1.82-2,2.38-2.15,3.87.21,1.06,1.67,2,1.18,3,.28,1.69-1.47,3.3-3,5-4.52,1.31-1.16,2-.61,2.19.91,1.34,4.75-.39,9.09-1.8,13.46-2.37-.38-1.36-2.08-1.55-3.24.08-.07,0,.27-.24.37a14,14,0,0,0-8.79,10.83A4.91,4.91,0,0,1,57.11,97.87Z"/><path class="cls-98" d="M75,66.27c.72-2.82,2.78-4.27,5.28-5.42,2,3.48,1.31,7.14,1.56,10.67.67,1.44.21,3,.37,4.46a17.45,17.45,0,0,0-7.38,1.39c-1.7-3.22.78-6.23.46-9.38A6.26,6.26,0,0,1,75,66.27Z"/><path class="cls-99" d="M82,76.44c0-1.64-.08-3.28-.11-4.92l.68-.27c.27,1.29-.26,2.75.56,3.86a1.42,1.42,0,0,0,1.64-1.28c.61-3,2.64-5.25,4.43-7.51a58.88,58.88,0,0,0,4.74-6.38c.91-1.54,2.45-2.25,4-2.94l.09.91c.29,3.36-2.76,4.94-4,7.48a29.56,29.56,0,0,1-2.51,3.82c-.2.31-.43.61-.65.91a13.2,13.2,0,0,0-1.09,1.94c-1.54,2.34-2,5.67-5.65,6.06a4,4,0,0,1-1.17-.26A1.61,1.61,0,0,1,82,76.44Z"/><path class="cls-100" d="M70,86.78c1.2-4.46,1.78-9,2.54-13.58l.72-.17.51.52c.66,5.88-.89,11.57-1.36,17.36-.33,4-1.81,7.78-1.65,11.81L68.2,115.43c-.58.54-.2,1.53-1,2a1.24,1.24,0,0,1-1-.4,3.25,3.25,0,0,1-.39-1.78A8.77,8.77,0,0,1,66,114c.48-1.72.22-3.47.27-5.21.73-6.49,2.25-12.87,2.58-19.42A3.24,3.24,0,0,1,70,86.78Z"/><path class="cls-1" d="M80.11,51.05c1.62,1.8,2.46,3.71.86,6C81.32,54.94,80,53.1,80.11,51.05Z"/><path class="cls-100" d="M75,66.27l.9.84c-.16,1,.06,2.28-1.3,2.77l-.51-.22C74.23,68.48,73.92,67.18,75,66.27Z"/><path class="cls-100" d="M73.26,73c.13-1.16-.16-2.43.85-3.37l.15.1c.76,1.39,1.22,2.7-.85,3.38Z"/><path class="cls-58" d="M91.1,57.79,86,64.63c-.77-.38-1.46-.84-1.5-1.83-.06-1.94-.13-3.88-.2-5.81-.21-5.39.55-10.82-.85-16.75a8.61,8.61,0,0,1,3.37,5C88.23,49.47,90.59,53.32,91.1,57.79Z"/><path class="cls-101" d="M70,86.78c.23,6.57-1.18,13-2.19,19.4-.17,1.1-.3,2.2-.44,3.3-1,1.59.19,3.52-.79,5.11a4.63,4.63,0,0,0,0,.83,4.67,4.67,0,0,0-.77,1.75c-4.14,8.56-3.34,18.25-6.21,27.11-.61,1.88.08,3.87.13,5.81V151A9.26,9.26,0,0,0,59,152a3.15,3.15,0,0,1,0,.75c-1.43-1.73-1.37-4-1.52-5.93-.19-2.47-2-4.64-1.14-7.26.22-.64-.4-1.33-.93-1.8-3.23-2.83-3.31-6.55-2.32-10.18.36-1.35.43-2.12-.53-2.82-3.3-2.41-1.78-5.67-.56-7.87a9.89,9.89,0,0,0,1.25-6.69c-.36-2.12.66-3.82.88-5.73.06-.51.95-.15,1.46,0a.77.77,0,0,1,.09.59c.48.82,1,.83,1.57.1l-.06-7.25a24.67,24.67,0,0,0,4.22-10.28c.2-1.32.62-2.11,2.44-2.12,2.22,0,4.1-1.5,6-3.36C69.86,83.84,69.93,85.31,70,86.78Z"/><path class="cls-70" d="M58,193.36l-1.22-1.83c-1,1.33.29,3.32-1.23,4.4v-9.31c1.47-.23,1.65-1.26,1.65-2.49,0-10.7,2.28-21.16,3.52-31.72.38-3.31,2-6.46,1.49-9.93,0-.2,0-.41,0-.61.27-.87.33-2.13,1.65-1.78.81.2.55,1.07.2,1.7-.63,4.83-1.29,9.65-1.88,14.49q-1.71,13.89-3.35,27.79c-.83,1.69.12,3.6-.65,5.29C58.12,190.7,58.07,192,58,193.36Z"/><path class="cls-102" d="M59.68,150.09c-2.59-3.05-1.58-6.44-.46-9.54,1.51-4.17,1.59-8.5,2.17-12.76a24.84,24.84,0,0,1,4.34-11.52,6.3,6.3,0,0,1,.8,3.53c-.85,7.68-1.14,15.46-4.3,22.71v0c-1,1.25-1.15,2.84-1.63,4.29-.78.7-.08,1.86-.81,2.58A2.08,2.08,0,0,1,59.68,150.09Z"/><path class="cls-101" d="M59.79,149.35c0-1-.15-1.94.81-2.58A2.68,2.68,0,0,1,59.79,149.35Z"/><path class="cls-95" d="M59,152l.71-.94Z"/><path class="cls-103" d="M185.9,126.35c-1.17,1.91-2.22,3.92-4.11,5.28-.16-.66-.18-1.57-1.13-1.45A24.4,24.4,0,0,0,177,131c-.39.11-.83.74-1,.65-5.39-2.36-8.84,3.21-13.75,3.33-3.28.08-3.28.78-3.76,4.62a4.75,4.75,0,0,1-.6,1.39c-.84.27-1.17-.26-1.55-.62-1.51-1.42-2.16-.69-2.45,1-.36,2-2.48,4.58-4.29,4.34-1.61-.22-2.32.48-3.23,1.34-4.38,4.1-8.91,8.07-13.09,12.37a8.22,8.22,0,0,1-5.77,2.57,1.6,1.6,0,0,1-.44-.9,2.56,2.56,0,0,1,.23-1,5.07,5.07,0,0,1,.56-.81l.31-.36a12.42,12.42,0,0,0,1.11-1.48,6.65,6.65,0,0,1,.49-.73c.17-.23.36-.44.55-.66a4.15,4.15,0,0,0,.27-.32,8.06,8.06,0,0,0,.64-1.06,3,3,0,0,1,.45-.7,8.11,8.11,0,0,1,.51-.65s.25-.33.24-.33c.13-.25.27-.49.4-.73a4.11,4.11,0,0,1,.43-.73,5.75,5.75,0,0,1,.54-.66c.1-.11.2-.2.29-.31l.58-.63c.08-.11.17-.22.25-.34s.3-.5.44-.75a6.72,6.72,0,0,1,.47-.78,8.06,8.06,0,0,1,.59-.72l.31-.35c.2-.26.41-.5.61-.75s.19-.27.28-.42.36-.58.55-.87a34.8,34.8,0,0,1,2.62-3.3,18.25,18.25,0,0,0,1.35-1.43,2.5,2.5,0,0,1,.71-.62,2.31,2.31,0,0,0,.81-.45c0-.27,0-.55,0-.83,7.86-3.71,13.9-10.15,21.48-14.3,2.06-1.12,3.86-2.61,5.94-.38,1.19,1.29,1.26-.25,1.73-.58,1.78-1.25,4.27-1.74,5.49-.48,2.15,2.2,4.47,2.68,7.22,2.74C185.86,125.33,186,125.9,185.9,126.35Z"/><path class="cls-104" d="M186,110.35c-1.55,1.23-2.65,2.34-1.12,4.57.54.8,0,2.58.27,3.9-1.52.63-3.15,1.82-3.87-.94a1.78,1.78,0,0,0-2.29-1.29c-1.76.64-3-.13-4.25-1-2.11-1.47-4.71-1-7-1.69a7,7,0,0,0-6.2,1c1.79.34,1.1,3.39,3.83,2.09.63-.3,1.2.8.84,1.44-.64,1.14-1.71,2.1-3,1.2s-3-.92-4-2.15a1.38,1.38,0,0,0-2.21,0c-1.25,1.94-3,1.59-4.79,1.44-1.51-2.56-1.53-2.6.71-3.75,1.43-.73,2.44-2,4.39-2.08a2.94,2.94,0,0,0,2.58-2.92c0-.86.84-2.16,1.34-1.78,2.59,2,3.91-.84,5.81-1.27a7.67,7.67,0,0,1,1.27-.06c2.19-.25,4.38,1.37,6.65-.46,1.09-.88,2.59.14,3.51,1.31,0,.28,0,.57,0,.85a.5.5,0,0,0,.84,0l.85-.84c1.41-1.38,2.82-2.2,4.24,0h.84c1.57-.08,1.34.75.85,1.7Z"/><path class="cls-105" d="M93.64,201h-.83c-.27.3-.61.52-.85.84h0c-1.34-1.69-1.43-1.76-.09-3.34a219.15,219.15,0,0,0,14.68-19.62c3.82-5.71,7-11.84,11.52-17.14,5.7-6.65,12.46-12.24,18.22-18.81,1.65-1.88,3.61-3.59,4-6.29,1.41-1.24,2.37-1.24,2.5.93,0,.53,0,1.06,0,1.59.23.2.29.39.19.56s-.18.25-.26.25l0,0a5.93,5.93,0,0,1-.82.84c-12.23,14.26-24.21,28.71-33.55,44.91,1.51-.17,2.5-2.9,4.81-1.81a.67.67,0,0,1,.2.69c-.08.23-.16.34-.23.34h0c-.29.27-.55.58-.82.86h0a8.53,8.53,0,0,0-.84.86h0a6.21,6.21,0,0,0-.84.86h0c-1.26,2-2.3,4.26-5.15,4.36-.39-.06,0-1.49-1.19-.43-3.29,2.9-5.67,6.81-9.79,8.76h0C94.21,200.42,93.91,200.68,93.64,201Z"/><path class="cls-106" d="M140.28,136.63c.82.07,1.46.4.92,1.29a23.81,23.81,0,0,1-3,4.51c-5.05,5.23-10.35,10.23-15.35,15.51a78.52,78.52,0,0,0-12.56,17.22,88.83,88.83,0,0,1-7.48,11.14A124.47,124.47,0,0,1,92,199.74c-.66.67-1,1.39,0,2.09-.28.57-.57,1.13-.85,1.7-3.15.91-1.61-1.74-2.15-2.82.51-3,2.57-5,4.43-7a96.37,96.37,0,0,0,9.26-12.52c.38-.55.81-1.07,1.17-1.64a7.34,7.34,0,0,1,.48-.75c.21-.37.42-.74.61-1.12a3.85,3.85,0,0,1,.37-.73q.28-.53.54-1.08a3.31,3.31,0,0,1,.38-.72,5.39,5.39,0,0,1,.72-1l.38-.16c3.06-3.47,4.94-7.75,7.93-11.31a286.48,286.48,0,0,1,24-25.25,3.28,3.28,0,0,0,1-.75Z"/><path class="cls-107" d="M185.9,126.35c-1.31-1.55-2.57.12-3.85,0-.87,0-1.73.39-2.44-.89-2-3.6-5.3-3.46-7.67.15-3.05-3.16-3-3.12-6.34-.56a14.57,14.57,0,0,1-4.24,2.48c-2.79.93-4.81,3.25-6.89,5.35-1.11,1.12-1.94,2.85-4.11,2.27-.7-.19-1.37.52-1.66,1.1-1.12,2.21-3.09,2.07-5.06,2,0-1.71.12-2.68,2.3-3.61,3.62-1.56,7.78-2.93,9.78-7,.34-.7.53-1.6,1.64-1.66a8.39,8.39,0,0,0,5.13-2.58c2.36-2.13,5.7-2.27,8.37-3.91.89-.56,2.92-1.1,4.28,0,1,.78,1.82.45,2.71,0s1.46-.46,2.32.62c1.41,1.74,3.77,1.18,5.81,1.23l.6.16c.89.61,1.64,1.29,1.19,2.53A2.93,2.93,0,0,1,185.9,126.35Z"/><path class="cls-108" d="M103.83,180.69c-3,6.35-7.89,11.37-12.2,16.8a14.69,14.69,0,0,0-2.32,3.43,2,2,0,0,1-.77,1.26,6.29,6.29,0,0,0-1,1c-.15.25-.31.49-.48.73s-.35.47-.53.69-.18.24-.26.36l-.46.8a5.37,5.37,0,0,1-.53.81,4.74,4.74,0,0,1-1.15,1,1.54,1.54,0,0,1-1.59.11c-.24-5.58,2.68-10,5.5-14.38,2.5-3.85,5.63-7.28,7.61-11.48l.49-.34c2-1.25,4.12-2.28,5.3-4.69a7.54,7.54,0,0,1,4.06-3.35,1.32,1.32,0,0,1,1.76.5l0,0c-.65.39-.45,1.22-.88,1.72l0,0c-.6.42-.45,1.21-.86,1.73l0,0c-.6.41-.44,1.22-.89,1.7v0C104.12,179.4,104.32,180.22,103.83,180.69Z"/><path class="cls-104" d="M144.47,122.21c0-2.59,3.12-1.92,3.65-3.07,1.41-3,2.76.35,4-.32,2.43,4.17-2.08,4.31-3.74,6.39A7.62,7.62,0,0,0,144.47,122.21Z"/><path class="cls-104" d="M185.13,118.82c1.85-.15,3.23-2.1,5.35-1.33a2.33,2.33,0,0,1,1.43,1.33l-1.62,2.66,0,0c-1.43.28-2.88.93-4.29-.09h0A5.81,5.81,0,0,0,185.13,118.82Z"/><path class="cls-21" d="M94.5,182.35a2.55,2.55,0,0,1,1.68-2.54v1.68h0C95.73,182,95.46,182.85,94.5,182.35Z"/><path class="cls-21" d="M97,178.93a1.68,1.68,0,0,1,.88-1.65A1.66,1.66,0,0,1,97,178.93Z"/><path class="cls-105" d="M140.24,136.64l-1,.75Z"/><path class="cls-107" d="M142.7,140a1.85,1.85,0,0,1,.07-.81h.86Z"/><path class="cls-109" d="M90.29,69.72c2-4.33,5.3-7.76,7.7-11.81a2.54,2.54,0,0,1,1.57,2.68,6.2,6.2,0,0,0,.87,3.18c.4,4.85,0,9.78,1.18,14.56.3,1.15-2.09,2-.34,3.22-.12,3.77-.32,7.5.67,11.24a11.6,11.6,0,0,1-.16,6.26c-.3,1-.78,2,.06,2.77,3.49,3,1.5,6,.22,9-.66,1.56-1.54.64-2.39.33a2.55,2.55,0,0,1-1.06-1.45c-1.46-4-.65-8.16.51-11.87a11,11,0,0,0-.77-9.25c-1.84-3.21-3.34-6.2-3-10.13.23-2.56-2-4.51-3.6-6.4C91.12,71.35,90.28,70.83,90.29,69.72Z"/><path class="cls-57" d="M108.32,109.12c-1-.06-1-.67-1-1.21,0-.74.13-1.45,1-1.6.58-.1,1.19.1,1.15.83A2.62,2.62,0,0,1,108.32,109.12Z"/><path class="cls-43" d="M82.74,77.15a2.16,2.16,0,0,1,.75.17c3.63.08,4.67,2.38,6.17,5.45,4.2,8.59,1.09,16.87-.08,25.19-.5,3.49-.76,7.35-3.3,10.31-2.26,3-5.26,5.46-7.48,8.57a2.65,2.65,0,0,1-2.86,1.36,18.27,18.27,0,0,0-.69-5,5.55,5.55,0,0,1,0-3.73c2.4-6.55,3.15-13.52,5.11-20.2,1.59-5.4,2.83-11.09,2.28-16.9C81.55,80.64,80.53,78.86,82.74,77.15Z"/><path class="cls-110" d="M99.57,109.57c0,.54.07,1.08.1,1.62.3,3.19-2,5.55-2.69,8.42l0,0a5.83,5.83,0,0,1-.86.86h0a6.42,6.42,0,0,1-.86.87c-4,3.81-6.47,8.78-9.56,13.28C82.25,139.71,79,145,74.1,148.93c-2,1.56-3.89,3.33-6.73,2.95-2.77-2.28-2.31-4.92-.84-7.67,6.84.53,8.52-5.31,11.54-9.43,5.09-7,11.09-13.09,17-19.29,1.2-1.24,3.11-2.31,1.9-4.6a1.72,1.72,0,0,1-.09-1.18A1.61,1.61,0,0,1,99.57,109.57Z"/><path class="cls-111" d="M97.85,110.4c1.48,1.21,1,2.51,0,3.68s-2,2-3,3c-6,6.17-12.22,12.13-16.76,19.44-2.4,3.86-5.7,6.83-8.35,10.53-1.35-.72-.27-2.19-1-3-.69-.19-.92.32-1.24.77s.12,1.33-.75.9c-.28-.13-.18-1-.26-1.58A16.24,16.24,0,0,1,69.8,138c2.86-1.53,4.22-4.49,6-6.91C81.84,122.78,90,116.81,97.85,110.4Z"/><path class="cls-6" d="M82.74,77.15c-.75,1.74-.12,3.51-.11,5.26-1-.48-1.9-.67-2.36.65s-1,2.91-1.42,4.38c-.51,1.8-1.15,3.49-3,4.28-2.22,1-1.35,4-3.44,5-1.26-2-.39-4-.2-6,.29-3.18,1.27-6.26,1.17-9.48,0-1.57.15-3.09,1.81-3.9.1-.1.24-.19.28-.3.53-1.72,1.73-2.52,3.4-3.17,2.9-1.12,1.57,2.37,3.12,2.57Z"/><path class="cls-112" d="M97.85,110.4c-1.2,3.43-4.34,5.23-7,7-5.55,3.8-9.64,8.79-13.77,13.89a81.3,81.3,0,0,0-7,9.07c-.14-1-.23-1.66-.33-2.34a.62.62,0,0,1,.28-.6,6.79,6.79,0,0,0,.61-1l0,.06a5.68,5.68,0,0,0,1.68-2.62l0,.05c.78-.27.53-1.18,1-1.63l.85-1.69c.73-.72,1-1.75,1.78-2.45h0q4.65-5,9.31-10c3.15-2.43,4.78-6.64,9.08-7.72A12.92,12.92,0,0,1,96,110a1.34,1.34,0,0,1,1,.27Z"/><path class="cls-113" d="M75.16,77.34a186,186,0,0,0-2.78,19.38l0,0c-.79,1,.07,2.42-.73,3.45-.3.84-.61,1.68-.91,2.53-1.1-.82-.93-2-.78-3.09.71-5.1,1.57-10.17,2.25-15.27.49-3.73.79-7.48,1.18-11.22,1.06-.93.67-2.23.85-3.39,1-.62.53-2.12,1.66-2.64,1.51,2.13-.26,4.14-.32,6.22C75.57,74.63,75,76,75.16,77.34Z"/><path class="cls-18" d="M62.23,142.51c.66-3.87,1.35-7.72,2-11.59s1.06-7.49,1.59-11.24a.69.69,0,0,1,.89-.21c.42.56.14,1.38.71,1.88l-.06.88c-.74,1.11,0,2.47-.63,3.61a32.34,32.34,0,0,1-1.76,11.74.45.45,0,0,0-.66-.26c.27.56.06,1.26.49,1.78a3,3,0,0,1-.69,2.69c-.15-.36-.31-.72-.46-1.07-.19.31-.34.64-.55.93A11,11,0,0,1,62.23,142.51Z"/><path class="cls-60" d="M58.18,189.36c.08-1.78-.75-3.67.65-5.29C58.72,185.85,59.28,187.71,58.18,189.36Z"/><path class="cls-114" d="M67.37,121.35a1.74,1.74,0,0,1-.84-1.69,1.91,1.91,0,0,1,.11-2.52h.71a.71.71,0,0,1,.34.65c0,.25-.08.38-.15.38C67.48,119.22,67.43,120.29,67.37,121.35Z"/><path class="cls-6" d="M71.67,100.19c0-1.21-.31-2.47.73-3.45C72.47,98,72.84,99.24,71.67,100.19Z"/><path class="cls-48" d="M66.68,125.84c0-1.25-.52-2.58.63-3.61C67.37,123.48,67.68,124.77,66.68,125.84Z"/><path class="cls-43" d="M75.93,128.2a3,3,0,0,1-1.78,2.45A2.36,2.36,0,0,1,75.93,128.2Z"/><path class="cls-111" d="M72.32,133.92a2.1,2.1,0,0,1-1.68,2.62A3.94,3.94,0,0,1,72.32,133.92Z"/><path class="cls-70" d="M64.75,139.1a1.76,1.76,0,0,1-.71-1.72c0-.32-.05-.85.43-.77.2,0,.31.63.45,1C64.87,138.08,64.81,138.59,64.75,139.1Z"/><path class="cls-48" d="M67.54,118.16c-.06-.35-.12-.69-.19-1a1.9,1.9,0,0,1,.85-1.7C68.22,116.4,68.42,117.41,67.54,118.16Z"/><path class="cls-111" d="M73.3,132.34c0,.76-.14,1.43-1,1.63A1.65,1.65,0,0,1,73.3,132.34Z"/><path class="cls-111" d="M70.69,136.48a1,1,0,0,1-.61,1A.85.85,0,0,1,70.69,136.48Z"/><path class="cls-99" d="M98.75,55.31a1.75,1.75,0,0,1,.78-1.73A1.63,1.63,0,0,1,98.75,55.31Z"/><path class="cls-99" d="M97.9,57a1.63,1.63,0,0,1,.85-1.69A1.68,1.68,0,0,1,97.9,57Z"/><path class="cls-57" d="M96.15,120.49c.29-.29.57-.58.86-.86C96.72,119.91,96.44,120.2,96.15,120.49Z"/><path class="cls-57" d="M95.3,121.35l.86-.87Z"/><path class="cls-17" d="M178.35,107.81c-1.85-.45-3.53-1.08-5.46.41-1.62,1.25-3.45.39-4.7-1.26,1.42-2.92,1.59-3.09,3.44-1.36,1.15,1.08,1.47.63,2.15-.25,1.08-1.42,2.32-.34,3.4,0S179.09,106.46,178.35,107.81Z"/><path class="cls-17" d="M184.29,107.81c-1.42-1.18-2.83-.13-4.24,0-.27-1.53-.91-3.12.85-4.24C183,104.21,184.32,105.47,184.29,107.81Z"/><path class="cls-17" d="M179.2,108.66q-.42.87-.84,0Z"/><path class="cls-53" d="M94.5,182.35l1.68-.86a13,13,0,0,1-3,6.31c-2.25,2.81-4.17,5.89-6.21,8.87-.24.35-.31.82-.59,1.11-1.31,1.35,0,3.78-1.09,4.49-1.53,1-1.44,2.56-2.41,3.65-.45.51-.09,1.34.6,1.78l.32.37c0,.16,0,.33,0,.49s-.13.31-.19.46a5.77,5.77,0,0,1-.59.81c-.11.12-.23.24-.34.37a8.38,8.38,0,0,1-.74.72,13.51,13.51,0,0,1-1.27,1c-1.44.78-2.42,2.52-4.42,2.12a1.4,1.4,0,0,1-.57-2.15c4.25-4.22,3.88-10,5.25-15.18.7-1.44,2.23-1.75,3.43-2.52.29-.26.58-.53.85-.82h0c.28-.28.59-.53.85-.84a15.94,15.94,0,0,0,6.79-7.6c.61-.82,1.07-1.74,1.67-2.57Z"/><path class="cls-21" d="M94.49,182.35a2.7,2.7,0,0,1-1.67,2.57A2.52,2.52,0,0,1,94.49,182.35Z"/><path class="cls-94" d="M58.9,203.54c-1-.64-.81-1.62-.78-2.56C59.07,201.62,58.91,202.61,58.9,203.54Z"/><path class="cls-70" d="M58,196.84l-.75-.94Z"/><path class="cls-115" d="M127.6,160.37l-.12,1.61h0c-.58.84-1,1.76-1.67,2.58-2,2.61-3.37,5.66-5.1,8.46a90.2,90.2,0,0,0-6.74,11l-.47-.34c-1.12-.29-3.08-.23-1.89-2.13,4.29-6.91,7.89-14.29,13.37-20.43A2,2,0,0,1,127.6,160.37Z"/><path class="cls-116" d="M141.9,167.91c-2.49,3.8-6.21,6.3-9.65,9.1-1.57,1.28-3.14.58-4.73.25C132.76,174.84,136.65,170.32,141.9,167.91Z"/><path class="cls-117" d="M105.5,191.66c2.07-1,3-3.28,5.13-4.21a1.57,1.57,0,0,0,1.62.78c-2,2-4.42,3.5-5.91,6-2.25,2-5.12,3.24-6.78,5.9-2.45-.42-1.15-1.91-.52-2.64C100.92,195.24,102.63,192.77,105.5,191.66Z"/><path class="cls-118" d="M150.32,161.1l-.76.93-5.08,3.39C144.9,162.14,146.77,160.76,150.32,161.1Z"/><path class="cls-8" d="M166.5,145.94l.87-.85Z"/><path class="cls-8" d="M165.65,146.77l.86-.84Z"/><path class="cls-8" d="M163.11,147.62l.9-.82Z"/><path class="cls-8" d="M160.57,148.48l.88-.84Z"/><path class="cls-8" d="M159.73,149.33l.85-.85Z"/><path class="cls-8" d="M158.87,150.16l.87-.83Z"/><path class="cls-8" d="M156.34,151l.89-.84Z"/><path class="cls-8" d="M155.48,151.85l.87-.83Z"/><path class="cls-116" d="M142.78,167.1l-.88.82Z"/><path class="cls-115" d="M113.13,184.89a7.85,7.85,0,0,1,0-.84.48.48,0,0,1,.83,0l0,0Z"/><path class="cls-117" d="M117.37,184.05l-.88.82Z"/><path class="cls-117" d="M112.29,185.74l.82-.86Z"/><path class="cls-117" d="M111.45,186.6l.84-.86Z"/><path class="cls-117" d="M114.85,185.81l-.83.8A1,1,0,0,1,114.85,185.81Z"/><path class="cls-117" d="M110.61,187.46l.84-.86Z"/><path class="cls-117" d="M114,186.62l-.86.81Z"/><path class="cls-117" d="M113.13,187.43l-.88.81Z"/><path class="cls-106" d="M105.5,191.66c-1.51,2.36-3.82,4-5.63,6.08-.6.7-1.6,1.38-.31,2.35-1.61,2.44-1.91,2.47-3.66.69a4.4,4.4,0,0,0-1.4-.64c3.21-4,7-7.35,10.73-10.84C106.3,190.12,105.26,190.93,105.5,191.66Z"/><path class="cls-106" d="M93.64,201l.86-.84Z"/><path class="cls-106" d="M92,201.83l.85-.84Z"/><path class="cls-4" d="M136,198.41c.92-1.16,2.24-.72,3.41-.85C138.5,198.87,137.16,198.34,136,198.41Z"/><path class="cls-103" d="M125.83,164.56A2.8,2.8,0,0,1,127.5,162,2.46,2.46,0,0,1,125.83,164.56Z"/><path class="cls-119" d="M192.71,134a15.29,15.29,0,0,0-6.57,1.27c-.95.37-1.86.75-2.63-.31v0a11.18,11.18,0,0,0,.74-.93q3-4.22,6-8.42c.83,0,1.84.23,2.45-.15,1.94-1.21,3.52-1.49,4.77.84.12.21.51.48.66.42.91-.38,2.07-1.58,2.43.36.3,1.63-1.54,1.12-2.32,1.7s-1.67,1-2,1.95C195,131.83,193.44,132.47,192.71,134Z"/><path class="cls-57" d="M186,121.36c1.43-.15,2.89-1.2,4.29.09a7.61,7.61,0,0,1-2.51,2.6Z"/><path class="cls-86" d="M181,139.19l2.43,0c-.65,1-1.66.83-2.63.79A2.45,2.45,0,0,1,181,139.19Z"/><path class="cls-89" d="M184.24,134a1.13,1.13,0,0,1-.75.93Z"/><path class="cls-77" d="M200.4,151.82l.88.85Z"/><path class="cls-120" d="M75,219.59l2.64-4.17c.21-1.64,1.58-2.4,2.6-3.42l.84-.61.37-.35a7.77,7.77,0,0,0,.65-.75,6.59,6.59,0,0,1,.49-.86l.14,0a3.94,3.94,0,0,1,.76-.82l0,0a2.66,2.66,0,0,0,.4-.74,1.46,1.46,0,0,1,.6-.58c.37-.22.75-.4,1.12-.63a5.05,5.05,0,0,1,.77-.39,3.67,3.67,0,0,1,.85-.22h.44c.94.65.67,1.31.07,2s-1.17,1.47-1.76,2.21c-.16.15-.31.3-.46.46.16-.14.31-.3.46-.46,1.91.21,2.54-2.07,4.3-2.28-2.39,4.24-11.85,13-16.74,15.39C73.47,221.79,75.34,221,75,219.59Z"/><path class="cls-66" d="M84.91,206.11a1.06,1.06,0,0,0,.34-.68,3.21,3.21,0,0,1,.77-1.05h0a3.75,3.75,0,0,0,.68-.81.9.9,0,0,0,.25-.62,1.82,1.82,0,0,1,.89-1.07l1.46-1a1.12,1.12,0,0,1,.71,1.35c-.27,1,.29,1.22,1.09,1.26l-3.39,2.53h0c-.46.48-1.25.32-1.69.85h0a.77.77,0,0,1-.94.15.86.86,0,0,1-.26-.61C84.84,206.22,84.87,206.11,84.91,206.11Z"/><path class="cls-15" d="M203.77,151.86c-.12-.07-.35-.15-.34-.19.06-.29.19-.22.33.19Z"/><path class="cls-17" d="M186,109.51a1.77,1.77,0,0,0-.85-1.7c.73-.9,1.69-1.19,2.26-.09S187.08,109.39,186,109.51Z"/><path class="cls-17" d="M185.13,102.73a3.8,3.8,0,0,1,.68.4c.5.43,1.06.9.54,1.64a.8.8,0,0,1-.69.19,1,1,0,0,1-.82-1.49c.09-.25.19-.49.29-.74Z"/><path class="cls-23" d="M51.3,32.43c-.33.53-.72.88-1.33.36a.4.4,0,0,1-.11-.38c.48-.77,1,0,1.44,0Z"/><path class="cls-48" d="M46,34.76c.07.43-.1.8-.62.79-.35,0-.43-.31-.29-.65s.21-.52.31-.78Z"/><polygon class="cls-48" points="45.37 34.12 45.02 33.92 45.18 33.77 45.37 34.12"/><path class="cls-24" d="M95.3,53.59l-.82.75Z"/><path class="cls-121" d="M81,212a11.15,11.15,0,0,1-3.34,3.43l-1.79,0c0-.26,0-.53.08-.8a1.27,1.27,0,0,1,.82-.85c1.5-.68,2.28-2.44,4-2.72l.44.14A1,1,0,0,1,81,212Z"/><path class="cls-121" d="M73.34,217.09A1.77,1.77,0,0,1,75,216.2,1.7,1.7,0,0,1,73.34,217.09Z"/><path class="cls-121" d="M75,216.22l.87-.84Z"/><path class="cls-121" d="M72.5,217.92l.83-.83Z"/><path class="cls-59" d="M76.76,213.73l-.82.85a2.2,2.2,0,0,1-1.86-1.4c-.5-1-1.08-2.6-2.62-.61-.67.86-.68-.37-.64-.66.16-1.46-.79-2.67-.86-4.07.16-2.75,2.3-4.26,3.82-6.15.37-.32.77-.62,1.11-1l.55-.72a7.45,7.45,0,0,1,.57-.67c.1-.11.21-.21.31-.31a7,7,0,0,1,.62-.6c.1-.1.21-.19.32-.28a3.24,3.24,0,0,1,.71-.47l.43-.08,2.5-.89c.3.76.89,1.44.57,2.36a4.18,4.18,0,0,0-.46,1.58c.46,4.61-1.58,8.17-4.6,11.36C75.82,212.62,76.08,213.27,76.76,213.73Z"/><path class="cls-122" d="M75,201.79c-2.11,1.66-3.23,4.14-5.05,6.05s-3.31,4-2.06,7c.46,1.08-.4,1.77-1.33,2.24-1.88-.36-2.66-1.62-2.11-3.33.71-2.21,1.23-4.45,2.78-6.43,2.56-3.26,4.55-7,8-9.53,1.07-.79,2-1.64,3.19-.22h0a8.33,8.33,0,0,0-.84.84h0c-.28.28-.57.56-.84.85h0a7,7,0,0,0-.82.9,5.33,5.33,0,0,1-.1.79A6,6,0,0,1,75,201.79Z"/><path class="cls-60" d="M86,192.52l-.85.84Z"/><path class="cls-60" d="M85.18,193.36l-.85.82Z"/><path class="cls-95" d="M57.18,105.11c-.59,1.12-1.11,1.07-1.57-.1Z"/><path class="cls-123" d="M95.08,111.08c-1.84.34-3.11,1.58-4.45,2.76-1.73,1.52-3.14,3.45-5.38,4.33,2.23-2.65,2-6.11,3-9.16,1.66-5.1,1.19-10.6,2.72-15.74.52-1.75-.63-3.29-.68-5-.09-2.78-2.37-4.76-2.44-7.67-.06-2.18-2.83-2.29-4.38-3.33,1.58.22,2.49-.67,3.25-1.9s1.75-2.7,2.63-4c.56-.42.4-1.22.91-1.66h0c.5,1.71,3.31.62,3.43,2.88.1,1.73,1.74,2.49,2.66,3.7a2.7,2.7,0,0,1,.24,2.78c-1,3,.37,5.18,1.92,7.76,2,3.26,4.46,7,1.33,11.16-.25.33-.61.84-.51,1.13,1.19,3.47-1.79,7,.22,10.44-1-.09-1.91-.16-2.6.71a3,3,0,0,0-.79.18A2.8,2.8,0,0,1,95.08,111.08Z"/><path class="cls-109" d="M90.28,69.72a1.66,1.66,0,0,1-.91,1.66A1.79,1.79,0,0,1,90.28,69.72Z"/><path class="cls-48" d="M66.58,114.59c.08-1.73-.57-3.57.79-5.11C67.21,111.2,68,113.07,66.58,114.59Z"/><path class="cls-48" d="M66.64,117.14c0,.84-.08,1.68-.11,2.52l-.76,0c0-1.13,0-2.27,0-3.41l.8-.85C66.57,116,66.6,116.56,66.64,117.14Z"/><path class="cls-117" d="M114,184l-.83,0c-1.45,0-2.26,1-3.15,1.9s-2.1,1.91-3.69,1.19a2.07,2.07,0,0,1,.64-2.28c5.93-7,10.28-15,15.41-22.55a10.79,10.79,0,0,1,1.48-2c6.57-5.95,11.58-13.27,17.42-19.85A2.6,2.6,0,0,1,142,140a1.12,1.12,0,0,1-.07,1.66l-3.43,4.26c-.24.29-.5.57-.76.84h0a5.74,5.74,0,0,0-.83.88l0,0a2.44,2.44,0,0,0-.83,1,2.23,2.23,0,0,1-.17.72,6.46,6.46,0,0,1-.74.83h0a6.87,6.87,0,0,0-.82.89v0a2.56,2.56,0,0,0-.82,1,1.71,1.71,0,0,1-.13.7c-.25.28-.51.57-.77.84h0a4.12,4.12,0,0,0-.83.89l0,0c-.59.39-.4,1.21-.93,1.63l0,0c-.24.31-.55.57-.78.89h0c-.7.75-1.11,1.71-1.73,2.52h0a4.39,4.39,0,0,0-.82.9h0a18.11,18.11,0,0,0-6,6.71c-3,5.27-6.36,10.36-9.55,15.5C112.52,183.33,114.23,182.32,114,184Z"/><path class="cls-115" d="M128.38,159.48a2.46,2.46,0,0,1,1.73-2.52A2.8,2.8,0,0,1,128.38,159.48Z"/><path class="cls-107" d="M141.89,141.68c0-.55.05-1.11.07-1.66a3.86,3.86,0,0,1,.76-.1A1.61,1.61,0,0,1,141.89,141.68Z"/><path class="cls-115" d="M130.9,156.05a1.63,1.63,0,0,1,.93-1.63A1.8,1.8,0,0,1,130.9,156.05Z"/><path class="cls-115" d="M137.7,146.78l.76-.84Z"/><path class="cls-115" d="M136.87,147.66l.83-.88Z"/><path class="cls-115" d="M136.06,148.61a1.22,1.22,0,0,1,.83-1Z"/><path class="cls-115" d="M135.15,150.16l.75-.83Z"/><path class="cls-115" d="M134.33,151.05l.82-.89Z"/><path class="cls-115" d="M133.52,152a1.23,1.23,0,0,1,.82-1Z"/><path class="cls-115" d="M132.62,153.56l.77-.84Z"/><path class="cls-115" d="M131.8,154.45c.27-.3.55-.59.83-.89C132.35,153.86,132.07,154.15,131.8,154.45Z"/><path class="cls-115" d="M130.09,157l.79-.89Z"/><path class="cls-115" d="M127.56,160.38l.82-.9Z"/><path class="cls-17" d="M184.29,108.71c.1.86-.52,1-.91,1.31s-.9.93-1.33.35-.11-1.33.67-1.55A6.8,6.8,0,0,1,184.29,108.71Z"/><path class="cls-53" d="M106.4,175.63a1.56,1.56,0,0,1,.88-1.72A1.84,1.84,0,0,1,106.4,175.63Z"/><path class="cls-53" d="M105.56,177.33a1.57,1.57,0,0,1,.86-1.73A1.9,1.9,0,0,1,105.56,177.33Z"/><path class="cls-53" d="M104.69,179a1.58,1.58,0,0,1,.89-1.7A1.85,1.85,0,0,1,104.69,179Z"/><path class="cls-53" d="M103.83,180.69a1.66,1.66,0,0,1,.87-1.72A2,2,0,0,1,103.83,180.69Z"/><path class="cls-53" d="M87.85,201.87c-.29.36-.59.71-.89,1.07A1.22,1.22,0,0,1,87.85,201.87Z"/><path class="cls-53" d="M86.71,203.56l-.68.81Z"/><path class="cls-53" d="M86,204.38l-.77,1.05A1.24,1.24,0,0,1,86,204.38Z"/><path class="cls-53" d="M84.91,206.11a3.66,3.66,0,0,1,0,.66l-.33.44-.39-.38Z"/><path class="cls-53" d="M83.44,207.7l.79-.87.09.07c.29.19.38.38.28.57s-.19.28-.29.28h0a.53.53,0,0,1-.75.1Z"/><path class="cls-111" d="M95.08,111.08l1.1-.62A1.22,1.22,0,0,1,95.08,111.08Z"/><path class="cls-81" d="M83.57,207.84c.25,0,.5-.08.75-.1l-.78.88Q83.54,208.23,83.57,207.84Z"/><path class="cls-81" d="M83.5,208.66l-.76.82A1,1,0,0,1,83.5,208.66Z"/><path class="cls-121" d="M82.6,209.43a4.58,4.58,0,0,1,0,.83l-.53.41-.45-.51Z"/><path class="cls-121" d="M80.81,211c.28-.28.56-.56.83-.85l.27.26a.46.46,0,0,1-.1.73h0l-.33.23-.39-.11Z"/><path class="cls-81" d="M86,206.92a1.71,1.71,0,0,1,1.69-.85A1.75,1.75,0,0,1,86,206.92Z"/><path class="cls-81" d="M84.31,207.75c0-.29,0-.57,0-.85l.63-.13,1.08.15A1.72,1.72,0,0,1,84.31,207.75Z"/><path class="cls-81" d="M81.81,211.15a3,3,0,0,1,.1-.73,4.29,4.29,0,0,1,.71-.16Z"/><path class="cls-81" d="M85.18,211.15l.85-.85h0l-.85.85Z"/><path class="cls-81" d="M81.08,211.28a2.85,2.85,0,0,1,.72-.12L81,212A2.17,2.17,0,0,1,81.08,211.28Z"/><path class="cls-81" d="M85.18,211.15c-.06.12-.15.34-.19.34-.28-.07-.21-.2.19-.34Z"/><path class="cls-94" d="M77.56,198.44l.84-.84Z"/><path class="cls-94" d="M76.71,199.29l.84-.85Z"/><path class="cls-94" d="M75.89,200.19l.82-.9Z"/><path class="cls-94" d="M75,201.79l.78-.81Z"/></g></g></svg>